<?xml version="1.0" encoding="utf-8"?>
<!-- Generator: Adobe Illustrator 26.0.3, SVG Export Plug-In . SVG Version: 6.00 Build 0)  -->
<svg version="1.1" id="Livello_1" xmlns="http://www.w3.org/2000/svg" xmlns:xlink="http://www.w3.org/1999/xlink" x="0px" y="0px"
	 viewBox="0 0 141.73 141.73" style="enable-background:new 0 0 141.73 141.73;" xml:space="preserve">
<style type="text/css">
	.st0{fill:url(#SVGID_1_);}
	.st1{fill:url(#SVGID_00000150066184072495513250000003389881282368608431_);}
	.st2{fill:url(#SVGID_00000013160533949029364490000012307201589872949667_);}
	.st3{fill:url(#SVGID_00000037665772703353631540000013336595375939124900_);}
	.st4{fill:#525252;}
	.st5{fill:url(#SVGID_00000065053993059673773560000000524982916490316426_);}
	.st6{fill:url(#SVGID_00000001632063108927883070000001875169075528176039_);}
	.st7{fill:#9FA9AA;}
	.st8{fill:url(#SVGID_00000050655763182720509600000007970793405140902555_);}
	.st9{fill:#BFC1C1;}
	.st10{fill:#7E8F91;}
</style>
<g>
	<g>
		<g>
			<linearGradient id="SVGID_1_" gradientUnits="userSpaceOnUse" x1="3.5758" y1="48.1549" x2="138.1565" y2="48.1549">
				<stop  offset="0" style="stop-color:#DD1C1D"/>
				<stop  offset="0.4979" style="stop-color:#E94C4D"/>
				<stop  offset="1" style="stop-color:#DB0D15"/>
			</linearGradient>
			<path class="st0" d="M70.87,0.04C33.7,0.04,3.58,30.17,3.58,67.34c0,10.36,2.34,20.17,6.52,28.93c1.22-0.79,2.46-1.55,3.72-2.29
				c5.48-3.23,11.27-6.01,17.3-8.28c0.16,0.55,0.35,1.09,0.54,1.62c1.21-0.86,2.46-1.69,3.73-2.47c-0.06-0.2-0.11-0.41-0.16-0.61
				c-0.78-2.97-1.19-6.1-1.19-9.31C34.04,54.53,50.57,38,70.97,38s36.93,16.53,36.93,36.92c0,3.24-0.42,6.39-1.21,9.38
				c-0.05,0.18-0.09,0.37-0.15,0.55c1.27,0.78,2.52,1.61,3.73,2.47c0.18-0.51,0.36-1.03,0.52-1.56c5.97,2.26,11.69,5.01,17.12,8.21
				c1.25,0.73,2.49,1.5,3.71,2.28c4.19-8.76,6.53-18.57,6.53-28.93C138.16,30.17,108.03,0.04,70.87,0.04z"/>
			
				<linearGradient id="SVGID_00000036951629890527214550000012961360071575727275_" gradientUnits="userSpaceOnUse" x1="7.9992" y1="49.3185" x2="133.7397" y2="49.3185">
				<stop  offset="0" style="stop-color:#971005"/>
				<stop  offset="0.5014" style="stop-color:#DB0D15"/>
				<stop  offset="1" style="stop-color:#881001"/>
			</linearGradient>
			<path style="fill:url(#SVGID_00000036951629890527214550000012961360071575727275_);" d="M133.74,67.53
				c0,9.45-2.08,18.41-5.82,26.45c-5.43-3.2-11.15-5.95-17.12-8.21c-0.16,0.53-0.34,1.04-0.52,1.56c-1.21-0.86-2.46-1.69-3.73-2.47
				c0.05-0.18,0.1-0.36,0.15-0.55c0.79-2.99,1.21-6.14,1.21-9.38C107.9,54.53,91.36,38,70.97,38S34.04,54.53,34.04,74.92
				c0,3.22,0.41,6.34,1.19,9.31c0.05,0.2,0.1,0.41,0.16,0.61c-1.27,0.78-2.52,1.61-3.73,2.47c-0.19-0.53-0.38-1.07-0.54-1.62
				c-6.03,2.27-11.82,5.05-17.3,8.28C10.08,85.94,8,76.98,8,67.53C8,32.8,36.14,4.66,70.87,4.66
				C105.59,4.66,133.74,32.8,133.74,67.53z"/>
			
				<linearGradient id="SVGID_00000130628374048934505880000014962861584520541348_" gradientUnits="userSpaceOnUse" x1="29.1998" y1="59.365" x2="112.7368" y2="59.365">
				<stop  offset="0" style="stop-color:#BFC1C1"/>
				<stop  offset="0.2676" style="stop-color:#868786"/>
				<stop  offset="0.5004" style="stop-color:#5F6161"/>
				<stop  offset="0.6478" style="stop-color:#737373"/>
				<stop  offset="0.9487" style="stop-color:#A8A9A9"/>
				<stop  offset="1" style="stop-color:#B4B5B4"/>
			</linearGradient>
			<path style="fill:url(#SVGID_00000130628374048934505880000014962861584520541348_);" d="M70.97,31.41
				c-23.07,0-41.77,18.7-41.77,41.76c0,4.37,0.67,8.58,1.92,12.53c0.16,0.55,0.35,1.09,0.54,1.62c1.21-0.86,2.46-1.69,3.73-2.47
				c-0.06-0.2-0.11-0.41-0.16-0.61c-0.78-2.97-1.19-6.1-1.19-9.31C34.04,54.53,50.57,38,70.97,38s36.93,16.53,36.93,36.92
				c0,3.24-0.42,6.39-1.21,9.38c-0.05,0.18-0.09,0.37-0.15,0.55c1.27,0.78,2.52,1.61,3.73,2.47c0.18-0.51,0.36-1.03,0.52-1.56
				c1.26-3.97,1.94-8.21,1.94-12.6C112.74,50.1,94.03,31.41,70.97,31.41z"/>
			
				<linearGradient id="SVGID_00000162347433038262447770000005712957268180840381_" gradientUnits="userSpaceOnUse" x1="71.1052" y1="42.2812" x2="71.1052" y2="28.8644">
				<stop  offset="0" style="stop-color:#BFC1C1"/>
				<stop  offset="0.0402" style="stop-color:#BDBEBE"/>
				<stop  offset="0.0547" style="stop-color:#B4B5B5"/>
				<stop  offset="0.065" style="stop-color:#A5A7A6"/>
				<stop  offset="0.0734" style="stop-color:#929392"/>
				<stop  offset="0.0804" style="stop-color:#7A7B7B"/>
				<stop  offset="0.0867" style="stop-color:#5F6161"/>
				<stop  offset="0.1215" style="stop-color:#626363"/>
				<stop  offset="0.1407" style="stop-color:#696A6A"/>
				<stop  offset="0.1561" style="stop-color:#767776"/>
				<stop  offset="0.1695" style="stop-color:#8A8B8A"/>
				<stop  offset="0.1815" style="stop-color:#A4A6A5"/>
				<stop  offset="0.1865" style="stop-color:#B4B5B4"/>
				<stop  offset="0.3251" style="stop-color:#AEAFAE"/>
				<stop  offset="0.4953" style="stop-color:#9E9E9E"/>
				<stop  offset="0.682" style="stop-color:#868685"/>
				<stop  offset="0.8793" style="stop-color:#676666"/>
				<stop  offset="1" style="stop-color:#525252"/>
			</linearGradient>
			<path style="fill:url(#SVGID_00000162347433038262447770000005712957268180840381_);" d="M71.12,28.86L71.12,28.86
				c0,0-0.01,0-0.02,0s-0.02,0-0.02,0v0c-0.34,0-4.95,0.03-4.89,1.39c0.08,1.71,0.98-0.31,0.98,2.16s0.45,7.39,0.45,7.39
				s0.87,0.49,0.8,1.39c-0.07,0.85,2.35,1.06,2.66,1.08v0c0,0,0.01,0,0.02,0c0.01,0,0.02,0,0.02,0v0c0.31-0.02,2.72-0.23,2.66-1.08
				c-0.07-0.91,0.8-1.39,0.8-1.39s0.45-4.91,0.45-7.39s0.89-0.46,0.98-2.16C76.08,28.89,71.46,28.86,71.12,28.86z"/>
			<path class="st4" d="M71.11,40.35L71.11,40.35C71.11,40.35,71.11,40.35,71.11,40.35c-0.01,0-0.01,0-0.01,0v0
				c-1.77,0-2.02,0.78-2.02,0.78v14.22h2.02h0.01h2.02V41.13C73.13,41.13,72.88,40.35,71.11,40.35z"/>
			<g>
				
					<radialGradient id="SVGID_00000045613144402943512160000017079114866848139958_" cx="71.3019" cy="73.0088" r="83.3998" gradientUnits="userSpaceOnUse">
					<stop  offset="0.4437" style="stop-color:#1E180F"/>
					<stop  offset="0.5934" style="stop-color:#525252"/>
				</radialGradient>
				<path style="fill:url(#SVGID_00000045613144402943512160000017079114866848139958_);" d="M120.43,120.96
					c-0.44-3.1-14.94-14.9-14.94-14.9L93.31,70.65l-21.84-2.33l0-0.04L71.3,68.3l-0.17-0.02l0,0.04l-21.84,2.33l-12.17,35.41
					c0,0-14.5,11.81-14.94,14.9c-0.44,3.1,7.42-1.55,7.42-1.55c24.57-6.42,41.62-6.42,41.62-6.42h0.19c0,0,17.05,0,41.62,6.42
					C113.01,119.41,120.87,124.06,120.43,120.96z"/>
				
					<linearGradient id="SVGID_00000160873069545687365510000018197283486006210467_" gradientUnits="userSpaceOnUse" x1="71.3019" y1="40.5917" x2="71.3019" y2="124.1029">
					<stop  offset="0" style="stop-color:#BFC1C1"/>
					<stop  offset="1" style="stop-color:#525252"/>
				</linearGradient>
				<path style="fill:url(#SVGID_00000160873069545687365510000018197283486006210467_);" d="M71.3,70.75l20.21,2.16l11.67,33.94
					l0.23,0.66l0.54,0.44c3.87,3.15,8.08,6.89,10.89,9.7c-0.2-0.11-0.39-0.22-0.58-0.34l-0.29-0.17l-0.33-0.09
					c-24.59-6.42-41.52-6.5-42.23-6.5h-0.19c-0.71,0-17.64,0.07-42.23,6.5l-0.33,0.09l-0.29,0.17c-0.19,0.11-0.39,0.22-0.58,0.33
					c2.81-2.81,7.02-6.55,10.89-9.7l0.54-0.44l0.23-0.66l11.67-33.94L71.3,70.75 M71.48,68.28L71.3,68.3l-0.17-0.02l0,0.04
					l-21.84,2.33l-12.17,35.41c0,0-14.5,11.81-14.94,14.9c-0.11,0.77,0.3,1.07,0.97,1.07c2.02,0,6.44-2.61,6.44-2.61
					c24.57-6.42,41.62-6.42,41.62-6.42h0.19c0,0,17.05,0,41.62,6.42c0,0,4.42,2.61,6.44,2.61c0.67,0,1.08-0.29,0.97-1.07
					c-0.44-3.1-14.94-14.9-14.94-14.9L93.31,70.65l-21.84-2.33L71.48,68.28L71.48,68.28z"/>
				<path class="st7" d="M104.27,100.89c-1.35-1.84-2.83-10.3-2.39-18.87c0.59-2.42,0.91-4.94,0.91-7.54c0-2.45-0.28-4.84-0.81-7.13
					c0-0.01,0-0.01,0-0.01C98.75,53.34,86.2,42.9,71.21,42.9S43.67,53.34,40.44,67.34c-0.53,2.3-0.81,4.68-0.81,7.13
					c0,0.8,0.03,1.58,0.09,2.37l0,0c0,0.01,0,0.02,0,0.03c0.08,1,0.2,1.99,0.36,2.96c0.85,9.27-0.77,19.06-2.23,21.06
					c-1.62,2.21-0.74,5.16-0.74,5.16c3.25,14.02,17.12,17.41,25.09,11.66c7.97-5.76,4.57-11.22-1.48-11.07
					c-6.05,0.15-8.71-1.33-5.76-11.36c2.95-10.03-8.26,2.95-7.53-6.64c0.38-4.98,1.72-8.6,2.92-10.94c6.15-3.49,13.26-5.5,20.85-5.5
					c7.41,0,14.36,1.91,20.42,5.26c1.23,2.33,2.65,6.02,3.04,11.18c0.74,9.59-10.48-3.39-7.53,6.64c2.95,10.03,0.3,11.51-5.76,11.36
					c-6.05-0.15-9.44,5.31-1.48,11.07c7.97,5.76,21.84,2.36,25.09-11.66C105,106.06,105.89,103.11,104.27,100.89z"/>
				
					<linearGradient id="SVGID_00000000214704534400995230000005695756517646836108_" gradientUnits="userSpaceOnUse" x1="71.0593" y1="42.8982" x2="71.0593" y2="117.6468">
					<stop  offset="0" style="stop-color:#BFC1C1"/>
					<stop  offset="0.1478" style="stop-color:#BDBEBE"/>
					<stop  offset="0.201" style="stop-color:#B4B5B5"/>
					<stop  offset="0.239" style="stop-color:#A5A7A6"/>
					<stop  offset="0.2696" style="stop-color:#929392"/>
					<stop  offset="0.2956" style="stop-color:#7A7B7B"/>
					<stop  offset="0.3185" style="stop-color:#5F6161"/>
					<stop  offset="0.4054" style="stop-color:#626363"/>
					<stop  offset="0.4533" style="stop-color:#696A6A"/>
					<stop  offset="0.4918" style="stop-color:#767776"/>
					<stop  offset="0.5253" style="stop-color:#8A8B8A"/>
					<stop  offset="0.5552" style="stop-color:#A4A6A5"/>
					<stop  offset="0.5677" style="stop-color:#B4B5B4"/>
					<stop  offset="0.6413" style="stop-color:#AEAFAE"/>
					<stop  offset="0.7318" style="stop-color:#9E9E9E"/>
					<stop  offset="0.831" style="stop-color:#868685"/>
					<stop  offset="0.9358" style="stop-color:#676666"/>
					<stop  offset="1" style="stop-color:#525252"/>
				</linearGradient>
				<path style="fill:url(#SVGID_00000000214704534400995230000005695756517646836108_);" d="M71.21,45.34
					c6.72,0,13.04,2.22,18.27,6.43c5,4.03,8.57,9.65,10.07,15.86v0l0.06,0.27c0.5,2.14,0.75,4.35,0.75,6.57
					c0,2.35-0.28,4.69-0.84,6.96l-0.06,0.23l-0.01,0.23c-0.43,8.38,0.88,17.74,2.86,20.44c0.85,1.16,0.37,3.02,0.37,3.02l0,0
					l-0.02,0.07l-0.02,0.08c-2.13,9.18-8.97,12.44-14.18,12.44c-2.61,0-5.13-0.78-7.1-2.21c-3.14-2.27-3.9-4.17-3.6-5.11
					c0.29-0.91,1.7-1.54,3.41-1.54c0.06,0,0.12,0,0.18,0c0.27,0.01,0.54,0.01,0.8,0.01c2.49,0,5.57-0.3,7.35-2.68
					c1.75-2.34,1.75-5.88,0.01-11.82c-0.05-0.17-0.09-0.33-0.13-0.47c1.03,0.35,2.19,0.73,3.36,0.73c1.6,0,2.59-0.71,3.14-1.3
					c1.36-1.47,1.37-3.61,1.25-5.1c-0.44-5.66-2.05-9.72-3.32-12.13l-0.34-0.64l-0.64-0.35c-6.58-3.64-14.05-5.56-21.6-5.56
					c-7.72,0-15.35,2.01-22.05,5.82l-0.63,0.36L48.2,76.6c-1.75,3.4-2.85,7.51-3.18,11.86c-0.11,1.48-0.11,3.62,1.25,5.1
					c0.55,0.59,1.54,1.3,3.14,1.3c1.17,0,2.33-0.38,3.36-0.73c-0.04,0.14-0.08,0.3-0.13,0.47c-1.75,5.94-1.75,9.48,0.01,11.82
					c1.78,2.38,4.86,2.68,7.35,2.68c0.26,0,0.53,0,0.8-0.01c0.06,0,0.12,0,0.18,0c1.71,0,3.11,0.63,3.41,1.54
					c0.3,0.94-0.46,2.84-3.6,5.11c-1.97,1.42-4.49,2.21-7.1,2.21c-5.21,0-12.06-3.26-14.18-12.44l-0.01-0.05l-0.02-0.07
					c-0.01-0.02-0.49-1.88,0.36-3.04c2.18-2.98,3.49-14.02,2.7-22.72l-0.01-0.09l-0.02-0.09c-0.15-0.86-0.26-1.75-0.33-2.64
					l-0.01-0.12l0-0.08l0-0.01c-0.05-0.74-0.08-1.43-0.08-2.11c0-2.22,0.25-4.44,0.75-6.58c1.46-6.31,5.05-12.04,10.13-16.12
					C58.17,47.56,64.49,45.34,71.21,45.34 M71.21,42.9c-14.99,0-27.54,10.44-30.77,24.45c-0.53,2.3-0.81,4.68-0.81,7.13
					c0,0.8,0.03,1.58,0.09,2.37l0,0c0,0.01,0,0.02,0,0.03c0.08,1,0.2,1.99,0.36,2.96c0.85,9.27-0.77,19.06-2.23,21.06
					c-1.62,2.21-0.74,5.16-0.74,5.16c2.25,9.72,9.6,14.33,16.56,14.33c3.08,0,6.08-0.9,8.53-2.67c7.86-5.68,4.66-11.07-1.24-11.07
					c-0.08,0-0.16,0-0.24,0c-0.25,0.01-0.5,0.01-0.74,0.01c-5.52,0-7.84-1.76-5.02-11.37c0.94-3.19,0.44-4.06-0.65-4.06
					c-1.28,0-3.37,1.18-4.92,1.18c-1.28,0-2.19-0.81-1.96-3.77c0.38-4.98,1.72-8.6,2.92-10.94c6.15-3.49,13.26-5.5,20.85-5.5
					c7.41,0,14.36,1.91,20.42,5.26c1.23,2.33,2.65,6.02,3.04,11.18c0.23,2.96-0.68,3.77-1.96,3.77c-1.55,0-3.64-1.18-4.92-1.18
					c-1.09,0-1.58,0.86-0.64,4.06c2.83,9.62,0.51,11.37-5.02,11.37c-0.24,0-0.49,0-0.74-0.01c-0.08,0-0.16,0-0.24,0
					c-5.9,0-9.1,5.39-1.24,11.07c2.45,1.77,5.45,2.67,8.53,2.67c6.96,0,14.31-4.61,16.56-14.33c0,0,0.89-2.95-0.74-5.16
					c-1.35-1.84-2.83-10.3-2.39-18.87c0.59-2.42,0.91-4.94,0.91-7.54c0-2.45-0.28-4.84-0.81-7.13c0-0.01,0-0.01,0-0.01
					C98.75,53.34,86.2,42.9,71.21,42.9L71.21,42.9z"/>
				<path class="st7" d="M103.44,69.1v18.14c-0.77-0.91-1.58-1.79-2.42-2.62c-7.66-7.67-18.23-12.41-29.91-12.41
					c-11.69,0-22.26,4.74-29.92,12.4c-0.84,0.84-1.65,1.72-2.42,2.63V69.1c0.5-0.6,1.03-1.19,1.57-1.75
					c7.71-8.18,18.64-13.28,30.77-13.28c12.12,0,23.05,5.1,30.77,13.28c0,0,0,0,0,0.01C102.42,67.92,102.94,68.5,103.44,69.1z"/>
				<path class="st9" d="M103.45,69.1v1.63c-0.5-0.59-1.02-1.18-1.57-1.74c0-0.01,0-0.01,0-0.01c-7.72-8.18-18.65-13.28-30.76-13.28
					c-12.13,0-23.06,5.1-30.77,13.28c-0.54,0.56-1.07,1.15-1.58,1.75V69.1c0.5-0.6,1.03-1.19,1.58-1.75
					c7.71-8.18,18.64-13.28,30.77-13.28c12.11,0,23.04,5.1,30.76,13.28c0,0,0,0,0,0.01C102.42,67.92,102.94,68.5,103.45,69.1z"/>
				<path class="st4" d="M103.45,85.75v1.63c-0.5-0.59-1.02-1.18-1.57-1.74c0-0.01,0-0.01,0-0.01
					c-7.72-8.18-18.65-13.28-30.76-13.28c-12.13,0-23.06,5.1-30.77,13.28c-0.54,0.56-1.07,1.15-1.58,1.75v-1.63
					c0.5-0.6,1.03-1.19,1.58-1.75c7.71-8.18,18.64-13.28,30.77-13.28c12.11,0,23.04,5.1,30.76,13.28c0,0,0,0,0,0.01
					C102.42,84.57,102.94,85.16,103.45,85.75z"/>
				<polygon class="st10" points="38.77,69.1 39.81,69.54 39.81,84.57 38.77,87.38 				"/>
				<polygon class="st10" points="103.44,69.11 102.4,69.55 102.4,84.59 103.44,87.4 				"/>
			</g>
		</g>
	</g>
</g>
</svg>
