<?xml version="1.0" encoding="utf-8"?>
<!-- Generator: Adobe Illustrator 26.0.3, SVG Export Plug-In . SVG Version: 6.00 Build 0)  -->
<svg version="1.1" id="Livello_1" xmlns="http://www.w3.org/2000/svg" xmlns:xlink="http://www.w3.org/1999/xlink" x="0px" y="0px"
	 viewBox="0 0 141.73 141.73" style="enable-background:new 0 0 141.73 141.73;" xml:space="preserve">
<style type="text/css">
	.st0{fill:#6EA62E;}
	.st1{fill:url(#SVGID_1_);}
	.st2{fill:url(#SVGID_00000142876346582145570430000009526542275805643406_);}
	.st3{fill:url(#SVGID_00000106847632745701194130000002417452871360120235_);}
	.st4{fill:#D7C452;}
	.st5{fill:url(#SVGID_00000053510086735484885260000001588123608086888887_);}
	.st6{fill:#E2CE69;}
	.st7{fill:#685818;}
	.st8{fill:#D3B506;}
	.st9{fill:url(#SVGID_00000038382427633257643920000005937199332336480128_);}
</style>
<g>
	<g>
		<g>
			<path class="st0" d="M52.57,8.13c1.53-0.54,3.06-0.37,3.36,0.22c0.33,0.65-0.65,1.81-2.24,2.56c-2,0.95-4.12,1.53-6.35,1.43
				C48.5,10.28,50.37,8.91,52.57,8.13z"/>
			<path class="st0" d="M47.52,6.91c-0.57-0.34-1.96,0.31-2.97,1.57c-1.44,1.8-2.28,3.93-2.14,6.29c0.04-0.02,0.07-0.05,0.11-0.07
				c1.29-1.58,1.96-2.74,2.79-4.58c0.01-0.02,0.05-0.03,0.07-0.02c0.02,0.01,0.03,0.04,0.02,0.07c-0.91,2.37-1.55,3.32-2.21,4.11
				c1.5-0.97,2.59-2.11,3.6-3.69C47.73,9.12,48.15,7.29,47.52,6.91z"/>
			<path class="st0" d="M40.54,9.23c-0.76-0.22-2.05,1.42-2.66,2.71c-0.98,2.08-1.55,4.26-0.99,6.55c0.04-0.03,0.06-0.06,0.1-0.09
				c0.99-1.77,0.96-2.71,1.93-4.99c0.01-0.03,0.04-0.04,0.07-0.03c0.02,0.01,0.04,0.04,0.03,0.06c-0.64,2.13-0.94,3.53-1.44,4.42
				c1.3-1.21,2.18-2.52,2.89-4.24C41.12,12.03,41.42,9.48,40.54,9.23z"/>
			<path class="st0" d="M34.36,12.33c-1-0.17-2.52,1.94-3.2,3.56c-1.1,2.61-1.65,5.29-0.75,7.98c0.04-0.04,0.08-0.08,0.12-0.12
				c1.13-2.24,1.02-3.36,2.08-6.21c0.01-0.03,0.05-0.05,0.08-0.04c0.03,0.01,0.05,0.04,0.04,0.07c-0.65,2.63-0.92,4.35-1.5,5.48
				c1.58-1.61,2.6-3.28,3.38-5.43C35.33,15.62,35.52,12.53,34.36,12.33z"/>
			<path class="st0" d="M26.34,18.04c-0.93-0.05-1.71,2.36-2.03,4.02c-0.51,2.67-0.72,5.19,0.58,7.71c0.03-0.04,0.05-0.09,0.09-0.13
				c0.23-1.74,0.13-3.38,0.74-6.31c0-0.03,0.03-0.06,0.07-0.05c0.03,0,0.05,0.04,0.05,0.07c-0.27,2.9-0.42,4.92-0.35,5.52
				c1.13-1.75,1.43-3.15,1.74-5.34C27.51,21.5,27.42,18.1,26.34,18.04z"/>
			<path class="st0" d="M20.15,24.09c-0.93,0.1-1.45,2.96-1.48,4.65c-0.06,2.72,0.32,4.88,2.02,7.15c0.03-0.05,0.04-0.1,0.06-0.14
				c-0.07-1.76-0.44-3.35-0.33-6.34c0-0.03,0.02-0.06,0.06-0.06c0.03,0,0.06,0.03,0.06,0.06c0.22,2.9,0.41,4.92,0.58,5.5
				c0.82-1.91,1.08-3.66,1.02-5.87C22.09,26.99,21.22,23.98,20.15,24.09z"/>
			<path class="st0" d="M30.82,32.23c0.11,0.72-2.19,1.9-3.59,2.39c-2.24,0.79-4.13,1.12-6.61,0.57c0.03-0.03,0.07-0.05,0.1-0.09
				c1.5-0.45,2.97-0.63,5.46-1.56c0.03-0.01,0.04-0.04,0.03-0.06c-0.01-0.02-0.04-0.04-0.07-0.03c-2.54,0.67-4.31,1.1-4.86,1.14
				c1.34-1.15,2.76-1.86,4.71-2.46C27.8,31.59,30.68,31.37,30.82,32.23z"/>
			<path class="st0" d="M35.59,27.41c0.15,0.79-2.33,1.82-3.87,2.21c-2.48,0.62-4.56,0.76-7.1-0.19c0.04-0.03,0.08-0.05,0.12-0.08
				c1.63-0.31,3.19-0.33,5.9-1.05c0.03-0.01,0.05-0.03,0.04-0.06c-0.01-0.03-0.04-0.04-0.07-0.04c-2.72,0.43-4.62,0.69-5.2,0.67
				c1.54-1.08,3.07-1.67,5.11-2.08C32.42,26.4,35.41,26.49,35.59,27.41z"/>
			<path class="st0" d="M41.63,22.44c0.06,0.82-2.5,1.64-4.06,1.89c-2.5,0.4-4.56,0.36-6.93-0.82c0.04-0.03,0.08-0.05,0.12-0.07
				c1.63-0.17,3.17-0.05,5.91-0.54c0.03,0,0.05-0.03,0.05-0.06c0-0.03-0.03-0.05-0.06-0.05c-2.72,0.19-4.61,0.28-5.18,0.21
				c1.64-0.96,3.21-1.41,5.26-1.64C38.64,21.14,41.56,21.5,41.63,22.44z"/>
			<path class="st0" d="M46.69,18.02c-0.01,0.73-2.32,1.29-3.71,1.42c-2.23,0.2-4.04,0.03-6.03-1.17c0.04-0.02,0.08-0.04,0.11-0.06
				c1.45-0.05,2.79,0.15,5.24-0.11c0.03,0,0.05-0.02,0.05-0.05c0-0.02-0.03-0.04-0.05-0.05c-2.4,0-4.08-0.04-4.57-0.14
				c1.51-0.75,2.93-1.05,4.75-1.13C44.16,16.68,46.71,17.18,46.69,18.02z"/>
			<path class="st0" d="M14.72,30.83c-0.96,0.24-1.14,3.3-0.96,5.07c0.29,2.85,0.96,5.05,3.04,7.17c0.02-0.05,0.03-0.1,0.05-0.16
				c-0.3-1.82-0.89-3.43-1.16-6.57c-0.01-0.03,0.02-0.07,0.05-0.07c0.03-0.01,0.06,0.02,0.07,0.05c0.6,3,1.06,5.08,1.32,5.66
				c0.62-2.12,0.67-3.98,0.32-6.28C17.13,33.58,15.83,30.56,14.72,30.83z"/>
			<path class="st0" d="M27.06,37.19c0.11,0.98-2.52,2.95-4.03,3.79c-2.28,1.27-4.09,1.88-6.35,1.48c0.03-0.04,0.06-0.07,0.08-0.11
				c1.34-0.69,2.71-1.09,5.18-2.59c0.03-0.02,0.04-0.05,0.04-0.08c-0.01-0.03-0.04-0.04-0.07-0.03c-2.51,1.19-4.15,1.94-4.65,2.05
				c1.2-1.55,2.55-2.63,4.49-3.72C23.67,36.9,26.92,36.02,27.06,37.19z"/>
			<path class="st0" d="M10.48,38.62c-0.9,0.27-0.74,3.87-0.35,5.59c0.63,2.76,1.58,4.26,3.86,6.25c0.01-0.05,0.01-0.1,0.03-0.16
				c-0.51-1.76-1.29-3.31-1.93-6.35c-0.01-0.03,0.01-0.07,0.04-0.07c0.03-0.01,0.06,0.02,0.08,0.05c0.95,2.9,1.65,4.91,1.97,5.46
				c0.34-2.08,0.16-3.9-0.46-6.12C13.14,41.2,11.52,38.31,10.48,38.62z"/>
			<path class="st0" d="M6.86,46.86c-1,0.6-0.07,3.04,0.55,4.4c1.09,2.39,2.36,3.76,5.35,5.68c0-0.06-0.01-0.11-0.02-0.17
				c-1.06-1.83-2.26-3.28-3.54-5.97c-0.02-0.03,0-0.06,0.03-0.07c0.03-0.01,0.06,0.01,0.08,0.03c1.58,2.51,2.84,4.44,3.35,5
				c-0.22-2.17-0.88-3.88-2.04-5.76C9.64,48.39,7.94,46.21,6.86,46.86z"/>
			<path class="st0" d="M4.59,54.06c-1,0.82,0.24,3.33,1.03,4.73c1.4,2.45,2.89,3.74,6.26,5.35c-0.01-0.07-0.03-0.12-0.03-0.19
				c-1.31-1.83-2.73-3.23-4.37-5.96c-0.02-0.03-0.01-0.06,0.02-0.08c0.03-0.01,0.07,0,0.09,0.02c1.93,2.5,3.47,4.41,4.06,4.93
				c-0.45-2.33-1.33-4.1-2.75-5.98C7.7,55.28,5.68,53.17,4.59,54.06z"/>
			<path class="st0" d="M23.93,42.61c0.4,0.71-2.09,3.49-3.43,4.61c-2.08,1.74-3.62,2.43-6.45,2.98c0.02-0.04,0.04-0.08,0.06-0.12
				c1.37-1.07,2.85-1.89,5.16-3.93c0.03-0.02,0.03-0.06,0.01-0.08c-0.02-0.02-0.06-0.02-0.08,0c-2.46,1.81-4.15,3-4.71,3.28
				c0.91-1.7,2.12-3.04,3.99-4.55C20.28,43.37,23.45,41.75,23.93,42.61z"/>
			<path class="st0" d="M21.07,49.71c0.57,0.85-1.14,2.65-2.17,3.61c-1.78,1.68-3.34,2.46-6.57,3.23c0.02-0.05,0.05-0.09,0.07-0.14
				c1.56-1.23,3.11-2.11,5.19-4.02c0.02-0.02,0.02-0.05,0-0.07c-0.02-0.02-0.06-0.02-0.08,0c-2.27,1.68-4.06,2.95-4.69,3.27
				c0.95-1.78,2.16-3.05,3.86-4.35C18.15,50.15,20.44,48.76,21.07,49.71z"/>
			<path class="st0" d="M19.27,55.77c0.87,0.9-0.58,2.99-1.5,4.13c-1.62,2.01-3.16,2.89-6.35,3.61c0.02-0.06,0.04-0.11,0.06-0.17
				c1.4-1.4,2.85-2.38,4.68-4.54c0.02-0.02,0.02-0.05-0.01-0.07c-0.02-0.02-0.06-0.02-0.08,0c-2.05,1.89-3.66,3.3-4.25,3.65
				c0.74-2.03,1.74-3.43,3.22-4.83C16.29,56.35,18.35,54.83,19.27,55.77z"/>
			<path class="st0" d="M2.71,62.76c-1.02,1.26,0.62,4.07,1.66,5.6c1.82,2.69,3.62,3.92,7.54,5.1c-0.02-0.08-0.04-0.15-0.06-0.23
				c-1.66-1.95-3.39-3.33-5.51-6.31c-0.02-0.03-0.02-0.07,0.02-0.1c0.03-0.03,0.08-0.02,0.1,0c2.42,2.62,4.34,4.61,5.06,5.11
				c-0.75-2.78-1.93-4.75-3.7-6.73C6.3,63.52,3.82,61.39,2.71,62.76z"/>
			<path class="st0" d="M18.58,62.92c1.05,1.06,0,3.59-0.71,5.02c-1.29,2.57-2.77,3.82-6.25,5.1c0.01-0.08,0.02-0.15,0.03-0.22
				c1.32-1.94,2.75-3.31,4.29-6.13c0.02-0.03,0.01-0.07-0.03-0.09c-0.03-0.02-0.07-0.02-0.09,0.01c-1.86,2.48-3.39,4.43-3.99,4.94
				c0.41-2.66,1.26-4.51,2.62-6.34C15.58,63.68,17.46,61.79,18.58,62.92z"/>
			<path class="st0" d="M1.92,73.35c-0.74,1.43,1.44,3.87,2.77,5.16c2.33,2.28,4.35,3.13,8.44,3.51c-0.03-0.08-0.07-0.14-0.1-0.21
				c-2.02-1.58-4.01-2.6-6.69-5.1c-0.03-0.02-0.03-0.07-0.01-0.1c0.03-0.03,0.07-0.04,0.1-0.02c2.91,2.09,5.2,3.66,6,4.02
				c-1.31-2.58-2.86-4.28-5.01-5.87C5.59,73.39,2.73,71.79,1.92,73.35z"/>
			<path class="st0" d="M3.07,83.73c-0.44,1.55,1.98,4.02,3.66,4.8c2.98,1.37,4.98,1.98,9.06,1.57c-0.05-0.07-0.1-0.12-0.14-0.19
				c-2.3-1.16-4.45-1.78-7.58-3.73c-0.03-0.02-0.05-0.06-0.03-0.1c0.02-0.04,0.06-0.05,0.09-0.04c3.27,1.5,5.83,2.6,6.69,2.79
				c-1.79-2.28-3.66-3.65-6.08-4.8C6.68,83.07,3.56,82.05,3.07,83.73z"/>
			<path class="st0" d="M4.62,92.94c-0.16,1.64,2.8,3.66,4.66,4.12c3.31,0.82,5.47,1.05,9.58-0.13c-0.06-0.06-0.12-0.1-0.18-0.16
				c-2.57-0.74-4.89-0.95-8.47-2.31c-0.04-0.01-0.06-0.05-0.04-0.09c0.01-0.04,0.05-0.06,0.09-0.06c3.63,0.88,6.96,1.55,7.88,1.58
				c-2.27-1.95-4.94-3.01-7.64-3.71C8.19,91.59,4.79,91.16,4.62,92.94z"/>
			<path class="st0" d="M18.86,71.35c1.01,0.83,0.23,3.27-0.32,4.67c-1,2.55-2.3,3.99-5.65,6.05c0-0.07,0.01-0.14,0.01-0.22
				c1.18-2.13,2.47-3.72,3.75-6.62c0.02-0.03,0-0.06-0.03-0.08c-0.03-0.01-0.07,0-0.09,0.02c-1.61,2.66-2.99,4.82-3.56,5.45
				c0.18-2.6,0.89-4.54,2.1-6.53C16.08,72.47,17.74,70.43,18.86,71.35z"/>
			<path class="st0" d="M20.34,78.63c1.13,0.75,0.86,3.74,0.19,5.2c-1.2,2.59-2.18,4.14-5.13,6.37c-0.01-0.07,0-0.13-0.01-0.2
				c0.88-2.1,1.97-3.77,2.98-6.85c0.01-0.03,0-0.07-0.04-0.08c-0.03-0.01-0.07,0.01-0.08,0.03c-1.35,2.89-2.45,5.11-2.92,5.75
				c-0.1-2.49,0.38-4.48,1.37-6.67C17.55,80.31,19.09,77.8,20.34,78.63z"/>
			<path class="st0" d="M22.73,85.42c1.34,0.77,1.56,3.64,1.04,5.06c-0.96,2.62-1.87,4.21-5.01,6.27c-0.02-0.08-0.02-0.15-0.03-0.23
				c0.77-2.24,1.8-3.9,2.51-6.97c0.01-0.03-0.01-0.07-0.05-0.08c-0.04-0.01-0.08,0-0.09,0.02c-1.12,2.81-2.33,5.42-2.79,6.07
				c-0.34-2.74,0.21-5.08,1.03-7.12C20.01,86.76,21.31,84.61,22.73,85.42z"/>
			<path class="st0" d="M8.36,101.75c-0.02,1.69,3.15,3.24,5.07,3.38c3.42,0.25,5.64,0.11,9.69-1.8c-0.07-0.05-0.13-0.08-0.2-0.13
				c-2.67-0.3-5.04-0.12-8.78-0.87c-0.04,0-0.06-0.04-0.05-0.09c0.01-0.04,0.05-0.07,0.09-0.07c3.75,0.27,7.18,0.36,8.12,0.23
				c-2.47-1.59-5.26-2.2-8.06-2.44C11.86,99.76,8.38,99.91,8.36,101.75z"/>
			<path class="st0" d="M26.07,91.86c1.49,0.57,1.88,3.42,1.41,4.87c-0.83,2.58-1.63,4.15-4.55,6.44c-0.02-0.07-0.03-0.12-0.05-0.19
				c0.55-2.05,1.44-3.71,1.92-6.7c0.01-0.03-0.02-0.06-0.06-0.07c-0.04-0.01-0.08,0.01-0.09,0.04c-0.91,2.83-1.88,5.36-2.28,6
				c-0.64-2.35-0.32-4.6,0.32-6.72C23.25,93.72,24.45,91.24,26.07,91.86z"/>
			<path class="st0" d="M14.07,108.9c0.22,1.67,3.51,2.82,5.39,2.74c3.35-0.16,5.46-0.56,9.11-2.93c-0.07-0.04-0.14-0.07-0.21-0.11
				c-2.63,0.02-4.89,0.48-8.61,0.18c-0.04,0-0.07-0.04-0.06-0.08c0-0.04,0.04-0.08,0.07-0.08c3.67-0.18,7-0.49,7.88-0.73
				c-2.61-1.27-5.4-1.55-8.14-1.45C17.17,106.52,13.83,107.08,14.07,108.9z"/>
			<path class="st0" d="M30.15,97.38c1.39,0.37,1.97,3.16,1.66,4.69c-0.55,2.74-1.16,4.45-3.67,7.22c-0.03-0.06-0.04-0.12-0.06-0.19
				c0.36-2.19,1.05-4.01,1.26-7.12c0.01-0.03-0.02-0.06-0.06-0.06c-0.04,0-0.07,0.02-0.08,0.05c-0.62,3-1.32,5.73-1.64,6.44
				c-0.75-2.32-0.63-4.66-0.19-6.9C27.73,99.62,28.63,96.98,30.15,97.38z"/>
			<path class="st0" d="M21.31,114.5c0.34,1.44,3.27,2.22,4.88,2.02c2.86-0.36,4.64-0.86,7.55-3.18c-0.06-0.03-0.13-0.05-0.19-0.08
				c-2.25,0.2-4.15,0.75-7.38,0.74c-0.03,0-0.06-0.03-0.06-0.07c0-0.04,0.02-0.07,0.06-0.08c3.13-0.41,5.96-0.91,6.7-1.18
				c-2.36-0.93-4.78-0.98-7.12-0.71C23.75,112.21,20.94,112.93,21.31,114.5z"/>
			<path class="st0" d="M28.36,120.74c0.65,1.22,3.47,1.25,4.87,0.7c2.48-0.98,3.96-1.83,6.03-4.58c-0.07-0.01-0.12-0.01-0.19-0.03
				c-1.98,0.69-3.55,1.63-6.45,2.35c-0.03,0.01-0.06-0.01-0.07-0.05c-0.01-0.03,0.01-0.07,0.03-0.08c2.72-1.08,5.14-2.18,5.74-2.59
				c-2.34-0.3-4.53,0.21-6.57,0.99C30,118.13,27.65,119.42,28.36,120.74z"/>
			<path class="st0" d="M34.81,123.83c0.64,1.01,3.11,0.78,4.31,0.16c2.13-1.1,3.38-1.99,5.05-4.61c-0.06-0.01-0.11,0-0.17-0.01
				c-1.7,0.8-3.03,1.77-5.54,2.68c-0.03,0.01-0.05,0-0.07-0.03c-0.01-0.03,0-0.06,0.02-0.07c2.33-1.21,4.4-2.4,4.9-2.82
				c-2.07-0.04-3.96,0.61-5.71,1.49C36.12,121.37,34.12,122.73,34.81,123.83z"/>
			<path class="st0" d="M34.63,101.95c1.36,0.37,2.16,3.06,2,4.52c-0.27,2.62-0.7,4.25-2.83,6.87c-0.03-0.06-0.05-0.12-0.08-0.18
				c0.14-2.09,0.63-3.83,0.55-6.8c0-0.03-0.03-0.06-0.06-0.06c-0.03,0-0.07,0.02-0.07,0.05c-0.32,2.86-0.74,5.47-0.98,6.15
				c-0.93-2.24-1.02-4.48-0.81-6.61C32.54,104.07,33.16,101.55,34.63,101.95z"/>
			<path class="st0" d="M39.51,106.19c1.34,0.24,2.21,2.75,2.11,4.15c-0.17,2.49-0.53,4.04-2.48,6.64
				c-0.03-0.05-0.05-0.11-0.08-0.16c0.05-1.95,0.46-3.62,0.27-6.41c0-0.03-0.03-0.05-0.06-0.05c-0.03,0-0.06,0.02-0.07,0.05
				c-0.2,2.72-0.5,5.19-0.7,5.83c-0.98-2.01-1.16-4.1-1.05-6.13C37.56,108.39,38.06,105.93,39.51,106.19z"/>
			<path class="st0" d="M44.45,109.76c1.16,0.1,1.93,2.27,1.85,3.55c-0.14,2.28-0.45,3.74-2.17,6.32c-0.03-0.05-0.04-0.09-0.07-0.14
				c0.05-1.81,0.41-3.38,0.24-5.9c0-0.03-0.02-0.04-0.06-0.04c-0.03,0-0.05,0.03-0.06,0.05c-0.18,2.5-0.44,4.8-0.62,5.41
				c-0.86-1.76-1.02-3.66-0.91-5.53C42.75,111.91,43.19,109.65,44.45,109.76z"/>
			<path class="st0" d="M41.94,126.88c0.83,0.92,2.96,0.43,3.85-0.29c1.6-1.28,2.48-2.28,3.28-4.98c-0.05,0-0.1,0.01-0.15,0.01
				c-1.3,0.95-2.22,2.03-4.21,3.17c-0.02,0.01-0.05,0-0.07-0.03c-0.02-0.03-0.01-0.06,0-0.07c1.75-1.41,3.27-2.78,3.61-3.24
				c-1.85,0.17-3.35,1-4.67,2.03C42.46,124.36,41.05,125.88,41.94,126.88z"/>
			<path class="st0" d="M48.9,128.88c0.87,0.9,2.81,0.47,3.58-0.21c1.37-1.22,2.09-2.16,2.56-4.77c-0.05,0-0.09,0.01-0.14,0.01
				c-1.12,0.89-1.88,1.92-3.62,3c-0.02,0.01-0.05,0-0.07-0.03c-0.02-0.03-0.02-0.06-0.01-0.07c1.49-1.34,2.78-2.64,3.05-3.08
				c-1.71,0.14-3.04,0.91-4.17,1.89C49.13,126.45,47.96,127.9,48.9,128.88z"/>
			<path class="st0" d="M55.17,130.64c0.67,0.73,2.11,0.2,2.68-0.47c1-1.19,1.52-2.08,1.82-4.44c-0.04,0-0.07,0.02-0.1,0.02
				c-0.82,0.88-1.37,1.85-2.65,2.94c-0.01,0.01-0.03,0.01-0.05-0.02c-0.01-0.02-0.02-0.05-0.01-0.06c1.09-1.3,2.03-2.56,2.22-2.97
				c-1.28,0.25-2.26,1.05-3.08,2C55.3,128.46,54.45,129.84,55.17,130.64z"/>
			<path class="st0" d="M52.12,14.02c0.05,0.66-1.18,1.57-2.78,1.87c-2.29,0.43-4.61,0.18-6.69-1.02c0.04-0.03,0.08-0.04,0.12-0.07
				c2.02-0.4,3.39-0.45,5.44-0.33c0.03,0,0.05-0.03,0.05-0.05c0-0.03-0.03-0.05-0.05-0.05c-2.57-0.3-3.72-0.17-4.74,0.04
				c1.57-0.86,3.11-1.29,5-1.44C50.22,12.83,52.07,13.3,52.12,14.02z"/>
			<path class="st0" d="M48.76,112.58c1.2-0.05,2.17,1.85,2.2,3.04c0.04,2.13-0.15,3.53-1.71,6.16c-0.03-0.04-0.05-0.08-0.09-0.12
				c-0.1-1.7,0.14-3.2-0.24-5.53c0-0.02-0.03-0.04-0.06-0.03c-0.03,0.01-0.05,0.03-0.06,0.06c0.03,2.34-0.06,4.52-0.19,5.12
				c-1.04-1.54-1.35-3.29-1.39-5.03C47.18,114.77,47.46,112.64,48.76,112.58z"/>
			<path class="st0" d="M53.57,115.85c1.25-0.11,2.45,1.56,2.58,2.62c0.24,1.89,0.17,3.12-1.17,5.48c-0.04-0.03-0.06-0.07-0.1-0.1
				c-0.27-1.47-0.17-2.79-0.79-4.82c0-0.02-0.03-0.03-0.07-0.02c-0.03,0.01-0.05,0.03-0.05,0.05c0.26,2.07,0.39,3.97,0.31,4.49
				c-1.21-1.28-1.71-2.79-1.94-4.33C52.15,117.91,52.21,115.97,53.57,115.85z"/>
			<path class="st0" d="M58.96,118.61c0.97-0.12,1.81,1.31,1.86,2.24c0.1,1.64-0.01,2.72-1.16,4.8c-0.03-0.03-0.05-0.06-0.07-0.09
				c-0.14-1.27,0-2.43-0.38-4.19c0-0.02-0.02-0.03-0.05-0.02c-0.02,0.01-0.04,0.03-0.04,0.05c0.1,1.8,0.11,3.45,0.03,3.91
				c-0.87-1.09-1.19-2.4-1.29-3.74C57.77,120.43,57.91,118.74,58.96,118.61z"/>
			<path class="st0" d="M68.85,131c0,0-0.47-0.46-1.37-1.19c-0.92-0.7-2.34-1.69-4.4-2.52c-4.17-1.52-10.47-3.25-17.45-6.59
				c-7-3.25-14.88-8.07-21.31-15.29c-3.25-3.56-5.96-7.8-8.05-12.36c-1.15-2.25-1.85-4.68-2.7-7.07c-0.55-2.47-1.33-4.91-1.59-7.44
				c-0.89-5.05-0.88-10.07-0.69-15.09c0.4-4.98,1.26-9.84,2.69-14.39c1.53-4.5,3.31-8.79,5.66-12.5c2.26-3.75,4.8-7.06,7.45-9.84
				c1.29-1.42,2.6-2.71,3.93-3.85c1.27-1.21,2.59-2.22,3.83-3.18c2.48-1.9,4.76-3.42,6.72-4.52c1.92-1.17,3.51-1.95,4.6-2.47
				c1.08-0.54,1.66-0.82,1.66-0.82c0.1-0.05,0.22-0.01,0.27,0.09c0.05,0.1,0,0.22-0.1,0.27c0,0-0.57,0.29-1.64,0.83
				c-1.08,0.53-2.66,1.3-4.56,2.48c-1.94,1.1-4.2,2.63-6.65,4.52c-1.22,0.96-2.53,1.96-3.78,3.17c-1.32,1.14-2.61,2.43-3.88,3.84
				c-2.61,2.77-5.11,6.06-7.33,9.79c-2.31,3.68-4.05,7.94-5.54,12.4c-1.39,4.51-2.22,9.33-2.59,14.25
				c-0.17,4.89-0.14,10.02,0.76,14.93c0.26,2.5,1.05,4.9,1.6,7.34c0.85,2.35,1.55,4.75,2.69,6.95c2.08,4.47,4.76,8.62,7.97,12.1
				c6.35,7.06,14.13,11.78,21.06,14.96c3.49,1.58,6.74,2.94,9.65,4.05c2.92,1.1,5.53,1.91,7.64,2.77c2.15,0.79,3.7,1.77,4.7,2.48
				c1.03,0.69,1.52,1.08,1.52,1.08l0.04,0.03c0.25,0.2,0.29,0.56,0.08,0.8c-0.2,0.24-0.57,0.28-0.82,0.08
				C68.88,131.02,68.86,131.01,68.85,131z"/>
		</g>
		<g>
			<path class="st0" d="M89.24,8.13c-1.53-0.54-3.06-0.37-3.36,0.22c-0.33,0.65,0.65,1.81,2.24,2.56c2,0.95,4.12,1.53,6.35,1.43
				C93.31,10.28,91.44,8.91,89.24,8.13z"/>
			<path class="st0" d="M94.29,6.91c0.57-0.34,1.96,0.31,2.97,1.57c1.44,1.8,2.28,3.93,2.14,6.29c-0.04-0.02-0.07-0.05-0.11-0.07
				c-1.29-1.58-1.96-2.74-2.79-4.58c-0.01-0.02-0.05-0.03-0.07-0.02c-0.02,0.01-0.03,0.04-0.02,0.07c0.91,2.37,1.55,3.32,2.21,4.11
				c-1.5-0.97-2.59-2.11-3.6-3.69C94.08,9.12,93.66,7.29,94.29,6.91z"/>
			<path class="st0" d="M101.27,9.23c0.76-0.22,2.05,1.42,2.66,2.71c0.98,2.08,1.55,4.26,0.99,6.55c-0.04-0.03-0.06-0.06-0.1-0.09
				c-0.99-1.77-0.96-2.71-1.93-4.99c-0.01-0.03-0.04-0.04-0.07-0.03c-0.02,0.01-0.04,0.04-0.03,0.06c0.64,2.13,0.94,3.53,1.44,4.42
				c-1.3-1.21-2.18-2.52-2.89-4.24C100.69,12.03,100.39,9.48,101.27,9.23z"/>
			<path class="st0" d="M107.45,12.33c1-0.17,2.52,1.94,3.2,3.56c1.1,2.61,1.65,5.29,0.75,7.98c-0.04-0.04-0.08-0.08-0.12-0.12
				c-1.13-2.24-1.02-3.36-2.08-6.21c-0.01-0.03-0.05-0.05-0.08-0.04c-0.03,0.01-0.05,0.04-0.04,0.07c0.65,2.63,0.92,4.35,1.5,5.48
				c-1.58-1.61-2.6-3.28-3.38-5.43C106.48,15.62,106.3,12.53,107.45,12.33z"/>
			<path class="st0" d="M115.47,18.04c0.93-0.05,1.71,2.36,2.03,4.02c0.51,2.67,0.72,5.19-0.58,7.71c-0.03-0.04-0.05-0.09-0.09-0.13
				c-0.23-1.74-0.13-3.38-0.74-6.31c0-0.03-0.03-0.06-0.07-0.05c-0.03,0-0.05,0.04-0.05,0.07c0.27,2.9,0.42,4.92,0.35,5.52
				c-1.13-1.75-1.43-3.15-1.74-5.34C114.3,21.5,114.39,18.1,115.47,18.04z"/>
			<path class="st0" d="M121.66,24.09c0.93,0.1,1.45,2.96,1.48,4.65c0.06,2.72-0.32,4.88-2.02,7.15c-0.03-0.05-0.04-0.1-0.06-0.14
				c0.07-1.76,0.44-3.35,0.33-6.34c0-0.03-0.02-0.06-0.06-0.06c-0.03,0-0.06,0.03-0.06,0.06c-0.22,2.9-0.41,4.92-0.58,5.5
				c-0.82-1.91-1.08-3.66-1.02-5.87C119.73,26.99,120.59,23.98,121.66,24.09z"/>
			<path class="st0" d="M111,32.23c-0.11,0.72,2.19,1.9,3.59,2.39c2.24,0.79,4.13,1.12,6.61,0.57c-0.03-0.03-0.07-0.05-0.1-0.09
				c-1.5-0.45-2.97-0.63-5.46-1.56c-0.03-0.01-0.04-0.04-0.03-0.06c0.01-0.02,0.04-0.04,0.07-0.03c2.54,0.67,4.31,1.1,4.86,1.14
				c-1.34-1.15-2.76-1.86-4.71-2.46C114.01,31.59,111.13,31.37,111,32.23z"/>
			<path class="st0" d="M106.22,27.41c-0.15,0.79,2.33,1.82,3.87,2.21c2.48,0.62,4.56,0.76,7.1-0.19c-0.04-0.03-0.08-0.05-0.12-0.08
				c-1.63-0.31-3.19-0.33-5.9-1.05c-0.03-0.01-0.05-0.03-0.04-0.06c0.01-0.03,0.04-0.04,0.07-0.04c2.72,0.43,4.62,0.69,5.2,0.67
				c-1.54-1.08-3.07-1.67-5.11-2.08C109.39,26.4,106.4,26.49,106.22,27.41z"/>
			<path class="st0" d="M100.18,22.44c-0.06,0.82,2.5,1.64,4.06,1.89c2.5,0.4,4.56,0.36,6.93-0.82c-0.04-0.03-0.08-0.05-0.12-0.07
				c-1.63-0.17-3.17-0.05-5.91-0.54c-0.03,0-0.05-0.03-0.05-0.06c0-0.03,0.03-0.05,0.06-0.05c2.72,0.19,4.61,0.28,5.18,0.21
				c-1.64-0.96-3.21-1.41-5.26-1.64C103.17,21.14,100.25,21.5,100.18,22.44z"/>
			<path class="st0" d="M95.12,18.02c0.01,0.73,2.32,1.29,3.71,1.42c2.23,0.2,4.04,0.03,6.03-1.17c-0.04-0.02-0.08-0.04-0.11-0.06
				c-1.45-0.05-2.79,0.15-5.24-0.11c-0.03,0-0.05-0.02-0.05-0.05c0-0.02,0.03-0.04,0.05-0.05c2.4,0,4.08-0.04,4.57-0.14
				c-1.51-0.75-2.93-1.05-4.75-1.13C97.65,16.68,95.1,17.18,95.12,18.02z"/>
			<path class="st0" d="M127.09,30.83c0.96,0.24,1.14,3.3,0.96,5.07c-0.29,2.85-0.96,5.05-3.04,7.17c-0.02-0.05-0.03-0.1-0.05-0.16
				c0.3-1.82,0.89-3.43,1.16-6.57c0.01-0.03-0.02-0.07-0.05-0.07c-0.03-0.01-0.06,0.02-0.07,0.05c-0.6,3-1.06,5.08-1.32,5.66
				c-0.62-2.12-0.67-3.98-0.32-6.28C124.68,33.58,125.98,30.56,127.09,30.83z"/>
			<path class="st0" d="M114.75,37.19c-0.11,0.98,2.52,2.95,4.03,3.79c2.28,1.27,4.09,1.88,6.35,1.48
				c-0.03-0.04-0.06-0.07-0.08-0.11c-1.34-0.69-2.71-1.09-5.18-2.59c-0.03-0.02-0.05-0.05-0.04-0.08c0.01-0.03,0.04-0.04,0.07-0.03
				c2.51,1.19,4.15,1.94,4.65,2.05c-1.2-1.55-2.55-2.63-4.49-3.72C118.14,36.9,114.89,36.02,114.75,37.19z"/>
			<path class="st0" d="M131.33,38.62c0.9,0.27,0.74,3.87,0.34,5.59c-0.63,2.76-1.58,4.26-3.86,6.25c-0.01-0.05-0.01-0.1-0.03-0.16
				c0.51-1.76,1.29-3.31,1.93-6.35c0.01-0.03-0.01-0.07-0.04-0.07c-0.03-0.01-0.06,0.02-0.08,0.05c-0.95,2.9-1.65,4.91-1.97,5.46
				c-0.34-2.08-0.16-3.9,0.46-6.12C128.67,41.2,130.29,38.31,131.33,38.62z"/>
			<path class="st0" d="M134.95,46.86c1,0.6,0.07,3.04-0.55,4.4c-1.09,2.39-2.36,3.76-5.35,5.68c0-0.06,0.01-0.11,0.02-0.17
				c1.06-1.83,2.26-3.28,3.54-5.97c0.02-0.03,0-0.06-0.03-0.07c-0.03-0.01-0.06,0.01-0.08,0.03c-1.58,2.51-2.84,4.44-3.35,5
				c0.22-2.17,0.88-3.88,2.04-5.76C132.18,48.39,133.87,46.21,134.95,46.86z"/>
			<path class="st0" d="M137.22,54.06c1,0.82-0.24,3.33-1.03,4.73c-1.4,2.45-2.89,3.74-6.26,5.35c0.01-0.07,0.03-0.12,0.03-0.19
				c1.31-1.83,2.73-3.23,4.37-5.96c0.02-0.03,0.01-0.06-0.02-0.08c-0.03-0.01-0.07,0-0.09,0.02c-1.93,2.5-3.47,4.41-4.06,4.93
				c0.45-2.33,1.33-4.1,2.75-5.98C134.11,55.28,136.13,53.17,137.22,54.06z"/>
			<path class="st0" d="M117.88,42.61c-0.4,0.71,2.09,3.49,3.43,4.61c2.08,1.74,3.62,2.43,6.45,2.98c-0.02-0.04-0.04-0.08-0.06-0.12
				c-1.37-1.07-2.85-1.89-5.16-3.93c-0.03-0.02-0.03-0.06-0.01-0.08c0.02-0.02,0.06-0.02,0.08,0c2.46,1.81,4.15,3,4.71,3.28
				c-0.91-1.7-2.12-3.04-3.99-4.55C121.53,43.37,118.36,41.75,117.88,42.61z"/>
			<path class="st0" d="M120.74,49.71c-0.57,0.85,1.14,2.65,2.17,3.61c1.78,1.68,3.34,2.46,6.57,3.23
				c-0.02-0.05-0.05-0.09-0.07-0.14c-1.56-1.23-3.11-2.11-5.19-4.02c-0.02-0.02-0.02-0.05,0-0.07c0.02-0.02,0.06-0.02,0.08,0
				c2.27,1.68,4.06,2.95,4.69,3.27c-0.95-1.78-2.16-3.05-3.86-4.35C123.66,50.15,121.37,48.76,120.74,49.71z"/>
			<path class="st0" d="M122.55,55.77c-0.87,0.9,0.58,2.99,1.5,4.13c1.61,2.01,3.16,2.89,6.35,3.61c-0.02-0.06-0.04-0.11-0.06-0.17
				c-1.4-1.4-2.85-2.38-4.68-4.54c-0.02-0.02-0.02-0.05,0.01-0.07c0.02-0.02,0.06-0.02,0.08,0c2.05,1.89,3.66,3.3,4.25,3.65
				c-0.74-2.03-1.74-3.43-3.22-4.83C125.52,56.35,123.46,54.83,122.55,55.77z"/>
			<path class="st0" d="M139.1,62.76c1.02,1.26-0.62,4.07-1.66,5.6c-1.82,2.69-3.62,3.92-7.54,5.1c0.02-0.08,0.04-0.15,0.06-0.23
				c1.66-1.95,3.39-3.33,5.51-6.31c0.02-0.03,0.02-0.07-0.02-0.1c-0.03-0.03-0.08-0.02-0.1,0c-2.42,2.62-4.34,4.61-5.06,5.11
				c0.75-2.78,1.93-4.75,3.7-6.73C135.51,63.52,137.99,61.39,139.1,62.76z"/>
			<path class="st0" d="M123.23,62.92c-1.05,1.06,0,3.59,0.71,5.02c1.29,2.57,2.77,3.82,6.25,5.1c-0.01-0.08-0.03-0.15-0.03-0.22
				c-1.32-1.94-2.74-3.31-4.29-6.13c-0.02-0.03-0.01-0.07,0.03-0.09c0.03-0.02,0.07-0.02,0.09,0.01c1.86,2.48,3.39,4.43,3.99,4.94
				c-0.41-2.66-1.26-4.51-2.62-6.34C126.23,63.68,124.35,61.79,123.23,62.92z"/>
			<path class="st0" d="M139.89,73.35c0.74,1.43-1.44,3.87-2.77,5.16c-2.33,2.28-4.35,3.13-8.44,3.51c0.03-0.08,0.07-0.14,0.1-0.21
				c2.02-1.58,4.01-2.6,6.69-5.1c0.03-0.02,0.03-0.07,0.01-0.1c-0.03-0.03-0.07-0.04-0.1-0.02c-2.91,2.09-5.2,3.66-6,4.02
				c1.31-2.58,2.86-4.28,5.01-5.87C136.22,73.39,139.09,71.79,139.89,73.35z"/>
			<path class="st0" d="M138.74,83.73c0.44,1.55-1.98,4.02-3.66,4.8c-2.98,1.37-4.98,1.98-9.06,1.57c0.05-0.07,0.1-0.12,0.14-0.19
				c2.3-1.16,4.45-1.78,7.58-3.73c0.03-0.02,0.05-0.06,0.03-0.1c-0.02-0.04-0.06-0.05-0.09-0.04c-3.27,1.5-5.83,2.6-6.69,2.79
				c1.79-2.28,3.66-3.65,6.08-4.8C135.13,83.07,138.26,82.05,138.74,83.73z"/>
			<path class="st0" d="M137.19,92.94c0.16,1.64-2.8,3.66-4.66,4.12c-3.31,0.82-5.47,1.05-9.58-0.13c0.06-0.06,0.12-0.1,0.18-0.16
				c2.57-0.74,4.89-0.95,8.47-2.31c0.04-0.01,0.06-0.05,0.04-0.09c-0.01-0.04-0.05-0.06-0.09-0.06c-3.63,0.88-6.96,1.55-7.88,1.58
				c2.27-1.95,4.94-3.01,7.64-3.71C133.62,91.59,137.02,91.16,137.19,92.94z"/>
			<path class="st0" d="M122.95,71.35c-1.01,0.83-0.23,3.27,0.32,4.67c1,2.55,2.3,3.99,5.65,6.05c0-0.07-0.01-0.14-0.01-0.22
				c-1.18-2.13-2.47-3.72-3.75-6.62c-0.02-0.03,0-0.06,0.03-0.08c0.03-0.01,0.07,0,0.09,0.02c1.61,2.66,2.99,4.82,3.56,5.45
				c-0.18-2.6-0.89-4.54-2.1-6.53C125.74,72.47,124.07,70.43,122.95,71.35z"/>
			<path class="st0" d="M121.47,78.63c-1.13,0.75-0.86,3.74-0.19,5.2c1.2,2.59,2.18,4.14,5.13,6.37c0.01-0.07,0-0.13,0.01-0.2
				c-0.88-2.1-1.97-3.77-2.98-6.85c-0.01-0.03,0-0.07,0.04-0.08c0.03-0.01,0.07,0.01,0.08,0.03c1.35,2.89,2.45,5.11,2.92,5.75
				c0.1-2.49-0.38-4.48-1.37-6.67C124.26,80.31,122.72,77.8,121.47,78.63z"/>
			<path class="st0" d="M119.08,85.42c-1.34,0.77-1.56,3.64-1.04,5.06c0.96,2.62,1.87,4.21,5.01,6.27c0.02-0.08,0.02-0.15,0.03-0.23
				c-0.77-2.24-1.8-3.9-2.51-6.97c-0.01-0.03,0.01-0.07,0.05-0.08c0.04-0.01,0.08,0,0.09,0.02c1.12,2.81,2.33,5.42,2.79,6.07
				c0.34-2.74-0.21-5.08-1.03-7.12C121.8,86.76,120.51,84.61,119.08,85.42z"/>
			<path class="st0" d="M133.45,101.75c0.02,1.69-3.15,3.24-5.07,3.38c-3.42,0.25-5.64,0.11-9.69-1.8c0.07-0.05,0.13-0.08,0.2-0.13
				c2.67-0.3,5.04-0.12,8.78-0.87c0.04,0,0.06-0.04,0.05-0.09c-0.01-0.04-0.05-0.07-0.09-0.07c-3.75,0.27-7.18,0.36-8.12,0.23
				c2.47-1.59,5.26-2.2,8.06-2.44C129.95,99.76,133.43,99.91,133.45,101.75z"/>
			<path class="st0" d="M115.74,91.86c-1.49,0.57-1.88,3.42-1.41,4.87c0.83,2.58,1.63,4.15,4.55,6.44c0.02-0.07,0.03-0.12,0.05-0.19
				c-0.55-2.05-1.44-3.71-1.92-6.7c-0.01-0.03,0.02-0.06,0.06-0.07c0.04-0.01,0.08,0.01,0.09,0.04c0.91,2.83,1.88,5.36,2.28,6
				c0.64-2.35,0.32-4.6-0.32-6.72C118.56,93.72,117.36,91.24,115.74,91.86z"/>
			<path class="st0" d="M127.74,108.9c-0.22,1.67-3.51,2.82-5.39,2.74c-3.35-0.16-5.46-0.56-9.11-2.93
				c0.07-0.04,0.14-0.07,0.21-0.11c2.63,0.02,4.89,0.48,8.61,0.18c0.04,0,0.07-0.04,0.06-0.08c0-0.04-0.04-0.08-0.07-0.08
				c-3.67-0.18-7-0.49-7.88-0.73c2.61-1.27,5.4-1.55,8.14-1.45C124.64,106.52,127.98,107.08,127.74,108.9z"/>
			<path class="st0" d="M111.67,97.38c-1.39,0.37-1.97,3.16-1.66,4.69c0.55,2.74,1.16,4.45,3.67,7.22c0.03-0.06,0.04-0.12,0.06-0.19
				c-0.36-2.19-1.05-4.01-1.26-7.12c-0.01-0.03,0.02-0.06,0.06-0.06c0.04,0,0.07,0.02,0.08,0.05c0.62,3,1.32,5.73,1.64,6.44
				c0.75-2.32,0.63-4.66,0.19-6.9C114.08,99.62,113.18,96.98,111.67,97.38z"/>
			<path class="st0" d="M120.5,114.5c-0.34,1.44-3.27,2.22-4.88,2.02c-2.86-0.36-4.64-0.86-7.55-3.18c0.06-0.03,0.13-0.05,0.19-0.08
				c2.25,0.2,4.15,0.75,7.38,0.74c0.03,0,0.06-0.03,0.06-0.07c0-0.04-0.02-0.07-0.06-0.08c-3.13-0.41-5.96-0.91-6.7-1.18
				c2.36-0.93,4.78-0.98,7.12-0.71C118.06,112.21,120.87,112.93,120.5,114.5z"/>
			<path class="st0" d="M113.45,120.74c-0.65,1.22-3.47,1.25-4.87,0.7c-2.48-0.98-3.96-1.83-6.03-4.58
				c0.07-0.01,0.12-0.01,0.19-0.03c1.98,0.69,3.55,1.63,6.45,2.35c0.03,0.01,0.06-0.01,0.07-0.05c0.01-0.03-0.01-0.07-0.03-0.08
				c-2.72-1.08-5.14-2.18-5.74-2.59c2.34-0.3,4.53,0.21,6.57,0.99C111.81,118.13,114.16,119.42,113.45,120.74z"/>
			<path class="st0" d="M107,123.83c-0.64,1.01-3.11,0.78-4.3,0.16c-2.13-1.1-3.38-1.99-5.05-4.61c0.06-0.01,0.11,0,0.17-0.01
				c1.7,0.8,3.03,1.77,5.54,2.68c0.03,0.01,0.05,0,0.07-0.03c0.01-0.03,0-0.06-0.02-0.07c-2.33-1.21-4.4-2.4-4.9-2.82
				c2.07-0.04,3.96,0.61,5.71,1.49C105.69,121.37,107.69,122.73,107,123.83z"/>
			<path class="st0" d="M107.18,101.95c-1.36,0.37-2.16,3.06-2,4.52c0.27,2.62,0.7,4.25,2.83,6.87c0.03-0.06,0.05-0.12,0.08-0.18
				c-0.14-2.09-0.63-3.83-0.55-6.8c0-0.03,0.03-0.06,0.06-0.06c0.04,0,0.07,0.02,0.07,0.05c0.32,2.86,0.74,5.47,0.98,6.15
				c0.93-2.24,1.02-4.48,0.81-6.61C109.27,104.07,108.65,101.55,107.18,101.95z"/>
			<path class="st0" d="M102.3,106.19c-1.34,0.24-2.21,2.75-2.11,4.15c0.17,2.49,0.53,4.04,2.48,6.64c0.03-0.05,0.05-0.11,0.08-0.16
				c-0.05-1.95-0.46-3.62-0.27-6.41c0-0.03,0.03-0.05,0.06-0.05c0.03,0,0.06,0.02,0.07,0.05c0.2,2.72,0.5,5.19,0.7,5.83
				c0.98-2.01,1.16-4.1,1.05-6.13C104.25,108.39,103.75,105.93,102.3,106.19z"/>
			<path class="st0" d="M97.36,109.76c-1.16,0.1-1.93,2.27-1.85,3.55c0.14,2.28,0.45,3.74,2.17,6.32c0.03-0.05,0.04-0.09,0.07-0.14
				c-0.05-1.81-0.41-3.38-0.24-5.9c0-0.03,0.02-0.04,0.06-0.04c0.03,0,0.05,0.03,0.06,0.05c0.18,2.5,0.44,4.8,0.62,5.41
				c0.86-1.76,1.02-3.66,0.91-5.53C99.06,111.91,98.62,109.65,97.36,109.76z"/>
			<path class="st0" d="M99.87,126.88c-0.83,0.92-2.96,0.43-3.85-0.29c-1.6-1.28-2.48-2.28-3.28-4.98c0.05,0,0.1,0.01,0.15,0.01
				c1.3,0.95,2.22,2.03,4.21,3.17c0.02,0.01,0.05,0,0.07-0.03c0.02-0.03,0.01-0.06,0-0.07c-1.75-1.41-3.27-2.78-3.61-3.24
				c1.85,0.17,3.35,1,4.67,2.03C99.35,124.36,100.77,125.88,99.87,126.88z"/>
			<path class="st0" d="M92.91,128.88c-0.87,0.9-2.81,0.47-3.58-0.21c-1.37-1.22-2.09-2.16-2.56-4.77c0.05,0,0.09,0.01,0.14,0.01
				c1.12,0.89,1.88,1.92,3.62,3c0.02,0.01,0.05,0,0.07-0.03c0.02-0.03,0.02-0.06,0.01-0.07c-1.49-1.34-2.78-2.64-3.05-3.08
				c1.71,0.14,3.04,0.91,4.17,1.89C92.68,126.45,93.85,127.9,92.91,128.88z"/>
			<path class="st0" d="M86.64,130.64c-0.67,0.73-2.11,0.2-2.68-0.47c-1-1.19-1.52-2.08-1.82-4.44c0.04,0,0.07,0.02,0.1,0.02
				c0.82,0.88,1.37,1.85,2.65,2.94c0.01,0.01,0.03,0.01,0.05-0.02c0.01-0.02,0.02-0.05,0.01-0.06c-1.09-1.3-2.03-2.56-2.22-2.97
				c1.28,0.25,2.26,1.05,3.08,2C86.51,128.46,87.36,129.84,86.64,130.64z"/>
			<path class="st0" d="M89.69,14.02c-0.05,0.66,1.18,1.57,2.78,1.87c2.29,0.43,4.61,0.18,6.69-1.02c-0.04-0.03-0.08-0.04-0.12-0.07
				c-2.02-0.4-3.39-0.45-5.44-0.33c-0.03,0-0.05-0.03-0.05-0.05c0-0.03,0.03-0.05,0.05-0.05c2.57-0.3,3.72-0.17,4.74,0.04
				c-1.57-0.86-3.11-1.29-5-1.44C91.59,12.83,89.74,13.3,89.69,14.02z"/>
			<path class="st0" d="M93.05,112.58c-1.2-0.05-2.17,1.85-2.2,3.04c-0.04,2.13,0.15,3.53,1.71,6.16c0.03-0.04,0.05-0.08,0.09-0.12
				c0.1-1.7-0.14-3.2,0.24-5.53c0-0.02,0.03-0.04,0.06-0.03c0.03,0.01,0.05,0.03,0.06,0.06c-0.03,2.34,0.06,4.52,0.19,5.12
				c1.04-1.54,1.35-3.29,1.39-5.03C94.63,114.77,94.36,112.64,93.05,112.58z"/>
			<path class="st0" d="M88.24,115.85c-1.25-0.11-2.45,1.56-2.58,2.62c-0.24,1.89-0.17,3.12,1.17,5.48c0.04-0.03,0.06-0.07,0.1-0.1
				c0.27-1.47,0.17-2.79,0.79-4.82c0-0.02,0.03-0.03,0.07-0.02c0.03,0.01,0.05,0.03,0.05,0.05c-0.26,2.07-0.39,3.97-0.31,4.49
				c1.21-1.28,1.71-2.79,1.94-4.33C89.66,117.91,89.6,115.97,88.24,115.85z"/>
			<path class="st0" d="M82.85,118.61c-0.97-0.12-1.81,1.31-1.86,2.24c-0.1,1.64,0.01,2.72,1.16,4.8c0.03-0.03,0.05-0.06,0.07-0.09
				c0.14-1.27,0-2.43,0.38-4.19c0-0.02,0.02-0.03,0.05-0.02c0.02,0.01,0.04,0.03,0.04,0.05c-0.1,1.8-0.11,3.45-0.03,3.91
				c0.87-1.09,1.19-2.4,1.29-3.74C84.04,120.43,83.9,118.74,82.85,118.61z"/>
			<path class="st0" d="M72.96,131c0,0,0.47-0.46,1.37-1.19c0.92-0.7,2.34-1.69,4.4-2.52c4.17-1.52,10.47-3.25,17.45-6.59
				c7-3.25,14.88-8.07,21.31-15.29c3.25-3.56,5.96-7.8,8.05-12.36c1.15-2.25,1.85-4.68,2.7-7.07c0.55-2.47,1.33-4.91,1.59-7.44
				c0.89-5.05,0.88-10.07,0.69-15.09c-0.4-4.98-1.26-9.84-2.69-14.39c-1.53-4.5-3.31-8.79-5.66-12.5c-2.26-3.75-4.8-7.06-7.45-9.84
				c-1.29-1.42-2.6-2.71-3.93-3.85c-1.27-1.21-2.59-2.22-3.83-3.18c-2.48-1.9-4.76-3.42-6.72-4.52c-1.92-1.17-3.51-1.95-4.6-2.47
				c-1.08-0.54-1.66-0.82-1.66-0.82c-0.1-0.05-0.22-0.01-0.27,0.09c-0.05,0.1,0,0.22,0.1,0.27c0,0,0.57,0.29,1.64,0.83
				c1.08,0.53,2.66,1.3,4.56,2.48c1.94,1.1,4.2,2.63,6.65,4.52c1.22,0.96,2.53,1.96,3.78,3.17c1.31,1.14,2.61,2.43,3.88,3.84
				c2.61,2.77,5.11,6.06,7.33,9.79c2.31,3.68,4.05,7.94,5.54,12.4c1.39,4.51,2.22,9.33,2.59,14.25c0.17,4.89,0.14,10.02-0.76,14.93
				c-0.26,2.5-1.05,4.9-1.6,7.34c-0.85,2.35-1.55,4.75-2.69,6.95c-2.08,4.47-4.76,8.62-7.97,12.1
				c-6.35,7.06-14.13,11.78-21.06,14.96c-3.49,1.58-6.74,2.94-9.65,4.05c-2.92,1.1-5.53,1.91-7.64,2.77
				c-2.15,0.79-3.7,1.77-4.7,2.48c-1.03,0.69-1.52,1.08-1.52,1.08l-0.04,0.03c-0.25,0.2-0.29,0.56-0.08,0.8
				c0.2,0.24,0.57,0.28,0.82,0.08C72.93,131.02,72.95,131.01,72.96,131z"/>
		</g>
	</g>
	<g>
		<g>
			<linearGradient id="SVGID_1_" gradientUnits="userSpaceOnUse" x1="51.8324" y1="40.228" x2="89.4826" y2="40.228">
				<stop  offset="0" style="stop-color:#DB0D15"/>
				<stop  offset="0.0109" style="stop-color:#D20E13"/>
				<stop  offset="0.0463" style="stop-color:#B8100E"/>
				<stop  offset="0.085" style="stop-color:#A01108"/>
				<stop  offset="0.1267" style="stop-color:#8B1003"/>
				<stop  offset="0.1722" style="stop-color:#790F00"/>
				<stop  offset="0.2231" style="stop-color:#6B0D00"/>
				<stop  offset="0.2825" style="stop-color:#610C00"/>
				<stop  offset="0.358" style="stop-color:#5B0A00"/>
				<stop  offset="0.5047" style="stop-color:#590A00"/>
				<stop  offset="0.6954" style="stop-color:#5B0A00"/>
				<stop  offset="0.7678" style="stop-color:#600B00"/>
				<stop  offset="0.8201" style="stop-color:#690D00"/>
				<stop  offset="0.8627" style="stop-color:#760F00"/>
				<stop  offset="0.8994" style="stop-color:#861002"/>
				<stop  offset="0.932" style="stop-color:#991107"/>
				<stop  offset="0.9616" style="stop-color:#AF100C"/>
				<stop  offset="0.988" style="stop-color:#C80F11"/>
				<stop  offset="1" style="stop-color:#D40D13"/>
			</linearGradient>
			<path class="st1" d="M51.83,9.8c0,0,2.06,41.25,6.5,54.83s25,0,25,0s4.22-5.65,6.15-54.83H51.83z"/>
			<g>
				
					<radialGradient id="SVGID_00000111907409608967523310000005284331199974806204_" cx="70.745" cy="70.2688" r="68.3711" gradientUnits="userSpaceOnUse">
					<stop  offset="0.4508" style="stop-color:#2B2600"/>
					<stop  offset="0.5934" style="stop-color:#4F4800"/>
				</radialGradient>
				<path style="fill:url(#SVGID_00000111907409608967523310000005284331199974806204_);" d="M93.48,68.37l-22.39-2.39v-0.05
					l-0.18,0.03l-0.18-0.03v0.05l-22.39,2.39l-12.49,36.3c0.21,0.92,0.46,1.78,0.79,2.6c0.79,2.26,1.88,4.19,3.21,5.81
					c0.64,0.8,1.34,1.52,2.08,2.14c10.62-2.08,18.95-2.9,23.89-3.22c3.22-0.21,4.99-0.21,4.99-0.21h0.2c0,0,1.57,0,4.47,0.18
					c4.79,0.29,13.19,1.08,23.99,3.17c0.74-0.62,1.44-1.34,2.06-2.16c1.36-1.67,2.47-3.68,3.26-6.02c0.26-0.74,0.49-1.49,0.67-2.29
					c0,0,0.11-0.38,0.18-0.95L93.48,68.37z"/>
				
					<linearGradient id="SVGID_00000016754815444631660560000017495664958754940601_" gradientUnits="userSpaceOnUse" x1="70.745" y1="40.5396" x2="70.745" y2="117.1264">
					<stop  offset="0" style="stop-color:#E2CE69"/>
					<stop  offset="1" style="stop-color:#685818"/>
				</linearGradient>
				<path style="fill:url(#SVGID_00000016754815444631660560000017495664958754940601_);" d="M93.48,68.37l-22.39-2.39v-0.05
					l-0.18,0.03l-0.18-0.03v0.05l-22.39,2.39l-12.49,36.3c0.21,0.92,0.46,1.78,0.79,2.6c0.26-0.23,0.52-0.44,0.79-0.65l0.56-0.46
					l0.23-0.67l11.96-34.81l20.73-2.21l20.72,2.21l11.96,34.81l0.25,0.67l0.54,0.46c0.13,0.11,0.26,0.21,0.41,0.34
					c0.26-0.74,0.49-1.49,0.67-2.29c0,0,0.11-0.38,0.18-0.95L93.48,68.37z M71.01,109.28h-0.2c-0.21,0-1.77,0-4.47,0.16
					c-5.14,0.31-14.43,1.18-26.49,3.63c0.64,0.8,1.34,1.52,2.08,2.14c10.62-2.08,18.95-2.9,23.89-3.22
					c3.22-0.21,4.99-0.21,4.99-0.21h0.2c0,0,1.57,0,4.47,0.18c4.79,0.29,13.19,1.08,23.99,3.17c0.74-0.62,1.44-1.34,2.06-2.16
					c-12.24-2.45-21.6-3.29-26.56-3.55C72.58,109.28,71.2,109.28,71.01,109.28z"/>
				<path class="st4" d="M105.63,103.72c-0.07,0.57-0.18,0.95-0.18,0.95c-0.18,0.8-0.41,1.55-0.67,2.29
					c-0.79,2.34-1.9,4.35-3.26,6.02c-0.62,0.82-1.33,1.54-2.06,2.16c-5.83,5.17-14.17,5.5-19.72,1.49c-2.24-1.62-3.6-3.21-4.27-4.66
					c-0.43-0.92-0.57-1.77-0.51-2.54c0.23-2.54,2.83-4.24,6.28-4.16c6.2,0.15,8.93-1.36,5.91-11.65c-3.03-10.28,8.46,3.03,7.71-6.81
					c-0.41-5.29-1.87-9.07-3.13-11.46c-6.2-3.44-13.34-5.4-20.93-5.4c-7.77,0-15.07,2.06-21.37,5.65c-1.23,2.39-2.6,6.1-2.99,11.21
					c-0.75,9.84,10.75-3.47,7.72,6.81c-3.03,10.29-0.31,11.8,5.89,11.65c3.45-0.08,6.07,1.62,6.28,4.17
					c0.08,0.79-0.08,1.64-0.52,2.55c-0.67,1.44-2.03,3.03-4.24,4.63c-5.53,3.99-13.83,3.68-19.65-1.41
					c-0.74-0.62-1.44-1.34-2.08-2.14c-1.33-1.62-2.42-3.55-3.21-5.81c-0.33-0.82-0.57-1.69-0.79-2.6c0,0-0.92-3.03,0.75-5.29
					c1.51-2.05,3.16-12.09,2.29-21.6c-0.16-1-0.29-2.01-0.38-3.03c0-0.02,0-0.02,0-0.03c-0.05-0.8-0.08-1.62-0.08-2.42
					c0-2.52,0.28-4.96,0.82-7.31c3.32-14.37,16.18-25.07,31.55-25.07c7.69,0,14.74,2.67,20.29,7.15
					c5.55,4.47,9.59,10.74,11.26,17.92c0.54,2.36,0.83,4.79,0.83,7.31c0,2.65-0.33,5.25-0.95,7.72c-0.44,8.79,1.08,17.46,2.45,19.36
					C105.78,100.85,105.78,102.65,105.63,103.72z"/>
				
					<linearGradient id="SVGID_00000084504623230134825580000009483402902095660171_" gradientUnits="userSpaceOnUse" x1="70.6571" y1="39.9135" x2="70.6571" y2="116.5545">
					<stop  offset="0" style="stop-color:#E2CE69"/>
					<stop  offset="0.141" style="stop-color:#DFCB67"/>
					<stop  offset="0.1917" style="stop-color:#D6C260"/>
					<stop  offset="0.2279" style="stop-color:#C7B355"/>
					<stop  offset="0.2572" style="stop-color:#B39F45"/>
					<stop  offset="0.2823" style="stop-color:#9A8734"/>
					<stop  offset="0.304" style="stop-color:#7E6C23"/>
					<stop  offset="0.3185" style="stop-color:#685818"/>
					<stop  offset="0.3983" style="stop-color:#6B5A19"/>
					<stop  offset="0.4424" style="stop-color:#72611D"/>
					<stop  offset="0.4778" style="stop-color:#7F6E24"/>
					<stop  offset="0.5086" style="stop-color:#948130"/>
					<stop  offset="0.5363" style="stop-color:#B19D43"/>
					<stop  offset="0.5615" style="stop-color:#D6C260"/>
					<stop  offset="0.5677" style="stop-color:#E2CE69"/>
					<stop  offset="0.6398" style="stop-color:#DBC764"/>
					<stop  offset="0.7284" style="stop-color:#C7B355"/>
					<stop  offset="0.8255" style="stop-color:#AA963F"/>
					<stop  offset="0.9282" style="stop-color:#847227"/>
					<stop  offset="1" style="stop-color:#685818"/>
				</linearGradient>
				<path style="fill:url(#SVGID_00000084504623230134825580000009483402902095660171_);" d="M70.81,42.41
					c6.89,0,13.37,2.28,18.73,6.59c5.13,4.13,8.79,9.9,10.32,16.26v0l0.06,0.28c0.51,2.19,0.77,4.46,0.77,6.74
					c0,2.41-0.29,4.81-0.86,7.14l-0.06,0.23l-0.01,0.24c-0.44,8.59,0.9,18.19,2.93,20.96c0.87,1.19,0.38,3.1,0.38,3.1l0,0
					l-0.02,0.08l-0.02,0.08c-2.18,9.42-9.2,12.76-14.54,12.76c-2.67,0-5.26-0.8-7.28-2.27c-3.22-2.33-4-4.28-3.69-5.24
					c0.3-0.93,1.74-1.58,3.49-1.58c0.06,0,0.12,0,0.18,0c0.28,0.01,0.55,0.01,0.82,0.01c2.55,0,5.71-0.31,7.53-2.75
					c1.8-2.4,1.8-6.03,0.01-12.12c-0.05-0.17-0.1-0.33-0.14-0.48c1.06,0.36,2.24,0.74,3.44,0.74c1.64,0,2.66-0.72,3.22-1.33
					c1.4-1.51,1.4-3.7,1.29-5.22c-0.45-5.8-2.1-9.96-3.4-12.44l-0.35-0.66l-0.65-0.36c-6.75-3.73-14.4-5.7-22.15-5.7
					c-7.92,0-15.74,2.06-22.61,5.96l-0.65,0.37l-0.34,0.66c-1.79,3.49-2.92,7.7-3.26,12.16c-0.12,1.52-0.11,3.72,1.29,5.22
					c0.56,0.61,1.58,1.33,3.22,1.33c1.2,0,2.39-0.39,3.44-0.74c-0.04,0.15-0.08,0.31-0.14,0.48c-1.79,6.09-1.79,9.72,0.01,12.12
					c1.82,2.44,4.98,2.75,7.53,2.75c0.27,0,0.54,0,0.82-0.01c0.06,0,0.12,0,0.18,0c1.76,0,3.19,0.65,3.49,1.58
					c0.31,0.96-0.47,2.92-3.69,5.24c-2.02,1.46-4.61,2.27-7.28,2.27c-5.35,0-12.36-3.34-14.54-12.76l-0.01-0.06l-0.02-0.08
					c-0.01-0.02-0.5-1.93,0.37-3.12c2.24-3.05,3.58-14.38,2.76-23.3l-0.01-0.1l-0.02-0.1c-0.15-0.88-0.26-1.79-0.34-2.7l-0.01-0.12
					l-0.01-0.08l0-0.01c-0.05-0.76-0.08-1.47-0.08-2.16c0-2.28,0.26-4.55,0.77-6.75c1.49-6.47,5.18-12.34,10.38-16.53
					C57.44,44.69,63.92,42.41,70.81,42.41 M70.81,39.91c-15.37,0-28.24,10.7-31.55,25.07c-0.54,2.35-0.83,4.8-0.83,7.31
					c0,0.82,0.03,1.62,0.09,2.43l0,0c0,0.01,0,0.02,0,0.03c0.08,1.02,0.2,2.04,0.37,3.03c0.87,9.5-0.79,19.55-2.29,21.59
					c-1.66,2.27-0.76,5.3-0.76,5.3c2.31,9.96,9.85,14.69,16.98,14.69c3.16,0,6.24-0.93,8.74-2.74c8.06-5.82,4.78-11.35-1.27-11.35
					c-0.08,0-0.16,0-0.24,0c-0.26,0.01-0.51,0.01-0.76,0.01c-5.66,0-8.04-1.8-5.14-11.66c0.96-3.27,0.45-4.16-0.66-4.16
					c-1.31,0-3.45,1.21-5.04,1.21c-1.31,0-2.25-0.83-2.01-3.87c0.39-5.11,1.76-8.82,2.99-11.21c6.31-3.58,13.6-5.64,21.37-5.64
					c7.59,0,14.73,1.96,20.94,5.39c1.26,2.38,2.71,6.17,3.12,11.46c0.23,3.03-0.7,3.87-2.01,3.87c-1.59,0-3.73-1.21-5.04-1.21
					c-1.12,0-1.62,0.88-0.66,4.16c2.9,9.86,0.52,11.66-5.14,11.66c-0.25,0-0.5,0-0.76-0.01c-0.08,0-0.16,0-0.25,0
					c-6.05,0-9.33,5.53-1.27,11.35c2.51,1.81,5.59,2.74,8.74,2.74c7.13,0,14.67-4.73,16.98-14.69c0,0,0.91-3.03-0.76-5.3
					c-1.38-1.89-2.9-10.56-2.45-19.35c0.61-2.48,0.94-5.07,0.94-7.74c0-2.51-0.29-4.96-0.83-7.31c0-0.01,0-0.01,0-0.01
					C99.05,50.62,86.18,39.91,70.81,39.91L70.81,39.91z"/>
				<path class="st4" d="M103.86,66.77v18.6c-0.79-0.94-1.62-1.83-2.48-2.69c-7.85-7.86-18.69-12.72-30.67-12.72
					c-11.99,0-22.83,4.86-30.67,12.72c-0.87,0.87-1.7,1.76-2.48,2.7v-18.6c0.52-0.62,1.05-1.22,1.61-1.8
					c7.91-8.39,19.11-13.62,31.55-13.62c12.43,0,23.63,5.23,31.55,13.62c0,0,0,0,0,0.01C102.81,65.57,103.35,66.17,103.86,66.77z"/>
				<path class="st6" d="M103.86,66.77v1.67c-0.52-0.61-1.05-1.21-1.61-1.78c0-0.01,0-0.01,0-0.01
					c-7.91-8.39-19.12-13.62-31.54-13.62c-12.44,0-23.64,5.23-31.55,13.62c-0.56,0.57-1.1,1.17-1.62,1.79v-1.67
					c0.52-0.62,1.06-1.22,1.62-1.79c7.91-8.39,19.11-13.62,31.55-13.62c12.42,0,23.63,5.23,31.54,13.62c0,0,0,0,0,0.01
					C102.81,65.57,103.35,66.17,103.86,66.77z"/>
				<path class="st7" d="M103.86,83.85v1.67c-0.52-0.61-1.05-1.21-1.61-1.78c0-0.01,0-0.01,0-0.01
					c-7.91-8.39-19.12-13.62-31.54-13.62c-12.44,0-23.64,5.23-31.55,13.62c-0.56,0.57-1.1,1.17-1.62,1.79v-1.67
					c0.52-0.62,1.06-1.22,1.62-1.79c7.91-8.39,19.11-13.62,31.55-13.62c12.42,0,23.63,5.23,31.54,13.62c0,0,0,0,0,0.01
					C102.81,82.64,103.35,83.24,103.86,83.85z"/>
				<polygon class="st8" points="37.55,66.77 38.62,67.23 38.62,82.64 37.55,85.52 				"/>
				<polygon class="st8" points="103.86,66.79 102.79,67.25 102.79,82.66 103.86,85.54 				"/>
			</g>
			<polygon class="st7" points="73.47,51.02 67.64,51.02 65.89,43.04 75.21,43.04 			"/>
			
				<radialGradient id="SVGID_00000058582661754912060500000007121144123484044418_" cx="70.9117" cy="8.1664" r="37.5813" gradientTransform="matrix(-0.014 0.9999 -0.5234 -7.306218e-03 76.1755 -62.6787)" gradientUnits="userSpaceOnUse">
				<stop  offset="0" style="stop-color:#A31008"/>
				<stop  offset="1" style="stop-color:#DB0D15"/>
			</radialGradient>
			<path style="fill:url(#SVGID_00000058582661754912060500000007121144123484044418_);" d="M90.88,7.56
				c-21.87-17.01-40.44,0-40.44,0s-1.66,39.63,19.98,39.6C92.44,47.14,90.88,7.56,90.88,7.56z"/>
		</g>
	</g>
</g>
</svg>
