<?xml version="1.0" encoding="utf-8"?>
<!-- Generator: Adobe Illustrator 26.0.3, SVG Export Plug-In . SVG Version: 6.00 Build 0)  -->
<svg version="1.1" id="Livello_1" xmlns="http://www.w3.org/2000/svg" xmlns:xlink="http://www.w3.org/1999/xlink" x="0px" y="0px"
	 viewBox="0 0 141.73 141.73" style="enable-background:new 0 0 141.73 141.73;" xml:space="preserve">
<style type="text/css">
	.st0{fill:url(#SVGID_1_);}
	.st1{fill:url(#SVGID_00000121271347121060431210000013492605302121230465_);}
	.st2{fill:#9FA9AA;}
	.st3{fill:url(#SVGID_00000125580756805978785650000018345517708541376390_);}
	.st4{fill:#BFC1C1;}
	.st5{fill:#525252;}
	.st6{fill:#7E8F91;}
</style>
<g>
	<g>
		<g>
			<g>
				<radialGradient id="SVGID_1_" cx="70.7026" cy="56.9123" r="71.5802" gradientUnits="userSpaceOnUse">
					<stop  offset="0.4437" style="stop-color:#1E180F"/>
					<stop  offset="0.5934" style="stop-color:#525252"/>
				</radialGradient>
				<path class="st0" d="M94.49,54.91l-23.43-2.5v-0.03l-0.2,0.02l-0.18-0.02v0.03l-23.43,2.5L34.17,92.92
					c0.21,0.95,0.49,1.85,0.82,2.72c0.82,2.36,1.98,4.39,3.37,6.07c0.65,0.83,1.39,1.6,2.16,2.26c11.14-2.18,19.88-3.04,25.04-3.37
					c3.35-0.23,5.2-0.23,5.2-0.23h0.21c0,0,1.65,0,4.68,0.18c5.01,0.31,13.81,1.15,25.12,3.34c0.77-0.65,1.51-1.42,2.14-2.26
					c1.44-1.75,2.6-3.85,3.42-6.32c0.28-0.77,0.51-1.55,0.7-2.39c0,0,0.11-0.38,0.2-0.98L94.49,54.91z"/>
				
					<linearGradient id="SVGID_00000096025517416101296440000017068189055405554579_" gradientUnits="userSpaceOnUse" x1="70.7026" y1="25.7913" x2="70.7026" y2="105.9635">
					<stop  offset="0" style="stop-color:#BFC1C1"/>
					<stop  offset="1" style="stop-color:#525252"/>
				</linearGradient>
				<path style="fill:url(#SVGID_00000096025517416101296440000017068189055405554579_);" d="M94.49,54.91l-23.43-2.5v-0.03
					l-0.2,0.02l-0.18-0.02v0.03l-23.43,2.5L34.17,92.92c0.21,0.95,0.49,1.85,0.82,2.72c0.28-0.23,0.56-0.46,0.83-0.69l0.57-0.47
					l0.25-0.7l12.54-36.43l21.68-2.32l21.7,2.32l12.54,36.43l0.25,0.7l0.57,0.47c0.15,0.11,0.28,0.23,0.43,0.36
					c0.28-0.77,0.51-1.55,0.7-2.39c0,0,0.11-0.38,0.2-0.98L94.49,54.91z M70.97,97.75h-0.21c-0.21,0-1.83,0-4.66,0.16
					c-5.38,0.33-15.1,1.24-27.74,3.8c0.65,0.83,1.39,1.6,2.16,2.26c11.14-2.18,19.88-3.04,25.04-3.37c3.35-0.23,5.2-0.23,5.2-0.23
					h0.21c0,0,1.65,0,4.68,0.18c5.01,0.31,13.81,1.15,25.12,3.34c0.77-0.65,1.51-1.42,2.14-2.26c-12.8-2.59-22.58-3.44-27.79-3.73
					C72.63,97.75,71.17,97.75,70.97,97.75z"/>
				<path class="st2" d="M107.24,91.94c-0.08,0.61-0.2,0.98-0.2,0.98c-0.2,0.83-0.43,1.62-0.7,2.39c-0.82,2.47-1.98,4.57-3.42,6.32
					c-0.64,0.83-1.37,1.6-2.14,2.26c-6.1,5.4-14.84,5.74-20.65,1.55c-2.34-1.7-3.78-3.37-4.47-4.89c-0.44-0.95-0.61-1.85-0.52-2.65
					c0.23-2.65,2.96-4.43,6.56-4.34c6.5,0.15,9.36-1.44,6.19-12.21c-3.17-10.77,8.87,3.17,8.08-7.12
					c-0.43-5.55-1.95-9.51-3.27-12.01c-6.5-3.58-13.98-5.65-21.93-5.65c-8.13,0-15.76,2.16-22.37,5.91
					c-1.29,2.5-2.72,6.4-3.13,11.75c-0.8,10.29,11.24-3.65,8.07,7.12c-3.16,10.77-0.31,12.36,6.19,12.21
					c3.62-0.1,6.35,1.69,6.58,4.35c0.08,0.82-0.1,1.72-0.54,2.68c-0.72,1.52-2.14,3.16-4.45,4.84c-5.79,4.17-14.5,3.85-20.59-1.47
					c-0.77-0.65-1.51-1.42-2.16-2.26c-1.39-1.69-2.55-3.71-3.37-6.07c-0.33-0.87-0.61-1.77-0.82-2.72c0,0-0.95-3.17,0.79-5.55
					c1.57-2.14,3.32-12.65,2.41-22.6c-0.18-1.05-0.31-2.11-0.39-3.17v-0.05c-0.07-0.83-0.1-1.69-0.1-2.54
					c0-2.62,0.29-5.19,0.87-7.66c3.47-15.02,16.94-26.23,33.02-26.23c16.1,0,29.57,11.21,33.04,26.23c0,0,0,0,0,0.02
					c0.57,2.45,0.87,5.02,0.87,7.64c0,2.8-0.34,5.5-0.98,8.1c-0.47,9.2,1.11,18.28,2.57,20.26
					C107.38,88.93,107.38,90.81,107.24,91.94z"/>
				
					<linearGradient id="SVGID_00000168818122406638725700000014953746879406466207_" gradientUnits="userSpaceOnUse" x1="70.6058" y1="25.1215" x2="70.6058" y2="105.3631">
					<stop  offset="0" style="stop-color:#BFC1C1"/>
					<stop  offset="0.1478" style="stop-color:#BDBEBE"/>
					<stop  offset="0.201" style="stop-color:#B4B5B5"/>
					<stop  offset="0.239" style="stop-color:#A5A7A6"/>
					<stop  offset="0.2696" style="stop-color:#929392"/>
					<stop  offset="0.2956" style="stop-color:#7A7B7B"/>
					<stop  offset="0.3185" style="stop-color:#5F6161"/>
					<stop  offset="0.4054" style="stop-color:#626363"/>
					<stop  offset="0.4533" style="stop-color:#696A6A"/>
					<stop  offset="0.4918" style="stop-color:#767776"/>
					<stop  offset="0.5253" style="stop-color:#8A8B8A"/>
					<stop  offset="0.5552" style="stop-color:#A4A6A5"/>
					<stop  offset="0.5677" style="stop-color:#B4B5B4"/>
					<stop  offset="0.6413" style="stop-color:#AEAFAE"/>
					<stop  offset="0.7318" style="stop-color:#9E9E9E"/>
					<stop  offset="0.831" style="stop-color:#868685"/>
					<stop  offset="0.9358" style="stop-color:#676666"/>
					<stop  offset="1" style="stop-color:#525252"/>
				</linearGradient>
				<path style="fill:url(#SVGID_00000168818122406638725700000014953746879406466207_);" d="M70.77,27.74c7.22,0,14,2.39,19.61,6.9
					c5.37,4.33,9.2,10.36,10.81,17.03v0l0.07,0.29c0.53,2.3,0.8,4.67,0.8,7.06c0,2.52-0.3,5.03-0.9,7.47l-0.06,0.24l-0.01,0.25
					c-0.46,8.99,0.94,19.04,3.07,21.94c0.92,1.25,0.4,3.24,0.4,3.24l0,0l-0.02,0.08l-0.02,0.08c-2.28,9.86-9.63,13.36-15.23,13.36
					c-2.8,0-5.5-0.84-7.62-2.37c-3.37-2.44-4.19-4.48-3.86-5.49c0.32-0.98,1.82-1.66,3.66-1.66c0.06,0,0.13,0,0.19,0
					c0.29,0.01,0.58,0.01,0.86,0.01c2.67,0,5.98-0.33,7.89-2.88c1.88-2.51,1.88-6.31,0.01-12.69c-0.05-0.18-0.1-0.35-0.14-0.51
					c1.1,0.37,2.35,0.78,3.6,0.78c1.72,0,2.78-0.76,3.37-1.39c1.46-1.58,1.47-3.88,1.35-5.47C98.1,67.96,96.37,63.6,95,61.01
					l-0.36-0.69l-0.68-0.38c-7.06-3.91-15.08-5.97-23.19-5.97c-8.29,0-16.48,2.16-23.67,6.24l-0.68,0.39l-0.36,0.7
					c-1.87,3.65-3.05,8.06-3.41,12.73c-0.12,1.59-0.12,3.89,1.35,5.47c0.59,0.64,1.65,1.39,3.37,1.39c1.26,0,2.5-0.41,3.6-0.78
					c-0.04,0.16-0.09,0.32-0.14,0.51c-1.88,6.38-1.87,10.17,0.01,12.69c1.91,2.55,5.22,2.88,7.89,2.88c0.28,0,0.57,0,0.86-0.01
					c0.06,0,0.13,0,0.19,0c1.84,0,3.34,0.68,3.66,1.66c0.33,1.01-0.49,3.05-3.86,5.49c-2.12,1.53-4.82,2.37-7.62,2.37
					c-5.6,0-12.94-3.5-15.23-13.36l-0.01-0.06l-0.02-0.08c-0.01-0.02-0.53-2.02,0.39-3.27c2.34-3.2,3.75-15.05,2.89-24.39l-0.01-0.1
					l-0.02-0.1c-0.16-0.92-0.28-1.88-0.35-2.83l-0.01-0.13l-0.01-0.08l0-0.01c-0.06-0.8-0.09-1.54-0.09-2.26
					c0-2.39,0.27-4.76,0.8-7.07c1.56-6.77,5.42-12.92,10.87-17.31C56.77,30.13,63.55,27.74,70.77,27.74 M70.77,25.12
					c-16.09,0-29.56,11.21-33.03,26.24c-0.57,2.46-0.87,5.03-0.87,7.66c0,0.85,0.04,1.7,0.1,2.54l0,0c0,0.01,0,0.02,0.01,0.03
					c0.08,1.07,0.21,2.13,0.39,3.18c0.91,9.95-0.83,20.46-2.4,22.61c-1.74,2.38-0.79,5.54-0.79,5.54
					c2.42,10.43,10.31,15.38,17.78,15.38c3.31,0,6.53-0.97,9.15-2.87c8.44-6.1,5.01-11.88-1.33-11.88c-0.08,0-0.17,0-0.26,0
					c-0.27,0.01-0.54,0.01-0.79,0.01c-5.93,0-8.42-1.88-5.38-12.21c1.01-3.43,0.48-4.35-0.69-4.35c-1.37,0-3.62,1.27-5.28,1.27
					c-1.38,0-2.35-0.87-2.11-4.05c0.41-5.35,1.85-9.23,3.13-11.74c6.6-3.75,14.24-5.9,22.38-5.9c7.95,0,15.42,2.05,21.92,5.65
					c1.32,2.5,2.84,6.46,3.27,12c0.24,3.18-0.73,4.05-2.11,4.05c-1.66,0-3.91-1.27-5.28-1.27c-1.17,0-1.7,0.92-0.69,4.35
					c3.04,10.32,0.54,12.21-5.38,12.21c-0.26,0-0.52,0-0.79-0.01c-0.09,0-0.17,0-0.26,0c-6.33,0-9.77,5.79-1.33,11.88
					c2.63,1.9,5.85,2.87,9.15,2.87c7.47,0,15.36-4.95,17.78-15.38c0,0,0.95-3.17-0.79-5.54c-1.45-1.98-3.04-11.06-2.57-20.26
					c0.64-2.6,0.98-5.31,0.98-8.1c0-2.63-0.3-5.19-0.87-7.65c0-0.01,0-0.01,0-0.01C100.33,36.33,86.86,25.12,70.77,25.12
					L70.77,25.12z"/>
				<path class="st2" d="M105.37,53.24v19.48c-0.82-0.98-1.69-1.92-2.6-2.82c-8.22-8.23-19.57-13.32-32.11-13.32
					c-12.55,0-23.9,5.09-32.12,13.31c-0.91,0.91-1.78,1.84-2.6,2.82V53.24c0.54-0.64,1.1-1.27,1.69-1.88
					c8.28-8.78,20.01-14.26,33.03-14.26c13.01,0,24.74,5.48,33.03,14.26c0,0,0,0,0,0.01C104.27,51.98,104.83,52.61,105.37,53.24z"/>
				<path class="st4" d="M105.37,53.24v1.74c-0.54-0.64-1.1-1.26-1.68-1.87c0-0.01,0-0.01,0-0.01
					c-8.29-8.78-20.02-14.26-33.02-14.26c-13.02,0-24.75,5.48-33.03,14.26c-0.58,0.6-1.15,1.23-1.69,1.88v-1.74
					c0.54-0.65,1.11-1.27,1.69-1.88c8.28-8.78,20.01-14.26,33.03-14.26c13,0,24.74,5.48,33.02,14.26c0,0,0,0,0,0.01
					C104.27,51.98,104.83,52.61,105.37,53.24z"/>
				<path class="st5" d="M105.37,71.12v1.74c-0.54-0.64-1.1-1.26-1.68-1.87c0-0.01,0-0.01,0-0.01
					c-8.29-8.78-20.02-14.26-33.02-14.26c-13.02,0-24.75,5.48-33.03,14.26c-0.58,0.6-1.15,1.23-1.69,1.88v-1.74
					c0.54-0.65,1.11-1.27,1.69-1.88c8.28-8.78,20.01-14.26,33.03-14.26c13,0,24.74,5.48,33.02,14.26c0,0,0,0,0,0.01
					C104.27,69.86,104.83,70.49,105.37,71.12z"/>
				<polygon class="st6" points="35.94,53.24 37.06,53.72 37.06,69.85 35.94,72.87 				"/>
				<polygon class="st6" points="105.37,53.26 104.25,53.74 104.25,69.87 105.37,72.89 				"/>
			</g>
		</g>
	</g>
</g>
</svg>
