<svg xmlns="http://www.w3.org/2000/svg" viewBox="0 0 30 30">
    <defs>
        <style>.cls-1{fill:#fb0;}.cls-2{fill:#078214;}.cls-3{fill:#d0fecd;}</style>
    </defs>
    <g id="Livello_2" >
        <g id="Livello_1-2">
            <circle id="Ellipse_100-10"  class="cls-1" cx="15" cy="15" r="15"/>
            <circle id="Ellipse_99-4"  class="cls-2" cx="15" cy="15" r="15"/>
            <path id="Path_20-4"  class="cls-3"
                  d="M11.64,16.05a1.89,1.89,0,0,0,.75-.34,1.54,1.54,0,0,0,.7-1.87c-.35-.57-1.3-.53-2,.12a2.29,2.29,0,0,0-.84,1.89,2.55,2.55,0,0,0,1.06,2,5.48,5.48,0,0,1,1.53-.81h0A2,2,0,0,1,11.64,16.05Zm-.11-1.61a.35.35,0,0,1,.35-.34.34.34,0,0,1,.34.35.35.35,0,0,1-.7,0h0Z"/>
            <path id="Path_21-4"  class="cls-3"
                  d="M19.8,15.85A2.29,2.29,0,0,0,19,14c-.73-.64-1.68-.68-2-.11a1.54,1.54,0,0,0,.7,1.87,2.12,2.12,0,0,0,.75.34,1.6,1.6,0,0,1-.74.8c-.55.33-.85.37-4.37,1.54a2.62,2.62,0,0,0-2.08,2.35,2.15,2.15,0,0,0,.9,1.71,4.3,4.3,0,0,1,1.21-.86c-.55-.28-.72-.49-.72-.85,0-.6,1.2-.94,1.75-1.12v1.51l1.39-.62v-.89c.55.18,1.74.52,1.74,1.12,0,1-2.84,1.57-4,2.4a1.82,1.82,0,0,0-.9,1.53,1.3,1.3,0,0,0,.65,1.21.2.2,0,0,0,.28,0,.21.21,0,0,0,0-.24c-.4-.81,0-1.21.85-1.56v1.17a.7.7,0,0,0,1.4.15V24.06c.8.34,1.3.81.85,1.56a.21.21,0,0,0,.06.28.21.21,0,0,0,.24,0,1.32,1.32,0,0,0,.64-1.2,1.89,1.89,0,0,0-.9-1.53c1.19-.43,2.24-1.15,2.24-2.41a2.44,2.44,0,0,0-1.51-2.12,5,5,0,0,0,1-.44A2.72,2.72,0,0,0,19.8,15.85Zm-1.66-1a.36.36,0,0,1-.36-.35.35.35,0,1,1,.7,0h0a.35.35,0,0,1-.34.36Z"/>
            <path id="Path_22-4"  class="cls-3"
                  d="M24.74,7.14H20a3,3,0,0,0-2.24,1c-.66.66-1,2.11-2,2.11V8.34a1.39,1.39,0,1,0-1.91-.51,1.46,1.46,0,0,0,.51.51v8.3l1.4-.45V12.7a1.51,1.51,0,0,0,.69-.7,1.43,1.43,0,0,0,1.21.71A1.39,1.39,0,0,0,18.81,12,2.32,2.32,0,0,0,22,12l-1.18-1.18.54.23A2.09,2.09,0,0,0,24,9.93l-1.68-.7A2.12,2.12,0,0,0,24.73,7.4,2.26,2.26,0,0,0,24.74,7.14Z"/>
            <path id="Path_23-4" class="cls-3"
                  d="M12.26,8.16a3,3,0,0,0-2.24-1H5.26A2.11,2.11,0,0,0,7.38,9.25l.25,0L6,9.93a2.09,2.09,0,0,0,2.73,1.13l.54-.22L8,12a2.33,2.33,0,0,0,3.15,0,1.38,1.38,0,0,0,1.2.71h0a1.28,1.28,0,0,0,1.2-1.3V10C13.06,9.56,12.75,8.64,12.26,8.16Z"/>
        </g>
    </g>
</svg>