<?xml version="1.0" encoding="utf-8"?>
<!-- Generator: Adobe Illustrator 26.0.3, SVG Export Plug-In . SVG Version: 6.00 Build 0)  -->
<svg version="1.1" id="Livello_1" xmlns="http://www.w3.org/2000/svg" xmlns:xlink="http://www.w3.org/1999/xlink" x="0px" y="0px"
	 viewBox="0 0 141.73 141.73" style="enable-background:new 0 0 141.73 141.73;" xml:space="preserve">
<style type="text/css">
	.st0{fill:url(#SVGID_1_);}
	.st1{fill:url(#SVGID_00000096043683792850802340000011206224907103653045_);}
	.st2{fill:url(#SVGID_00000102535845086683177300000017665775341807296663_);}
	.st3{fill:url(#SVGID_00000093898166960523529030000001778197419686872218_);}
	.st4{fill:#9FA9AA;}
	.st5{fill:url(#SVGID_00000114054781616197380990000011523122992389034936_);}
	.st6{fill:url(#SVGID_00000039821701563292987870000009719242757053541811_);}
	.st7{fill:url(#SVGID_00000139262600186315252180000010050409408040380600_);}
	.st8{fill:#BFC1C1;}
	.st9{fill:#525252;}
	.st10{fill:#7E8F91;}
	.st11{fill:url(#SVGID_00000029765681290657496270000001642713996873550229_);}
	.st12{fill:url(#SVGID_00000067952966096353994080000000795879083997096865_);}
</style>
<g>
	<g>
		<g>
			<radialGradient id="SVGID_1_" cx="70.6146" cy="40.3923" r="25.2376" gradientUnits="userSpaceOnUse">
				<stop  offset="0" style="stop-color:#000000"/>
				<stop  offset="0.1145" style="stop-color:#010000"/>
				<stop  offset="0.2388" style="stop-color:#030200"/>
				<stop  offset="0.3677" style="stop-color:#0A0B00"/>
				<stop  offset="0.4998" style="stop-color:#131409"/>
				<stop  offset="0.6344" style="stop-color:#1C1C15"/>
				<stop  offset="0.771" style="stop-color:#24241F"/>
				<stop  offset="0.9066" style="stop-color:#2C2C29"/>
				<stop  offset="1" style="stop-color:#323230"/>
			</radialGradient>
			<path class="st0" d="M89.39,10.04c-0.46,11.65-1.04,20.85-1.67,28.1c-0.15,1.72-0.31,3.32-0.46,4.83c-1.91,18.95-4,21.75-4,21.75
				s-20.49,13.56-24.95,0c-1.56-4.81-2.84-13.06-3.81-21.75h-0.02c-0.19-1.62-0.36-3.23-0.51-4.85
				c-1.46-14.25-2.14-28.08-2.14-28.08H89.39z"/>
			
				<linearGradient id="SVGID_00000046333666550116777240000017258388818662985101_" gradientUnits="userSpaceOnUse" x1="51.8376" y1="26.9369" x2="89.3916" y2="26.9369">
				<stop  offset="0" style="stop-color:#F5EECA"/>
				<stop  offset="0.0863" style="stop-color:#E8E2C3"/>
				<stop  offset="0.2561" style="stop-color:#C7C3AE"/>
				<stop  offset="0.4782" style="stop-color:#929186"/>
				<stop  offset="0.6581" style="stop-color:#B7B4A3"/>
				<stop  offset="1" style="stop-color:#FFF7D2"/>
			</linearGradient>
			<path style="fill:url(#SVGID_00000046333666550116777240000017258388818662985101_);" d="M89.39,10.04
				c-0.46,11.65-1.04,20.85-1.67,28.1l-12.31,5.7h-9.86l-11.57-5.71c-1.46-14.25-2.14-28.08-2.14-28.08H89.39z"/>
			<g>
				
					<radialGradient id="SVGID_00000089560244193898849000000008103568357932245665_" cx="70.7123" cy="70.328" r="68.1835" gradientUnits="userSpaceOnUse">
					<stop  offset="0.4437" style="stop-color:#1E180F"/>
					<stop  offset="0.5934" style="stop-color:#525252"/>
				</radialGradient>
				<path style="fill:url(#SVGID_00000089560244193898849000000008103568357932245665_);" d="M93.38,68.43l-22.34-2.39V66
					l-0.18,0.02L70.7,66v0.03l-22.34,2.39L35.9,104.64c0.21,0.9,0.46,1.77,0.77,2.59c0.79,2.26,1.9,4.19,3.22,5.79
					c0.62,0.79,1.31,1.51,2.05,2.13c10.6-2.06,18.93-2.88,23.86-3.21c3.21-0.21,4.96-0.21,4.96-0.21h0.2c0,0,1.57,0,4.47,0.18
					c4.78,0.29,13.17,1.08,23.96,3.17c0.74-0.64,1.42-1.34,2.05-2.14c1.34-1.67,2.47-3.67,3.26-6.02c0.26-0.72,0.47-1.49,0.65-2.27
					c0,0,0.1-0.36,0.18-0.92L93.38,68.43z"/>
				
					<linearGradient id="SVGID_00000171694863124644890580000003436066254289768880_" gradientUnits="userSpaceOnUse" x1="70.7123" y1="40.6876" x2="70.7123" y2="117.0456">
					<stop  offset="0" style="stop-color:#BFC1C1"/>
					<stop  offset="1" style="stop-color:#525252"/>
				</linearGradient>
				<path style="fill:url(#SVGID_00000171694863124644890580000003436066254289768880_);" d="M93.38,68.43l-22.34-2.39V66
					l-0.18,0.02L70.7,66v0.03l-22.34,2.39L35.9,104.64c0.21,0.9,0.46,1.77,0.77,2.59c0.26-0.21,0.54-0.44,0.8-0.65l0.56-0.46
					l0.23-0.67l11.93-34.71l20.67-2.21l20.68,2.21l11.93,34.71l0.23,0.67l0.56,0.46c0.15,0.11,0.28,0.23,0.43,0.34
					c0.26-0.72,0.47-1.49,0.65-2.27c0,0,0.1-0.36,0.18-0.92L93.38,68.43z M70.96,109.24h-0.2c-0.2,0-1.75,0-4.43,0.16
					c-5.12,0.29-14.4,1.16-26.43,3.62c0.62,0.79,1.31,1.51,2.05,2.13c10.6-2.06,18.93-2.88,23.86-3.21
					c3.21-0.21,4.96-0.21,4.96-0.21h0.2c0,0,1.57,0,4.47,0.18c4.78,0.29,13.17,1.08,23.96,3.17c0.74-0.64,1.42-1.34,2.05-2.14
					c-12.22-2.47-21.55-3.29-26.51-3.55C72.53,109.24,71.15,109.24,70.96,109.24z"/>
				<path class="st4" d="M105.52,103.72c-0.08,0.56-0.18,0.92-0.18,0.92c-0.18,0.79-0.39,1.55-0.65,2.27
					c-0.79,2.36-1.91,4.35-3.26,6.02c-0.62,0.8-1.31,1.51-2.05,2.14c-5.81,5.15-14.16,5.48-19.7,1.47c-2.23-1.6-3.58-3.19-4.25-4.65
					c-0.43-0.9-0.57-1.75-0.51-2.52c0.21-2.54,2.81-4.24,6.27-4.16c6.19,0.16,8.9-1.36,5.89-11.62c-3.03-10.26,8.44,3.03,7.69-6.79
					c-0.41-5.27-1.85-9.05-3.11-11.42c-6.2-3.42-13.3-5.38-20.88-5.38c-7.76,0-15.04,2.05-21.32,5.63
					c-1.23,2.39-2.6,6.09-2.99,11.18c-0.75,9.82,10.72-3.47,7.71,6.79c-3.03,10.26-0.31,11.78,5.87,11.62
					c3.47-0.08,6.09,1.62,6.28,4.17c0.07,0.79-0.1,1.64-0.52,2.54c-0.67,1.44-2.03,3.01-4.24,4.61c-5.53,3.99-13.83,3.68-19.62-1.41
					c-0.74-0.62-1.42-1.34-2.05-2.13c-1.33-1.6-2.44-3.53-3.22-5.79c-0.31-0.82-0.56-1.69-0.77-2.59c0,0-0.9-3.03,0.75-5.29
					c1.49-2.05,3.16-12.06,2.29-21.54c-0.18-1-0.29-2.01-0.38-3.03c0-0.02,0-0.03,0-0.03c-0.07-0.8-0.1-1.6-0.1-2.42
					c0-2.5,0.29-4.94,0.83-7.3c3.31-14.32,16.14-25,31.47-25c15.32,0,28.16,10.69,31.47,25c0,0,0,0,0,0.02
					c0.54,2.34,0.82,4.78,0.82,7.28c0,2.65-0.33,5.24-0.93,7.71c-0.44,8.77,1.06,17.43,2.44,19.31
					C105.67,100.84,105.65,102.66,105.52,103.72z"/>
				
					<linearGradient id="SVGID_00000005978139168635888100000010313207311279259281_" gradientUnits="userSpaceOnUse" x1="70.6181" y1="40.0401" x2="70.6181" y2="116.4868">
					<stop  offset="0" style="stop-color:#BFC1C1"/>
					<stop  offset="0.1478" style="stop-color:#BDBEBE"/>
					<stop  offset="0.201" style="stop-color:#B4B5B5"/>
					<stop  offset="0.239" style="stop-color:#A5A7A6"/>
					<stop  offset="0.2696" style="stop-color:#929392"/>
					<stop  offset="0.2956" style="stop-color:#7A7B7B"/>
					<stop  offset="0.3185" style="stop-color:#5F6161"/>
					<stop  offset="0.4054" style="stop-color:#626363"/>
					<stop  offset="0.4533" style="stop-color:#696A6A"/>
					<stop  offset="0.4918" style="stop-color:#767776"/>
					<stop  offset="0.5253" style="stop-color:#8A8B8A"/>
					<stop  offset="0.5552" style="stop-color:#A4A6A5"/>
					<stop  offset="0.5677" style="stop-color:#B4B5B4"/>
					<stop  offset="0.6413" style="stop-color:#AEAFAE"/>
					<stop  offset="0.7318" style="stop-color:#9E9E9E"/>
					<stop  offset="0.831" style="stop-color:#868685"/>
					<stop  offset="0.9358" style="stop-color:#676666"/>
					<stop  offset="1" style="stop-color:#525252"/>
				</linearGradient>
				<path style="fill:url(#SVGID_00000005978139168635888100000010313207311279259281_);" d="M70.77,42.53
					c6.88,0,13.34,2.27,18.68,6.58c5.12,4.12,8.77,9.87,10.29,16.22v0l0.06,0.28c0.51,2.19,0.76,4.45,0.76,6.72
					c0,2.4-0.29,4.8-0.86,7.12l-0.06,0.23l-0.01,0.24c-0.44,8.57,0.9,18.14,2.92,20.9c0.87,1.19,0.38,3.09,0.38,3.09l0,0l-0.02,0.08
					l-0.02,0.08c-2.17,9.39-9.17,12.72-14.51,12.72c-2.67,0-5.24-0.8-7.26-2.26c-3.21-2.32-3.99-4.27-3.68-5.23
					c0.3-0.93,1.73-1.58,3.49-1.58c0.06,0,0.12,0,0.18,0c0.28,0.01,0.55,0.01,0.82,0.01c2.54,0,5.7-0.31,7.51-2.74
					c1.79-2.4,1.79-6.01,0.01-12.09c-0.05-0.17-0.1-0.33-0.13-0.48c1.05,0.36,2.23,0.74,3.43,0.74c1.64,0,2.65-0.72,3.21-1.33
					c1.39-1.5,1.4-3.69,1.28-5.21c-0.44-5.78-2.09-9.94-3.4-12.4l-0.35-0.66l-0.65-0.36c-6.73-3.72-14.37-5.69-22.09-5.69
					c-7.9,0-15.7,2.06-22.55,5.95l-0.65,0.37l-0.34,0.66c-1.79,3.48-2.91,7.68-3.25,12.13c-0.12,1.52-0.11,3.71,1.28,5.21
					c0.56,0.61,1.57,1.33,3.21,1.33c1.2,0,2.38-0.39,3.43-0.74c-0.04,0.15-0.08,0.31-0.13,0.48c-1.79,6.08-1.78,9.69,0.01,12.09
					c1.82,2.43,4.97,2.74,7.51,2.74c0.27,0,0.54,0,0.82-0.01c0.06,0,0.12,0,0.18,0c1.75,0,3.18,0.65,3.49,1.58
					c0.31,0.96-0.47,2.91-3.68,5.23c-2.02,1.46-4.6,2.26-7.26,2.26c-5.33,0-12.33-3.33-14.51-12.72l-0.01-0.06l-0.02-0.08
					c-0.01-0.02-0.5-1.92,0.37-3.11c2.23-3.05,3.57-14.34,2.76-23.24l-0.01-0.1l-0.02-0.1c-0.15-0.88-0.26-1.79-0.33-2.7l-0.01-0.12
					l-0.01-0.08l0-0.01c-0.05-0.76-0.08-1.47-0.08-2.16c0-2.27,0.26-4.54,0.76-6.73c1.49-6.45,5.17-12.31,10.36-16.49
					C57.44,44.81,63.89,42.53,70.77,42.53 M70.77,40.04c-15.33,0-28.16,10.68-31.47,25c-0.54,2.35-0.83,4.79-0.83,7.29
					c0,0.81,0.03,1.62,0.09,2.42l0,0c0,0.01,0,0.02,0,0.03c0.08,1.02,0.2,2.03,0.37,3.02c0.87,9.48-0.79,19.5-2.29,21.54
					c-1.66,2.26-0.75,5.28-0.75,5.28c2.3,9.94,9.82,14.65,16.94,14.65c3.15,0,6.22-0.92,8.72-2.73c8.04-5.81,4.77-11.32-1.26-11.32
					c-0.08,0-0.16,0-0.24,0c-0.26,0.01-0.51,0.01-0.76,0.01c-5.65,0-8.02-1.8-5.13-11.63c0.96-3.27,0.45-4.15-0.66-4.15
					c-1.31,0-3.44,1.21-5.03,1.21c-1.31,0-2.24-0.83-2.01-3.86c0.39-5.1,1.76-8.8,2.99-11.19c6.29-3.57,13.56-5.62,21.32-5.62
					c7.58,0,14.69,1.95,20.88,5.38c1.26,2.38,2.71,6.16,3.11,11.43c0.23,3.03-0.7,3.86-2.01,3.86c-1.58,0-3.72-1.21-5.03-1.21
					c-1.11,0-1.62,0.88-0.66,4.15c2.89,9.83,0.52,11.63-5.13,11.63c-0.25,0-0.5,0-0.76-0.01c-0.08,0-0.16,0-0.24,0
					c-6.03,0-9.31,5.51-1.26,11.32c2.5,1.81,5.57,2.73,8.72,2.73c7.11,0,14.63-4.72,16.93-14.65c0,0,0.91-3.02-0.75-5.28
					c-1.38-1.88-2.89-10.54-2.44-19.3c0.61-2.47,0.93-5.06,0.93-7.72c0-2.51-0.29-4.95-0.83-7.29c0-0.01,0-0.01,0-0.01
					C98.94,50.72,86.1,40.04,70.77,40.04L70.77,40.04z"/>
				
					<linearGradient id="SVGID_00000180343774512976943480000000011768873640912033_" gradientUnits="userSpaceOnUse" x1="36.0657" y1="37.1501" x2="42.6115" y2="37.1501">
					<stop  offset="0" style="stop-color:#FFFEFE"/>
					<stop  offset="0.1119" style="stop-color:#F3F1EC"/>
					<stop  offset="0.3312" style="stop-color:#D4D0BD"/>
					<stop  offset="0.4782" style="stop-color:#BAB69B"/>
					<stop  offset="0.6309" style="stop-color:#CFCCB8"/>
					<stop  offset="1" style="stop-color:#FDFCFC"/>
				</linearGradient>
				<path style="fill:url(#SVGID_00000180343774512976943480000000011768873640912033_);" d="M39.01,66.83
					c-0.94-2.47-1.52-4.95-1.97-7.42c-0.48-2.47-0.77-4.95-0.97-7.42c-0.19-2.47-0.18-4.95,0.03-7.42c0.22-2.47,0.48-4.95,0.62-7.42
					c0.27-4.95,0.6-9.89,0.98-14.84c0.44-4.95,0.79-9.89,1.31-14.84h0.65c0.52,4.95,0.87,9.89,1.31,14.84
					c0.38,4.95,0.71,9.89,0.98,14.84c0.14,2.47,0.4,4.95,0.62,7.42c0.21,2.47,0.22,4.95,0.03,7.42c-0.2,2.47-0.49,4.95-0.97,7.42
					c-0.46,2.47-1.04,4.95-1.97,7.42H39.01z"/>
				
					<linearGradient id="SVGID_00000099622607967731023890000000910577977402645684_" gradientUnits="userSpaceOnUse" x1="98.8256" y1="37.1501" x2="105.3714" y2="37.1501">
					<stop  offset="0" style="stop-color:#FFFEFE"/>
					<stop  offset="0.1119" style="stop-color:#F3F1EC"/>
					<stop  offset="0.3312" style="stop-color:#D4D0BD"/>
					<stop  offset="0.4782" style="stop-color:#BAB69B"/>
					<stop  offset="0.6309" style="stop-color:#CFCCB8"/>
					<stop  offset="1" style="stop-color:#FDFCFC"/>
				</linearGradient>
				<path style="fill:url(#SVGID_00000099622607967731023890000000910577977402645684_);" d="M101.77,66.83
					c-0.94-2.47-1.52-4.95-1.97-7.42c-0.48-2.47-0.77-4.95-0.97-7.42c-0.19-2.47-0.18-4.95,0.03-7.42c0.22-2.47,0.48-4.95,0.62-7.42
					c0.27-4.95,0.6-9.89,0.98-14.84c0.44-4.95,0.79-9.89,1.31-14.84h0.65c0.52,4.95,0.87,9.89,1.31,14.84
					c0.38,4.95,0.71,9.89,0.98,14.84c0.14,2.47,0.4,4.95,0.62,7.42c0.21,2.47,0.22,4.95,0.03,7.42c-0.2,2.47-0.49,4.95-0.97,7.42
					c-0.46,2.47-1.04,4.95-1.97,7.42H101.77z"/>
				<path class="st4" d="M103.74,66.83v18.56c-0.79-0.93-1.61-1.83-2.48-2.68c-7.83-7.84-18.64-12.69-30.59-12.69
					c-11.95,0-22.77,4.85-30.6,12.68c-0.86,0.86-1.69,1.76-2.48,2.69V66.83c0.51-0.61,1.05-1.21,1.61-1.79
					c7.89-8.36,19.06-13.58,31.47-13.58c12.4,0,23.57,5.22,31.47,13.58c0,0,0,0,0,0.01C102.69,65.63,103.22,66.23,103.74,66.83z"/>
				<path class="st8" d="M103.74,66.83v1.66c-0.52-0.61-1.05-1.2-1.6-1.78c0-0.01,0-0.01,0-0.01c-7.89-8.37-19.07-13.59-31.46-13.59
					c-12.41,0-23.58,5.22-31.47,13.59c-0.56,0.57-1.1,1.17-1.61,1.79v-1.66c0.52-0.61,1.06-1.21,1.61-1.79
					c7.89-8.37,19.06-13.59,31.47-13.59c12.39,0,23.57,5.22,31.46,13.59c0,0,0,0,0,0.01C102.69,65.63,103.23,66.23,103.74,66.83z"/>
				<path class="st9" d="M103.74,83.87v1.66c-0.52-0.61-1.05-1.2-1.6-1.78c0-0.01,0-0.01,0-0.01c-7.89-8.37-19.07-13.59-31.46-13.59
					c-12.41,0-23.58,5.22-31.47,13.59c-0.56,0.57-1.1,1.17-1.61,1.79v-1.66c0.52-0.61,1.06-1.21,1.61-1.79
					c7.89-8.37,19.06-13.59,31.47-13.59c12.39,0,23.57,5.22,31.46,13.59c0,0,0,0,0,0.01C102.69,82.66,103.23,83.26,103.74,83.87z"/>
				<polygon class="st10" points="37.6,66.83 38.66,67.28 38.66,82.66 37.6,85.53 				"/>
				<polygon class="st10" points="103.74,66.85 102.67,67.3 102.67,82.68 103.74,85.55 				"/>
			</g>
			<polygon class="st9" points="73.42,51.15 67.6,51.15 65.86,43.19 75.16,43.19 			"/>
			
				<radialGradient id="SVGID_00000119080015367354447840000010982042613505780624_" cx="70.2719" cy="17.2398" r="31.1598" gradientTransform="matrix(-0.0232 0.9997 -0.6011 -0.0139 82.2656 -52.7727)" gradientUnits="userSpaceOnUse">
				<stop  offset="0" style="stop-color:#000000"/>
				<stop  offset="0.1145" style="stop-color:#010000"/>
				<stop  offset="0.2388" style="stop-color:#030200"/>
				<stop  offset="0.3677" style="stop-color:#0A0B00"/>
				<stop  offset="0.4998" style="stop-color:#131409"/>
				<stop  offset="0.6344" style="stop-color:#1C1C15"/>
				<stop  offset="0.771" style="stop-color:#24241F"/>
				<stop  offset="0.9066" style="stop-color:#2C2C29"/>
				<stop  offset="1" style="stop-color:#323230"/>
			</radialGradient>
			<path style="fill:url(#SVGID_00000119080015367354447840000010982042613505780624_);" d="M90.47,16.86
				c-0.35,4.17-1.08,9.24-2.56,14.03c-2.68,8.65-7.79,16.4-17.54,16.42c-9.59,0-14.59-7.79-17.19-16.46
				c-1.43-4.79-2.14-9.85-2.48-14C52.99,15.69,70.3,7.58,90.47,16.86z"/>
			
				<linearGradient id="SVGID_00000008111217502581800730000001393801888576094603_" gradientUnits="userSpaceOnUse" x1="50.4133" y1="8.5581" x2="90.8079" y2="8.5581">
				<stop  offset="0" style="stop-color:#F5EECA"/>
				<stop  offset="0.2071" style="stop-color:#D6D1B2"/>
				<stop  offset="0.3769" style="stop-color:#C2BEA1"/>
				<stop  offset="0.4782" style="stop-color:#BAB69B"/>
				<stop  offset="0.5786" style="stop-color:#BEBA9E"/>
				<stop  offset="0.6953" style="stop-color:#C9C5A7"/>
				<stop  offset="0.8202" style="stop-color:#DCD6B6"/>
				<stop  offset="0.9499" style="stop-color:#F4EDC9"/>
				<stop  offset="1" style="stop-color:#FFF7D2"/>
			</linearGradient>
			<path style="fill:url(#SVGID_00000008111217502581800730000001393801888576094603_);" d="M90.47,16.86
				c-20.17-9.27-37.48-1.17-39.77,0c-0.42-5.25-0.26-9.05-0.26-9.05s18.53-16.98,40.34,0C90.78,7.81,90.94,11.61,90.47,16.86z"/>
		</g>
	</g>
</g>
</svg>
