<svg xmlns="http://www.w3.org/2000/svg" xmlns:xlink="http://www.w3.org/1999/xlink" viewBox="0 0 60.54 60">
    <defs>
        <style>
            .cls-1{fill:url(#_ÂÁ_Ï_ÌÌ_È_ËÂÌÚ_3);}.cls-2{fill:url(#_ÂÁ_Ï_ÌÌ_È_ËÂÌÚ_3-2);}.cls-3{fill:url(#_ÂÁ_Ï_ÌÌ_È_ËÂÌÚ_3-3);}.cls-4{fill:#eb924d;}.cls-5{fill:url(#_ÂÁ_Ï_ÌÌ_È_ËÂÌÚ_3-4);}.cls-6{fill:url(#_ÂÁ_Ï_ÌÌ_È_ËÂÌÚ_3-5);}.cls-7{fill:url(#_ÂÁ_Ï_ÌÌ_È_ËÂÌÚ_3-6);}.cls-8{fill:url(#_ÂÁ_Ï_ÌÌ_È_ËÂÌÚ_3-7);}.cls-9{fill:url(#_ÂÁ_Ï_ÌÌ_È_ËÂÌÚ_3-8);}.cls-10{fill:url(#_ÂÁ_Ï_ÌÌ_È_ËÂÌÚ_3-9);}.cls-11{fill:#ffdf80;}
        </style>
        <linearGradient id="_ÂÁ_Ï_ÌÌ_È_ËÂÌÚ_3" x1="-1972.59" y1="-1.58" x2="-1972.29" y2="27.52"
                        gradientTransform="matrix(-1, 0, 0, 1, -1941.99, 0)" gradientUnits="userSpaceOnUse">
            <stop offset="0" stop-color="#cf5c2b"/>
            <stop offset="1" stop-color="#59173e"/>
        </linearGradient>
        <linearGradient id="_ÂÁ_Ï_ÌÌ_È_ËÂÌÚ_3-2" x1="-1950.77" y1="-11.15" x2="-2003.18" y2="86.07"
                        xlink:href="#_ÂÁ_Ï_ÌÌ_È_ËÂÌÚ_3"/>
        <linearGradient id="_ÂÁ_Ï_ÌÌ_È_ËÂÌÚ_3-3" x1="-1956.67" y1="-0.21" x2="-2009.08" y2="97.01"
                        xlink:href="#_ÂÁ_Ï_ÌÌ_È_ËÂÌÚ_3"/>
        <linearGradient id="_ÂÁ_Ï_ÌÌ_È_ËÂÌÚ_3-4" x1="-1949.8" y1="-1.82" x2="-1949.5" y2="27.29"
                        xlink:href="#_ÂÁ_Ï_ÌÌ_È_ËÂÌÚ_3"/>
        <linearGradient id="_ÂÁ_Ï_ÌÌ_È_ËÂÌÚ_3-5" x1="-1990.25" y1="-1.4" x2="-1989.95" y2="27.71"
                        xlink:href="#_ÂÁ_Ï_ÌÌ_È_ËÂÌÚ_3"/>
        <linearGradient id="_ÂÁ_Ï_ÌÌ_È_ËÂÌÚ_3-6" x1="-1948.42" y1="-1.83" x2="-1948.12" y2="27.27"
                        xlink:href="#_ÂÁ_Ï_ÌÌ_È_ËÂÌÚ_3"/>
        <linearGradient id="_ÂÁ_Ï_ÌÌ_È_ËÂÌÚ_3-7" x1="-1974.55" y1="-9.05" x2="-1982.5" y2="4.77"
                        xlink:href="#_ÂÁ_Ï_ÌÌ_È_ËÂÌÚ_3"/>
        <linearGradient id="_ÂÁ_Ï_ÌÌ_È_ËÂÌÚ_3-8" x1="-1991.88" y1="6.04" x2="-1997.48" y2="27.14"
                        xlink:href="#_ÂÁ_Ï_ÌÌ_È_ËÂÌÚ_3"/>
        <linearGradient id="_ÂÁ_Ï_ÌÌ_È_ËÂÌÚ_3-9" x1="-1970.18" y1="85.59" x2="-1971.95" y2="29.82"
                        xlink:href="#_ÂÁ_Ï_ÌÌ_È_ËÂÌÚ_3"/>
    </defs>
    <g id="Layer_2" >
        <g id="Buttons">
            <path class="cls-1"
                  d="M60.16,28.31a19,19,0,0,1,.35,4.87,8.09,8.09,0,0,1-1.09,4.43,5.46,5.46,0,0,1-1.34,1.33c-.35.24-.76.36-1.1.59-.08,0-.16.09-.16.2s.4.43.54.54a1.78,1.78,0,0,1,.65.84,2.65,2.65,0,0,1-.4,1.83,33.4,33.4,0,0,1-2.1,3.67c-3.11,4.74-6.7,9.61-12.17,11.76-3.13,1.22-6.44,1.34-9.76,1.5a100.6,100.6,0,0,1-10.42,0c-3.12-.17-6.53-.42-9.19-2A15.86,15.86,0,0,1,9.23,53,65,65,0,0,1,4,43.59a2.68,2.68,0,0,1-.35-.94,3.84,3.84,0,0,1,0-.48,1.73,1.73,0,0,1,.39-.86,3.06,3.06,0,0,1-1.34-1.37,5.26,5.26,0,0,1-.4-1,2.94,2.94,0,0,0-.33-.8,6.6,6.6,0,0,1-.67-1.85,42.09,42.09,0,0,1-1-4.45c0-.21-.07-.43-.1-.65A14.79,14.79,0,0,1,0,28.31,2.46,2.46,0,0,1,0,28c.14,3.6,1.38,6.75,2.85,10.11A65.85,65.85,0,0,0,8.4,48.28a15.93,15.93,0,0,0,4.72,4.82c2.64,1.63,6,1.88,9.13,2a99.45,99.45,0,0,0,10.36,0c3.29-.15,6.59-.25,9.7-1.48a21.13,21.13,0,0,0,8.26-6.38A54.92,54.92,0,0,0,56.51,38c2.59-4.89,3.56-9.93,2.3-15A41.78,41.78,0,0,1,60.16,28.31Z"/>
            <path class="cls-2"
                  d="M0,27.76A2.35,2.35,0,0,0,0,28a19.9,19.9,0,0,0,.91,5.08,47.46,47.46,0,0,0,1.93,5c.47,1.06,1,2.11,1.48,3.15,0,.07.07.14.11.2A63.76,63.76,0,0,0,8.4,48.28a19.29,19.29,0,0,0,1.74,2.27,13.28,13.28,0,0,0,3,2.55c2.64,1.63,6,1.87,9.13,2a99.45,99.45,0,0,0,10.36,0c3.29-.16,6.59-.26,9.7-1.48a21.06,21.06,0,0,0,8.26-6.38s0,0,0,0A43.83,43.83,0,0,0,54.86,41q.53-.9,1-1.8c.22-.4.43-.79.63-1.18s.49-1,.72-1.45a22.65,22.65,0,0,0,2-7.12,19.2,19.2,0,0,0,0-4.15,21.08,21.08,0,0,0-.43-2.3,21.33,21.33,0,0,0-.88-2.71c-.1-.24-.2-.49-.31-.74q-.48-1.2-1-2.37c-.19-.43-.39-.86-.59-1.29-.42-.87-.86-1.75-1.33-2.61-.32-.58-.64-1.14-1-1.7-.43-.71-.87-1.41-1.34-2.1l-.09-.13-.71-1c-.2-.28-.4-.55-.61-.82a1.34,1.34,0,0,0-.11-.14,14.79,14.79,0,0,0-7-5.43C37.41-.24,30.71-.21,23.74.25c-2.81.19-5.93.7-8.15,2.45A55.42,55.42,0,0,0,3.77,15.41a.91.91,0,0,0-.11.16A21.83,21.83,0,0,0,.84,21.65v0c-.12.4-.22.8-.31,1.21s-.13.61-.19.93v0h0a19,19,0,0,0-.3,2.6C0,26.9,0,27.34,0,27.76Z"/>
            <path class="cls-3"
                  d="M0,27.76A2.35,2.35,0,0,0,0,28a19.9,19.9,0,0,0,.91,5.08c1.76-.09,3.55-.21,5.37-.32q10.8-.7,21.59-1.26c10.54-.56,21-.89,31.36-2.11a19.2,19.2,0,0,0,0-4.15c-10.4-.75-20.8-.47-31.34-.25l-.43,0c.61-.1,1.21-.2,1.81-.28,9.18-1.41,19.29-2.36,28.34-5.24q-.48-1.2-1-2.37c-.19-.43-.39-.86-.59-1.29-.42-.87-.86-1.75-1.33-2.61-.32-.58-.64-1.14-1-1.7-8.75-.25-17.77,1-26.15,1.74-6.93.58-13.9,1.05-20.81,1.77-1,.1-2,.22-3,.35a.91.91,0,0,0-.11.16A21.83,21.83,0,0,0,.84,21.65v0c-.12.4-.22.8-.31,1.21s-.13.61-.19.93v0h0a19,19,0,0,0-.3,2.6C0,26.9,0,27.34,0,27.76ZM4.57,41.48c3-.33,6-.62,9.12-.7q9.12-.26,18.22-.75c6.08-.34,12.07-.69,18.18-.67,1.78,0,3.79-.16,5.79-.19q-.5.9-1,1.8a43.83,43.83,0,0,1-4.26,6.3,162.65,162.65,0,0,1-17.94,2.15q-9.09.66-18.21,1.07c-1.46.06-2.89.07-4.31.06A19.29,19.29,0,0,1,8.4,48.28a63.76,63.76,0,0,1-3.94-6.79Z"/>
            <path class="cls-4"
                  d="M3.66,15.57A21.83,21.83,0,0,0,.84,21.65c.15-.29.31-.56.45-.82.5-.93,1-1.86,1.59-2.76A50.29,50.29,0,0,1,6.4,13.13,8.35,8.35,0,0,0,7.89,11,5.42,5.42,0,0,1,9.23,9.28C10.94,7.54,13,6.16,14.81,4.6a17,17,0,0,1,3.38-2.48,10.48,10.48,0,0,1,4-.88c.5,0,1,0,1.5,0a1.68,1.68,0,0,0,.59-.07A5.35,5.35,0,0,1,24.94,1C25.58,1,26.21.9,26.84.85A50.24,50.24,0,0,1,42.58,2.18a12.63,12.63,0,0,1,2.75,1l.37.21a21,21,0,0,1,2.24,1.74A13.42,13.42,0,0,0,49.06,6a3.26,3.26,0,0,0,.48.27,1.67,1.67,0,0,1,.59.67A12.54,12.54,0,0,1,51,8.58a.81.81,0,0,1,.11.27c.07.31.12.62.18.93a2.17,2.17,0,0,0,1.1-.33l-.09-.13-.71-1c-.2-.28-.4-.55-.61-.82a1.34,1.34,0,0,0-.11-.14,14.79,14.79,0,0,0-7-5.43C37.41-.24,30.71-.21,23.74.25c-2.81.19-5.93.7-8.15,2.45A56,56,0,0,0,3.66,15.57Z"/>
            <path class="cls-4" d="M.34,23.82c0,.1,0,.19.07.29a4.68,4.68,0,0,0,.12-1.18v0C.46,23.2.4,23.5.34,23.82Z"/>
            <path class="cls-4"
                  d="M4.25,26.35a4.78,4.78,0,0,0-2.16.35,4.4,4.4,0,0,0-1.91,3,11.31,11.31,0,0,1,0-3.13A1.14,1.14,0,0,1,.39,26a1.07,1.07,0,0,1,.49-.37c1.58-.7,3.4-.33,5.1-.05,1.06.17,2.12.3,3.18.38s2.14.11,3.21.1a1.38,1.38,0,0,1,.64,0c.26.15-.06.13-.18.13H11.19l-3.26,0-3.28,0Z"/>
            <path class="cls-5"
                  d="M15,26.22,3.5,26a5.61,5.61,0,0,0-2.2.24A1.82,1.82,0,0,0,0,27.84a.15.15,0,0,0,0-.07c0-.43,0-.87,0-1.31a19,19,0,0,1,.3-2.6.9.9,0,0,0,.18.35c.31.37,1,.4,1.48.48s.78.11,1.17.15Z"/>
            <path class="cls-6"
                  d="M55.27,39.88c-.13.36-.27.73-.41,1.09.58-1,1.13-2,1.65-3,.26-.49.49-1,.72-1.45a1.35,1.35,0,0,1-.19.16,6.41,6.41,0,0,1-1.15.8,12.43,12.43,0,0,1-4.5,1.17,19.45,19.45,0,0,1-2.63.31q-5.13.52-10.28,1Q46.88,39.75,55.27,39.88Z"/>
            <path class="cls-7"
                  d="M4.05,39.27a15,15,0,0,0,5.39,2c-1.68,0-3.36,0-5,0a1.15,1.15,0,0,1,.17,1l-1-2.3a23.63,23.63,0,0,0-1-2.25c0,.25.43.6.62.79A6.66,6.66,0,0,0,4.05,39.27Z"/>
            <path class="cls-8"
                  d="M34.9,11.18a57.05,57.05,0,0,0,14.77.12c.82-.08,1.93-.35,2.69.16l1.24.84a5.75,5.75,0,0,1,1.08.95q-1.11-2-2.41-3.93l-.71-1a1.28,1.28,0,0,1,0,.19,1.79,1.79,0,0,1-.9,1.32,4.69,4.69,0,0,1-1.56.51C44.52,11.25,39.59,10.79,34.9,11.18Z"/>
            <path class="cls-9"
                  d="M59.34,25.74a1.17,1.17,0,0,1-.52,1.34,3.25,3.25,0,0,1-1.48.42,27.2,27.2,0,0,1-5.91.24c2.24.09,4.69.32,6.92.42a.93.93,0,0,1,.44.08.85.85,0,0,1,.37.81,4.23,4.23,0,0,0,0,.94A13.18,13.18,0,0,0,59.34,25.74Z"/>
            <path class="cls-10"
                  d="M9.12,25.4a27.48,27.48,0,0,1,5.26-11.63A15.4,15.4,0,0,1,19,10.5c.7-.39,1.3-.9,2-1.22C35.54,2.81,52.62,15.37,51.15,30.6a17.68,17.68,0,0,1-2.38,7.28A22.72,22.72,0,0,1,31.22,48.69a24.81,24.81,0,0,1-8.06-.49,19,19,0,0,1-12.28-9.3C8.68,35,8.32,29.76,9.12,25.4Zm6.51,11.46a14.24,14.24,0,0,0,9.23,7,18.35,18.35,0,0,0,6.05.36A17.09,17.09,0,0,0,44.1,36.1a13.5,13.5,0,0,0,1.84-7.26c0-.26,0-.53,0-.79a1.92,1.92,0,0,1,.09-.4,2.73,2.73,0,0,0,0-1.24,1.63,1.63,0,0,0-.7-1.09,2.35,2.35,0,0,0-1-.27,19.26,19.26,0,0,0-2.4-.09l3-.47a10.76,10.76,0,0,0-.38-1.33c-.17-.41-.4-.79-.59-1.19a11.92,11.92,0,0,0-1.21-1.84A17.39,17.39,0,0,0,39.7,17a17.82,17.82,0,0,0-3.8-2.28,16.93,16.93,0,0,0-4.26-1.23,15.36,15.36,0,0,0-4.49,0,15.19,15.19,0,0,0-3.9,1.14c-.55.25-1,.63-1.52.92A11.45,11.45,0,0,0,18.26,18a20.37,20.37,0,0,0-2.43,4,20.09,20.09,0,0,0-1.52,4.74,12.7,12.7,0,0,0,0,5.28q3.11.16,6.21.08l-5.66.62c-.6.06-.28.6-.15,1a3.08,3.08,0,0,1,.16,1,2.76,2.76,0,0,0,.13.9,5.24,5.24,0,0,0,.27.65c0,.11.11.22.16.32S15.63,36.78,15.63,36.86Z"/>
            <path class="cls-4"
                  d="M48.84,37.36l1.23-3a13.27,13.27,0,0,0,.61-1.7A12.91,12.91,0,0,0,51,31.14c.07-.51.15-1,.22-1.52-.07.49-.07,1-.13,1.5s-.14,1-.23,1.51a24.8,24.8,0,0,1-.7,2.95q-.21.69-.45,1.35a5.05,5.05,0,0,0-.18.55c0,.13,0,.26,0,.39A4,4,0,0,1,49,39L47.93,39c.07,0,.27-.28.31-.33a3.62,3.62,0,0,0,.27-.41A6.78,6.78,0,0,0,48.84,37.36Z"/>
            <path class="cls-4"
                  d="M41.92,12.17A36.59,36.59,0,0,1,36,12a12,12,0,0,1,1.46-.22c.48-.05,1-.08,1.46-.09h1.49l1.48,0c.5,0,1,0,1.48,0h.18a.39.39,0,0,1,0,.28c-.05.1-.16.08-.26.08-.29,0-.59,0-.89,0Z"/>
            <path class="cls-11"
                  d="M32.5,28.62c-.31.28-.68.48-1.63,0a1.62,1.62,0,0,1-1-1.55c-.58-.28-1.11-.5-1.53-.66-1.73,1.33-6.07,4.51-6.85,4.87s-1.54.77-1.71,2a6.8,6.8,0,0,0,1.84,5.24c1.58,1.48,3.12,2.36,4.48,1.83a2.66,2.66,0,0,0,1.73-1.41,7.4,7.4,0,0,0,.39-.68h0A4.29,4.29,0,0,0,27.61,36,8.68,8.68,0,0,0,26.23,34a2.25,2.25,0,0,0-.89-.65A5.39,5.39,0,0,0,24.2,33a4,4,0,0,0-2.28.15c-.51.22-.39,1.08-.07,1.82a8.85,8.85,0,0,0,.57,1.1,3.14,3.14,0,0,0,.77.82,5.32,5.32,0,0,0,1,.62,3,3,0,0,0,1.06.34,1.1,1.1,0,0,0,.88-.35,2.76,2.76,0,0,0,.61-1l.32,0a2.48,2.48,0,0,1-.42,1.37,1.7,1.7,0,0,1-1.38.77,2.13,2.13,0,0,1-.78-.12c-.22-.07-.44-.15-.65-.24a6.28,6.28,0,0,1-1.23-.7,3.84,3.84,0,0,1-1-1.09A9.43,9.43,0,0,1,21,35.27a4,4,0,0,1-.33-1.42,2,2,0,0,1,.18-.84,1.58,1.58,0,0,1,.63-.65,4.89,4.89,0,0,1,2.85-.28,6,6,0,0,1,1.36.38,3.31,3.31,0,0,1,1.22.85,10.32,10.32,0,0,1,1.58,2.26,10.61,10.61,0,0,1,.5,1.19,10.66,10.66,0,0,1,.91-1.5c.39-.41,3.17-4.24,3.94-5.34A7.08,7.08,0,0,0,32.5,28.62Z"/>
            <path class="cls-11"
                  d="M39.49,20a3.3,3.3,0,0,0-3-1.52,11.8,11.8,0,0,0-3,2.1c-.75.92-3.19,4-4.29,5.06q.48.2,1,.45v0c.11-.34.72-.41,1.27-.32a3.7,3.7,0,0,1,1.63.53c.27.22.2,1,0,1.53a8.5,8.5,0,0,1,1.35,1.24,24.3,24.3,0,0,1,3.17-3.5c1.26-1,2.41-1.19,2.67-2.53A3.26,3.26,0,0,0,39.49,20Z"/>
        </g>
    </g>
</svg>