<svg xmlns="http://www.w3.org/2000/svg" xmlns:xlink="http://www.w3.org/1999/xlink" viewBox="0 0 200 61.65">
    <defs>
        <style>
            .cls-1{fill:#eb924d;}.cls-2{fill:url(#Áåçûìÿííûé_ãðàäèåíò_3);}.cls-3{fill:url(#Sfumatura_senza_nome_6);}.cls-4{fill:url(#Áåçûìÿííûé_ãðàäèåíò_3-2);}
        </style>
        <linearGradient id="Áåçûìÿííûé_ãðàäèåíò_3" x1="149.51" y1="-78.35" x2="118.95" y2="-10.4"
                        gradientTransform="translate(0.33 -1.43) rotate(-0.02)" gradientUnits="userSpaceOnUse">
            <stop offset="0" stop-color="#cf5c2b"/>
            <stop offset="1" stop-color="#59173e"/>
        </linearGradient>
        <linearGradient id="Sfumatura_senza_nome_6" x1="57.71" y1="-39.05" x2="206.7" y2="196.69"
                        gradientTransform="matrix(1, 0, 0, 1, 0, 0)" xlink:href="#Áåçûìÿííûé_ãðàäèåíò_3"/>
        <linearGradient id="Áåçûìÿííûé_ãðàäèåíò_3-2" x1="-7652.23" y1="-26.29" x2="-7839.03" y2="224.29"
                        gradientTransform="matrix(-1, 0, 0, 1, -7593.05, 0)" xlink:href="#Áåçûìÿííûé_ãðàäèåíò_3"/>
    </defs>
    <g id="Layer_2" >
        <g id="Boards">
            <path class="cls-1"
                  d="M1.23,22.22A16.7,16.7,0,0,1,1,20.35a6.09,6.09,0,0,1,.36-3.12,1.47,1.47,0,0,1,1-.61c1.74-.21,3.48-.39,5.22-.53-1.61.54-3.47.55-5,1.21a1.61,1.61,0,0,0-.74.54.85.85,0,0,0-.09.22,7,7,0,0,0-.22,2.23c0,.43.06.85.1,1.28.06.68-.16,21.26-.05,21.93,0,0,0,2.86,0,2.84C1.15,44.28,1.31,22.71,1.23,22.22Z"/>
            <path class="cls-2"
                  d="M199.57,6.27A6.43,6.43,0,0,0,193.41.34C184.25,0,17.05,0,8,.34A6.36,6.36,0,0,0,6,.72a6.51,6.51,0,0,0-.89.4A8.35,8.35,0,0,0,2,4.63,12,12,0,0,0,.36,9.38c-.08,1.37-.15,2.73-.2,4.09a3.09,3.09,0,0,0,0,.43,1,1,0,0,1,0,.24,2,2,0,0,0,.23,1.21,1.58,1.58,0,0,0,.55.57s-.22.16-.24.19a1.51,1.51,0,0,0-.21.23,2.33,2.33,0,0,0-.32.55,2.57,2.57,0,0,0-.14.61c-.07.85,0,1.7,0,2.55a15.24,15.24,0,0,0,.06,2.24c0,.18,0,18.42,0,18.6a3.85,3.85,0,0,0,.46,1.16,2,2,0,0,0-.48,1.27c0,.54.08,1.07.05,1.61a32.44,32.44,0,0,0,.08,4.41l.09.58A3.06,3.06,0,0,0,.62,51a1.49,1.49,0,0,0,.38.41c-.15,0-.26.14-.34.28A3.33,3.33,0,0,0,.4,54.17,15.77,15.77,0,0,0,.88,57a6.46,6.46,0,0,0,1.27,2.1,6.54,6.54,0,0,0,4.46,2.15c9.65.55,177,.6,185.88,0h.11a6.41,6.41,0,0,0,3-1A6.49,6.49,0,0,0,197.78,58,14.15,14.15,0,0,0,199,54.47a7.51,7.51,0,0,0,.4-2.4c-.05-.44.07-.87,0-1.31a3.38,3.38,0,0,0-.38-1.42,1.15,1.15,0,0,1-.06-.17c0-.15.14-.24.25-.33a1.34,1.34,0,0,0,.48-.83.49.49,0,0,0,0-.24,1.77,1.77,0,0,1,0-.4c.05-1,.09-2,.13-3s.08-2.22.1-3.32,0-20.24.06-21.33,0-2.15,0-3.22c0-.54,0-1.07,0-1.6,0-.27,0-.53,0-.79a5.11,5.11,0,0,1,0-.78.71.71,0,0,0,0-.25,1.83,1.83,0,0,0-.07-.32,2.38,2.38,0,0,0-.25-.59,2.88,2.88,0,0,0-.4-.52s-.46-.43-.5-.39a2.18,2.18,0,0,0,.34-.4,3.49,3.49,0,0,0,.51-1.23c0-.23.08-.45.12-.68a.79.79,0,0,1,0-.13,2.12,2.12,0,0,0,0-.5C199.67,7.62,199.62,6.94,199.57,6.27Z"/>
            <path class="cls-3"
                  d="M200,13.75c0,1.14,0,2.27,0,3.41,0,.54,0,1.09,0,1.64,0,.29,0,.59,0,.88,0,1.55,0,21.15-.08,22.7,0,.88,0,1.76-.08,2.65a3.73,3.73,0,0,1-.16,1,8,8,0,0,0-.2,1.55.69.69,0,0,1-.17.44.61.61,0,0,1-.42.14l-.76.08c-1.47.16-2.94.3-4.41.33a23.93,23.93,0,0,1-3.28-.13l2.48.37.7.11,5.07.75a.92.92,0,0,1,.43.15.82.82,0,0,1,.17.64,8.43,8.43,0,0,1-.11,1c-.09.68-.22,1.34-.25,2a2.94,2.94,0,0,1,0,.42,3.14,3.14,0,0,1-.63,1.18,6.46,6.46,0,0,1-4.85,2.7c-8.73.55-175.95.5-185.45,0a6.38,6.38,0,0,1-3.74-1.5,6.06,6.06,0,0,1-1.57-2c-.16-.34-.2-.73-.36-1.08A1.43,1.43,0,0,1,2.21,53a.59.59,0,0,1,.16-.64,1.37,1.37,0,0,1,.78-.19c3-.1,6-.29,9.06-.38h.09c.92,0,1.85,0,2.76,0-.33-.06-.67-.1-1-.14-1.56-.18-3.13-.24-4.7-.3H7.23a15.06,15.06,0,0,1-3-.34,7.34,7.34,0,0,1-1.66-.38A1.49,1.49,0,0,1,2,50.1L2,50a1.81,1.81,0,0,1-.23-1.22,5.91,5.91,0,0,0,0-1.33c-.05-.81-.09-1.61-.13-2.41,0-.44-.05-.88-.07-1.32a1,1,0,0,1,.13-.7,1,1,0,0,1,.52-.24A15.71,15.71,0,0,1,4,42.43a7.46,7.46,0,0,1,.81-.1L2.7,41.86a2.16,2.16,0,0,1-.61-.19L2,41.59a1.27,1.27,0,0,1-.48-1c0-.12,0-18.3-.05-18.42-.05-.29-.09-.57-.12-.86s-.07-.88-.09-1.32a5.32,5.32,0,0,1,.38-2.79,1.47,1.47,0,0,1,1-.6c1.44-.17,2.89-.33,4.34-.45l.87-.07c1.43-.12,2.85-.21,4.28-.27a46.76,46.76,0,0,1-5.16-.07c-1.08-.07-2.16-.17-3.23-.31a4.65,4.65,0,0,1-1.33-.34l0,0a1.47,1.47,0,0,1-.78-.84,1.54,1.54,0,0,1,0-.77c0-.1,0-.2,0-.3,0-.61,0-1.22,0-1.83,0-.31,0-.63,0-.94,0-1.36.11-2.71.19-4.06A6.43,6.43,0,0,1,8,.34C17.05,0,184.25,0,193.41.34a6.49,6.49,0,0,1,6.06,5.2,7.07,7.07,0,0,1,.06,2.75,3.16,3.16,0,0,1-.18.67,1.45,1.45,0,0,1-.24.46l0,0a.92.92,0,0,1-.27.08c-.54.13-1.08.24-1.62.34-1.08.19-2.17.33-3.26.42h0c-2.2.2-4.41.23-6.61.27h-.06l1.81.11L194,11l3.27.18a4.19,4.19,0,0,1,1.92.43h0A2.25,2.25,0,0,1,200,13.75Z"/>
            <path class="cls-4"
                  d="M10,8.27c17.32-.88,34.65-1.74,52-2.68,16.59-.9,33.16-2.08,49.8-2.66s33.75.14,50.5.61c9.68.27,19.38.21,29,.48,3,.08,4.92.52,7.84.74-.06.8.49,1.51.45,2.31a12.74,12.74,0,0,1-.11,2.76c0,.05,0,.11-.09.14a.52.52,0,0,1-.29,0h-.25c-1.54,0-3.08.07-4.62.16-2.75.15-5.66.14-8.47.31l-4.94.28c-3.18.15-6.35.28-9.53.37,1.48,0,3,0,4.46,0H176c1.65,0,3.3,0,4.94,0,3.39,0,6.76.1,10.13.22,1.65.06,3.29.14,4.93.24.73,0,1.48.12,2.21.1a1.34,1.34,0,0,1,1.06.45l-3,.32c-8.37.82-17.14.53-25.6.46-17.11-.13-34.18-.7-51.27-1-8.6-.13-17.19-.49-25.8-.54-8.26,0-16.54.23-24.8.43-6.15.15-12.32.35-18.47.55,2.41.05,4.81.11,7.22.18,33,.93,65.6,3.61,98.42,5.53q13.82.81,27.65,1.4c5.24.23,10.45.38,15.65.65l-.05,1.3a1.93,1.93,0,0,0,0,.83.48.48,0,0,1,0,.14c-12.64.05-25.46-.79-37.95-1.37-16.22-.75-32.37-1.87-48.55-2.92Q64.3,15,15.39,15.11c-4.56,0-9,.09-13.47.26A3.45,3.45,0,0,1,2.06,15a.76.76,0,0,1,.3-.38,2.39,2.39,0,0,1,.89-.17l10.25-.58-1.64-.05c-3-.12-5.9-.38-8.78-.77H3a2.12,2.12,0,0,1-.7-.17A.85.85,0,0,1,2,12.41,13.62,13.62,0,0,0,1.6,11a1.83,1.83,0,0,1-.18-.75c0-.52-.07-1-.11-1.55ZM3,55.08c9.16-.16,17-.2,26.19-.4,30.93-.69,61.92-1.55,92.73-3.29q23.49-1.3,46.86-3.16c7.66-.6,15.27-1.23,22.84-2.15,2.66-.31,5.45-.57,8.15-1a1.1,1.1,0,0,0,0-.26,19.48,19.48,0,0,1,.18-2,23,23,0,0,0,0-2.35c0-1.9,0-3.8,0-5.69,0-.45,0-.89,0-1.33a217.15,217.15,0,0,0-34.29-5.19C136.79,26,107.5,24.89,78.44,23.71c-14.75-.6-29.51-1-44.27-1.38C23.55,22.07,13,22,2.5,22.78c0,.25,0,.5-.07.73a21.55,21.55,0,0,0,.19,4.17c11.89,1.4,24,1.77,36.21,2.21,29,1,58,2.21,86.92,3.68,13.49.68,27.1,1.22,40.49,2.42,4.9.44,9.83,1,14.67,1.69l-1.34.09q-12.63.93-25.32,1.7-16.75,1-33.53,1.82c-8.81-.88-17.52-2.09-26.29-3.07C82.72,36.89,70.94,36.16,59,35.94c-18.91-.34-37.87.1-56.78-.24,0,.67,0,1.34,0,2,18.29,1.13,36.81.65,55.22,1.17a352.8,352.8,0,0,1,36.83,2.85l4.08.56c-31.95,1.3-64,2.12-96,2.68,0,.87,0,1.74,0,2.61S2.2,50.1,3,50.94a2,2,0,0,0,1.11.46,11,11,0,0,0,1.29.12l20.86.8h-.25q-11.78.15-23.49.8s-.21-.06-.27.09C2.11,53.7,3.05,54.59,3,55.08Z"/>
            <path class="cls-1" d="M121.2,48.72l.21.09A.4.4,0,0,1,121.2,48.72Z"/>
            <path class="cls-1"
                  d="M1.38,14.23a3.5,3.5,0,0,1-.06-1c0-1.6.08-3.19.17-4.78a12.34,12.34,0,0,1,.65-4.36A6.48,6.48,0,0,1,7.78.28c9.1-.37,176.43-.37,185.61,0a6.53,6.53,0,0,1,6.08,5.22c.17.89,0,.22-.52-1.15a4.57,4.57,0,0,0-1.53-2.09c-2.34-1.81-5.94-1.2-8.76-1.25C180.9.86,15,.62,7.25,1.32c-.35,0-.7-.09-1,0A4.47,4.47,0,0,0,4.13,2.45,6.58,6.58,0,0,0,2.41,5a6.73,6.73,0,0,0-.27.87c-.75,2.89-.43,6.22-.07,9.14a1.08,1.08,0,0,1-.67-.75S1.39,14.25,1.38,14.23Z"/>
            <path class="cls-1"
                  d="M10.21,15.89C9,16,7.8,16.18,6.62,16.4a.26.26,0,0,1-.09-.27C7.78,16,8.94,16,10.21,15.89Z"/>
        </g>
    </g>
</svg>