<svg xmlns="http://www.w3.org/2000/svg" xmlns:xlink="http://www.w3.org/1999/xlink" viewBox="0 0 254.98 97.79">
    <defs>
        <style>
            .cls-1{fill:url(#Sfumatura_senza_nome_3);}.cls-2{fill:url(#Sfumatura_senza_nome_3-2);}.cls-3{fill:url(#Sfumatura_senza_nome_3-3);}.cls-4{fill:#eb924d;}
        </style>
        <linearGradient id="Sfumatura_senza_nome_3" x1="-3595.09" y1="522.62" x2="-3594.88" y2="521.79"
                        gradientTransform="matrix(253.79, 0, 0, -96.34, 912452.7, 50301.69)"
                        gradientUnits="userSpaceOnUse">
            <stop offset="0" stop-color="#cf5c2b"/>
            <stop offset="1" stop-color="#59173e"/>
        </linearGradient>
        <linearGradient id="Sfumatura_senza_nome_3-2" x1="-3594.85" y1="522.12" x2="-3594.2" y2="520.11"
                        gradientTransform="matrix(250.26, 0, 0, -91.36, 899726.62, 47684.86)"
                        xlink:href="#Sfumatura_senza_nome_3"/>
        <linearGradient id="Sfumatura_senza_nome_3-3" x1="-3594.75" y1="521.15" x2="-3594.04" y2="518.56"
                        gradientTransform="matrix(248.99, 0, 0, -70.27, 895129.62, 36617.67)"
                        xlink:href="#Sfumatura_senza_nome_3"/>
    </defs>
    <g id="Livello_2" >
        <g id="Boards">
            <g id="Raggruppa_108" >
                <g id="Livello_2-2" >
                    <g id="Livello_2-2-2" >
                        <path id="Tracciato_78"  class="cls-1"
                              d="M.1,88.86c0-.65.12-1.29.18-1.94L.57,83.7l.07-.78c.07-1-.16-2,.83-2.9a1.69,1.69,0,0,1,1.21-.47c-.66-.16-1.11-.48-1.21-.85a4.35,4.35,0,0,1-.37-1.63c0-.47.07-.94.1-1.4s.08-1.06.11-1.59c.08-1.06.14-2.13.2-3.19s.13-2.12.19-3.18v-.56c0-.55.05-1.1,0-1.62a1.36,1.36,0,0,1,.76-1.11A3.44,3.44,0,0,1,4.37,64a4.66,4.66,0,0,1-1.56-.4c-1.08-.55-.92-1.43-.9-2.16,0-1,.09-2.1.12-3.15s.06-2.1.08-3.14,0-2.09.07-3.13,0-2.07,0-3.12V45.79c0-1.62,0-3.23-.07-4.86,0-.64-.16-1.21.72-1.72A4.13,4.13,0,0,1,3.25,39a3.68,3.68,0,0,1,.47-.15,2.47,2.47,0,0,1-1.35-.64.85.85,0,0,1-.22-.47c0-.4-.06-.8-.07-1.2,0-1.29-.07-2.64-.14-4,0-.7-.07-1.4-.11-2.1a2.59,2.59,0,0,1,1.09-1.76,1.38,1.38,0,0,1-1-.61,1.82,1.82,0,0,1-.1-.77c-.08-1-.12-2-.18-3,0-.5-.07-1-.09-1.51v-.37a.52.52,0,0,1-.07-.21,1.49,1.49,0,0,1,.36-.72,1.94,1.94,0,0,1,1.08-.64c-.06-.08-.24-.11-.41-.15-.68-.16-1.14-.5-1.19-.88v-.28a4,4,0,0,0-.08-.91l-.06-1c-.11-1.34-.22-2.68-.34-4Q.46,9.77,0,5.83C-.2,4.18,2.2,2.75,5.41,2.61c80.29-3.33,161-3.33,241.25,0a11,11,0,0,1,1.14.1,14.1,14.1,0,0,1,2.86.72,3.82,3.82,0,0,1,1.08.69c.38.27.76.55,1.08.83,1.15.87,2.23,1.8,2.16,2.88-.12,1.31-.23,2.62-.32,3.93l-.19,2c0,.36-.05.71-.07,1.07a4.22,4.22,0,0,1-.07.79,2.73,2.73,0,0,0,0,.7,3.21,3.21,0,0,1-.05.82,8.44,8.44,0,0,0-.25,1.57.24.24,0,0,1,.08.21v2.14A1.76,1.76,0,0,1,254,22a2,2,0,0,0-.11,1c-.07,1.4-.15,2.77-.2,4.19,0,.86-.07,1.71-.11,2.57,0,.4,0,.81,0,1.22a.23.23,0,0,0,.06.16.73.73,0,0,1-.35.87,5.37,5.37,0,0,1-3.06.92l1.78.33a2.38,2.38,0,0,1,1.08.35.63.63,0,0,1,.21.36,14.72,14.72,0,0,1,.15,5c-.13,1.67-.14,3.33-.15,5V55.49a.79.79,0,0,0,0,.43,1.08,1.08,0,0,1-.07,1.17,2.84,2.84,0,0,1-2,.88,3.79,3.79,0,0,1,1.55.4.86.86,0,0,1,.34.58,4.55,4.55,0,0,1,.12,1,2.27,2.27,0,0,0,0,.9,4.25,4.25,0,0,1,.2,1.84c0,.82,0,1.66.08,2.47,0,1.42.09,2.84.15,4.27s.12,2.85.2,4.28v1a2.21,2.21,0,0,0,0,.77,1.4,1.4,0,0,1,.15.3.74.74,0,0,1,0,.81,2,2,0,0,1-1.36.56,1,1,0,0,1,1.08.49,4.62,4.62,0,0,0,.15.74,1.81,1.81,0,0,1,.09.31c.06.2.1.41.14.61a7.3,7.3,0,0,1,.11,1.23.38.38,0,0,1,0,.21.94.94,0,0,1-.26.14,9.26,9.26,0,0,1-2.41.6l2.08.35a1.66,1.66,0,0,1,.45.12.44.44,0,0,1,.25.45v1.07c0,.13.1.24.11.37v.55c0,.72.11,1.43.15,2.15v.15c.13,1.4.26,2.82.39,4.25.13,1.65-5.13,4.25-8.32,4.38-80.29,3.12-157.48,3.37-237.78.26-1.21,0-6.39-.85-8-5A2.5,2.5,0,0,1,.1,88.86Z"/>
                        <path id="Tracciato_79"  class="cls-2"
                              d="M8.78,91.16c79.74,3.07,159.82,3.07,239.56,0,3.17-.13,5.57-1.51,5.45-3.12v-1.1a3.41,3.41,0,0,0-.06-.9c0-.11-.14-.19-.18-.29s0-.21-.06-.31-.09-.5-.13-.75c-.13-.7-.27-1.41-.4-2.11v-.19a.42.42,0,0,0-.19-.32,1.5,1.5,0,0,0-.62-.13,36.13,36.13,0,0,0-7.18-.72q-3.91,0-7.79-.34L234,80.65H235c2.37,0,4.75,0,7.12-.14,1.37-.06,2.73-.13,4.08-.22a53.63,53.63,0,0,0,5.66-.39c.51-.1.86-.21.87-.36V77.86a1.44,1.44,0,0,0-.11-.84c-.27-.24-.13-.11-.65-.22a13.58,13.58,0,0,0-1.54-.32c-.6-.06-1.21-.09-1.83-.12L242.06,76l1.68,0,7.69-.24,1.22,0a.79.79,0,0,0,.45-.1.24.24,0,0,0,0-.12c-.08-.85-.15-1.71-.24-2.56-.18-2.1-.36-4.21-.45-6.31v-.86a25.71,25.71,0,0,0-.27-5.4c0-.17-.28-2-.27-2Q239.93,58,228,58h-2l.63,0h0l9.41-.5c1.7-.09,3.37-.19,5-.32,1.36-.1,2.69-.26,4.05-.37a9,9,0,0,1,1.27,0,32.7,32.7,0,0,0,3.82-.37l.29,0a3.92,3.92,0,0,0,.66-.15c.4-.19.62-.46.61-.74a1.31,1.31,0,0,0,0-.28A16.38,16.38,0,0,1,252,53a22.38,22.38,0,0,0,0-2.59V37.86c-.08-.56.42-2.34.19-2.91a.52.52,0,0,0-.24-.37,1.56,1.56,0,0,0-.58-.21,39.82,39.82,0,0,0-5.51-.82c-1.82,0-3.63-.15-5.41-.33-.25,0-.5,0-.75-.07,2.89-.1,5.76-.32,8.58-.65a13.15,13.15,0,0,0,2.53-.55c.14,0,.28-.1.41-.15.7-.29,1.13-.72,1.18-1.17a.43.43,0,0,0,0-.16.35.35,0,0,0-.06-.14,1.79,1.79,0,0,1,0-.92V28a25,25,0,0,1,.1-2.6,11,11,0,0,1,.3-2.55,7.81,7.81,0,0,0,.11-1.28,4.76,4.76,0,0,0-.11-1.55,1.56,1.56,0,0,0-.41-.83h0a1.79,1.79,0,0,0-1.32-.5c-.93,0-1.85,0-2.77-.11-2.06-.1-4.12-.19-6.18-.25q-6.32-.21-12.68-.25h-6.5c-1.85,0-3.72,0-5.57,0q6-.17,11.92-.42l6.2-.3c3.51-.19,7.16-.17,10.61-.34,1.91-.13,3.84-.18,5.77-.19h.32a1,1,0,0,0,.35-.05.22.22,0,0,0,.12-.15,13.72,13.72,0,0,0,.6-3.24c0-.88.11-1.76.17-2.64.1-1.56.21-3.11.36-4.65s-2.22-3-5.36-3.14C168.65-.3,88.52-.3,8.78,3c-3.17.14-5.55,1.55-5.36,3.17q.39,3.22.7,6.44c.09.94.16,1.88.25,2.82,0,.55.1,1.13.13,1.71,0,.29.44,7.68.47,8.23.11,1,.35,1.07.73,2,.19.48.79.51,1.43.46.42,0,.86-.12,1.22-.15,1-.06,2-.12,3.05-.16,2-.08,4.09-.1,6.14-.11h4l16.64.12H38c-6.23.69-12.74.31-19.08.73a75.18,75.18,0,0,1-7.67.39,17.19,17.19,0,0,0-2.87,0,3.64,3.64,0,0,0-1.81.78,2,2,0,0,0-.7,1.36,7,7,0,0,1-.08.8A21.27,21.27,0,0,0,6,36.2c0,.27.08.55.1.81a.67.67,0,0,0,.32.55,2.58,2.58,0,0,0,.71.19h0a11.69,11.69,0,0,0,1.77.11h.55c.7,0,1.41.15,2.14.2s1.38.08,2.07.09l-.82.1-5.73.69a2.09,2.09,0,0,0-.7.15c-.75.35-.58,1.56-.66,2a19.74,19.74,0,0,0-.22,2.66v5c0,2.16.08,4.3.12,6.45v2.87c0,1-.26,2.78.78,3.71a2.79,2.79,0,0,0,1.39.5,14.36,14.36,0,0,0,1.61.13l26,.88h-.31c-9.78.11-19.56.4-29.28.88-.46,0-.6.54-.68.7a7.23,7.23,0,0,0-.42,1.58v.28a39.65,39.65,0,0,0-.36,5.11V73a13.36,13.36,0,0,0,.07,3,2.61,2.61,0,0,0,.38.89,1.35,1.35,0,0,0,.35.4A4.71,4.71,0,0,0,7,77.88c.23.05.48.08.72.11,1.6.22,3.21.39,4.87.55l-.48,0c-1.72.15-3.46.32-5.2.5a7.28,7.28,0,0,0-1.79.35,2,2,0,0,0-.62.41,1.52,1.52,0,0,0-.39.61L4,80.68c-.16.71.06,1.42-.1,2.13a6.83,6.83,0,0,0-.16,1.09c-.08.71-.13,1.42-.2,2.12s-.12,1.27-.18,1.9c-.12.8.37,1.58,1.39,2.19A8.65,8.65,0,0,0,8.78,91.16Z"/>
                        <path id="Tracciato_80" class="cls-3"
                              d="M4.53,15c0,.55.1,1.15.14,1.72a2,2,0,0,0,.22.84c.31.5.24,1,.47,1.55a.92.92,0,0,0,.42.45,3.38,3.38,0,0,0,.88.19h.09c3.62.44,7.3.72,11,.85.68,0,1.36.05,2,.06l-12.88.65a3,3,0,0,0-1.07.19.86.86,0,0,0-.38.42,3.75,3.75,0,0,0-.17.47c5.57-.19,11.17-.27,16.88-.29,40.82-.13,81.62,1,122.18,3.39,20.28,1.17,40.53,2.41,60.87,3.25,15.64.66,31.28.84,47.13.78,0-.05.28,0,.36-.33l0-1.44c-6.53-.3-13.09-.47-19.62-.73q-17.35-.66-34.66-1.56c-41.15-2.14-82-5.11-123.4-6.15l-9-.2q11.57-.34,23.15-.6c10.35-.23,20.74-.55,31.12-.48,10.8.05,21.56.45,32.34.6,21.46.29,42.83.93,64.27,1.07,10.61.07,21.6.41,32.1-.51l3.73-.35a1.79,1.79,0,0,0-1.32-.51c-.93,0-1.86,0-2.78-.11-2.06-.1-4.12-.19-6.18-.25q-6.31-.22-12.69-.26h-6.5c-1.86,0-3.72,0-5.58,0q6-.15,11.93-.42,3.09-.13,6.21-.31c3.51-.18,7.16-.17,10.62-.34,1.9-.11,3.83-.16,5.76-.17h.32a1.49,1.49,0,0,0,.36-.05.24.24,0,0,0,.11-.16,14.41,14.41,0,0,0,.61-3.27c0-.89.1-1.79.17-2.67-3.66-.24-7.34-.45-11-.55-12.12-.3-24.27-.23-36.4-.56-21-.51-42.29-1.33-63.31-.67-20.85.64-41.63,2-62.44,3q-32.55,1.56-65.14,3C11.82,14.62,8.17,14.79,4.53,15Zm.88,50.09c.08-.17.22-.69.68-.71,9.73-.49,19.52-.78,29.3-.88h.32l-26-.9a14.37,14.37,0,0,1-1.6-.13,2.77,2.77,0,0,1-1.4-.51C5.61,61,5.9,59.21,5.9,58.18v-2.9c40-.63,79.93-1.54,119.81-3l-5.09-.62c-15.11-1.76-30.5-2.82-46-3.16-23-.55-46.09,0-68.91-1.3V45c23.6.39,47.21-.1,70.82.27,14.84.23,29.61,1.08,44.19,2.53,10.94,1.11,21.81,2.44,32.8,3.42q20.93-.9,41.85-2,15.81-.87,31.6-1.9l1.67-.09c-6-.8-12.2-1.39-18.3-1.88-16.71-1.34-33.69-1.93-50.54-2.69C123.71,41,87.53,39.7,51.35,38.55c-15.2-.49-30.35-.9-45.19-2.46a21.1,21.1,0,0,1-.24-4.63A2.76,2.76,0,0,1,6,30.65c13.06-.88,26.27-.8,39.53-.51,18.42.41,36.84.87,55.24,1.54,36.27,1.26,72.81,2.48,108.85,5a303.36,303.36,0,0,1,42.79,5.77v7.8a19,19,0,0,1,0,2.61,16.82,16.82,0,0,0-.24,2.25,1.31,1.31,0,0,1,0,.28c-3.36.44-6.85.73-10.17,1.11-9.44,1-18.94,1.72-28.5,2.38Q184.34,61,155,62.43C116.58,64.36,77.9,65.32,39.3,66.08q-17.16.33-34.33.59A6.8,6.8,0,0,1,5.41,65.05Zm-.8,15.12a1.85,1.85,0,0,1,.63-.41A6.86,6.86,0,0,1,7,79.4l5.2-.51.48,0c-1.64-.14-3.27-.31-4.88-.55l-.72-.11a5,5,0,0,1-1.79-.59A1.23,1.23,0,0,1,5,77.18a2.42,2.42,0,0,1-.39-.9,14.33,14.33,0,0,1-.06-3.07v-.55c31.84.6,63.64.94,95.5.13,35-.9,70-2.61,104.83-4.23,10-.46,19.91-1,29.88-1.36,5.77-.21,12-.55,18-.52.09,2.13.27,4.25.45,6.38-4.29.59-8.67,1-12.73,1.35-9,.77-17.92,1.37-27,1.83-17.69.9-35.41,1.66-53.14,2.41q-15.17.67-30.33,1.27c7.36.32,14.72.62,22.1.84,19,.55,38,1.43,57,1.9,14.7.36,29.36.18,44,0v.19c.12.71.26,1.42.4,2.14a3.19,3.19,0,0,0,.13.75c-14,1.26-28.53,1.2-42.7.88-19.05-.43-37.91-1.43-56.77-2.83-19.88-1.48-40.25-2-60.31-2.63l-1.07,0q-19.65.48-39.36.5c-16.49,0-32.94-.21-49.36-.84a1.76,1.76,0,0,1,.46-.61Z"/>
                        <path id="Tracciato_83"  class="cls-4"
                              d="M34.33,27.83c-5.73.31-11.08.11-16.67.51a64.84,64.84,0,0,1-6.84.14,12.66,12.66,0,0,0-2.38.12,4.16,4.16,0,0,0-1.88.94c-.67.57-.59,1.5-.67,2.15a26.62,26.62,0,0,0,.29,5.12c0,.18,0,.37.15.52a2.49,2.49,0,0,0,.76.17v-.1A2.32,2.32,0,0,0,7,36.57a5.1,5.1,0,0,1-.25-1.13V35a.24.24,0,0,1,0-.12,1.91,1.91,0,0,1,.14-.52A2.32,2.32,0,0,0,7,33.7a6.61,6.61,0,0,1,.22-1.45c0-.09.14-.65.26-.71s.24-.18.24-.61a.51.51,0,0,1,.12-.32,1.06,1.06,0,0,1,.62-.72,3.13,3.13,0,0,1,.84-.17l.53,0c1.77-.19,3.56-.33,5.36-.44.89-.05,1.8-.08,2.7-.11S19.62,29,20.53,29l1.62-.06,5.52-.18c.95,0,1.84,0,2.74-.09a6,6,0,0,0,.74-.13,2.7,2.7,0,0,1,.41-.08c.81-.09,1.64-.15,2.45-.23L35.74,28l.81-.09c.21,0,1.21-.19,1.42-.2C37,27.71,35.29,27.83,34.33,27.83Z"/>
                        <path id="Tracciato_85"  class="cls-4"
                              d="M253.55,15.93c.13-2.68.29-6.23.51-8.9.14-1.77-2.27-4.15-5.42-4.31C169-.9,88.63-.91,8.93,2.71,5.76,2.86,3.38,4.42,3.57,6.2q.39,3.56.7,7.1c.13,1.67.27,3.32.39,5,0,.31.17,8,.31,8.32.31.54.68,1.52.73.79a46.86,46.86,0,0,0,.56-9c-.09-.35-.31-6.89-.34-7.24-.14-.61-.24-1.21-.44-1.81-.06-.18-.22-.32-.29-.5a2.43,2.43,0,0,1,0-.85,5,5,0,0,1,.39-2,4,4,0,0,1,.8-1.13,2.89,2.89,0,0,1,1.81-1,12.64,12.64,0,0,1,2-.21c2.21-.11,3.72-.13,5.91-.27,3.06-.2,6.11-.37,9.16-.54q6.19-.31,12.41-.57l6.21-.23c.44,0,.89,0,1.34,0a4.1,4.1,0,0,0,1,0,29,29,0,0,1,3-.21,45,45,0,0,0,6.1-.29,52.29,52.29,0,0,0,7.51,0c.34.52,4.54-.22,7.17-.37a63.76,63.76,0,0,1,7.19.17,88.93,88.93,0,0,0,9.38,0,2.7,2.7,0,0,1,1.07.09,9.07,9.07,0,0,0,3.63,0,15.64,15.64,0,0,1,3.87-.39c2.44,0,4.85.29,7.29.29,1.34,0,2.68-.05,4-.14,1.93-.16,3.89-.23,5.85-.23.49,0,1,0,1.44.08s.85.09,1.29.1c.27,0,.55,0,.81-.07q.84,0,1.68,0h3.65L133.63,1,146.16.94l6.26,0c.47,0,.91-.06,1.39-.05l7.8.2,6.44.16c.86,0,1.72-.08,2.55-.18a11.13,11.13,0,0,1,3,.12c1.56.35,2.39,1.12,2,1.87-.07-.8,1-1.53,2.77-1.8a19.46,19.46,0,0,1,4.58.1,105.26,105.26,0,0,0,11.68.41c1.64.11,3,0,4.66,0a66.49,66.49,0,0,0,6.91.49,23.75,23.75,0,0,1,3.9-.25l4.64.2,8.31.36a16.27,16.27,0,0,0,1.85.05,10,10,0,0,1,1.24-.11c6.81,0,13.59.36,20.27.93a16.35,16.35,0,0,1,3.44.76,6.68,6.68,0,0,1,1.95,1.37A4.12,4.12,0,0,1,252.3,7a8.7,8.7,0,0,0,.49,1.14,2.84,2.84,0,0,1,.64,1.35c.19.69,0,7.65.12,6.46Z"/>
                        <path class="cls-4"
                              d="M13.47,38.14s-3.56.73-4.39.83-2.25.2-2.39.59A27.2,27.2,0,0,0,6,42.85c0,.34-.35,12.38-.35,12.82s-.28-12.39-.18-13.91.24-2.4.68-2.64S13.47,38.14,13.47,38.14Z"/>
                    </g>
                </g>
            </g>
        </g>
    </g>
</svg>