<svg xmlns="http://www.w3.org/2000/svg" xmlns:xlink="http://www.w3.org/1999/xlink" viewBox="0 0 128.82 61.72">
    <defs>
        <style>
            .cls-1{fill:url(#Áåçûìÿííûé_ãðàäèåíò_3);}.cls-2{fill:url(#Sfumatura_senza_nome_6);}.cls-3{fill:url(#Áåçûìÿííûé_ãðàäèåíò_3-2);}.cls-4{fill:#eb924d;}.cls-5{fill:url(#Áåçûìÿííûé_ãðàäèåíò_3-3);}
        </style>
        <linearGradient id="Áåçûìÿííûé_ãðàäèåíò_3" x1="103.11" y1="-55.73" x2="79.22" y2="-2.63"
                        gradientTransform="translate(0.27 0.12) rotate(-0.02)" gradientUnits="userSpaceOnUse">
            <stop offset="0" stop-color="#cf5c2b"/>
            <stop offset="1" stop-color="#59173e"/>
        </linearGradient>
        <linearGradient id="Sfumatura_senza_nome_6" x1="41.51" y1="-39.9" x2="115.47" y2="175.32"
                        gradientTransform="matrix(1, 0, 0, 1, 0, 0)" xlink:href="#Áåçûìÿííûé_ãðàäèåíò_3"/>
        <linearGradient id="Áåçûìÿííûé_ãðàäèåíò_3-2" x1="93.84" y1="-6.55" x2="-34.13" y2="165.12"
                        gradientTransform="matrix(-1, 0, 0, 1, 130.12, 0)" xlink:href="#Áåçûìÿííûé_ãðàäèåíò_3"/>
        <linearGradient id="Áåçûìÿííûé_ãðàäèåíò_3-3" x1="66.51" y1="103.48" x2="64.21" y2="30.57"
                        gradientTransform="matrix(-1, 0, 0, 1, 128.77, 0.12)" xlink:href="#Áåçûìÿííûé_ãðàäèåíò_3"/>
    </defs>
    <g id="Livello_2" >
        <g id="Livello_2-2" >
            <path class="cls-1"
                  d="M128.39,6.22A6.45,6.45,0,0,0,122.22.27C113-.09,17.09-.09,8,.28A6.13,6.13,0,0,0,6.05.66a5.49,5.49,0,0,0-.89.4A8.19,8.19,0,0,0,2,4.58,12,12,0,0,0,.36,9.34C.28,10.7.21,12.07.16,13.43a3.23,3.23,0,0,0,0,.44,1.79,1.79,0,0,1,0,.24,1.89,1.89,0,0,0,.22,1.21,1.58,1.58,0,0,0,.55.57s-.22.16-.24.19a1.51,1.51,0,0,0-.21.23,2.33,2.33,0,0,0-.32.55,2.65,2.65,0,0,0-.14.62C0,18.32,0,19.18,0,20a15.24,15.24,0,0,0,.06,2.24c0,.18,0,18.46,0,18.64a3.66,3.66,0,0,0,.46,1.16,2,2,0,0,0-.48,1.28c0,.54.08,1.07.05,1.62a32.47,32.47,0,0,0,.08,4.41L.31,50a3.06,3.06,0,0,0,.31,1.12A1.42,1.42,0,0,0,1,51.5c-.16,0-.27.13-.34.27A3.32,3.32,0,0,0,.4,54.22,15.77,15.77,0,0,0,.88,57a6.42,6.42,0,0,0,1.28,2.11,6.54,6.54,0,0,0,4.46,2.15c9.67.55,105.79.6,114.67,0h.12A6.57,6.57,0,0,0,126.59,58a14.11,14.11,0,0,0,1.19-3.49,7.25,7.25,0,0,0,.39-2.41c0-.43.08-.86.06-1.3a3.38,3.38,0,0,0-.38-1.43.39.39,0,0,1-.06-.17c0-.15.14-.24.25-.33a1.34,1.34,0,0,0,.48-.84.45.45,0,0,0,0-.23,1.86,1.86,0,0,1,0-.41c0-1,.09-2,.13-3s.08-2.21.1-3.32.05-20.28.05-21.37,0-2.16,0-3.23c0-.54,0-1.07,0-1.6,0-.27,0-.53,0-.8a5.08,5.08,0,0,1,0-.78.69.69,0,0,0,0-.25,1.73,1.73,0,0,0-.07-.31,2.66,2.66,0,0,0-.26-.6,2.83,2.83,0,0,0-.39-.52s-.46-.43-.5-.39a2.66,2.66,0,0,0,.34-.4,3.65,3.65,0,0,0,.51-1.24c0-.22.08-.45.11-.67,0-.05,0-.09,0-.13a2.18,2.18,0,0,0,0-.51C128.49,7.57,128.44,6.89,128.39,6.22Z"/>
            <path class="cls-2"
                  d="M128.82,13.71c0,1.14,0,2.28,0,3.42,0,.55,0,1.1,0,1.64,0,.3,0,.59,0,.89,0,1.55,0,21.19-.08,22.74,0,.89,0,1.77-.08,2.66a3.87,3.87,0,0,1-.16,1,8,8,0,0,0-.2,1.54.71.71,0,0,1-.17.45.63.63,0,0,1-.42.14l-.77.08c-1.47.15-2.94.29-4.42.33a25.7,25.7,0,0,1-3.28-.13l2.48.37.71.11,5.07.75a.89.89,0,0,1,.43.15.8.8,0,0,1,.18.64c0,.34-.06.68-.11,1-.09.67-.22,1.34-.25,2a2.94,2.94,0,0,1,0,.42,3.14,3.14,0,0,1-.63,1.18,6.51,6.51,0,0,1-4.86,2.71c-8.75.55-104.72.5-114.24-.05a6.4,6.4,0,0,1-3.75-1.49,6,6,0,0,1-1.57-2c-.16-.35-.21-.73-.36-1.08a.85.85,0,0,1-.09-.22.61.61,0,0,1,.17-.64,1.27,1.27,0,0,1,.77-.19c3-.11,6-.3,9.08-.38h.09c.92,0,1.86-.05,2.78-.05-.34,0-.68-.1-1-.13-1.56-.19-3.14-.25-4.71-.31H7.24a15.84,15.84,0,0,1-3-.34,7.46,7.46,0,0,1-1.67-.39,1.49,1.49,0,0,1-.6-.48l0-.06a1.86,1.86,0,0,1-.23-1.22,6,6,0,0,0,0-1.34c0-.8-.09-1.61-.13-2.41,0-.44,0-.88-.07-1.32a1,1,0,0,1,.14-.7,1,1,0,0,1,.51-.25c.6-.15,1.19-.3,1.79-.39a5.58,5.58,0,0,1,.81-.09L2.7,41.89a2.57,2.57,0,0,1-.61-.2L2,41.61a1.28,1.28,0,0,1-.48-1c0-.12,0-18.34-.05-18.46a8.43,8.43,0,0,1-.11-.86c-.05-.44-.07-.89-.1-1.32a5.37,5.37,0,0,1,.38-2.8,1.5,1.5,0,0,1,1-.6c1.45-.17,2.9-.33,4.35-.45l.88-.07c1.43-.12,2.85-.21,4.29-.28a44.74,44.74,0,0,1-5.18-.06c-1.08-.07-2.16-.17-3.24-.31a4.58,4.58,0,0,1-1.32-.34l0,0A1.44,1.44,0,0,1,2,14.9a1.39,1.39,0,0,1-.47-.65,1.44,1.44,0,0,1,0-.77c0-.11,0-.2,0-.31,0-.6,0-1.22.05-1.83l0-.94c0-1.36.11-2.72.19-4.08A6.45,6.45,0,0,1,8,.28C17.09-.09,113-.09,122.22.27a6.51,6.51,0,0,1,6.07,5.22,7.12,7.12,0,0,1,.06,2.76,3.24,3.24,0,0,1-.18.66,1.5,1.5,0,0,1-.24.47l0,0a.9.9,0,0,1-.28.08c-.54.13-1.07.24-1.62.34-1.08.19-2.17.32-3.26.42h0c-2.2.2-4.42.23-6.63.27h-.06l1.81.11,4.93.28,3.28.19a4.12,4.12,0,0,1,1.91.43h0A2.24,2.24,0,0,1,128.82,13.71Z"/>
            <path class="cls-3"
                  d="M7.1,13.39c11.07-.76,22.15-1.51,33.21-2.33,10.61-.78,21.19-1.82,31.83-2.33s21.57.13,32.28.54c6.18.24,12.38.19,18.56.42,1.88.07,3.75.22,5.62.41,0,.7-.06,1.4-.09,2.1a17.2,17.2,0,0,1-.31,2.56.2.2,0,0,1-.06.12.26.26,0,0,1-.18,0h-.16c-1,0-2,.05-3,.13-1.76.14-3.62.12-5.42.27-1.05.09-2.11.17-3.16.24q-3,.21-6.08.33c.94,0,1.9,0,2.85,0h.15l3.16,0c2.16,0,4.32.09,6.47.2,1.05.05,2.1.12,3.15.2a11.28,11.28,0,0,0,1.42.09.77.77,0,0,1,.67.4c-.63.1-1.27.19-1.9.27-5.35.72-11,.46-16.36.41C98.86,17.37,88,16.87,77,16.63c-5.5-.11-11-.43-16.49-.47-5.28,0-10.57.2-15.85.38-3.93.13-7.87.3-11.81.47l4.62.16C58.58,18,79.42,20.32,100.4,22q8.84.7,17.67,1.22c3.35.19,6.68.33,10,.56l0,1.13a2.23,2.23,0,0,0,0,.73l0,.12c-8.08,0-16.28-.68-24.25-1.19-10.38-.66-20.7-1.63-31-2.55-20.68-1.85-41.47-2.79-62.28-2.66-2.91,0-5.77.08-8.61.23,0-.13.05-.24.09-.37a.65.65,0,0,1,.19-.33,1.18,1.18,0,0,1,.57-.15l6.55-.51-1.05,0a45.46,45.46,0,0,1-5.61-.67h0a1.09,1.09,0,0,1-.45-.15A.68.68,0,0,1,2,17c-.12-.4-.09-.83-.24-1.22a2.07,2.07,0,0,1-.12-.65c0-.46,0-.91-.07-1.36ZM1.76,54.33q8.79-.21,17.57-.47C39.1,53.26,58.91,52.51,78.6,51q15-1.14,29.94-2.76c4.9-.52,9.76-1.07,14.6-1.87,1.7-.28,3.48-.5,5.21-.85a1.62,1.62,0,0,0,0-.22c0-.6.07-1.17.12-1.76s0-1.36,0-2c0-1.65,0-3.31,0-5,0-.39,0-.77,0-1.16a106.23,106.23,0,0,0-21.91-4.53c-18.46-2-37.18-2.95-55.75-4C41.39,26.34,32,26,22.52,25.65a151.65,151.65,0,0,0-20.24.4c0,.22,0,.44,0,.64a24.48,24.48,0,0,0,.12,3.63A210.89,210.89,0,0,0,25.5,32.25c18.53.9,37.06,1.92,55.55,3.21,8.62.6,17.32,1.06,25.88,2.11,3.13.38,6.28.85,9.37,1.47l-.85.08q-8.08.83-16.19,1.49-10.71.89-21.43,1.58c-5.62-.76-11.19-1.82-16.8-2.68a177.78,177.78,0,0,0-22.63-2c-12.09-.3-24.2.09-36.28-.21,0,.58,0,1.16,0,1.74,11.69,1,23.52.57,35.29,1A164.66,164.66,0,0,1,61,42.57l2.61.48C43.15,44.19,22.68,44.9,2.21,45.39c0,.76,0,1.52,0,2.28s-.14,2.21.39,2.94a1.24,1.24,0,0,0,.72.4,5.57,5.57,0,0,0,.82.1l13.33.7h-.16q-7.51.12-15,.7c-.24,0-.31.42-.35.55A7.71,7.71,0,0,0,1.76,54.33Z"/>
            <path class="cls-4"
                  d="M1.44,22.22a16.7,16.7,0,0,1-.2-1.87,6.09,6.09,0,0,1,.36-3.12,1.47,1.47,0,0,1,1-.61c1.74-.21,3.48-.39,5.22-.53-1.61.54-3.47.55-5,1.21a1.61,1.61,0,0,0-.74.54.85.85,0,0,0-.09.22,7,7,0,0,0-.22,2.23c0,.43.06.86.1,1.28.06.68-.16,21.26-.05,21.93,0,0,0,2.87,0,2.84C1.36,44.28,1.52,22.71,1.44,22.22Z"/>
            <path class="cls-4" d="M121.41,48.72l.21.09A.4.4,0,0,1,121.41,48.72Z"/>
            <path class="cls-4"
                  d="M1.59,14.23a3.5,3.5,0,0,1-.06-1c0-1.6.08-3.19.17-4.78a12.57,12.57,0,0,1,.64-4.36A6.5,6.5,0,0,1,8,.28C17.09-.09,113-.09,122.22.27a6.53,6.53,0,0,1,6.08,5.22c.17.89,0,.22-.52-1.15a4.57,4.57,0,0,0-1.53-2.09c-2.34-1.81-5.94-1.2-8.76-1.25C109.73.86,15.2.62,7.46,1.32c-.35,0-.7-.09-1,0A4.45,4.45,0,0,0,4.34,2.45,6.66,6.66,0,0,0,2.62,5a7.25,7.25,0,0,0-.27.87c-.75,2.89-.43,6.22-.07,9.15a1.11,1.11,0,0,1-.67-.76A.64.64,0,0,1,1.59,14.23Z"/>
            <path class="cls-5"
                  d="M10.51,50.67a1.77,1.77,0,0,0,.41.41c1.14.81,3.54.54,4.87.58,1.94.06,3.88,0,5.81,0,3.29,0,92.49-.07,95.65-.94a2,2,0,0,0,1.13-.67,1.22,1.22,0,0,0,.17-.56,6.88,6.88,0,0,0,.11-1.63,1.77,1.77,0,0,1,.12-.64,2.08,2.08,0,0,0,.06-.86.33.33,0,0,0-.08-.18.39.39,0,0,0-.21-.11c-.27-.07-.55-.11-.81-.2a4,4,0,0,0-.92-.06,17.12,17.12,0,0,1-2-.21h2a6,6,0,0,0,1,0,1.72,1.72,0,0,0,.85-.43c.11-.13.09-.23.11-.39s0-.55,0-.83c.11-2.59.26-25.42.28-28l2.18.16.87.07c-.06,2-.15,24.2-.19,26.16,0,1.57,0,3.14.07,4.71a12.91,12.91,0,0,1-.18,4.34,3,3,0,0,1-.91,1.68,2.5,2.5,0,0,1-.75.32l-.38.11h-.07c-1.58.06-3.15.11-4.72.3-.34,0-.68.08-1,.14.92,0,1.85,0,2.77,0-3.06.21-91.94.5-95,.52-2.85,0-5.7-.15-8.55-.32-1.68-.09-3.81-.36-5-1.83a3.83,3.83,0,0,1-.61-1.25L8.3,51Zm108.54-34.8c1,0,2,0,3.07-.11,0-.92,0-1.83,0-2.73A20.52,20.52,0,0,0,122,9.9a4.83,4.83,0,0,0-1.75-3.24c-2.1-1.7-5.22-.87-7.68-1-2.29-.12-90.41-.2-92.71-.2-1.13,0-2.25,0-3.37,0-1.44,0-2.88.09-4.32.17A5.57,5.57,0,0,0,8.38,7a5.18,5.18,0,0,0-1.14,3.29c1,.09,2,.15,3,.18a3.38,3.38,0,0,1,.57-1.57,2.58,2.58,0,0,1,1.36-.77,8.76,8.76,0,0,1,2.13-.43c4.26,0,94.39.06,98.65.12a5.3,5.3,0,0,1,1.12.1,14.59,14.59,0,0,1,1.6.45,5.79,5.79,0,0,1,1.56.81c.22.17.41.37.62.55a2.13,2.13,0,0,1,.33.34,1.37,1.37,0,0,1,.13.2s.08.18.1.18a5.11,5.11,0,0,0-1.83,0l-3.23.34c1.36,0,2.72,0,4.07,0a2,2,0,0,1,.81.15,1.47,1.47,0,0,1,.64,1,1.21,1.21,0,0,1,0,.5,2.44,2.44,0,0,0,0,.27c0,.55.1,1.09.11,1.64S119.05,15.34,119.05,15.87ZM6.84,17.78c0,.71,0,21.64,0,22.35a76.28,76.28,0,0,0,.31,8.14c.1.76.15,1.66.34,2.49a25.07,25.07,0,0,0,3-.11,6.56,6.56,0,0,1-.76-3.51,1.62,1.62,0,0,0,0-.22c0-.63,0-1.27-.05-1.91s0-1.52,0-2.28a4.73,4.73,0,0,1,0-.53,1.59,1.59,0,0,0,.06-.3,2.5,2.5,0,0,0-.1-.49l-.13-.56a55.2,55.2,0,0,0,6.17.11,29.41,29.41,0,0,0-5-.54,1.15,1.15,0,0,1-.9-.36c-.12-.16-.07-.31-.06-.5,0-.61.08-21.44.13-22,.1-1.24.22-2.47.29-3.71.05-.8,0-2,.07-3.08l-3,.17-.06.94q-.22,3-.3,5.91Z"/>
            <path class="cls-4"
                  d="M10.42,15.89c-1.21.12-2.41.29-3.59.51a.26.26,0,0,1-.09-.27C8,16,9.15,16,10.42,15.89Z"/>
        </g>
    </g>
</svg>