<svg xmlns="http://www.w3.org/2000/svg" xmlns:xlink="http://www.w3.org/1999/xlink" viewBox="0 0 269.71 266.76"><defs><style>.cls-1{fill:url(#_ÂÁ_Ï_ÌÌ_È_ËÂÌÚ_3);}.cls-2{fill:url(#_ÂÁ_Ï_ÌÌ_È_ËÂÌÚ_3-2);}.cls-3{fill:url(#_ÂÁ_Ï_ÌÌ_È_ËÂÌÚ_3-3);}.cls-4{fill:url(#linear-gradient);}.cls-5{fill:#eb924d;}.cls-6{fill:url(#_ÂÁ_Ï_ÌÌ_È_ËÂÌÚ_3-4);}.cls-7{fill:url(#_ÂÁ_Ï_ÌÌ_È_ËÂÌÚ_3-5);}.cls-8{fill:url(#_ÂÁ_Ï_ÌÌ_È_ËÂÌÚ_3-6);}.cls-9{fill:url(#linear-gradient-2);}</style><linearGradient id="_ÂÁ_Ï_ÌÌ_È_ËÂÌÚ_3" x1="131.57" y1="-1.82" x2="132.96" y2="132.41" gradientTransform="matrix(0.99, 0.02, 0.02, 0.93, -0.61, 2.63)" gradientUnits="userSpaceOnUse"><stop offset="0" stop-color="#cf5c2b"/><stop offset="1" stop-color="#59173e"/></linearGradient><linearGradient id="_ÂÁ_Ï_ÌÌ_È_ËÂÌÚ_3-2" x1="233.21" y1="-51.13" x2="-12.82" y2="405.24" gradientTransform="matrix(1, 0, 0, 1, 0, 0)" xlink:href="#_ÂÁ_Ï_ÌÌ_È_ËÂÌÚ_3"/><linearGradient id="_ÂÁ_Ï_ÌÌ_È_ËÂÌÚ_3-3" x1="203.26" y1="5.21" x2="3.55" y2="375.66" gradientTransform="matrix(1, 0, 0, 1, 0, 0)" xlink:href="#_ÂÁ_Ï_ÌÌ_È_ËÂÌÚ_3"/><linearGradient id="linear-gradient" x1="230.57" y1="79.07" x2="-123.32" y2="556.38" gradientUnits="userSpaceOnUse"><stop offset="0" stop-color="#cf5c2b"/><stop offset="0.58" stop-color="#59173e"/></linearGradient><linearGradient id="_ÂÁ_Ï_ÌÌ_È_ËÂÌÚ_3-4" x1="249.79" y1="-8.78" x2="251.21" y2="129.12" gradientTransform="matrix(1, 0, 0, 1, 0, 0)" xlink:href="#_ÂÁ_Ï_ÌÌ_È_ËÂÌÚ_3"/><linearGradient id="_ÂÁ_Ï_ÌÌ_È_ËÂÌÚ_3-5" x1="240.47" y1="-8.72" x2="241.89" y2="129.22" gradientTransform="matrix(1, 0, 0, 1, 0, 0)" xlink:href="#_ÂÁ_Ï_ÌÌ_È_ËÂÌÚ_3"/><linearGradient id="_ÂÁ_Ï_ÌÌ_È_ËÂÌÚ_3-6" x1="43.79" y1="30.77" x2="17.78" y2="128.77" gradientTransform="matrix(1, 0, 0, 1, 0, 0)" xlink:href="#_ÂÁ_Ï_ÌÌ_È_ËÂÌÚ_3"/><linearGradient id="linear-gradient-2" x1="281.59" y1="698.74" x2="144.84" y2="173.31" gradientTransform="matrix(1, 0, 0, 1, 0, 0)" xlink:href="#_ÂÁ_Ï_ÌÌ_È_ËÂÌÚ_3"/></defs><g id="Layer_2" data-name="Layer 2"><g id="Buttons"><path class="cls-1" d="M3,128.61a77.64,77.64,0,0,0-1.12,20.77c.53,6.63.94,13.37,5.11,19a25.06,25.06,0,0,0,6,5.79c1.53,1.05,3.33,1.6,4.85,2.59.36.24.73.43.73.9,0,.89-1.74,1.79-2.32,2.26a7.15,7.15,0,0,0-2.77,3.52c-.72,2.65.67,5.47,1.9,7.83a154.41,154.41,0,0,0,9.46,15.87c14,20.54,30.07,41.63,54.14,51.26,13.77,5.51,28.22,6.27,42.7,7.24a446.62,446.62,0,0,0,45.52.86c13.56-.45,28.45-1.24,39.91-7.92,8.49-5,15.17-12.55,20.3-20.18a264.58,264.58,0,0,0,22-39.77c.58-1.3,1.41-2.55,1.43-4a11.61,11.61,0,0,0,0-2,7.41,7.41,0,0,0-1.77-3.72,12.65,12.65,0,0,0,5.77-5.75,23,23,0,0,0,1.66-4.16,11.83,11.83,0,0,1,1.34-3.41c1.53-2.29,2.05-5.2,2.76-7.84a170.77,170.77,0,0,0,4-18.91c.14-.93.27-1.86.4-2.79a62,62,0,0,0,.6-12.33c0-.41-.07-.82-.09-1.19-.32,15.36-5.44,28.71-11.57,42.94a267.21,267.21,0,0,1-23.23,42.84c-5.1,7.65-11.74,15.21-20.2,20.2-11.4,6.73-26.2,7.51-39.67,8a443.74,443.74,0,0,1-45.24-.79C111.1,244.75,96.7,244,83,238.53c-14.63-5.89-26.78-16.41-36.62-27.93-10.71-12.56-19.3-27-26.7-40.33C8,149.16,3.32,127.56,8.39,105.9,5.85,113.34,4.39,121.32,3,128.61Z"/><path class="cls-2" d="M269.68,131.56c0,.44,0,.85,0,1.26a98,98,0,0,1-4.12,24.06,223.59,223.59,0,0,1-8.79,23.83c-2.13,5-4.37,10-6.72,15a10,10,0,0,1-.46.93,308.74,308.74,0,0,1-17.89,32.15,88.8,88.8,0,0,1-7.9,10.76,61.31,61.31,0,0,1-13.55,12.11c-12,7.72-27.42,8.87-41.44,9.72a434.37,434.37,0,0,1-47.05.08c-14.94-.75-29.91-1.23-44-7-15.12-6.24-27.53-17.63-37.52-30.22,0-.07-.11-.11-.15-.18a211.63,211.63,0,0,1-19.31-29.85c-1.6-2.86-3.13-5.72-4.62-8.54-1-1.89-2-3.75-2.88-5.61-1.18-2.3-2.24-4.56-3.28-6.86A111.05,111.05,0,0,1,.75,139.39a92.78,92.78,0,0,1,.11-19.64,99,99,0,0,1,1.92-10.91A108.32,108.32,0,0,1,6.8,96c.46-1.15.89-2.34,1.39-3.49,1.45-3.78,3-7.53,4.62-11.25.89-2,1.78-4,2.7-6.08,1.89-4.16,3.91-8.32,6-12.4,1.42-2.71,2.88-5.39,4.44-8,1.93-3.38,3.95-6.68,6.09-10a5.38,5.38,0,0,1,.39-.63c1.07-1.64,2.13-3.23,3.23-4.83.93-1.33,1.82-2.63,2.78-3.9a7.17,7.17,0,0,1,.5-.66C47.2,23.64,57,13.84,70.71,9.05,100-1.12,130.36-1,162,1.18c12.73.89,26.92,3.34,37,11.62A260.23,260.23,0,0,1,252.68,73c.18.26.35.49.5.75A105.17,105.17,0,0,1,266,102.6s0,.07,0,.15c.53,1.89,1,3.79,1.39,5.72.32,1.44.6,2.89.85,4.38,0,.07,0,.11,0,.18v0a101.07,101.07,0,0,1,1.35,12.29C269.72,127.47,269.72,129.55,269.68,131.56Z"/><path class="cls-3" d="M260.68,99.34a5.94,5.94,0,0,1,0,.74,39.27,39.27,0,0,1-3.82,14.2c-7.4-.24-14.9-.59-22.56-.9q-45.3-1.93-90.62-3.52C99.4,108.3,55.59,107.38,12,104a35.23,35.23,0,0,1,.1-11.59c43.65-2.1,87.3-1.33,131.58-.7.59,0,1.18,0,1.77,0-2.53-.27-5.06-.55-7.6-.79-38.52-4-81-6.6-119-14.64,1.35-2.23,2.76-4.45,4.27-6.64.82-1.2,1.65-2.38,2.5-3.59,1.75-2.45,3.62-4.91,5.59-7.32,1.32-1.6,2.67-3.17,4.12-4.73,36.71-.7,74.6,2.83,109.8,4.84,29.07,1.65,58.32,2.94,87.33,4.95q6.27.44,12.5,1a4.83,4.83,0,0,1,.46.44,54.79,54.79,0,0,1,11.81,17s0,0,0,.09a33.7,33.7,0,0,1,1.28,3.37c.3.86.56,1.71.79,2.59,0,0,0,.06,0,.11v0a40.15,40.15,0,0,1,1.25,7.25C260.71,96.93,260.71,98.16,260.68,99.34Zm6.9,38.36c-15.73-.92-31.26-1.75-47.06-2q-47.07-.69-94.05-2.1c-31.37-.95-62.3-1.91-93.8-1.87-9.22,0-19.57-.43-29.88-.52,1.7,1.66,2.37,8.13,2.42,10.67.19,9.16-4.8,7.69,3.57,13.19,30.77,3.09,82.43,3.55,113.81,4.79s62.63,2.22,94,3c7.52.18,38.85,1.91,46.21,1.87,3.36-2-1.7-3,.44-5.66,5.45-6.82-1.16-14.81,4.9-21.36A5.24,5.24,0,0,1,267.58,137.7Z"/><path class="cls-4" d="M241.81,199.82c-12.66-.92-25.16-1.76-37.88-2q-37.89-.69-75.7-2.1c-25.26-.94-50.16-1.9-75.51-1.86-7.42,0-15.75-.44-24-.53C30,195,30.58,201.49,30.62,204c.15,9.16-3.86,7.69,2.88,13.19,24.76,3.09,66.35,3.54,91.6,4.79s50.41,2.21,75.67,3c6,.17,31.27,1.91,37.19,1.87,2.7-2-1.37-3,.36-5.66,4.38-6.83-.94-14.81,3.94-21.36A3.39,3.39,0,0,1,241.81,199.82Z"/><path class="cls-5" d="M253.18,73.76A105.17,105.17,0,0,1,266,102.6c-.64-1.37-1.39-2.67-2-3.9-2.28-4.41-4.7-8.8-7.22-13.07a242.13,242.13,0,0,0-16-23.42c-2.46-3.19-5.34-6.05-6.76-10-1.21-3.27-3.77-5.83-6.08-8.28-7.76-8.24-16.9-14.77-25.33-22.16-4.87-4.27-9.64-8.87-15.36-11.77s-11.88-3.82-18.07-4.16c-2.28-.15-4.52-.18-6.79-.22a7.3,7.3,0,0,1-2.71-.3,17.81,17.81,0,0,0-3.09-.52c-2.88-.33-5.73-.59-8.61-.81C124,2.18,99.46,3,76.17,9a54.14,54.14,0,0,0-12.49,4.53l-1.67,1a95.13,95.13,0,0,0-10.17,8.24,62.74,62.74,0,0,1-5.09,4.12c-.71.52-1.08,2.2-1.86,2.57A12.31,12.31,0,0,0,41.06,33,62.15,62.15,0,0,0,37.25,41a5.48,5.48,0,0,0-.5,1.3c-.32,1.45.6,2.6.32,4.09a10.07,10.07,0,0,1-5-1.56,5.38,5.38,0,0,1,.39-.63c1.07-1.64,2.13-3.23,3.23-4.83.93-1.33,1.82-2.63,2.78-3.9a7.17,7.17,0,0,1,.5-.66C47.2,23.64,57,13.84,70.71,9.05,100-1.12,130.36-1,162,1.18c12.73.89,26.92,3.34,37,11.62A261.22,261.22,0,0,1,253.18,73.76Z"/><path class="cls-5" d="M268.22,112.85c-.07.48-.18.93-.28,1.41a22.56,22.56,0,0,1-.57-5.61v-.18C267.69,109.91,268,111.36,268.22,112.85Z"/><path class="cls-6" d="M232.64,122.7c17.42-.37,5.11.14,22.52-.19,3.37-.07,8.22-1.19,11.35.09s3.26,6,3.13,9.3a.91.91,0,0,1,0-.33c.05-2,0-4.09-.07-6.2a101.79,101.79,0,0,0-1.36-12.32,4.48,4.48,0,0,1-.84,1.69,13.79,13.79,0,0,1-6.53,4.17c-1.76.27-3.55.49-5.29.71C250,120.34,250.56,120.49,232.64,122.7Z"/><path class="cls-7" d="M251.4,186.05c-6.88,5.14-15.82,7.39-24.47,9.51q11.44-.08,22.87.22a5.68,5.68,0,0,0-.78,4.64l4.54-10.88c1.47-3.52,2.67-7.3,4.49-10.68-.06,1.18-1.95,2.85-2.79,3.75A29.45,29.45,0,0,1,251.4,186.05Z"/><path class="cls-8" d="M.4,122c-.92,2.26.39,5,2.34,6.33s4.39,1.72,6.73,2c8.9,1.12,17.9,2,26.83,1.1-10.15.46-21.29,1.54-31.43,2a4.65,4.65,0,0,0-2,.38c-1.27.68-1.7,2.37-1.68,3.86a18.94,18.94,0,0,1,0,4.45A64.73,64.73,0,0,1,.4,122Z"/><path class="cls-9" d="M134.44,251.3a118,118,0,1,1,118-118A118.1,118.1,0,0,1,134.44,251.3Zm0-217.9a99.94,99.94,0,1,0,99.94,99.94A100.06,100.06,0,0,0,134.44,33.4Z"/></g></g></svg>