<svg xmlns="http://www.w3.org/2000/svg" xmlns:xlink="http://www.w3.org/1999/xlink" viewBox="0 0 190 50">
    <defs>
        <style>
            .cls-1{fill:url(#_ÂÁ_Ï_ÌÌ_È_ËÂÌÚ_3);}.cls-2{fill:url(#_ÂÁ_Ï_ÌÌ_È_ËÂÌÚ_3-2);}.cls-3{fill:#eb924d;}.cls-4{fill:url(#_ÂÁ_Ï_ÌÌ_È_ËÂÌÚ_3-3);}.cls-5{fill:url(#_ÂÁ_Ï_ÌÌ_È_ËÂÌÚ_7);}.cls-6{fill:#ffdf80;}.cls-7{fill:url(#Sfumatura_senza_nome_2);}
        </style>
        <linearGradient id="_ÂÁ_Ï_ÌÌ_È_ËÂÌÚ_3" x1="106.47" y1="-45.58" x2="101.39" y2="-14.35"
                        gradientUnits="userSpaceOnUse">
            <stop offset="0" stop-color="#cf5c2b"/>
            <stop offset="1" stop-color="#59173e"/>
        </linearGradient>
        <linearGradient id="_ÂÁ_Ï_ÌÌ_È_ËÂÌÚ_3-2" x1="102.81" y1="-37.99" x2="80.69" y2="163.24"
                        xlink:href="#_ÂÁ_Ï_ÌÌ_È_ËÂÌÚ_3"/>
        <linearGradient id="_ÂÁ_Ï_ÌÌ_È_ËÂÌÚ_3-3" x1="96.11" y1="70.45" x2="96.11" y2="33.53"
                        xlink:href="#_ÂÁ_Ï_ÌÌ_È_ËÂÌÚ_3"/>
        <linearGradient id="_ÂÁ_Ï_ÌÌ_È_ËÂÌÚ_7" x1="96.13" y1="6.23" x2="96.13" y2="23.59"
                        gradientUnits="userSpaceOnUse">
            <stop offset="0" stop-color="#ffca2b"/>
            <stop offset="1" stop-color="#d15b24"/>
        </linearGradient>
        <linearGradient id="Sfumatura_senza_nome_2" x1="96.13" y1="51.84" x2="96.13" y2="21.41"
                        gradientUnits="userSpaceOnUse">
            <stop offset="0" stop-color="#cc6923"/>
            <stop offset="0.37" stop-color="#ffce3b"/>
            <stop offset="0.84" stop-color="#e0912c"/>
        </linearGradient>
    </defs>
    <g id="Layer_2">
        <g id="Buttons">
            <path class="cls-1"
                  d="M189.9,22.7a11.81,11.81,0,0,0-.74-2l0-.1c-.34-.82-.74-1.62-1.16-2.41-.22-.39-.43-.78-.65-1.16a1.59,1.59,0,0,0-.15-.21,1,1,0,0,1-.13-.23,4.41,4.41,0,0,0-.35-.53,9.27,9.27,0,0,0-1.36-1.63,3.8,3.8,0,0,0-.85-.59,2.62,2.62,0,0,0-.52-.22,4.37,4.37,0,0,0-.52-.12c0-.08,0-.18,0-.26a2.62,2.62,0,0,0,0-.28,2.82,2.82,0,0,0-.09-.57,5.32,5.32,0,0,0-.4-1.07,10.8,10.8,0,0,0-.63-1.1c-.12-.18-.25-.35-.38-.53s-.12-.28-.21-.42l-.22-.36a1.34,1.34,0,0,1-.13-.23,1.23,1.23,0,0,0-.23-.28c-.16-.2-.33-.39-.49-.58a29.94,29.94,0,0,0-4-4.24,12.41,12.41,0,0,0-2.07-1.45c-.21-.12-.42-.22-.63-.32a12.48,12.48,0,0,0-5-.85L138.41.38,132.9.3,127.39.23,121.88.17,116.35.12l-5.52,0-5.54,0L99.76,0,94.21,0H77.56L72,.05l-5.57,0L60.85.13l-5.58,0L49.69.24C45.36.3,31,.34,26.62.41c-3.43.05-7.37,0-10.24,2.29A28.75,28.75,0,0,0,12.2,6.92c-1.44,1.68-2.83,3.4-4.15,5.17s-2.43,3.35-3.5,5.12c-1,1.59-2,3.13-3,4.71A7.88,7.88,0,0,0,0,26.4a10.06,10.06,0,0,0,1.22,3.3c.24.52.55,1,.83,1.5A11.08,11.08,0,0,0,3,32.55a2.34,2.34,0,0,0,.7.63c.55.28,1.24.15,1.75.49a.87.87,0,0,0-.65.76,2.39,2.39,0,0,0,.19,1A18.26,18.26,0,0,0,6.6,38.8a28.52,28.52,0,0,0,2.26,2.87c.92,1.11,1.88,2.2,2.88,3.24a22.29,22.29,0,0,0,3.12,2.94c2,1.39,4.25,1.26,6.55,1.32,7.32.17,24.72.52,32,.52q14,.26,27.89.3t27.82-.13q13.89-.18,27.76-.57c2.61-.08,30.46.38,33.08,0a7.27,7.27,0,0,0,3.41-1.13,24.12,24.12,0,0,0,4.2-4.42c.83-1,1.65-2,2.45-2.95a7.59,7.59,0,0,0,1.8-2.83,1.33,1.33,0,0,1,.17-.47,1.51,1.51,0,0,1,.44-.35,9.49,9.49,0,0,0,2.58-3.23c1.25-2,2.39-4.09,3.53-6.17C189.42,26.24,190.3,24.49,189.9,22.7Z"/>
            <path class="cls-2"
                  d="M188.58,27.76,187.92,29l-.27.48a40.4,40.4,0,0,1-2.17,3.48q-.63.92-1.32,1.77A4.23,4.23,0,0,1,182.72,36l-.34.13a5.51,5.51,0,0,1-1.15.18l-3.32.32h-.09l-1.79.17a21.53,21.53,0,0,1,2.41,0,21,21,0,0,1,3.42.53,6.72,6.72,0,0,1-1.17,2c-1.58,1.84-3.07,4-5.09,5.38a7.24,7.24,0,0,1-3.41,1.13c-2.63.36-30.48-.1-33.08,0q-13.87.39-27.76.57c-4.5,0-9,.09-13.5.12H94.52c-3.67,0-7.33,0-11,0q-13.95,0-27.9-.3-3.41,0-6.83-.09c-5-.11-20.16-.31-25.21-.43-2.29-.06-4.57.07-6.54-1.32a21.75,21.75,0,0,1-3.12-2.94l-.3-.32q-1.31-1.38-2.52-2.85c-.67-.81-1.33-1.62-2-2.41a7.83,7.83,0,0,1-.77-1.11,5.46,5.46,0,0,1-.79-1.65.35.35,0,0,1,0-.3.31.31,0,0,1,.23-.11c1.65-.29,3.36-.13,5-.45a6.62,6.62,0,0,0,1-.26L9.25,32c-.37,0-.75,0-1.12,0a3.25,3.25,0,0,1-.43-.08,3.66,3.66,0,0,1-1.75-1,3.5,3.5,0,0,1-.61-.82c-.67-1.25-1.34-2.5-1.93-3.79A10.5,10.5,0,0,1,2.19,23v-.17a5.36,5.36,0,0,1,.46-2.22,24.75,24.75,0,0,1,1.89-3.36c1.08-1.77,2.28-3.46,3.52-5.12S10.75,8.6,12.2,6.93L13,6a25,25,0,0,1,3.4-3.33C19.25.44,23.19.46,26.61.41,31,.34,45.36.3,49.69.24L55.27.18l5.58,0,5.58,0L72,.05l5.56,0H99.76l5.53,0,5.53,0,5.53,0,5.52.05,5.52.06L132.9.3l5.51.08,30.64.6a12.48,12.48,0,0,1,5,.85c.21.1.42.2.63.32A17.28,17.28,0,0,1,179.13,6c.31.34.61.69.91,1a16.13,16.13,0,0,1,1.46,1.86c.52.79,1,1.59,1.47,2.41.12.22.24.52.07.71a.52.52,0,0,1-.29.16h0a20.23,20.23,0,0,1-4.88.69c.73.12,1.47.23,2.21.3a26,26,0,0,0,2.93.19,4.18,4.18,0,0,1,2.07.37l0,0a5.69,5.69,0,0,1,1.55,2.15c.47.82.92,1.65,1.44,2.45a12.05,12.05,0,0,1,.91,1.92c.07.15.13.3.18.44a11.43,11.43,0,0,1,.75,2C190.3,24.49,189.42,26.24,188.58,27.76Z"/>
            <path class="cls-3"
                  d="M118.06,5.18a3.47,3.47,0,0,1-1,1.05,3.38,3.38,0,0,1-2,.23c-.46-.06-.92-.13-1.37-.23A11.12,11.12,0,0,1,116,5.66a1.76,1.76,0,0,0,.61-.15,1.53,1.53,0,0,0,.44-.4q.54-.63,1.11-1.23c.38-.39.77-.78,1.18-1.15l.33-.31.18-.16a.44.44,0,0,1,.15-.12c-.23.41-.5.81-.75,1.21s-.5.79-.77,1.18C118.37,4.75,118.22,5,118.06,5.18Z"/>
            <path class="cls-3"
                  d="M12.4,14.88a.72.72,0,0,1,.2.09.59.59,0,0,1,.14.5l0,1q.63-1.08,1.23-2.19a4.36,4.36,0,0,0-2.18-.34l-1,0H10s-.18,0-.21,0,.5.31.56.32l.94.28Z"/>
            <path class="cls-3"
                  d="M16.6,30.75a3.64,3.64,0,0,1-.54-1.85.57.57,0,0,1,.1-.31.7.7,0,0,1,.45-.2q3.57-.64,7.19-1a3.61,3.61,0,0,0-1.5-.15,46.92,46.92,0,0,1-4.89,0,7.89,7.89,0,0,0-2.79.13c.38.68.6,1.44.91,2.15a4.07,4.07,0,0,0,1.38,1.85A3.52,3.52,0,0,0,16.6,30.75Z"/>
            <path class="cls-3"
                  d="M177.12,21.66a4.92,4.92,0,0,1,1.6.42,2.17,2.17,0,0,1,1.1,1.19,3.42,3.42,0,0,1,0,1.59,3.82,3.82,0,0,0,.86-1.55.69.69,0,0,0,0-.32.67.67,0,0,0-.1-.23c-.26-.44-.52-.87-.8-1.3a1.07,1.07,0,0,0-.25-.31A1.15,1.15,0,0,0,179,21l-.18,0a14.33,14.33,0,0,0-2.07-.07,1.42,1.42,0,0,1-.36,0,1.33,1.33,0,0,0-.4,0c-.34.06-.68.1-1,.14s-.69.06-1,.07l-.52,0h-.25a1,1,0,0,1-.25,0l.83.16,1,.2.51.11a.53.53,0,0,0,.18,0,1.31,1.31,0,0,1,.28,0c.42,0,.83.05,1.24.09Z"/>
            <path class="cls-4"
                  d="M183.69,23a20.83,20.83,0,0,0-1.45-3c-.73-1.22-1.54-2.46-2.42-3.69-2.19-3.07-4.67-7.16-8-9l-.17-.08A7.49,7.49,0,0,0,169,6.93l-30.63-.6-5.5-.08-5.5-.07-1.59,0c-1.24,0-2.49,0-3.73-.08-.54,0-1.09,0-1.64,0a14,14,0,0,1-2-.26l1.86-4a24.54,24.54,0,0,0-1.89,2.32,6,6,0,0,1-.92,1.14,3.24,3.24,0,0,1-.89.68,2.93,2.93,0,0,1-1,.12c-1.38,0-2.78.1-4.15,0-2.51-.2-5.06-.1-7.58-.12q-10.32,0-20.66,0L77.57,6,66.47,6l-5.56,0-5.57.06c-5.19,0-10.38.12-15.56.19C37.11,6.36,22.3,5.6,20,7.38a23,23,0,0,0-3.35,3.44c-.27.3-.52.62-.79.92s-.34.31-.47.49a4.23,4.23,0,0,1-.55.78,2.37,2.37,0,0,1-.78.5,4.64,4.64,0,0,1-1.39.21l-1.93.08a3.66,3.66,0,0,0-1.5.3,9.17,9.17,0,0,1,4,.61.19.19,0,0,1,.12.09.2.2,0,0,1,0,.16,3.63,3.63,0,0,1-.68.83,6.09,6.09,0,0,0-.64.87l-.79,1.11c-.57.82-1.13,1.66-1.65,2.52-.16.28-.34.55-.51.84s-.66,1-.87,1.46c.07.16.15.33.22.47s.23.49.34.72A43.62,43.62,0,0,0,11.62,29c1,1.51,2,3,3.09,4.37s2.27,2.76,3.49,4l.37.38c.91,1,1.6,1.94,3,2,8,.22,26.05.58,34,.58h.12q9.51.18,19,.25c.63,0,1.26,0,1.89,0h1.95c.16,0,.35,0,.43.15a.44.44,0,0,1,0,.36c-.23,1.53-.47,3.06-.71,4.59l2-4.69a.64.64,0,0,1,.19-.29.62.62,0,0,1,.38-.12,8.13,8.13,0,0,1,2,0,4,4,0,0,0,.84.09c.31,0,.63,0,1,0H89c3.35,0,6.69,0,10,0a3.85,3.85,0,0,1,2.12.71,9.19,9.19,0,0,1,1.93,1.91,24.08,24.08,0,0,1-.67-2.49l2.31-.23c.62-.06,1.21.06,1.83.06,1.56,0,3.12-.06,4.68-.06,9.19-.12,18.51-.31,27.67-.57h.71c2.08-.06,30.63.87,32.55-.07a2.41,2.41,0,0,0,.73-.62c1.66-1.8,3.27-3.67,4.79-5.59.93-1.18,1.81-2.39,2.62-3.57,1-1.55,2-3.19,3.06-5.17.12-.21.42-.78.6-1.17Zm-6.08,5.18c-.75,1.13-1.59,2.26-2.47,3.37-1.36,1.74-2.91,3.54-4.59,5.38a9.48,9.48,0,0,1-2.35.2l-1.53,0-26.58-.54h-.54l-.71,0c-9.14.26-18.43.45-27.61.57-7.34.09-14.8.14-22.19.14H83.56c-9.19,0-18.53-.13-27.75-.3h-.14c-5.81,0-11.7-.19-17.39-.38-2.13-.07-14.31-.14-16.42-.2a7.07,7.07,0,0,1-.53-.55L21,35.47l-.36-.38a47.8,47.8,0,0,1-3.29-3.81c-.31-.39-.68-.75-.95-1.17l-1-1.54a.52.52,0,0,1-.11-.39c.05-.19.29-.24.49-.25l8.74-.66-8.41-.82a6,6,0,0,1-1.74-.35,2.27,2.27,0,0,1-1-.76l-.29-.46a5.18,5.18,0,0,1-.4-.69l-.45-.89a2.35,2.35,0,0,1-.26-.53c.17-.26.33-.51.47-.76,1-1.58,2.11-3.18,3-4.39,1.17-1.56,2.43-3.12,3.73-4.64a20.43,20.43,0,0,1,2.89-3c.11-.08.75-.49,3.18-.49.75,0,11.58,0,12.33.07s1.39.06,2,.06h.24l4.69-.07c3.55-.06,7.22-.13,10.83-.13l5.59,0,5.56-.05,11.1-.06H88.82c10.59,0,21.38.05,33,.17l5.5.06,5.5.08,5.48.08c1.83,0,28.8.56,30.63.59a10.89,10.89,0,0,1,1.44.09c2.14,1.25,4.08,4,5.79,6.51.35.5.69,1,1,1.46s.87.94.81,1.56a13.65,13.65,0,0,1-6,1.26,59.47,59.47,0,0,1,6.67.47,1.21,1.21,0,0,1,.46.12c.33.18.43.58.64.87.1.13.24.21.32.35s.35.6.31.66C179.38,25.35,178.53,26.83,177.61,28.19Z"/>
            <path class="cls-3"
                  d="M188.58,27.76,187.92,29l-.27.48a40.4,40.4,0,0,1-2.17,3.48q-.63.92-1.32,1.77A4.23,4.23,0,0,1,182.72,36l-.34.13a36.3,36.3,0,0,0,5.55-8.77,31.21,31.21,0,0,1,1.41-3.45,1.22,1.22,0,0,0,.2-.58,1.33,1.33,0,0,0-.16-.46c-.61-1.15-1.32-2.4-2.55-2.82-.22-.08-.5-.23-.43-.44s.16-.17.25-.24c.41-.33.21-1,0-1.48-.46-.92-.91-1.84-1.36-2.76a2.4,2.4,0,0,0-.61-.88,2.32,2.32,0,0,0-1-.39c-1.21-.29-2.44-.53-3.66-.72a26,26,0,0,0,2.93.19,4.18,4.18,0,0,1,2.07.37l0,0a5.69,5.69,0,0,1,1.55,2.15c.47.82.92,1.65,1.44,2.45a12.05,12.05,0,0,1,.91,1.92c.07.15.13.3.18.44a11.43,11.43,0,0,1,.75,2C190.3,24.49,189.42,26.24,188.58,27.76Z"/>
            <path class="cls-5"
                  d="M181.31,24.32a74.3,74.3,0,0,1-4.12,6.92A57.81,57.81,0,0,1,172,37.92a2,2,0,0,1-1.45.65c-37.11,1.09-109.94.49-148.09-.75a2,2,0,0,1-1.4-.63c-4.23-4.5-7.89-9.07-10.19-13.87A2,2,0,0,1,11,21.37c.38-.59.77-1.18,1.18-1.75a69.83,69.83,0,0,1,9.59-11,2.06,2.06,0,0,1,1.35-.55c37.57-.74,110.07-.15,147.14.76a2,2,0,0,1,1.49.72,91.21,91.21,0,0,1,9.52,12.78A2,2,0,0,1,181.31,24.32Z"/>
            <path class="cls-6"
                  d="M181.31,24.32l-.61,1.14c-.15.27-.37.48-.5.75A10.48,10.48,0,0,1,176.7,30a11.1,11.1,0,0,0-3.81,3.93c.16-.29.32-.58.49-.87,1.69-3.07,3.38-6.14,5-9.29-.24-.41-.49-.81-.74-1.21a28.46,28.46,0,0,0-3.47-4.43c-.59-.62-1.26-1.17-1.82-1.83a2.77,2.77,0,0,0-1.45-.69c-2.25-.67-29.73-1.37-32.07-1.54a655.07,655.07,0,0,0-88.27-1.24c-8.65.5-27,3.25-35,6.82a7.7,7.7,0,0,0-1.22.86,1.57,1.57,0,0,1-1.41.35,1.25,1.25,0,0,1-.72-1.2,69.83,69.83,0,0,1,9.59-11,2.06,2.06,0,0,1,1.35-.55c37.57-.74,110.07-.15,147.14.76a2,2,0,0,1,1.49.72,91.21,91.21,0,0,1,9.52,12.78A2,2,0,0,1,181.31,24.32Z"/>
            <path class="cls-7"
                  d="M179.55,23.38a64.38,64.38,0,0,1-9,13.17c-10.77.32-46.84,0-57.82.14q-9.54.12-19.09.11H91.49c-19.32,0-49.18-.35-68.94-1-4.78-5.08-7.91-9.32-9.85-13.35A67.07,67.07,0,0,1,23.17,10.14h.59c16.59-.33,43.41-.5,59.92-.5q8.05,0,16.15.06c8.33.05,16.69.14,25,.28l4.87.08h.06l2,0c4.42.08,34,.69,38.38.8h.09l.21.24c1.55,1.83,2.92,3.49,4.12,5A63.62,63.62,0,0,1,179.55,23.38Z"/>
        </g>
    </g>
</svg>