<svg xmlns="http://www.w3.org/2000/svg" xmlns:xlink="http://www.w3.org/1999/xlink" viewBox="0 0 150 50">
    <defs>
        <style>
            .cls-1{fill:url(#_ÂÁ_Ï_ÌÌ_È_ËÂÌÚ_4);}.cls-2{fill:url(#_ÂÁ_Ï_ÌÌ_È_ËÂÌÚ_4-2);}.cls-3{fill:#a5a5a5;}.cls-4{fill:url(#_ÂÁ_Ï_ÌÌ_È_ËÂÌÚ_4-3);}.cls-5{fill:url(#_ÂÁ_Ï_ÌÌ_È_ËÂÌÚ_2);}.cls-6{fill:#dedede;}.cls-7{fill:url(#_ÂÁ_Ï_ÌÌ_È_ËÂÌÚ_5);}
        </style>
        <linearGradient id="_ÂÁ_Ï_ÌÌ_È_ËÂÌÚ_4" x1="85.1" y1="-38.98" x2="80.49" y2="-10.63"
                        gradientUnits="userSpaceOnUse">
            <stop offset="0" stop-color="#797979"/>
            <stop offset="1" stop-color="#2f2f2f"/>
        </linearGradient>
        <linearGradient id="_ÂÁ_Ï_ÌÌ_È_ËÂÌÚ_4-2" x1="82.07" y1="-34.04" x2="61.24" y2="155.39"
                        xlink:href="#_ÂÁ_Ï_ÌÌ_È_ËÂÌÚ_4"/>
        <linearGradient id="_ÂÁ_Ï_ÌÌ_È_ËÂÌÚ_4-3" x1="75.79" y1="70.37" x2="75.79" y2="33.59"
                        xlink:href="#_ÂÁ_Ï_ÌÌ_È_ËÂÌÚ_4"/>
        <linearGradient id="_ÂÁ_Ï_ÌÌ_È_ËÂÌÚ_2" x1="75.8" y1="6.39" x2="75.8" y2="23.69" gradientUnits="userSpaceOnUse">
            <stop offset="0" stop-color="#c8c8c8"/>
            <stop offset="1" stop-color="#787878"/>
        </linearGradient>
        <linearGradient id="_ÂÁ_Ï_ÌÌ_È_ËÂÌÚ_5" x1="75.8" y1="51.83" x2="75.8" y2="21.52" gradientUnits="userSpaceOnUse">
            <stop offset="0" stop-color="#cdcdcd"/>
            <stop offset="1" stop-color="#7f7f7f"/>
        </linearGradient>
    </defs>
    <g id="Layer_2" >
        <g id="Buttons">
            <path class="cls-1"
                  d="M149.29,22.8a11.66,11.66,0,0,0-.73-2l0-.1c-.34-.82-.74-1.61-1.15-2.39l-.64-1.17c0-.07-.09-.14-.14-.2a1.76,1.76,0,0,1-.14-.23,3,3,0,0,0-.34-.53,9.16,9.16,0,0,0-1.34-1.63,4.45,4.45,0,0,0-.83-.59,3.33,3.33,0,0,0-.52-.21,4.54,4.54,0,0,0-.5-.12,1.22,1.22,0,0,1,0-.26v-.28a3.43,3.43,0,0,0-.08-.56,5.73,5.73,0,0,0-.4-1.07,10.73,10.73,0,0,0-.62-1.1c-.12-.18-.25-.35-.37-.52a4.11,4.11,0,0,1-.21-.42l-.22-.36-.13-.23a1.18,1.18,0,0,0-.22-.28L140.22,8a30.52,30.52,0,0,0-3.89-4.22,12.17,12.17,0,0,0-2-1.45c-.21-.11-.41-.22-.62-.31a12.12,12.12,0,0,0-4.9-.85C127,1.14,111.31.6,109.5.58L104.08.49,98.66.42,93.23.36l-5.44,0-5.44,0-5.44,0-5.45,0H55.08l-5.47,0-5.48,0-5.48,0-5.48,0-5.49,0-5.5.07c-4.26,0,8.34.09,4,.16C22.82.65,19,.63,16.12,2.88A29.28,29.28,0,0,0,12,7.09c-1.41,1.67-2.78,3.38-4.07,5.14s-2.4,3.34-3.46,5.11c-.94,1.58-2,3.11-2.94,4.69A7.93,7.93,0,0,0,0,26.49a10.28,10.28,0,0,0,1.2,3.29c.24.52.54,1,.82,1.49a10.12,10.12,0,0,0,.9,1.34,2.46,2.46,0,0,0,.69.64c.54.27,1.23.14,1.72.49a.83.83,0,0,0-.63.76,2.12,2.12,0,0,0,.19,1,17.4,17.4,0,0,0,1.6,3.31A29,29,0,0,0,8.72,41.7c.91,1.11,1.85,2.19,2.84,3.23a21.31,21.31,0,0,0,3.07,2.93c1.94,1.38,4.18,1.26,6.44,1.31,7.21.17-2.4.52,4.82.52q13.71.26,27.44.3t27.39-.13q13.65-.18,27.31-.57c2.57-.07,19.09.38,21.68,0a6.91,6.91,0,0,0,3.35-1.13,23.66,23.66,0,0,0,4.13-4.4c.82-1,1.62-2,2.41-2.94A7.32,7.32,0,0,0,141.37,38a1.56,1.56,0,0,1,.17-.47,1.51,1.51,0,0,1,.44-.35A9.47,9.47,0,0,0,144.52,34c1.23-2,2.35-4.07,3.47-6.14C148.82,26.33,149.68,24.59,149.29,22.8Z"/>
            <path class="cls-2"
                  d="M148.59,27.88l-.65,1.2-.27.48a40.52,40.52,0,0,1-2.15,3.5c-.42.61-.86,1.2-1.31,1.77a4.13,4.13,0,0,1-1.43,1.36l-.34.13a5.42,5.42,0,0,1-1.14.18l-3.3.32h-.08l-1.79.17a19.22,19.22,0,0,1,2.4,0,21.7,21.7,0,0,1,3.39.52,6.84,6.84,0,0,1-1.16,2c-1.56,1.85-3,4-5,5.41a7.12,7.12,0,0,1-3.38,1.13c-2.61.37-19.27-.09-21.86,0q-13.77.39-27.54.58-6.71.07-13.4.12H55.32q-13.84,0-27.69-.31-3.37,0-6.77-.08c-5-.11,6.93-.32,1.92-.44-2.28,0-4.54.07-6.5-1.33a22.06,22.06,0,0,1-3.09-2.94l-.29-.32c-.87-.93-1.7-1.89-2.51-2.87-.66-.81-1.31-1.63-2-2.42a7.87,7.87,0,0,1-.76-1.12,5.35,5.35,0,0,1-.79-1.65.37.37,0,0,1,0-.31.34.34,0,0,1,.23-.1c1.64-.3,3.33-.14,4.94-.46a6.17,6.17,0,0,0,1-.26l-4.45,0a10.29,10.29,0,0,1-1.11,0A3.25,3.25,0,0,1,7,32a3.62,3.62,0,0,1-1.74-1,4.08,4.08,0,0,1-.6-.83c-.66-1.26-1.33-2.51-1.92-3.8a10.69,10.69,0,0,1-1.2-3.32,1.09,1.09,0,0,1,0-.18A5.37,5.37,0,0,1,2,20.66a25.57,25.57,0,0,1,1.88-3.38c1.06-1.77,2.26-3.47,3.48-5.14S10,8.64,11.47,7c.26-.32.52-.61.77-.9a23.81,23.81,0,0,1,3.38-3.35C18.47.44,22.38.46,25.78.41c4.36-.07-8.35-.11-4-.16L27.28.18l5.53,0,5.53,0,5.53,0,5.52,0h22l5.49,0,5.5,0,5.48,0,5.48.05,5.48.06,5.47.08,5.46.07c1.82,0,17.62.57,19.43.6a12.29,12.29,0,0,1,4.94.86,6.23,6.23,0,0,1,.63.32A17.37,17.37,0,0,1,139.22,6l.9,1a17.32,17.32,0,0,1,1.45,1.87c.51.79,1,1.59,1.45,2.42.12.22.24.52.08.71a.52.52,0,0,1-.3.16l0,0a20.78,20.78,0,0,1-4.84.69c.73.12,1.46.23,2.2.3,1,.11,1.93.17,2.9.19a4.06,4.06,0,0,1,2,.37l0,0A5.81,5.81,0,0,1,146.65,16c.46.83.91,1.66,1.42,2.46a12.16,12.16,0,0,1,.91,1.93c.07.15.12.3.18.45a11.09,11.09,0,0,1,.74,2C150.3,24.6,149.42,26.35,148.59,27.88Z"/>
            <path class="cls-3"
                  d="M89.48,5.35a3.44,3.44,0,0,1-1,1.05,3.29,3.29,0,0,1-2,.22,12.65,12.65,0,0,1-1.35-.22,10.86,10.86,0,0,1,2.38-.57,1.71,1.71,0,0,0,.59-.15,1.53,1.53,0,0,0,.44-.4c.35-.42.72-.82,1.09-1.22s.76-.78,1.16-1.15l.33-.31.17-.16s.09-.1.15-.12c-.22.42-.49.81-.73,1.21s-.5.79-.77,1.18C89.78,4.93,89.63,5.14,89.48,5.35Z"/>
            <path class="cls-3"
                  d="M12.2,15a.46.46,0,0,1,.2.09.56.56,0,0,1,.14.49l0,1c.41-.72.82-1.45,1.21-2.18a4.25,4.25,0,0,0-2.15-.34l-1,0H9.88s-.18,0-.21,0,.5.3.55.32l.93.28Z"/>
            <path class="cls-3"
                  d="M16.34,30.82A3.57,3.57,0,0,1,15.81,29a.59.59,0,0,1,.09-.3.66.66,0,0,1,.44-.21q3.53-.63,7.08-1A3.47,3.47,0,0,0,22,27.3a43.06,43.06,0,0,1-4.82,0,7.93,7.93,0,0,0-2.75.14,22.53,22.53,0,0,1,.91,2.14,4,4,0,0,0,1.35,1.85A2.66,2.66,0,0,0,16.34,30.82Z"/>
            <path class="cls-3"
                  d="M136.71,21.77a4.75,4.75,0,0,1,1.57.42,2.17,2.17,0,0,1,1.09,1.18,3.42,3.42,0,0,1,0,1.59,4.05,4.05,0,0,0,.85-1.55.83.83,0,0,0,0-.31.61.61,0,0,0-.11-.23c-.25-.44-.51-.87-.78-1.3a1.07,1.07,0,0,0-.25-.31,1.12,1.12,0,0,0-.56-.2l-.19,0a12.49,12.49,0,0,0-2-.08,1.42,1.42,0,0,1-.36,0,1.29,1.29,0,0,0-.39,0c-.33.06-.67.1-1,.14s-.68.06-1,.07l-.51,0h-.49l.81.15,1,.2.5.11a.49.49,0,0,0,.17,0,.94.94,0,0,1,.29,0l1.22.09Z"/>
            <path class="cls-4"
                  d="M143.18,23.12a22.1,22.1,0,0,0-1.43-2.95c-.71-1.21-1.52-2.44-2.38-3.68-2.16-3-4.6-7.12-7.91-9a.6.6,0,0,0-.16-.08,7.2,7.2,0,0,0-2.63-.35c-1.8,0-17.46-.56-19.26-.59L104,6.42l-5.41-.07L97,6.33c-1.22,0-2.45,0-3.67-.08-.54,0-1.07,0-1.61,0a13.21,13.21,0,0,1-2-.26L91.58,2a22.92,22.92,0,0,0-1.86,2.31,7.09,7.09,0,0,1-.9,1.13,3.35,3.35,0,0,1-.88.68,2.87,2.87,0,0,1-1,.12c-1.36,0-2.73.09-4.08,0-2.47-.2-5-.1-7.46-.11q-10.17-.06-20.34,0l-5.46,0L38.69,6.2l-5.47,0-5.48.06c-5.1,0,16.51.12,11.41.19-2.63,0-17.2-.72-19.44,1.06A23.65,23.65,0,0,0,16.41,11c-.26.31-.51.62-.77.92a4.24,4.24,0,0,0-.46.49,4.63,4.63,0,0,1-.54.77,2.18,2.18,0,0,1-.77.5,4.26,4.26,0,0,1-1.37.21l-1.9.08a3.61,3.61,0,0,0-1.47.29,9.18,9.18,0,0,1,3.95.61.2.2,0,0,1,.12.1c0,.05,0,.1,0,.15a3.4,3.4,0,0,1-.67.84,5.43,5.43,0,0,0-.63.86l-.78,1.1c-.56.83-1.11,1.66-1.62,2.52-.16.27-.33.55-.51.83-.27.43-.64,1-.85,1.46l.21.46c.12.24.23.49.35.72A41.59,41.59,0,0,0,11.44,29c1,1.51,2,3,3,4.35a53,53,0,0,0,3.44,4l.35.37c.9,1,1.58,1.94,3,2,7.86.22-1.09.58,6.78.58h.11q9.38.18,18.75.25c.61,0,1.24,0,1.86,0h1.92a.49.49,0,0,1,.42.14.49.49,0,0,1,0,.36c-.23,1.53-.47,3-.7,4.57L52.35,41a.71.71,0,0,1,.18-.3.77.77,0,0,1,.37-.12,9,9,0,0,1,1.94,0,4,4,0,0,0,.84.1,5.63,5.63,0,0,1,.92,0h4.31c3.29,0,6.59,0,9.87,0a3.74,3.74,0,0,1,2.09.7,8.78,8.78,0,0,1,1.89,1.91,24,24,0,0,1-.65-2.49l2.27-.22c.61-.06,1.19.06,1.8,0,1.54,0,3.07,0,4.61,0,9-.12,18.21-.31,27.23-.57l.7,0c2-.06,19.26.88,21.15-.06a2.38,2.38,0,0,0,.72-.62c1.63-1.79,3.22-3.66,4.71-5.57.92-1.18,1.79-2.37,2.58-3.55,1-1.55,1.93-3.18,3-5.15.12-.22.42-.78.59-1.17Zm-6,5.16c-.75,1.12-1.57,2.24-2.44,3.36-1.34,1.72-2.86,3.52-4.52,5.35a9.08,9.08,0,0,1-2.3.2l-1.51,0c-.51,0-14.84-.53-15.28-.53h-.52l-.7,0c-9,.26-18.14.45-27.18.57-7.23.09-14.57.14-21.84.14h-5.4c-9,0-18.23-.13-27.31-.3h-.13c-5.72,0,15.21-.19,9.6-.38-2.09-.06-14.07-.14-16.16-.2-.14-.13-.36-.36-.52-.54s-.24-.28-.37-.41l-.36-.38C19.13,33.94,18,32.67,17,31.36c-.31-.4-.67-.76-.94-1.17s-.63-1-.95-1.54a.48.48,0,0,1-.11-.39c.05-.19.29-.23.48-.25l8.61-.66-8.28-.81a5.92,5.92,0,0,1-1.72-.35,2.2,2.2,0,0,1-1-.75c-.1-.15-.18-.31-.29-.46a6.75,6.75,0,0,1-.39-.69c-.15-.29-.3-.59-.44-.88,0-.06-.29-.49-.26-.54.17-.26.32-.51.46-.75.95-1.58,2.08-3.17,3-4.37,1.15-1.56,2.38-3.11,3.67-4.63a20.3,20.3,0,0,1,2.85-3c.1-.08.73-.49,3.12-.49.74,0,11.4,0,12.14.08s1.37,0,2,0h.24c1.54,0-23.65,0-22.11-.07,3.5-.06,7.11-.12,10.66-.12l5.51-.06,5.47,0,10.92-.06h11c10.43,0,21,.05,32.44.16l5.42.07,5.41.07,5.4.08c1.8,0,17.45.56,19.26.6a9.63,9.63,0,0,1,1.41.08c2.1,1.25,4,4,5.7,6.49l1,1.45c.32.46.86.94.8,1.56a13.4,13.4,0,0,1-5.91,1.25,57.71,57.71,0,0,1,6.57.47,1.21,1.21,0,0,1,.45.12c.33.18.43.58.63.87.1.13.23.2.32.34s.34.6.3.66C138.93,25.45,138.1,26.92,137.2,28.28Z"/>
            <path class="cls-3"
                  d="M148,27.84c-.22.4-.43.8-.65,1.19l-.27.48c-.65,1.18-1.36,2.35-2.13,3.47-.41.6-.85,1.19-1.3,1.76a4.17,4.17,0,0,1-1.42,1.35,2.19,2.19,0,0,1-.33.12,36,36,0,0,0,5.46-8.73A30.16,30.16,0,0,1,148.74,24a1.21,1.21,0,0,0,.19-.57,1,1,0,0,0-.15-.46c-.6-1.15-1.31-2.4-2.51-2.82-.22-.07-.5-.22-.43-.44s.16-.16.25-.23c.41-.33.21-1,0-1.47l-1.34-2.76a2.55,2.55,0,0,0-.6-.88,2.36,2.36,0,0,0-.94-.38c-1.19-.29-2.4-.52-3.6-.71a27.49,27.49,0,0,0,2.88.18,4,4,0,0,1,2,.37l0,0A5.61,5.61,0,0,1,146.06,16c.46.82.91,1.64,1.41,2.44a10.86,10.86,0,0,1,.9,1.92c.07.15.13.29.19.44a12,12,0,0,1,.73,2C149.68,24.59,148.82,26.33,148,27.84Z"/>
            <path class="cls-5"
                  d="M140.84,24.42a75.64,75.64,0,0,1-4.06,6.89A56.09,56.09,0,0,1,131.69,38a2,2,0,0,1-1.42.66c-36.52,1.08-70.6.48-108.14-.75a2,2,0,0,1-1.39-.63c-4.15-4.48-7.76-9-10-13.81a2,2,0,0,1,.12-1.95c.38-.59.77-1.17,1.16-1.75A70,70,0,0,1,21.45,8.82a2.06,2.06,0,0,1,1.32-.55C59.75,7.53,93.5,8.12,130,9a2,2,0,0,1,1.47.71,91.88,91.88,0,0,1,9.37,12.74A2,2,0,0,1,140.84,24.42Z"/>
            <path class="cls-6"
                  d="M140.84,24.42c-.2.38-.4.76-.61,1.14s-.36.47-.49.74A10.26,10.26,0,0,1,136.3,30,10.93,10.93,0,0,0,132.55,34l.48-.87c1.67-3.07,3.33-6.13,4.87-9.26-.23-.41-.48-.81-.72-1.2a28.67,28.67,0,0,0-3.42-4.42c-.58-.61-1.25-1.16-1.79-1.82a2.75,2.75,0,0,0-1.43-.69c-2.21-.67-18.37-1.36-20.67-1.53A637.84,637.84,0,0,0,23,12.93c-8.51.51.1,3.24-7.68,6.79a7.7,7.7,0,0,0-1.21.87,1.53,1.53,0,0,1-1.38.34,1.24,1.24,0,0,1-.72-1.2A70,70,0,0,1,21.45,8.82a2.06,2.06,0,0,1,1.32-.55C59.75,7.53,93.5,8.12,130,9a2,2,0,0,1,1.47.71,91.88,91.88,0,0,1,9.37,12.74A2,2,0,0,1,140.84,24.42Z"/>
            <path class="cls-7"
                  d="M139.11,23.49a65.13,65.13,0,0,1-8.88,13.11c-10.6.33-35.22,0-46,.14q-9.37.13-18.78.12h-2.1c-19,0-21.67-.36-41.12-1-4.71-5.06-7.79-9.29-9.7-13.3A66.47,66.47,0,0,1,22.8,10.3h.58c16.34-.34,16-.51,32.25-.51,5.29,0,10.58,0,15.9.06,8.2.05,16.43.14,24.62.29l4.8.08H101l1.94,0c4.36.08,22.56.68,26.89.79h.09l.21.24c1.52,1.82,2.87,3.47,4.05,5A63.63,63.63,0,0,1,139.11,23.49Z"/>
        </g>
    </g>
</svg>