<svg xmlns="http://www.w3.org/2000/svg" xmlns:xlink="http://www.w3.org/1999/xlink" viewBox="0 0 130 50">
    <defs>
        <style>
            .cls-1{fill:url(#_ÂÁ_Ï_ÌÌ_È_ËÂÌÚ_3);}.cls-2{fill:url(#_ÂÁ_Ï_ÌÌ_È_ËÂÌÚ_3-2);}.cls-3{fill:#eb924d;}.cls-4{fill:url(#_ÂÁ_Ï_ÌÌ_È_ËÂÌÚ_3-3);}.cls-5{fill:url(#_ÂÁ_Ï_ÌÌ_È_ËÂÌÚ_7);}.cls-6{fill:#ffdf80;}.cls-7{fill:url(#Sfumatura_senza_nome_2);}
        </style>
        <linearGradient id="_ÂÁ_Ï_ÌÌ_È_ËÂÌÚ_3" x1="74.62" y1="-36.19" x2="70.21" y2="-9.14"
                        gradientUnits="userSpaceOnUse">
            <stop offset="0" stop-color="#cf5c2b"/>
            <stop offset="1" stop-color="#59173e"/>
        </linearGradient>
        <linearGradient id="_ÂÁ_Ï_ÌÌ_È_ËÂÌÚ_3-2" x1="71.88" y1="-32.16" x2="51.78" y2="150.65"
                        xlink:href="#_ÂÁ_Ï_ÌÌ_È_ËÂÌÚ_3"/>
        <linearGradient id="_ÂÁ_Ï_ÌÌ_È_ËÂÌÚ_3-3" x1="65.83" y1="70.35" x2="65.83" y2="33.54"
                        xlink:href="#_ÂÁ_Ï_ÌÌ_È_ËÂÌÚ_3"/>
        <linearGradient id="_ÂÁ_Ï_ÌÌ_È_ËÂÌÚ_7" x1="65.92" y1="6.34" x2="65.92" y2="23.7" gradientUnits="userSpaceOnUse">
            <stop offset="0" stop-color="#ffca2b"/>
            <stop offset="1" stop-color="#d15b24"/>
        </linearGradient>
        <linearGradient id="Sfumatura_senza_nome_2" x1="65.84" y1="51.84" x2="65.84" y2="21.43"
                        gradientUnits="userSpaceOnUse">
            <stop offset="0" stop-color="#cc6923"/>
            <stop offset="0.37" stop-color="#ffce3b"/>
            <stop offset="0.84" stop-color="#e0912c"/>
        </linearGradient>
    </defs>
    <g id="Layer_2">
        <g id="Buttons">
            <path class="cls-1"
                  d="M129.43,22.89c-1.37-3.27-2.16-8.23-5.86-9.37C119.49-3.56,102.13,1.13,88.88.27,65,0,46.14.05,22.28.34c-4.31,0,8.4.1,4,.16C15.57-.93,9.71,9.54,4.43,17.26c-2.2,3.8-6.47,8-3.29,12.45.92,1.9,1.93,3.73,4.16,4C3,37.52,11.91,45,14.66,47.82c2,1.38,4.21,1.26,6.49,1.31,16.2,1.4,40.58.69,60.12.69,9.18-.12,6.64-.19,16.33-.13,10.32.33,15.93.93,22.06-8.74C123.15,35.42,129.08,29.85,129.43,22.89Z"/>
            <path class="cls-2"
                  d="M128.72,28c-3.29,6.29-4.92,9.45-12.55,9.13a20.81,20.81,0,0,1,5.83.56c-5.16,11.57-16.16,8.33-26.17,8.52-28.2.77-46.67.64-74.89.15-5.06-.11,7-.31,1.94-.43-7.56.81-12.58-7-16.08-12.67,1.27-1.32,4.42-.16,6.22-1.13-2.56-.28-5.71.78-7.79-1.14-1.7-3-4.74-6.77-3.3-10.38C7.38,11.72,13.83-1,25.9.32,30.3.24,17.49.2,21.83.15c22,.33,39.74-.39,59,0,10.27.18,23.73-.88,32.84,1.35,4.26,1,8.16,6.57,9.51,10.69A15.58,15.58,0,0,1,118,13c2.36.63,5,.09,7.24.89C128,17.71,132.1,23.32,128.72,28Z"/>
            <path class="cls-3"
                  d="M90.1,5.26c-.9,1.67-2.84,1.41-4.4,1,2.91-.23,4.39-2.14,6.35-4.08C91.45,3.27,90.79,4.28,90.1,5.26Z"/>
            <path class="cls-3"
                  d="M12.22,14.94c.62.19.23,1.07.31,1.57.41-.72.82-1.45,1.21-2.18C11.82,13.69,6.9,13.76,12.22,14.94Z"/>
            <path class="cls-3"
                  d="M16.38,30.76c-2.27-3.87,4.94-2.57,7.15-3.37a59,59,0,0,0-9.11-.05c.73,1.32.94,3.09,2.27,4A2.32,2.32,0,0,0,16.38,30.76Z"/>
            <path class="cls-3"
                  d="M116.75,21.86c1.72,0,3.27,1.36,2.67,3.19,3.22-4.77-4.07-4.07-6.86-3.78A24.72,24.72,0,0,0,116.75,21.86Z"/>
            <path class="cls-4"
                  d="M123.27,23.21c-3-5.73-6.57-12.09-12-15.7-9.68-1.75-11.13-.76-20.93-1.6l1.85-4C88.7,8.73,82.13,5.45,75.94,6.07Q54.67,6,33.4,6.15l-5.52.06c-5.15,0,16.64.12,11.49.19-2.64,0-17.33-.72-19.59,1.06-4.49,3.81-3.77,6.63-10.66,6.7,1.22,0,3.38-.08,4.07.85a56,56,0,0,0-5.11,7.62c3.18,6.13,7,13.9,13.25,17.09,8.12.93,16.68.68,25.85.83,5.7-.48,4.16.23,3.57,5,1.18-2.1,1.2-6.06,4.44-5.06,6.38,1.31,15.34-2.76,20.08,2.65a21.22,21.22,0,0,1-.66-2.49c15.47-1,21.86.63,37.26-.71a59.63,59.63,0,0,0,11.7-16.08Zm-6,5.16a78.28,78.28,0,0,1-7,8.72,9,9,0,0,1-2.32.21c-.52,0,10.93-.18,10.44-.19s-12.4-.53-12.84-.53c-27.88.79-49.39,1-77.31.42-5.75,0,15.34-.19,9.69-.37-2.11-.07-14.19-.14-16.29-.2-7.34-8.84-10.41-8.51,2.62-9.14-4.3-1-10.93,1-12.45-4.49a64.06,64.06,0,0,1,10-12.74c1.55-1,13.15-.27,15.39-.42,10.48.15-22.42,0-20,0,27.65-.38,49.08-.41,77.11-.08a109.06,109.06,0,0,1,15.77,1c2.81,1.91,5.92,6.18,7.56,9.5a13.55,13.55,0,0,1-5.95,1.26C118.11,21.45,122.67,21.32,117.24,28.37Z"/>
            <path class="cls-3"
                  d="M128.11,27.94c-1.78,2.86-3.19,6.6-6.14,8.37,2.52-3.82,10.69-12.84,4.41-16-.42-.11-.61-.48-.18-.68.63-1.54-1.22-3.73-2-5.11-1.38-.72-3.07-.77-4.58-1.1,1.63.33,3.46-.14,5,.58C127.44,17.76,131.46,23.32,128.11,27.94Z"/>
            <path class="cls-5"
                  d="M120.91,24.51c-3,4.89-5.72,11.39-10.65,14.21-36.81,1.09-50.2.33-88-.9C18.33,35.62,7.35,22.91,12,19.66c3.11-3.87,6.27-9.09,10.86-11.47,37.27-.75,50.33,0,87.1.91C113.64,11.25,121.64,21.59,120.91,24.51Z"/>
            <path class="cls-6"
                  d="M120.91,24.51c-1.48,4.32-6.23,5.82-8.35,9.55,1.84-3.36,3.69-6.71,5.39-10.14-2-3-4.12-6.66-7.41-8.14-31.69-5.22-55.44-4.12-87.45-2.93-8.58.5.1,3.24-7.74,6.8-1,.77-3.13,2.32-3.33,0,3.1-3.86,6.26-9.1,10.85-11.47,37.27-.75,50.33,0,87.1.91C113.64,11.26,121.64,21.58,120.91,24.51Z"/>
            <path class="cls-7"
                  d="M119.16,23.57a64.67,64.67,0,0,1-8.94,13.14c-33.3,0-54.55.54-87.93-.91-4.75-5.06-7.85-9.29-9.78-13.31A67.54,67.54,0,0,1,22.9,10.21c32.53-.64,54.47-1.15,87,.91A91.1,91.1,0,0,1,119.16,23.57Z"/>
        </g>
    </g>
</svg>