<svg xmlns="http://www.w3.org/2000/svg" xmlns:xlink="http://www.w3.org/1999/xlink" viewBox="0 0 40.07 45.72">
    <defs>
        <style>
            .cls-1{fill:url(#_ÂÁ_Ï_ÌÌ_È_ËÂÌÚ_3);}.cls-2{fill:url(#_ÂÁ_Ï_ÌÌ_È_ËÂÌÚ_3-2);}.cls-3{fill:url(#_ÂÁ_Ï_ÌÌ_È_ËÂÌÚ_3-3);}.cls-4{fill:#eb924d;}.cls-5{fill:url(#_ÂÁ_Ï_ÌÌ_È_ËÂÌÚ_3-4);}.cls-6{fill:url(#_ÂÁ_Ï_ÌÌ_È_ËÂÌÚ_7);}.cls-7{fill:#ffdf80;}.cls-8{fill:url(#_ÂÁ_Ï_ÌÌ_È_ËÂÌÚ_12);}
        </style>
        <linearGradient id="_ÂÁ_Ï_ÌÌ_È_ËÂÌÚ_3" x1="28.42" y1="-7.13" x2="23.49" y2="7.35"
                        gradientUnits="userSpaceOnUse">
            <stop offset="0" stop-color="#cf5c2b"/>
            <stop offset="1" stop-color="#59173e"/>
        </linearGradient>
        <linearGradient id="_ÂÁ_Ï_ÌÌ_È_ËÂÌÚ_3-2" x1="28.16" y1="-3.7" x2="-3.42" y2="92.75"
                        xlink:href="#_ÂÁ_Ï_ÌÌ_È_ËÂÌÚ_3"/>
        <linearGradient id="_ÂÁ_Ï_ÌÌ_È_ËÂÌÚ_3-3" x1="23.85" y1="10.6" x2="-0.93" y2="80.75"
                        xlink:href="#_ÂÁ_Ï_ÌÌ_È_ËÂÌÚ_3"/>
        <linearGradient id="_ÂÁ_Ï_ÌÌ_È_ËÂÌÚ_3-4" x1="159.79" y1="49.67" x2="161.6" y2="28.88"
                        gradientTransform="matrix(-1, 0, 0, 1, 183.88, 0)" xlink:href="#_ÂÁ_Ï_ÌÌ_È_ËÂÌÚ_3"/>
        <linearGradient id="_ÂÁ_Ï_ÌÌ_È_ËÂÌÚ_7" x1="162.67" y1="5.31" x2="162.34" y2="17.94"
                        gradientTransform="matrix(-1, 0, 0, 1, 183.88, 0)" gradientUnits="userSpaceOnUse">
            <stop offset="0" stop-color="#ffca2b"/>
            <stop offset="1" stop-color="#d15b24"/>
        </linearGradient>
        <linearGradient id="_ÂÁ_Ï_ÌÌ_È_ËÂÌÚ_12" x1="21.72" y1="35.25" x2="21.59" y2="22.02"
                        gradientUnits="userSpaceOnUse">
            <stop offset="0" stop-color="#ffce3b"/>
            <stop offset="1" stop-color="#cc6923"/>
        </linearGradient>
    </defs>
    <g id="Livello_2" >
        <g id="Livello_2-2">
            <path class="cls-1"
                  d="M.75,30.89l-.06-.1a3.76,3.76,0,0,1-.31-1.52c0-1-.17-2.09-.18-3.14S.31,24,.27,23a2.25,2.25,0,0,1,.32-1.42,1,1,0,0,1,1.3-.38,2.84,2.84,0,0,1-1.68-1A46.46,46.46,0,0,1,0,15a8.7,8.7,0,0,1,.38-1A36.59,36.59,0,0,1,4,7.44a16.65,16.65,0,0,1,1.21-1.8,11.38,11.38,0,0,1,2.4-2.35,7.32,7.32,0,0,1,1-.59A21.5,21.5,0,0,1,15.72.05c3.58-.42,5.8,1.72,8.57,3.59C26,4.82,27.77,6,29.45,7.28a29.71,29.71,0,0,1,2.82,2.44,13.1,13.1,0,0,1,1.64,1.69,1.19,1.19,0,0,1,.18,1.09.37.37,0,0,0,0,.23c0,.07.08.12.14.16a4.45,4.45,0,0,0,1,.63c.24.08.5.07.75.16a4.54,4.54,0,0,1,1.77,1.49l.06.07,1.32,1.58a3.94,3.94,0,0,1,.59.77,4.22,4.22,0,0,1,.3.91,4.58,4.58,0,0,1-.14,2.08c-.81,3-3.1,5.66-5,8-1.66,2-3.41,3.9-5.2,5.77C27.44,36.6,25.31,38.94,23,41.1c-1.22,1.15-2.39,2.4-3.72,3.43-4.16,3.24-9.73-1-13.65-2.66l-.92-.4A9.42,9.42,0,0,1,2.25,40,3.38,3.38,0,0,1,2,39.73a.88.88,0,0,1-.12-.21c-.1-.22-.23-.42-.33-.63a6.6,6.6,0,0,1-.43-1.37,17.48,17.48,0,0,1-.3-2.88A3,3,0,0,1,1,33.23a1.28,1.28,0,0,1,.84-.66,6.46,6.46,0,0,1,1.25-.27.94.94,0,0,1-.29-.06A2.59,2.59,0,0,1,2.06,32c-.14-.08-.25-.19-.39-.28a4.85,4.85,0,0,1-.57-.35A1.83,1.83,0,0,1,.75,30.89Z"/>
            <path class="cls-2"
                  d="M40.06,19.45A2.1,2.1,0,0,1,39.35,21a2.54,2.54,0,0,1-.36.29,7.31,7.31,0,0,1-1,.58l-.2.11-1.32.67h.09c.72-.06,1.47-.16,2.19-.17l-.5.76c-.53.82-1.07,1.62-1.63,2.41-.37.52-.74,1-1.12,1.53a18.17,18.17,0,0,1-1.24,1.38,1.33,1.33,0,0,1-.4.35A1.74,1.74,0,0,1,33,29h0a21.75,21.75,0,0,0-3.51.35l.7.15,1.95.43a1.1,1.1,0,0,1,.63.28c-.16.21-.34.42-.52.62a15.53,15.53,0,0,1-1.59,1.55,1.73,1.73,0,0,0-.39.42,6.67,6.67,0,0,1-1.09,1.1c-1.92,1.82-3.89,3.6-5.73,5.5a10.15,10.15,0,0,1-1.61,1.24,6.78,6.78,0,0,1-3.71,1.26,8.21,8.21,0,0,1-3.41-.88c-3.25-1.51-8.27-2.86-9.68-6.52a4.27,4.27,0,0,1-.35-1.19c0-.5-.09-1-.14-1.49a1.17,1.17,0,0,1,0-.56c.16-.36.61-.45,1-.49l6.31-.69h0l.81-.09L6,28.87a5.17,5.17,0,0,1-.54-.11,1.61,1.61,0,0,1-.74-.39A1.88,1.88,0,0,1,4.31,27c0-.4.07-.77.06-1.17,0-.9,0-1.79,0-2.68,0-.69,0-1.38,0-2.06a11.43,11.43,0,0,0,0-1.85c0-.17-.06-.34-.1-.5a2.5,2.5,0,0,1-.09-.61c0-.15,0-.3,0-.45,0-1.17.21-2.35.3-3.51a1.32,1.32,0,0,1,.31-.89A1.25,1.25,0,0,1,5.78,13L9,13h.39c1.17,0,2.33,0,3.49,0-1.14-.14-2.28-.33-3.41-.55A11.53,11.53,0,0,1,7.18,12a2.32,2.32,0,0,0-.73-.19l-.63,0H5.76c-.15,0-.39,0-.48-.12a.48.48,0,0,1,0-.18c-.05-.74-.07-1.49-.08-2.24,0-.22,0-.44,0-.66a7.88,7.88,0,0,1,.55-3.31A5,5,0,0,1,7.61,3.32a6.44,6.44,0,0,1,1-.59A21.12,21.12,0,0,1,15.72.05c3.58-.42,5.8,1.74,8.57,3.63,2,1.33,3.92,2.69,5.78,4.15l.2.14a6.06,6.06,0,0,1,1.37,1.3,5.68,5.68,0,0,0,.86.84,11.36,11.36,0,0,1,.94,1,.29.29,0,0,1,.11.22c0,.16-.2.23-.35.26l-.66.14-3.65.73h1.2a25,25,0,0,1,3.77.12,8.87,8.87,0,0,1,1.65.36,3.66,3.66,0,0,1,.69.33.86.86,0,0,1,.28.29,8.72,8.72,0,0,0,.81,1c1,1.23,2.39,2.42,2.71,4.07A2.93,2.93,0,0,1,40.06,19.45Z"/>
            <path class="cls-3"
                  d="M5.15,9.18c0-.22,0-.44,0-.66,1.83,0,3.67.23,5.49.25,3.36,0,6.71-.29,10.06-.47C23.88,8.13,27.07,8,30.27,8a6.06,6.06,0,0,1,1.37,1.3,5.68,5.68,0,0,0,.86.84,11.36,11.36,0,0,1,.94,1,.29.29,0,0,1,.11.22c0,.16-.2.23-.35.26l-.66.14-3.65.73h1.2a25,25,0,0,1,3.77.12,8.87,8.87,0,0,1,1.65.36c-1.1.06-2.26,0-3.55,0-3.76-.09-7.51.07-11.27.25a82.52,82.52,0,0,1-11.23-.13L9,13h.39c1.17,0,2.33,0,3.49,0-1.14-.14-2.28-.33-3.41-.55A11.53,11.53,0,0,1,7.18,12a2.32,2.32,0,0,0-.73-.19l-.63,0H5.76c-.15,0-.39,0-.48-.12a.48.48,0,0,1,0-.18C5.18,10.68,5.16,9.93,5.15,9.18Zm20,8.92c-7,0-13.93.52-20.87-.41,0,.15,0,.3,0,.45a2.5,2.5,0,0,0,.09.61c6.16,2.21,12.79,2.54,19.3,2.84,2.29.1,4.58.24,6.86.46-3,.05-6.06.15-9.09.27-5,.2-10.08.27-15.09.67-.27,0-1,.07-1.93.17,0,.89,0,1.78,0,2.68,0,.4,0,.77-.06,1.17a1.88,1.88,0,0,0,.4,1.36,1.61,1.61,0,0,0,.74.39,5.17,5.17,0,0,0,.54.11L12.77,30l-.81.09c2.74.23,5.48.33,8.18.47,4.05.21,8.08.32,12.13.28.18-.2.36-.41.52-.62a1.1,1.1,0,0,0-.63-.28l-1.95-.43-.7-.15A21.75,21.75,0,0,1,33,29h0a1.74,1.74,0,0,0,.82-.15,1.33,1.33,0,0,0,.4-.35,18.17,18.17,0,0,0,1.24-1.38c.38-.5.75-1,1.12-1.53.56-.79,1.1-1.59,1.63-2.41l.5-.76c-.72,0-1.47.11-2.19.17h-.09L37.78,22l.2-.11a7.31,7.31,0,0,0,1-.58,2.54,2.54,0,0,0,.36-.29,2.1,2.1,0,0,0,.71-1.54A71.62,71.62,0,0,0,25.13,18.1Z"/>
            <path class="cls-4"
                  d="M33.55,11.35c0,.16-.2.23-.35.26l-.66.14c.23-.52-.24-1.19-.7-1.61A80.74,80.74,0,0,0,21.52,2.56a13.3,13.3,0,0,0-2.66-1.47A4.27,4.27,0,0,0,16.1.81,42.74,42.74,0,0,0,8.92,3.57,6.21,6.21,0,0,0,6.61,5.26a5.83,5.83,0,0,0-.88,3.26,28.45,28.45,0,0,0,0,3.2c-.15,0-.39,0-.48-.12a.48.48,0,0,1,0-.18c-.05-.74-.07-1.49-.08-2.24a9.19,9.19,0,0,1,.54-4A5,5,0,0,1,7.61,3.32a6.44,6.44,0,0,1,1-.59A21.12,21.12,0,0,1,15.72.05c3.58-.42,5.8,1.74,8.57,3.63,2,1.33,3.92,2.69,5.78,4.15a6.75,6.75,0,0,1,1.57,1.44,5.68,5.68,0,0,0,.86.84,11.36,11.36,0,0,1,.94,1A.29.29,0,0,1,33.55,11.35Z"/>
            <path class="cls-4"
                  d="M39.35,21a2.54,2.54,0,0,1-.36.29,8,8,0,0,0,.32-2,3.72,3.72,0,0,0-.6-1.44l-1.3-2.21a4.44,4.44,0,0,0-1-1.32,4.25,4.25,0,0,0-1.42-.6c-.85-.23-1.69-.44-2.55-.62s-1.53-.27-2.3-.41c-.14,0-.15-.08,0-.17a25,25,0,0,1,3.77.12,5.93,5.93,0,0,1,2.34.69.86.86,0,0,1,.28.29,8.72,8.72,0,0,0,.81,1c1,1.23,2.39,2.42,2.71,4.07A2.32,2.32,0,0,1,39.35,21Z"/>
            <path class="cls-5"
                  d="M10.67,31.41a2.43,2.43,0,0,0,.65.75c2.58,2,6.19,4.39,9.48,2.79a14,14,0,0,0,4.31-3.89l3-3.55,3.27-3.9a7,7,0,0,0,1.26-1.67c.47-1.11,1.26-2.23,1-3.47-.44-2.13-3.64-4.39-5.2-5.75-2-1.76-4.15-3.33-6.25-5-1.74-1.37-2.68-2.49-5.05-2a13.81,13.81,0,0,0-3.34,1.28,12.2,12.2,0,0,0-2.69,1.78c-2,1.85-1.45,6.37-1.54,8.83a63.18,63.18,0,0,0,.41,10c0,.27.08.57.11.85A8.48,8.48,0,0,0,10.67,31.41Z"/>
            <path class="cls-6"
                  d="M11,17.7c0,.73,0,1.45,0,2.18,0,1.45.1,2.91.2,4.37.08,1.08.17,2.17.27,3.26a10.5,10.5,0,0,0,.56,2.89c.48,1.15,1.9,1.81,2.93,2.39a7.34,7.34,0,0,0,3.5,1.12,3.61,3.61,0,0,0,1.6-.36,12.76,12.76,0,0,0,3.8-3.48c1-1.22,2-2.43,3-3.65,1.62-1.93,3.48-3.61,4.59-5.91a3.3,3.3,0,0,0,.53-1.72,3.14,3.14,0,0,0-.61-1.28,20,20,0,0,0-3.68-3.29c-2.36-2-4.84-3.84-7.26-5.77C19.49,7.6,19,7.21,18.21,7.21a4,4,0,0,0-.77.1A12.32,12.32,0,0,0,12.12,10c-.91.85-1,2.51-1,3.65C11.05,15,11,16.35,11,17.7Z"/>
            <path class="cls-7"
                  d="M11,17.7c0,.73,0,1.45,0,2.18a48.37,48.37,0,0,0,2,5.31L13.48,16a11.13,11.13,0,0,1,.59-3.68,3.84,3.84,0,0,1,2.64-2.44c1.49-.28,2.91.66,4.14,1.53l8.76,6.29c.52.37,1.3.73,1.71.24a.55.55,0,0,0,.15-.28.86.86,0,0,0,0-.16,20,20,0,0,0-3.68-3.29c-2.36-2-4.84-3.84-7.26-5.77C19.49,7.6,19,7.21,18.21,7.21a4,4,0,0,0-.77.1A12.32,12.32,0,0,0,12.12,10c-.91.85-1,2.51-1,3.65C11.05,15,11,16.35,11,17.7Z"/>
            <path class="cls-8"
                  d="M30.54,19c-.07.2-.25.59-.38.85a18.27,18.27,0,0,1-3,4.06l-.85.95-.51.59-3,3.65-.47.55A10.53,10.53,0,0,1,19.72,32l-.28.16a2,2,0,0,1-.92.21,6.08,6.08,0,0,1-2.74-.93l-.41-.23c-.73-.39-1.64-.89-1.85-1.39a5,5,0,0,1-.27-1c-.09-.47-.13-1-.17-1.42-.1-1.07-.2-2.15-.27-3.22-.11-1.7-.18-3.31-.22-4.88,0-.53,0-1.05,0-1.56,0-1.17,0-2.33.06-3.45l0-.53v-.14c0-.72.09-2.06.5-2.44a10.7,10.7,0,0,1,4.61-2.32,2.83,2.83,0,0,1,.43-.05c.21,0,.47.16,1.36.89l.61.49,1.66,1.3.42.32c.07.06.13.1.2.17,1.44,1.11,2.93,2.28,4.34,3.47.29.24.63.5,1,.78l.4.31a9.4,9.4,0,0,1,2.18,2.12h0A1.81,1.81,0,0,1,30.54,19Z"/>
        </g>
    </g>
</svg>