<svg xmlns="http://www.w3.org/2000/svg" xmlns:xlink="http://www.w3.org/1999/xlink" viewBox="0 0 191.4 49.36">
    <defs>
        <style>
            .cls-1{fill:url(#_ÂÁ_Ï_ÌÌ_È_ËÂÌÚ_3);}.cls-2{fill:url(#_ÂÁ_Ï_ÌÌ_È_ËÂÌÚ_3-2);}.cls-3{fill:url(#_ÂÁ_Ï_ÌÌ_È_ËÂÌÚ_3-3);}.cls-4{fill:#eb924d;}.cls-5{fill:url(#_ÂÁ_Ï_ÌÌ_È_ËÂÌÚ_3-4);}.cls-6{fill:url(#_ÂÁ_Ï_ÌÌ_È_ËÂÌÚ_3-5);}.cls-7{fill:url(#_ÂÁ_Ï_ÌÌ_È_ËÂÌÚ_3-6);}.cls-8{fill:url(#_ÂÁ_Ï_ÌÌ_È_ËÂÌÚ_3-7);}.cls-9{fill:url(#_ÂÁ_Ï_ÌÌ_È_ËÂÌÚ_3-8);}.cls-10{fill:url(#_ÂÁ_Ï_ÌÌ_È_ËÂÌÚ_3-9);}
        </style>
        <linearGradient id="_ÂÁ_Ï_ÌÌ_È_ËÂÌÚ_3" x1="139.5" y1="-93.56" x2="110.95" y2="-16.74"
                        gradientUnits="userSpaceOnUse">
            <stop offset="0" stop-color="#cf5c2b"/>
            <stop offset="1" stop-color="#59173e"/>
        </linearGradient>
        <linearGradient id="_ÂÁ_Ï_ÌÌ_È_ËÂÌÚ_3-2" x1="106.7" y1="-28.35" x2="82.04" y2="101.68"
                        xlink:href="#_ÂÁ_Ï_ÌÌ_È_ËÂÌÚ_3"/>
        <linearGradient id="_ÂÁ_Ï_ÌÌ_È_ËÂÌÚ_3-3" x1="106.9" y1="-27.39" x2="73.56" y2="142.87"
                        xlink:href="#_ÂÁ_Ï_ÌÌ_È_ËÂÌÚ_3"/>
        <linearGradient id="_ÂÁ_Ï_ÌÌ_È_ËÂÌÚ_3-4" x1="114.86" y1="11.68" x2="107.33" y2="31.82"
                        xlink:href="#_ÂÁ_Ï_ÌÌ_È_ËÂÌÚ_3"/>
        <linearGradient id="_ÂÁ_Ï_ÌÌ_È_ËÂÌÚ_3-5" x1="140.13" y1="-45.81" x2="75.13" y2="105.01"
                        xlink:href="#_ÂÁ_Ï_ÌÌ_È_ËÂÌÚ_3"/>
        <linearGradient id="_ÂÁ_Ï_ÌÌ_È_ËÂÌÚ_3-6" x1="102.99" y1="10.1" x2="98.24" y2="22.8"
                        xlink:href="#_ÂÁ_Ï_ÌÌ_È_ËÂÌÚ_3"/>
        <linearGradient id="_ÂÁ_Ï_ÌÌ_È_ËÂÌÚ_3-7" x1="118.93" y1="-26.16" x2="77.93" y2="68.96"
                        xlink:href="#_ÂÁ_Ï_ÌÌ_È_ËÂÌÚ_3"/>
        <linearGradient id="_ÂÁ_Ï_ÌÌ_È_ËÂÌÚ_3-8" x1="26.03" y1="20.23" x2="21.28" y2="32.93"
                        xlink:href="#_ÂÁ_Ï_ÌÌ_È_ËÂÌÚ_3"/>
        <linearGradient id="_ÂÁ_Ï_ÌÌ_È_ËÂÌÚ_3-9" x1="41.97" y1="-16.03" x2="0.97" y2="79.1"
                        xlink:href="#_ÂÁ_Ï_ÌÌ_È_ËÂÌÚ_3"/>
    </defs>
    <g id="Livello_2" >
        <g id="Livello_2-2" >
            <path class="cls-1"
                  d="M191.3,39.33c-.1-1-.2-2-.29-3.06l-.27-3.22c-.06-.74-.14-1.52-.17-2.27s.34-1.67-.14-2.24A2.28,2.28,0,0,0,189,28l-2.16-.27c1-.16,1.92-.36,2.85-.61a1.58,1.58,0,0,0,.56-.24.71.71,0,0,0,.19-.4,18.66,18.66,0,0,0,.11-4.29c0-1.45,0-2.89,0-4.33s0-2.75,0-4.12c0-.45.27-1.44-.05-1.84s-.85-.31-1.33-.35a13.83,13.83,0,0,0-1.44,0c-.71,0-1.42.1-2.13.18.93-.18,1.89-.27,2.82-.43a9.08,9.08,0,0,0,1.76-.45,2,2,0,0,0,.9-.49.93.93,0,0,0,.15-.34,4,4,0,0,0,.13-.77c.06-.71.1-1.42.11-2.14,0-.36,0-.72,0-1.08s-.13-.45-.16-.69a4.24,4.24,0,0,0-1.56-2.64,7.49,7.49,0,0,0-3.4-1.53,9.41,9.41,0,0,0-1.5-.15Q95.31-1,9.4,1a5.08,5.08,0,0,0-.68,0L8,1.23c-.47.12-.93.24-1.38.4A5.64,5.64,0,0,0,4.38,2.89c-.33.33-.55.7-.86,1a5.3,5.3,0,0,0-.47.48A14.49,14.49,0,0,1,1,6.89,3.46,3.46,0,0,0,0,9.72c.12,1.24.17,2.49.32,3.72.25,2,0,4,.32,5.93a1,1,0,0,0,.42.79,2.18,2.18,0,0,0,.76.21l2.64.41c-1.09.5-2.72.54-3.29,1.36A1.72,1.72,0,0,0,.94,23c-.1,1-.24,2.11-.34,3.16,0,.48-.08.95-.1,1.43s-.08.88-.14,1.34C.22,30-.16,31.35.3,32.37s2.18,1,3.38,1.28a2.41,2.41,0,0,0-1.49.78c-.18.19-.32.39-.49.58a5.05,5.05,0,0,0-.43.51,5,5,0,0,0-.62,1.12,2.1,2.1,0,0,0-.17.73c0,.24,0,.48,0,.72L.37,39.52q0,1.44,0,2.88c0,.93-.29,1.83.26,2.75a5.87,5.87,0,0,0,2.69,2.2A8.94,8.94,0,0,0,6.47,48Q92.81,50.72,182,48a8.31,8.31,0,0,0,4.24-1.25,7.2,7.2,0,0,0,1.45-1.13c.5-.55,1-1.12,1.41-1.7C190.13,42.53,191.47,41,191.3,39.33Z"/>
            <path class="cls-2"
                  d="M184.78,44.44q-89.15,2.66-175.49,0a7,7,0,0,1-5.9-2.93,3.78,3.78,0,0,1-.45-2.29A1.26,1.26,0,0,1,3,38.81a3.61,3.61,0,0,0,.26-.61c0-.11,0-.22,0-.34.1-.62.13-1.25.21-1.87a3.83,3.83,0,0,1,.24-1,1.78,1.78,0,0,1,.85-1c1.9-1,5.6-1,8.36-1l1.49,0c1.19-.06,2.39-.08,3.6-.07A70.5,70.5,0,0,1,9.6,32.3q-2-.24-4-.6a5.73,5.73,0,0,1-.95-.23,1.69,1.69,0,0,1-1-.6,1.27,1.27,0,0,1-.14-.78c0-.25,0-.51,0-.76,0-.53.13-1.06.21-1.59s.14-.86.18-1.29c.09-1.16.2-2.31.32-3.45a1.28,1.28,0,0,1,.44-1,2.34,2.34,0,0,1,.75-.29,16.55,16.55,0,0,1,2.25-.42c.35,0,.73,0,1.08-.11A8.26,8.26,0,0,1,10,21l12.59-1,1.5-.12-19-1.64-.83-.08A1.47,1.47,0,0,1,3.56,18l0,0a.63.63,0,0,1-.17-.42c-.28-2.42,0-4.92-.15-7.36,0-.14-.07-.83-.12-1.6C3,7.43,2.88,6.14,2.84,6.14c-.27-2.69,2.64-5,6.45-5.1Q95.12-1.08,184.65,1c3.83.09,6.77,2.43,6.48,5.13A12,12,0,0,1,191,8.91a1,1,0,0,1-.4.59,2,2,0,0,1-.77.22l-2.16.38c-1,.16-1.91.31-2.88.38q-8.62.66-17.24,1.32l-.46,0-.56,0h1.37l21.63-.26a1.22,1.22,0,0,1,.58.09.54.54,0,0,1,.26.43,2.74,2.74,0,0,1,0,.63c0,.65-.17,1.27-.17,1.93s.2,1.16.19,1.75c0,.85-.06,1.72-.11,2.59-.11,2-.31,3.95-.61,5.92a1.19,1.19,0,0,1-.38.8,2.18,2.18,0,0,1-.81.32,3.38,3.38,0,0,1-.57.11c-4.22.86-8.87.18-13.21.71-.29,0-.57.07-.85.12l-.29,0,1.06.06q7.14.38,14.23,1a2.49,2.49,0,0,1,1.5.44,1.12,1.12,0,0,1,.26.87v1c0,1,0,2,.06,3,.09,1.33.21,2.64.33,4l.18,1.94C191.46,42,188.57,44.32,184.78,44.44Z"/>
            <path class="cls-3"
                  d="M190.39,16.43c0,.85-.06,1.72-.11,2.59-2.43.16-4.83.29-7.17.48l-1.63.12c-2,.15-4,.29-6,.41l-3,.18c-.64,0-1.22.22-1.86.27a22.61,22.61,0,0,1-2.72-.13c-1,0-2-.06-3-.05-2,0-4,.13-5.93.28-4,.32-7.85.85-11.77,1.32q-9.42,1.11-18.94,1.68c3.46.25,6.89.64,10.27,1.2-1.27.07-2.54.14-3.81.19-4,.18-8.07.27-12.11.32s-8.08,0-12.12,0-8.09,0-12.13,0-8.08.09-12.12.23c-2,.07-4,.15-6,.26l-1.51.09c-.62,0-1.2.16-1.82.21-4.82.4-9.62.9-14.39,1.57-7.4,1-14.83,2-22.35,2.4L36,30.28c-6.48.93-13.48,1.12-19.84,1.67-2.15.19-4.36.29-6.56.35q-2-.24-4-.6a5.73,5.73,0,0,1-.95-.23,1.69,1.69,0,0,1-1-.6,1.27,1.27,0,0,1-.14-.78c0-.25,0-.51,0-.76,0-.53.13-1.06.21-1.59,5.82-.34,11.78-1.53,17.38-2.1,7.19-.73,14.51-1.16,21.75-1.45,8.21-.32,16.39.37,24.57.37,7.57,0,15.14-.47,22.67-.9q22-1.26,44-2.61-4.78-.06-9.58-.18-6.09-.15-12.2-.38a24.85,24.85,0,0,0-2.86,0c-1,.08-2,.1-2.93.09a35.54,35.54,0,0,1-5.75-.53c-1.1-.19-2.19-.43-3.32-.57a50,50,0,0,0-5.75-.18c-7.18-.07-14.27-1.41-21.45-1.36-1.88,0-3.77.12-5.64.24s-4,.26-6,.3a15.8,15.8,0,0,1-2.67-.08,13.49,13.49,0,0,0-2.11-.07c-1.21,0-2.43-.05-3.64-.06q-3.66-.06-7.3-.07c-9.21,0-18.41.33-27.62.28-3.93,0-7.93-.08-11.82-.48l0,0a.63.63,0,0,1-.17-.42c-.28-2.42,0-4.92-.15-7.36,0-.14-.07-.83-.12-1.6,4.69-.29,9.43-.36,14.13-.61,9.2-.48,18.41-.68,27.65-.65,18.31.06,36.58.89,54.83,1.87s36.5,2.19,54.76,3.11c9.23.46,18.48.75,27.73.75,2.71,0,5.45-.12,8.19-.27,0,.65-.17,1.27-.17,1.93S190.4,15.84,190.39,16.43Zm.28,17c-.06-1-.06-2-.06-3-5.83-.45-11.67-.91-17.54-1.2-10.06-.48-20.15-.41-30.22-.12-2.09.06-4.15.1-6.23.29l-3,.26q-6,.51-12.08.83c-1.57.09-3.15.16-4.72.23L129,30.65l12.24-.07,6.12,0,3.06,0a9.22,9.22,0,0,0,1.29,0c.26,0,.5-.12.77-.15a22.65,22.65,0,0,1,2.85.07l3,.13q3,.12,6.07.29,4.78.26,9.55.56c3.47.22,6.92.51,10.37.81-7.84.53-15.68,1.08-23.54,1.38-18.1.71-36.2,1.6-54.32,1.35-17.87-.25-35.71-1-53.59-.93q-14.13,0-28.24.32c-6.94.15-14,.12-20.91.63a3.83,3.83,0,0,0-.24,1c-.08.62-.11,1.25-.21,1.87,7.72.23,15.54-.15,23.24-.16q14.12,0,28.24.21c17.85.3,35.67,1,53.51,1.22,18.15.23,36.27-.69,54.39-1.34,9.33-.33,18.74-.33,28.09-.4H191C190.88,36.06,190.76,34.75,190.67,33.42Z"/>
            <path class="cls-4"
                  d="M4.48,30a3,3,0,0,0,.21,1.48,1.69,1.69,0,0,1-1-.6,1.27,1.27,0,0,1-.14-.78c0-.25,0-.51,0-.76.06-1,.31-1.92.39-2.88.09-1.16.2-2.31.32-3.45a1.28,1.28,0,0,1,.44-1,2.34,2.34,0,0,1,.75-.29,16.55,16.55,0,0,1,2.25-.42c.35,0,.73,0,1.08-.11A8.26,8.26,0,0,1,10,21l12.59-1L9,21.9a8.86,8.86,0,0,0-2.78.53,2.46,2.46,0,0,0-.41.28,2.3,2.3,0,0,1-.34.28,1.25,1.25,0,0,0-.43.6,5,5,0,0,0-.52,1.9,6.11,6.11,0,0,1,0,.73.85.85,0,0,1,0,.17,1.14,1.14,0,0,1-.1.19,2.37,2.37,0,0,0-.09,1.53c0,.19.13.36.18.54A4.63,4.63,0,0,1,4.48,30Z"/>
            <path class="cls-4" d="M167.05,11.83l-.76,0h1.22Z"/>
            <path class="cls-4"
                  d="M171.19,26.66c1.17.08,2.34.16,3.51.22-.29,0-.57.07-.85.12C173,26.88,172.06,26.76,171.19,26.66Z"/>
            <path class="cls-4"
                  d="M188.45,25.43a3.71,3.71,0,0,0,.08-1.59c-.11-1-.21-2-.32-2.95a.61.61,0,0,0-.27-.52,1.27,1.27,0,0,0-.62-.08l-5.22.12a21.15,21.15,0,0,0,5.44-1.05,2.07,2.07,0,0,0,1.18-.73,1.29,1.29,0,0,0,.09-.58,32.74,32.74,0,0,0-.67-4.81,6.44,6.44,0,0,0-3.17-.68L171.33,12c-1.09-.05-2.3-.08-3.47-.11l21.63-.26a1.22,1.22,0,0,1,.58.09.54.54,0,0,1,.26.43,14.6,14.6,0,0,1-.13,2.56c0,.59.2,1.16.19,1.75a66.77,66.77,0,0,1-.72,8.51,1.19,1.19,0,0,1-.38.8,2.18,2.18,0,0,1-.81.32,3.38,3.38,0,0,1-.57.11A1.73,1.73,0,0,0,188.45,25.43Z"/>
            <path class="cls-4"
                  d="M3.2,10.15c0-.34-.29-4-.36-4-.27-2.69,2.64-5,6.45-5.1Q95.12-1.08,184.65,1c3.83.09,6.77,2.43,6.48,5.13A12,12,0,0,1,191,8.91a1,1,0,0,1-.4.59,2,2,0,0,1-.77.22c-.71.13-1.43.26-2.15.37a4.37,4.37,0,0,0,1.63-1.45,1.13,1.13,0,0,0-.15-1.1,4.17,4.17,0,0,1-.37-1.73c0-.75.15-1.83-.69-2.42a9.53,9.53,0,0,0-2.26-1.12,21.5,21.5,0,0,0-6.39-.89h-.33c-4-.09-8-.1-12,.19-.48,0-.91.13-1.37.19a11.58,11.58,0,0,1-1.86,0l-4.06-.13q-4.05-.1-8.11-.14c-2,0-4,0-6.08,0H122.5a15.22,15.22,0,0,1-1.91,0C120,1.28,119.47,1,118.82,1A15.05,15.05,0,0,0,117,1c-1.47.09-3,.19-4.42.3a3.54,3.54,0,0,0-1.84.48,2.08,2.08,0,0,1-.46.37,2.23,2.23,0,0,1-1.46,0,14.07,14.07,0,0,0-3-.4c-.92,0-1.82.09-2.74.05a15.9,15.9,0,0,1-1.69-.2c-2.23-.31-4.56-.33-6.81-.45C93,1.06,91.29,1,89.61,1c-5.4-.13-10.82-.06-16.22.1-2.71.08-5.41.19-8.12.3a30.79,30.79,0,0,1-3.84.12c-.35,0-.68-.13-1-.18a8.18,8.18,0,0,0-1.11,0l-4.51,0H49.49c-.59,0-1.17.08-1.75.08s-1.05-.08-1.59-.08a12.09,12.09,0,0,0-3.25.46A4,4,0,0,1,41.66,2c-.78,0-1.33-.56-2-.8-1.7-.58-3.45.52-5.18.07a11.08,11.08,0,0,0-2.65-.19H28.32c-3.92,0-7.84.11-11.74.39-1.95.14-3.89.32-5.81.57-.93.11-1.88.31-2.82.39a1.8,1.8,0,0,0-.77.15C6,3.12,2.86,6.31,5.12,7.43a3.66,3.66,0,0,0,.46.18c.25.07.5.09.75.16a3.43,3.43,0,0,0,.85,0H9.12a9.91,9.91,0,0,1,2,.14l-4.42.63a9.13,9.13,0,0,0-1.4.28l-.24.06a1.13,1.13,0,0,0-.66.56c-.29.55-.11,1.15-.24,1.72a9.21,9.21,0,0,0,.2,3.13c.18,1.31.4,2.61.68,3.91l-.83-.08a1.28,1.28,0,0,1-.73-.2.63.63,0,0,1-.17-.42C3.07,15.09,3.39,12.59,3.2,10.15Z"/>
            <polygon class="cls-4" points="13.52 21.27 17.84 20.66 17.67 20.37 13.19 20.75 13.52 21.27"/>
            <polygon class="cls-4" points="176.1 12.14 181.11 12.44 181.11 11.64 175.69 11.81 176.1 12.14"/>
            <polygon class="cls-4" points="176.45 27.43 182 28.18 181.88 27.55 175.92 27.18 176.45 27.43"/>
            <path class="cls-4"
                  d="M113.5,24.07c-3-1.67-8-1.15-10.33,1.1a3.85,3.85,0,0,0,0,5.48c3.45,3.11,9.51,1.78,11.7-2.07l.13-.11C116.67,27,115.48,24.45,113.5,24.07Z"/>
            <path class="cls-5"
                  d="M114.21,22.6c-3-1.67-8-1.15-10.33,1.1a3.85,3.85,0,0,0,0,5.48c3.45,3.1,9.51,1.78,11.7-2.07l.13-.11C117.38,25.49,116.19,23,114.21,22.6Z"/>
            <path class="cls-6"
                  d="M113.5,23.55c-3-1.67-8-1.16-10.33,1.1a3.85,3.85,0,0,0,0,5.48c3.45,3.1,9.51,1.78,11.7-2.07L115,28C116.67,26.44,115.48,23.93,113.5,23.55Z"/>
            <path class="cls-4"
                  d="M102.13,17.91a6.19,6.19,0,0,0-6.51.69,2.43,2.43,0,0,0,0,3.46c2.17,2,6,1.12,7.38-1.3l.08-.07A1.65,1.65,0,0,0,102.13,17.91Z"/>
            <path class="cls-7"
                  d="M102.58,17a6.18,6.18,0,0,0-6.52.69,2.43,2.43,0,0,0,0,3.45,5.05,5.05,0,0,0,7.39-1.3l.07-.07A1.63,1.63,0,0,0,102.58,17Z"/>
            <path class="cls-8"
                  d="M102.13,17.58a6.19,6.19,0,0,0-6.51.69,2.43,2.43,0,0,0,0,3.46c2.17,2,6,1.12,7.38-1.3l.08-.07A1.65,1.65,0,0,0,102.13,17.58Z"/>
            <path class="cls-4"
                  d="M25.17,28.05a6.18,6.18,0,0,0-6.52.69,2.44,2.44,0,0,0,0,3.46A5,5,0,0,0,26,30.89l.07-.07A1.63,1.63,0,0,0,25.17,28.05Z"/>
            <path class="cls-9"
                  d="M25.62,27.12a6.2,6.2,0,0,0-6.52.69,2.43,2.43,0,0,0,0,3.46A5,5,0,0,0,26.48,30l.08-.07A1.63,1.63,0,0,0,25.62,27.12Z"/>
            <path class="cls-10"
                  d="M25.17,27.72a6.18,6.18,0,0,0-6.52.69,2.44,2.44,0,0,0,0,3.46A5,5,0,0,0,26,30.56l.07-.07A1.63,1.63,0,0,0,25.17,27.72Z"/>
        </g>
    </g>
</svg>