<svg xmlns="http://www.w3.org/2000/svg" xmlns:xlink="http://www.w3.org/1999/xlink" viewBox="0 0 236.08 173.81">
    <defs>
        <style>
            .cls-1{fill:url(#_ÂÁ_Ï_ÌÌ_È_ËÂÌÚ_3);}.cls-2{fill:url(#_ÂÁ_Ï_ÌÌ_È_ËÂÌÚ_3-2);}.cls-3{fill:url(#_ÂÁ_Ï_ÌÌ_È_ËÂÌÚ_3-3);}.cls-4{fill:#eb924d;}
        </style>
        <linearGradient id="_ÂÁ_Ï_ÌÌ_È_ËÂÌÚ_3" x1="176.68" y1="-86.05" x2="128.09" y2="57.39"
                        gradientUnits="userSpaceOnUse">
            <stop offset="0" stop-color="#cf5c2b"/>
            <stop offset="1" stop-color="#59173e"/>
        </linearGradient>
        <linearGradient id="_ÂÁ_Ï_ÌÌ_È_ËÂÌÚ_3-2" x1="171.07" y1="-31.06" x2="20.62" y2="306.74"
                        xlink:href="#_ÂÁ_Ï_ÌÌ_È_ËÂÌÚ_3"/>
        <linearGradient id="_ÂÁ_Ï_ÌÌ_È_ËÂÌÚ_3-3" x1="160.72" y1="-10.8" x2="10.28" y2="327"
                        xlink:href="#_ÂÁ_Ï_ÌÌ_È_ËÂÌÚ_3"/>
    </defs>
    <g id="Livello_2" >
        <g id="Livello_2-2" >
            <path class="cls-1"
                  d="M236.07,160.11c0-1.17-.11-2.33-.17-3.5l-.27-5.81-.06-1.4c-.07-1.78.15-3.62-.77-5.23a1.39,1.39,0,0,0-1.12-.86,2,2,0,0,0,1.12-1.52,14.66,14.66,0,0,0,.34-2.95c0-.84-.06-1.69-.09-2.52s-.07-1.91-.1-2.87c-.07-1.91-.13-3.83-.19-5.75s-.12-3.82-.17-5.73l0-1c0-1-.05-2,0-2.93a3.15,3.15,0,0,0-.71-2,2,2,0,0,0-1.77-.75,3,3,0,0,0,1.45-.73c1-1,.85-2.59.83-3.91,0-1.89-.08-3.78-.11-5.67s-.06-3.78-.08-5.66,0-3.77-.06-5.65,0-3.74,0-5.62,0-3.74,0-5.6c0-2.93,0-5.84.06-8.77,0-1.15.15-2.19-.66-3.11a3.5,3.5,0,0,0-.39-.38c-.06,0-.36-.3-.44-.28a2.19,2.19,0,0,0,1.25-1.16,2.31,2.31,0,0,0,.21-.85c0-.71.05-1.43.06-2.15,0-2.33.07-4.76.13-7.13,0-1.26.07-2.53.1-3.79a6.28,6.28,0,0,0-1-3.16,1.56,1.56,0,0,0,.94-1.1,5.91,5.91,0,0,0,.09-1.39c.08-1.8.11-3.61.17-5.42,0-.91.06-1.81.08-2.72,0-.22,0-.45,0-.66a1.68,1.68,0,0,0,.07-.39,3.91,3.91,0,0,0-.34-1.3,2.11,2.11,0,0,0-1-1.14c.06-.15.23-.21.38-.27a1.91,1.91,0,0,0,1.11-1.6c0-.17,0-.33,0-.49,0-.54,0-1.1.07-1.64l.06-1.74q.15-3.62.31-7.23.33-7.09.75-14.19a5.48,5.48,0,0,0-5-5.81,1389.07,1389.07,0,0,0-223.44,0,5.48,5.48,0,0,0-1.06.19A8.79,8.79,0,0,0,4,6.06,4.86,4.86,0,0,0,3,7.3c-.35.5-.7,1-1,1.51C.94,10.37-.06,12.05,0,14q.17,3.54.3,7.09L.47,24.7c0,.64.05,1.28.07,1.92A13.68,13.68,0,0,0,.6,28.05a9,9,0,0,1,0,1.27A12.12,12.12,0,0,0,.65,30.8a2.34,2.34,0,0,0,.22.77c.42.74,1.47.83,2.14,1.37a6.57,6.57,0,0,0-1.89.53.56.56,0,0,0-.24.16A.65.65,0,0,0,.81,34l0,3.86a6.06,6.06,0,0,0,.08,1.65,6.46,6.46,0,0,1,.1,1.7c.07,2.52.14,5,.19,7.56,0,1.55.07,3.09.1,4.64,0,.73.05,1.46.05,2.19a.77.77,0,0,1-.06.3,2,2,0,0,0,.33,1.56,3.65,3.65,0,0,0,2.83,1.66l-1.65.59a1.81,1.81,0,0,0-1,.64,1.58,1.58,0,0,0-.19.64,50.31,50.31,0,0,0-.14,9.1c.12,3,.13,6,.14,9.06,0,2.55,0,5.09,0,7.63s0,5.1,0,7.65c0,1.83,0,3.67,0,5.5a3.39,3.39,0,0,1,0,.78,3.53,3.53,0,0,0,.06,2.11,2.47,2.47,0,0,0,1.85,1.58,2.35,2.35,0,0,0-1.43.73,2.12,2.12,0,0,0-.32,1.05,16.61,16.61,0,0,0-.11,1.87,7.4,7.4,0,0,1,0,1.63A15.28,15.28,0,0,0,1.45,113c0,1.48,0,3-.07,4.45q-.06,3.85-.14,7.7t-.19,7.72c0,.58,0,1.15,0,1.73A7.6,7.6,0,0,1,1,136a4.58,4.58,0,0,0-.14.53A2.53,2.53,0,0,0,.9,138a1.62,1.62,0,0,0,1.26,1c-.5-.11-.94.39-1,.89s-.05.9-.14,1.34a5,5,0,0,0-.08.56c-.05.37-.1.73-.13,1.1-.07.74-.1,1.48-.1,2.22a1,1,0,0,0,0,.37,1,1,0,0,0,.24.26,5.63,5.63,0,0,0,2.23,1.07l-1.93.64a1.11,1.11,0,0,0-.42.21,1.13,1.13,0,0,0-.23.81c0,.65,0,1.29,0,1.93,0,.24-.09.44-.1.67l0,1c0,1.29-.1,2.58-.14,3.87v.27Q.17,160,0,163.88a5.5,5.5,0,0,0,5.08,5.71,1484.1,1484.1,0,0,0,223.45,0,5.5,5.5,0,0,0,3.25-1.4c.18-.17.42-.33.6-.52a17.24,17.24,0,0,0,3-4.53A7.14,7.14,0,0,0,236.07,160.11Z"/>
            <path class="cls-2"
                  d="M231,165.87a1486.73,1486.73,0,0,1-223.45,0,5.52,5.52,0,0,1-5.08-5.72c0-.66,0-1.32,0-2a11.28,11.28,0,0,1,.06-1.65c0-.2.13-.35.16-.54s0-.37.06-.56c.05-.46.08-.92.12-1.37.12-1.29.25-2.58.37-3.87,0-.12,0-.24,0-.35a1.07,1.07,0,0,1,.18-.58A.87.87,0,0,1,4,149a18.05,18.05,0,0,1,6.69-1.33,49.08,49.08,0,0,0,7.27-.62l3-.41h-1c-2.21,0-4.43-.09-6.64-.27-1.27-.1-2.54-.23-3.8-.39a26.43,26.43,0,0,1-5.28-.72c-.48-.18-.8-.39-.81-.66,0-1,0-2,0-3.07a4.86,4.86,0,0,1,.1-1.53c.25-.44.12-.21.61-.41A7.71,7.71,0,0,1,5.57,139c.56-.11,1.13-.16,1.71-.22l6.13-.61-1.57-.1-7.17-.44-1.14-.07a.49.49,0,0,1-.42-.18.71.71,0,0,1,0-.21c.07-1.57.14-3.13.22-4.7.17-3.84.34-7.69.42-11.54,0-.53,0-1,0-1.57A95.25,95.25,0,0,1,4,109.48c0-.31.27-3.57.26-3.57,7.42-.54,14.86-.82,22.31-.8H28.4l-.59-.05h0q-4.39-.44-8.78-.91c-1.58-.17-3.14-.35-4.7-.58-1.27-.18-2.51-.48-3.78-.68a4.66,4.66,0,0,0-1.18,0,16.11,16.11,0,0,1-3.56-.68,2.14,2.14,0,0,1-.27-.06,1.92,1.92,0,0,1-.62-.27,1.81,1.81,0,0,1-.57-1.35,4.61,4.61,0,0,1,0-.52c0-1.38-.13-2.69-.22-4.06-.09-1.58,0-3.15,0-4.73q0-5.73,0-11.46c0-.89,0-1.78,0-2.66q0-4.4,0-8.77a10.81,10.81,0,0,0-.2-3,8.32,8.32,0,0,1,0-3.26,1.38,1.38,0,0,1,.23-.69A1.19,1.19,0,0,1,4.7,61a18.84,18.84,0,0,1,5.15-.55,31.94,31.94,0,0,0,5.05-.61c.23,0,.47-.08.7-.13a50,50,0,0,1-8-1.18,7.68,7.68,0,0,1-2.36-1,4,4,0,0,1-.39-.29,3,3,0,0,1-1.1-2.14,1.27,1.27,0,0,1,0-.28,1.47,1.47,0,0,1,.06-.27,6.29,6.29,0,0,0,0-1.68L3.8,50.33c0-1.59,0-3.18-.09-4.77a37.82,37.82,0,0,0-.28-4.65c-.11-.77-.06-1.56-.1-2.34a17,17,0,0,1,.1-2.85,4.2,4.2,0,0,1,.38-1.51h0a1.43,1.43,0,0,1,1.23-.91,16.16,16.16,0,0,0,2.59-.21q2.88-.28,5.76-.46c3.93-.26,7.88-.4,11.83-.46,1.92,0,3.85,0,5.77,0h.29c1.73,0,3.47-.06,5.2,0q-5.57-.29-11.12-.76c-1.92-.17-3.85-.35-5.78-.56-3.28-.34-6.68-.31-9.9-.62C7.9,30,6.1,29.91,4.3,29.88H4a.53.53,0,0,1-.33-.09.54.54,0,0,1-.11-.28A49.21,49.21,0,0,1,3,23.59c0-1.61-.1-3.23-.16-4.84q-.13-4.26-.33-8.51a5.5,5.5,0,0,1,5-5.73A1389.07,1389.07,0,0,1,231,4.49a5.5,5.5,0,0,1,5,5.81q-.36,5.9-.65,11.79c-.08,1.72-.15,3.44-.23,5.16,0,1-.09,2.07-.13,3.12a6.48,6.48,0,0,1-.21,1.52c-.29.89-.22,1.87-.44,2.8a1.7,1.7,0,0,1-.39.81,1.83,1.83,0,0,1-.82.35l-.08,0a64.49,64.49,0,0,1-10.26,1.54c-.64.05-1.27.08-1.91.1l12,1.18a1.69,1.69,0,0,1,1,.35,1.61,1.61,0,0,1,.35.76,8.28,8.28,0,0,1,.16.84,18.36,18.36,0,0,1,.17,3,40.34,40.34,0,0,1-.68,5.57c-.18.88-.74.94-1.34.84-.39-.07-.8-.21-1.14-.26-.94-.12-1.89-.23-2.84-.3-1.91-.15-3.82-.19-5.73-.2-1.25,0-2.49,0-3.74,0l-15.52.21.2,0c5.81,1.26,11.88.58,17.79,1.35a38.45,38.45,0,0,0,7.16.71,8,8,0,0,1,2.68,0,3,3,0,0,1,1.68,1.43,5.41,5.41,0,0,1,.65,2.48c0,.5.05,1,.08,1.47a75.58,75.58,0,0,1-.22,8.38c0,.49-.07,1-.09,1.48a1.61,1.61,0,0,1-.3,1,1.44,1.44,0,0,1-.66.34h0a5.75,5.75,0,0,1-1.65.21,4.63,4.63,0,0,0-.51,0c-.65.06-1.32.28-2,.38a17.72,17.72,0,0,1-1.93.16l.77.18,5.34,1.25a1.45,1.45,0,0,1,.65.27c.7.65.54,2.87.61,3.71.13,1.62.19,3.25.21,4.87,0,.78,0,1.55,0,2.33,0,1.34,0,2.69,0,4l0,2.82c0,3.94-.08,7.86-.11,11.8,0,1.74,0,3.5,0,5.25s.24,5.09-.73,6.78a2.08,2.08,0,0,1-1.3.92,6.81,6.81,0,0,1-1.5.24q-12.14.8-24.25,1.62h.29c9.12.18,18.24.72,27.31,1.6.43,0,.56,1,.63,1.28a21.73,21.73,0,0,1,.39,2.9c0,.16,0,.34,0,.5.24,3.11.31,6.23.34,9.35v.15l0,.89c0,.35,0,.68,0,1a49,49,0,0,1-.06,5.56,7.1,7.1,0,0,1-.36,1.63,2.61,2.61,0,0,1-.32.75,3.41,3.41,0,0,1-1.67,1.06c-.22.08-.45.14-.67.2-1.5.4-3,.72-4.55,1l.45.09c1.61.29,3.23.6,4.85.92a3.9,3.9,0,0,1,1.67.65,2.23,2.23,0,0,1,.58.75,3.7,3.7,0,0,1,.36,1.11l.06.4c.15,1.31-.06,2.6.09,3.9.08.67.12,1.33.15,2,.07,1.29.12,2.59.19,3.88s.11,2.32.16,3.48A5.48,5.48,0,0,1,231,165.87Z"/>
            <path class="cls-3"
                  d="M235.14,27.25c0,1-.09,2.07-.13,3.12a6.48,6.48,0,0,1-.21,1.52c-.29.89-.22,1.87-.44,2.8a1.7,1.7,0,0,1-.39.81,1.83,1.83,0,0,1-.82.35l-.08,0a64.49,64.49,0,0,1-10.26,1.54c-.64.05-1.27.08-1.91.1l12,1.18a1.69,1.69,0,0,1,1,.35,1.61,1.61,0,0,1,.35.76,8.28,8.28,0,0,1,.16.84c-5.19-.34-10.41-.49-15.73-.53a952,952,0,0,0-113.86,6.14c-18.9,2.13-37.77,4.37-56.73,5.89C33.52,53.31,18.54,55,3.77,54.89a1.47,1.47,0,0,1,.06-.27,6.29,6.29,0,0,0,0-1.68L3.8,50.33C9.88,49.79,16,49.47,22.08,49q16.17-1.19,32.3-2.82c38.35-3.87,76.45-9.26,115-11.14,2.81-.13,5.62-.26,8.43-.37-7.19-.4-14.39-.78-21.58-1.08-9.64-.42-19.32-1-29-.87-10.06.09-20.09.82-30.14,1.09-20,.53-39.91,1.69-59.9,1.94-9.88.13-20.13.73-29.91-.93-1.17-.2-2.33-.41-3.48-.64a1.43,1.43,0,0,1,1.23-.91,16.16,16.16,0,0,0,2.59-.21q2.88-.28,5.76-.46c3.93-.26,7.88-.4,11.83-.46,1.92,0,3.85,0,5.77,0h.29c1.73,0,3.47-.06,5.2,0q-5.57-.29-11.12-.76c-1.92-.17-3.85-.35-5.78-.56-3.28-.34-6.68-.31-9.9-.62C7.9,30,6.1,29.91,4.3,29.88H4a.53.53,0,0,1-.33-.09.54.54,0,0,1-.11-.28A49.21,49.21,0,0,1,3,23.59c0-1.61-.1-3.23-.16-4.84,3.41-.44,6.84-.8,10.28-1,11.29-.54,22.62-.42,33.92-1,19.57-.94,39.41-2.41,59-1.23,19.44,1.17,38.8,3.56,58.19,5.37,20.23,1.89,40.47,3.61,60.71,5.38C228.34,26.63,231.74,26.94,235.14,27.25Zm-.83,90.69c-.07-.3-.2-1.24-.63-1.28-9.07-.88-18.19-1.42-27.31-1.6h-.29q12.13-.81,24.25-1.62a6.81,6.81,0,0,0,1.5-.24,2.08,2.08,0,0,0,1.3-.92c1-1.69.73-4.91.73-6.78s0-3.51,0-5.25c-37.25-1.14-74.49-2.79-111.66-5.4,1.58-.39,3.16-.76,4.75-1.13A241.14,241.14,0,0,1,169.8,88c21.42-1,42.95-.09,64.22-2.35,0-1.34,0-2.69,0-4-22,.69-44-.19-66,.49a256.57,256.57,0,0,0-41.18,4.58c-10.2,2-20.33,4.42-30.57,6.18q-19.5-1.62-39-3.66-14.73-1.55-29.45-3.43l-1.56-.17c5.63-1.44,11.37-2.52,17.06-3.4,15.57-2.42,31.4-3.5,47.09-4.88,33.66-3,67.37-5.32,101.09-7.4,14.17-.88,28.29-1.63,42.12-4.46a75.58,75.58,0,0,0,.22-8.38c0-.47,0-1-.08-1.47-12.17-1.59-24.48-1.44-36.84-.92-17.17.73-34.33,1.58-51.48,2.78C111.64,59.8,77.58,62,44,66.63,30.15,68.55,16.82,71.71,4.12,77.09c0,.88,0,1.77,0,2.66q0,5.73,0,11.46c0,1.58-.11,3.15,0,4.73.09,1.37.22,2.68.22,4.06a4.61,4.61,0,0,0,0,.52c3.14.79,6.39,1.32,9.48,2,8.8,1.84,17.65,3.11,26.56,4.32q27.19,3.67,54.5,6.36c35.83,3.49,71.88,5.23,107.85,6.61q16,.6,32,1.07A21.73,21.73,0,0,0,234.31,117.94Zm.75,27.39a2.23,2.23,0,0,0-.58-.75,3.9,3.9,0,0,0-1.67-.65c-1.62-.32-3.24-.63-4.85-.92l-.45-.09c1.53-.25,3.05-.57,4.55-1,.22-.06.45-.12.67-.2a3.41,3.41,0,0,0,1.67-1.06,2.61,2.61,0,0,0,.32-.75,7.1,7.1,0,0,0,.36-1.63,49,49,0,0,0,.06-5.56c0-.34,0-.67,0-1-29.68,1.09-59.31,1.7-89,.23-32.6-1.61-65.2-4.71-97.7-7.65-9.29-.84-18.55-1.8-27.85-2.46-5.38-.39-11.16-1-16.82-.94-.08,3.85-.25,7.7-.42,11.54,4,1.07,8.08,1.82,11.86,2.45,8.36,1.39,16.7,2.49,25.14,3.32,16.49,1.62,33,3,49.52,4.36q14.13,1.21,28.27,2.3c-6.86.58-13.72,1.12-20.6,1.51-17.72,1-35.41,2.59-53.14,3.44-13.7.66-27.36.34-41,0,0,.11,0,.23,0,.35-.12,1.29-.25,2.58-.37,3.87,0,.45-.07.91-.12,1.37,13.06,2.28,26.58,2.17,39.79,1.59,17.75-.78,35.33-2.6,52.91-5.13,18.52-2.68,37.51-3.63,56.2-4.76l1-.06c12.21.58,24.43.93,36.68.92,15.37,0,30.7-.38,46-1.53A3.7,3.7,0,0,0,235.06,145.33Z"/>
            <path class="cls-4" d="M27.81,105.07h0Z"/>
            <path class="cls-4"
                  d="M31.29,32.11c-3.31.42-6.71,0-10,.52-1.09.18-2.16.47-3.26.58s-2,0-3,.07a26.25,26.25,0,0,0-7.48,1.41,5,5,0,0,0-2.27,1.18,3.11,3.11,0,0,0-.55.79,3.88,3.88,0,0,0-.47,1.82,2.9,2.9,0,0,1,0,.51c0,.52-.11,1-.12,1.55a12.36,12.36,0,0,0,.34,3.09,1.5,1.5,0,0,0,.38.79,1.61,1.61,0,0,0,.83.3l3.71.57-5.11.38c.11,0,.07,4.09.1,4.46.08,1.38.12,2.79.23,4.18A11.52,11.52,0,0,0,5,57c.06.2.14.41.22.61a4,4,0,0,1-.39-.29,3,3,0,0,1-1.1-2.14,1.7,1.7,0,0,1,.08-.55,6.29,6.29,0,0,0,0-1.68l-.15-7.38a37.82,37.82,0,0,0-.28-4.65c-.11-.77-.06-1.56-.1-2.34a17,17,0,0,1,.1-2.85,4.2,4.2,0,0,1,.38-1.51,1.45,1.45,0,0,1,1.24-.92,16.16,16.16,0,0,0,2.59-.21q2.88-.28,5.76-.46c3.93-.26,7.88-.4,11.83-.46,1.92,0,3.85,0,5.77,0Z"/>
            <path class="cls-4"
                  d="M203.8,49.56c5.81,1.26,11.88.58,17.79,1.35a38.45,38.45,0,0,0,7.16.71,8,8,0,0,1,2.68,0,3,3,0,0,1,1.68,1.43c.7,1.11.65,2.69.73,3.95a92.71,92.71,0,0,1-.31,9.86,1.61,1.61,0,0,1-.3,1,1.44,1.44,0,0,1-.66.34c0-.08,0-.13,0-.2a8.64,8.64,0,0,1,.06-1.61,16.08,16.08,0,0,0,.27-2.17c0-.28,0-.52,0-.79a1,1,0,0,0,0-.24,6.19,6.19,0,0,0-.15-1,7.21,7.21,0,0,1-.07-1.32c0-.93-.12-1.87-.24-2.8a.6.6,0,0,0-.19-.44.63.63,0,0,0-.36-.07,88.81,88.81,0,0,0-9.65.62A40.35,40.35,0,0,0,230.43,57a1.48,1.48,0,0,0,1.36-2.09,2.14,2.14,0,0,0-.65-1.39,2.34,2.34,0,0,0-.89-.33l-.56-.1q-2.81-.54-5.66-.83c-.94-.1-1.9-.17-2.85-.23s-1.84-.26-2.8-.32l-1.71-.11-5.83-.35c-1-.06-1.94-.07-2.89-.18a2.73,2.73,0,0,1-.78-.25,2.54,2.54,0,0,0-.44-.15c-.85-.18-1.73-.28-2.59-.44l-1.83-.34-.85-.16a3.91,3.91,0,0,0-.68-.14C201.79,49.58,202.79,49.56,203.8,49.56Z"/>
            <path class="cls-4"
                  d="M222.81,37.41c-.64.05-1.27.08-1.91.1l12,1.18a1.69,1.69,0,0,1,1,.35,1.61,1.61,0,0,1,.35.76,15.79,15.79,0,0,1,.33,3.82,40.34,40.34,0,0,1-.68,5.57c-.18.88-.74.94-1.34.84a1.42,1.42,0,0,0,.61-1,62.69,62.69,0,0,0,0-7,4.47,4.47,0,0,0-.25-1.3,1.65,1.65,0,0,0-.53-.69,1.88,1.88,0,0,0-.36-.21.37.37,0,0,0-.14-.07c-.09,0-.15-.08-.23-.11a1.6,1.6,0,0,0-.42-.1c-.6-.1-1.18-.21-1.78-.3-2.34-.39-4.7-.69-7.06-.91a29.18,29.18,0,0,1-4.58-.63c1.13-.06,2.11-.18,3.23-.22Z"/>
            <path class="cls-4"
                  d="M3,23.59q-.18-6.69-.49-13.35a5.5,5.5,0,0,1,5-5.73A1389.07,1389.07,0,0,1,231,4.49a5.5,5.5,0,0,1,5,5.81q-.36,5.9-.65,11.79c-.12,2.76-.25,5.51-.36,8.28a6.48,6.48,0,0,1-.21,1.52c-.29.89-.22,1.87-.44,2.8a1.7,1.7,0,0,1-.39.81,1.83,1.83,0,0,1-.82.35l-.08,0a.36.36,0,0,0,0-.1c.08-1.21.29-2.47.25-3.69a8,8,0,0,1-.07-1.2,4.53,4.53,0,0,0-.08-1.76A3.1,3.1,0,0,0,229.63,27c1.09-1,3.13-.47,3.91-1.7a3,3,0,0,0,.07-2.28,108.52,108.52,0,0,0-13.84-.56,36.24,36.24,0,0,0,11.81-1.31,3.16,3.16,0,0,0,1.67-.88,3.36,3.36,0,0,0,.56-1.68c.13-1,.22-2,.41-3,.06-.29.21-.54.27-.83a6.73,6.73,0,0,0,0-1.42,14.55,14.55,0,0,0-.36-3.29,7.46,7.46,0,0,0-.75-1.88,2.93,2.93,0,0,0-1.69-1.67,6.65,6.65,0,0,0-1.84-.34c-2.06-.18-3.46-.21-5.51-.45-2.85-.33-5.7-.62-8.54-.89q-5.78-.54-11.57-.95c-1.93-.14-3.86-.26-5.79-.38a5.81,5.81,0,0,0-1.25,0,2.37,2.37,0,0,1-.92,0,13.74,13.74,0,0,0-2.78-.35,2.79,2.79,0,0,0-2.72,1.9,2.43,2.43,0,0,1-.41-1.57,6.21,6.21,0,0,0-1.29,1.72,4.87,4.87,0,0,1-1.26-2.53,28.51,28.51,0,0,1-7-.05c-.32.85-.65,1.69-1,2.54a7.64,7.64,0,0,0-5.68-3.16,33.52,33.52,0,0,0-6.71.28,47.25,47.25,0,0,1-8.74-.06,1.46,1.46,0,0,0-1,.14,1.37,1.37,0,0,0-.38.59,11.74,11.74,0,0,0-.63,2.15,4.18,4.18,0,0,0-2.38-2.67,8.38,8.38,0,0,0-3.61-.64c-2.27,0-4.52.47-6.79.48a29.23,29.23,0,0,1-3.74-.24,36.92,36.92,0,0,0-5.46-.37c-.45,0-.89.06-1.34.12a8.28,8.28,0,0,1-1.2.18,6.35,6.35,0,0,1-.76-.13c-.52-.06-1,0-1.56,0l-3.41,0-11.68-.14-11.68-.13-5.84-.07c-.44,0-.85-.1-1.29-.08l-7.28.33-6,.26a14.9,14.9,0,0,1-2.38-.3,6,6,0,0,0-2.75.2A2.72,2.72,0,0,0,75.63,5a3.2,3.2,0,0,0-2.58-3,10.46,10.46,0,0,0-4.27.17,54.42,54.42,0,0,1-10.89.68c-.12,1-.23,2-.35,3.06a11,11,0,0,0-1.29-3.11,6.77,6.77,0,0,0-.41,4.52c-1-1.39-.81-3.61-2.3-4.42s-3.35.59-5.07.41c.06,1,.13,2,.19,2.93A3.4,3.4,0,0,0,47.1,3.72c-1.2-.81-2.29-.52-3.63-.42l-4.33.34-7.75.59a8.27,8.27,0,0,1-1.72.08,5.61,5.61,0,0,0-1.16-.18A137.36,137.36,0,0,0,9.61,5.67a10.59,10.59,0,0,0-3.32,1A4.58,4.58,0,0,0,4.65,8.12a4.49,4.49,0,0,0-.52,1.49,6.33,6.33,0,0,1-.42,1,7.08,7.08,0,0,0-.6,2.25,3.21,3.21,0,0,0,1.43,3.05c1.23.68,2.85.17,4.09.81a10.33,10.33,0,0,0-4.35.37,1.2,1.2,0,0,0-.57.32,1.17,1.17,0,0,0-.16.55,11.44,11.44,0,0,0,0,2.68c.05.43.17.86.21,1.29s.05,1,.08,1.45c.1,1.91.24,3.83.34,5.74,0,.32.09.51.08.75H4a.53.53,0,0,1-.33-.09.54.54,0,0,1-.11-.28A49.21,49.21,0,0,1,3,23.59Z"/>
        </g>
    </g>
</svg>