<svg xmlns="http://www.w3.org/2000/svg" xmlns:xlink="http://www.w3.org/1999/xlink" viewBox="0 0 80 35">
    <defs>
        <style>
            .cls-1{fill:#9c3708;}.cls-2{fill:url(#_ÂÁ_Ï_ÌÌ_È_ËÂÌÚ_7);}.cls-3{fill:#ffdf80;}.cls-4{fill:url(#Sfumatura_senza_nome_2);}
        </style>
        <linearGradient id="_ÂÁ_Ï_ÌÌ_È_ËÂÌÚ_7" x1="41.03" y1="-0.88" x2="41.03" y2="13.55"
                        gradientUnits="userSpaceOnUse">
            <stop offset="0" stop-color="#ffca2b"/>
            <stop offset="1" stop-color="#d15b24"/>
        </linearGradient>
        <linearGradient id="Sfumatura_senza_nome_2" x1="41.03" y1="38.22" x2="41.03" y2="16.34"
                        gradientUnits="userSpaceOnUse">
            <stop offset="0" stop-color="#cc6923"/>
            <stop offset="0.37" stop-color="#ffce3b"/>
            <stop offset="0.84" stop-color="#e0912c"/>
        </linearGradient>
    </defs>
    <g id="Livello_2" >
        <g id="Buttons">
            <path class="cls-1"
                  d="M79.27,3.23A1.8,1.8,0,0,0,77.7,1.55C48.9-.34,36.57-.37,3.91.75a2,2,0,0,0-1.44.87A14.15,14.15,0,0,0,1.36,3.86,8.36,8.36,0,0,0,.23,6.64C.15,7.74.1,8.86.06,10A212.27,212.27,0,0,0,.82,31.56a1.85,1.85,0,0,0,1.55,1.81c30.6,2.4,42.92,2,73.52-.35,1.54-.12,2.24-2.92,2.94-4.27a4.43,4.43,0,0,0,.68-1.59c.31-3.58.48-7.15.49-10.68A111.6,111.6,0,0,0,79.27,3.23Z"/>
            <path class="cls-2"
                  d="M80,16.48c0,3.53-.18,7.1-.49,10.68A1.82,1.82,0,0,1,78,28.91C47.35,31.3,35,31.66,4.43,29.26a1.85,1.85,0,0,1-1.55-1.8A212.57,212.57,0,0,1,2.12,5.89c0-1.13.08-2.26.17-3.36A1.79,1.79,0,0,1,3.91.75c32.66-1.12,45-1.09,73.79.8a1.8,1.8,0,0,1,1.57,1.68A111.6,111.6,0,0,1,80,16.48Z"/>
            <path class="cls-3"
                  d="M79.43,16.25c-.11.4-.22.81-.32,1.22a29.74,29.74,0,0,0-.7,3.88,16.35,16.35,0,0,0-.16,2c0,.2,0,.4,0,.6a1.84,1.84,0,0,1,0,.33c0,.11,0,.22-.08.34a3.57,3.57,0,0,0-.25.88c-1-2.11-.89-4.69-1-7.11s-.55-5.11-2.24-6.52a6.85,6.85,0,0,0-3.94-1.22C43.25,8.07,33.85,6.93,6.23,7.16q-.29.93-.54,1.89C5.44,10,5.22,11,5,12l-.27,1.47a8.27,8.27,0,0,0-.19,1.4,2.88,2.88,0,0,1,0,.42,5.63,5.63,0,0,1-.14.69c-.09.49-.17,1-.23,1.48s-.1,1-.13,1.51a12.18,12.18,0,0,0,0,1.48c-.07-.77-.14-1.54-.2-2.31-.19-2.09-.37-4.17-.55-6.26L3,8.72a3.39,3.39,0,0,0-.19-1.2,3.65,3.65,0,0,0-.18-.34,8.57,8.57,0,0,1-.54-1.29c0-1.13.08-2.26.17-3.36A1.79,1.79,0,0,1,3.91.75c32.66-1.12,45-1.09,73.79.8a1.8,1.8,0,0,1,1.57,1.68c.21,1.8.37,3.62.49,5.43,0,.69.08,1.37.11,2.05a15.12,15.12,0,0,1,0,1.9c0,.54.09,1,0,1.58a10.75,10.75,0,0,1-.44,1.8Z"/>
            <path class="cls-4"
                  d="M77.85,27c-9,.7-27.53,2.22-34.1,1.95l-8,0c-9.91,0-17.46-.55-31.21-1.63A193.32,193.32,0,0,1,3.87,4.15c0-.49,0-1,.08-1.45C18.67,2.21,25.79,2,35.21,2c6.17,0,10.64.19,11.15.2,5.39.12,10.63.29,15.75.52,5.28.21,10.43.49,15.5.82.27,2.23.45,4.53.57,6.87A119.68,119.68,0,0,1,77.85,27Z"/>
        </g>
    </g>
</svg>