<svg xmlns="http://www.w3.org/2000/svg" xmlns:xlink="http://www.w3.org/1999/xlink" viewBox="0 0 44.57 44.18">
    <defs>
        <style>
            .cls-1{isolation:isolate;}.cls-2{fill:url(#_ÂÁ_Ï_ÌÌ_È_ËÂÌÚ_3);}.cls-3{fill:url(#_ÂÁ_Ï_ÌÌ_È_ËÂÌÚ_3-2);}.cls-4{fill:url(#_ÂÁ_Ï_ÌÌ_È_ËÂÌÚ_3-3);}.cls-5{fill:#eb924d;}.cls-6{fill:url(#_ÂÁ_Ï_ÌÌ_È_ËÂÌÚ_3-4);}.cls-7{fill:url(#_ÂÁ_Ï_ÌÌ_È_ËÂÌÚ_3-5);}.cls-8{fill:url(#_ÂÁ_Ï_ÌÌ_È_ËÂÌÚ_3-6);}.cls-9{fill:url(#_ÂÁ_Ï_ÌÌ_È_ËÂÌÚ_3-7);}.cls-10{fill:url(#_ÂÁ_Ï_ÌÌ_È_ËÂÌÚ_3-8);}.cls-11{fill:url(#_ÂÁ_Ï_ÌÌ_È_ËÂÌÚ_3-9);}.cls-12{fill:url(#_ÂÁ_Ï_ÌÌ_È_ËÂÌÚ_7);}.cls-13{fill:#ffdf80;}.cls-14{fill:url(#_ÂÁ_Ï_ÌÌ_È_ËÂÌÚ_12);}.cls-15{fill:url(#_ÂÁ_Ï_ÌÌ_È_ËÂÌÚ_12-2);}.cls-16{mix-blend-mode:screen;fill:url(#_ÂÁ_Ï_ÌÌ_È_ËÂÌÚ_11);}.cls-17{fill:#a04623;}
        </style>
        <linearGradient id="_ÂÁ_Ï_ÌÌ_È_ËÂÌÚ_3" x1="128.8" y1="-1.17" x2="129.02" y2="20.27"
                        gradientTransform="matrix(-1, 0, 0, 1, 151.33, 0)" gradientUnits="userSpaceOnUse">
            <stop offset="0" stop-color="#cf5c2b"/>
            <stop offset="1" stop-color="#59173e"/>
        </linearGradient>
        <linearGradient id="_ÂÁ_Ï_ÌÌ_È_ËÂÌÚ_3-2" x1="144.86" y1="-8.21" x2="106.27" y2="63.37"
                        xlink:href="#_ÂÁ_Ï_ÌÌ_È_ËÂÌÚ_3"/>
        <linearGradient id="_ÂÁ_Ï_ÌÌ_È_ËÂÌÚ_3-3" x1="140.52" y1="-0.16" x2="101.93" y2="71.43"
                        xlink:href="#_ÂÁ_Ï_ÌÌ_È_ËÂÌÚ_3"/>
        <linearGradient id="_ÂÁ_Ï_ÌÌ_È_ËÂÌÚ_3-4" x1="145.58" y1="-1.34" x2="145.8" y2="20.09"
                        xlink:href="#_ÂÁ_Ï_ÌÌ_È_ËÂÌÚ_3"/>
        <linearGradient id="_ÂÁ_Ï_ÌÌ_È_ËÂÌÚ_3-5" x1="115.79" y1="-1.03" x2="116.01" y2="20.4"
                        xlink:href="#_ÂÁ_Ï_ÌÌ_È_ËÂÌÚ_3"/>
        <linearGradient id="_ÂÁ_Ï_ÌÌ_È_ËÂÌÚ_3-6" x1="146.59" y1="-1.35" x2="146.81" y2="20.08"
                        xlink:href="#_ÂÁ_Ï_ÌÌ_È_ËÂÌÚ_3"/>
        <linearGradient id="_ÂÁ_Ï_ÌÌ_È_ËÂÌÚ_3-7" x1="127.35" y1="-6.66" x2="121.5" y2="3.51"
                        xlink:href="#_ÂÁ_Ï_ÌÌ_È_ËÂÌÚ_3"/>
        <linearGradient id="_ÂÁ_Ï_ÌÌ_È_ËÂÌÚ_3-8" x1="114.59" y1="4.45" x2="110.47" y2="19.99"
                        xlink:href="#_ÂÁ_Ï_ÌÌ_È_ËÂÌÚ_3"/>
        <linearGradient id="_ÂÁ_Ï_ÌÌ_È_ËÂÌÚ_3-9" x1="130.57" y1="63.02" x2="129.27" y2="21.96"
                        xlink:href="#_ÂÁ_Ï_ÌÌ_È_ËÂÌÚ_3"/>
        <linearGradient id="_ÂÁ_Ï_ÌÌ_È_ËÂÌÚ_7" x1="131.29" y1="3.92" x2="128.86" y2="29.83"
                        gradientTransform="matrix(-1, 0, 0, 1, 151.33, 0)" gradientUnits="userSpaceOnUse">
            <stop offset="0" stop-color="#ffca2b"/>
            <stop offset="1" stop-color="#d15b24"/>
        </linearGradient>
        <linearGradient id="_ÂÁ_Ï_ÌÌ_È_ËÂÌÚ_12" x1="128.73" y1="38.96" x2="129.62" y2="21.72"
                        gradientTransform="matrix(-1, 0, 0, 1, 151.33, 0)" gradientUnits="userSpaceOnUse">
            <stop offset="0" stop-color="#ffce3b"/>
            <stop offset="1" stop-color="#cc6923"/>
        </linearGradient>
        <linearGradient id="_ÂÁ_Ï_ÌÌ_È_ËÂÌÚ_12-2" x1="129.27" y1="28.88" x2="130.16" y2="8.97"
                        xlink:href="#_ÂÁ_Ï_ÌÌ_È_ËÂÌÚ_12"/>
        <linearGradient id="_ÂÁ_Ï_ÌÌ_È_ËÂÌÚ_11" x1="145.2" y1="4.09" x2="116.09" y2="32.86"
                        gradientTransform="matrix(-1, 0, 0, 1, 151.33, 0)" gradientUnits="userSpaceOnUse">
            <stop offset="0" stop-color="#f2de6d"/>
            <stop offset="1"/>
        </linearGradient>
    </defs>
    <g class="cls-1">
        <g id="Livello_2" >
            <g id="Livello_2-2" >
                <path class="cls-2"
                      d="M44.29,20.85a13.46,13.46,0,0,1,.26,3.58,6,6,0,0,1-.8,3.27,3.81,3.81,0,0,1-1,1c-.25.18-.55.27-.8.43-.07,0-.13.08-.12.16s.29.31.39.39a1.27,1.27,0,0,1,.48.62,1.93,1.93,0,0,1-.29,1.34,26.67,26.67,0,0,1-1.54,2.71c-2.3,3.49-4.94,7.08-9,8.66a22.35,22.35,0,0,1-7.18,1.1,75.67,75.67,0,0,1-7.68,0c-2.29-.13-4.81-.31-6.76-1.5A11.84,11.84,0,0,1,6.79,39,48.27,48.27,0,0,1,3,32.1a2,2,0,0,1-.25-.7,1.37,1.37,0,0,1,0-.35A1.21,1.21,0,0,1,3,30.42a2.35,2.35,0,0,1-1-1,4.62,4.62,0,0,1-.29-.73,2.36,2.36,0,0,0-.24-.59A4.61,4.61,0,0,1,1,26.73a28.27,28.27,0,0,1-.74-3.28c0-.16-.05-.32-.08-.48A10.85,10.85,0,0,1,0,20.84c0-.07,0-.14,0-.2a20.27,20.27,0,0,0,2.1,7.44,48.56,48.56,0,0,0,4.06,7.47A11.77,11.77,0,0,0,9.66,39.1c1.95,1.2,4.45,1.38,6.72,1.51a71.92,71.92,0,0,0,7.63,0,21.83,21.83,0,0,0,7.14-1.09,15.66,15.66,0,0,0,6.09-4.69A41.07,41.07,0,0,0,41.61,28,15.27,15.27,0,0,0,43.3,16.91,29.12,29.12,0,0,1,44.29,20.85Z"/>
                <path class="cls-3"
                      d="M0,20.44v.2a14.53,14.53,0,0,0,.67,3.74,34.67,34.67,0,0,0,1.43,3.7c.34.79.71,1.56,1.09,2.33l.07.14a50.77,50.77,0,0,0,2.9,5,14.25,14.25,0,0,0,1.28,1.67,10.18,10.18,0,0,0,2.2,1.88c1.95,1.2,4.45,1.38,6.72,1.51a71.92,71.92,0,0,0,7.63,0,21.79,21.79,0,0,0,7.14-1.09,15.59,15.59,0,0,0,6.09-4.69s0,0,0,0a32.82,32.82,0,0,0,3.13-4.64c.26-.44.51-.89.75-1.33.16-.29.32-.58.47-.87s.36-.71.53-1.07a16.33,16.33,0,0,0,1.49-5.24,13.53,13.53,0,0,0,0-3.05,14.76,14.76,0,0,0-1-3.69c-.07-.18-.14-.37-.22-.55-.24-.58-.49-1.17-.75-1.74l-.44-1c-.31-.65-.63-1.29-1-1.93-.23-.42-.47-.83-.72-1.24s-.64-1-1-1.55l-.06-.1L38,6.11c-.15-.2-.29-.41-.45-.6a.76.76,0,0,0-.08-.11,10.83,10.83,0,0,0-5.14-4C27.54-.17,22.61-.15,17.48.18a10.89,10.89,0,0,0-6,1.81,41.33,41.33,0,0,0-8.71,9.36l-.08.11A16.13,16.13,0,0,0,.62,15.94v0a8.75,8.75,0,0,0-.23.88c0,.23-.1.45-.14.69v0h0A13.62,13.62,0,0,0,0,19.48C0,19.81,0,20.13,0,20.44Z"/>
                <path class="cls-4"
                      d="M0,20.44v.2a14.53,14.53,0,0,0,.67,3.74l4-.24q7.93-.51,15.89-.93c7.76-.41,15.44-.65,23.09-1.55a13.53,13.53,0,0,0,0-3.05c-7.66-.56-15.31-.35-23.08-.19l-.31,0,1.33-.21c6.76-1,14.21-1.74,20.87-3.86-.24-.58-.49-1.17-.75-1.74l-.44-1c-.31-.65-.63-1.29-1-1.93-.23-.42-.47-.83-.72-1.24-6.44-.19-13.09.74-19.26,1.27-5.1.44-10.23.78-15.31,1.31-.74.07-1.47.16-2.2.26l-.08.11A16.13,16.13,0,0,0,.62,15.94v0a8.75,8.75,0,0,0-.23.88c0,.23-.1.45-.14.69v0h0A13.62,13.62,0,0,0,0,19.48C0,19.81,0,20.13,0,20.44Zm3.34,10.1c2.25-.24,4.46-.46,6.72-.51q6.71-.2,13.41-.56C28,29.22,32.38,29,36.88,29c1.31,0,2.79-.11,4.26-.14-.24.44-.49.89-.75,1.33a32.82,32.82,0,0,1-3.13,4.64,121.17,121.17,0,0,1-13.21,1.58q-6.71.48-13.41.78c-1.08,0-2.13.06-3.18,0a14.25,14.25,0,0,1-1.28-1.67,50.77,50.77,0,0,1-2.9-5Z"/>
                <path class="cls-5"
                      d="M2.69,11.46A16.13,16.13,0,0,0,.62,15.94l.33-.6c.37-.69.76-1.37,1.17-2A37.44,37.44,0,0,1,4.71,9.67a6,6,0,0,0,1.1-1.55,4.09,4.09,0,0,1,1-1.29C8.05,5.55,9.53,4.54,10.9,3.39a13,13,0,0,1,2.49-1.83A7.61,7.61,0,0,1,16.32.92c.37,0,.74,0,1.11,0a1,1,0,0,0,.43-.05,4.5,4.5,0,0,1,.51-.08c.46-.05.93-.09,1.39-.12a36.77,36.77,0,0,1,11.59,1,9.2,9.2,0,0,1,2,.7l.27.16A15.51,15.51,0,0,1,35.3,3.75c.26.22.53.44.82.64a2,2,0,0,0,.35.19,1.25,1.25,0,0,1,.44.5,9.56,9.56,0,0,1,.62,1.24.6.6,0,0,1,.08.2c0,.22.09.45.13.68A1.63,1.63,0,0,0,38.55,7l-.06-.1L38,6.11c-.15-.2-.29-.41-.45-.6a.76.76,0,0,0-.08-.11,10.83,10.83,0,0,0-5.14-4C27.54-.17,22.61-.15,17.48.18a10.89,10.89,0,0,0-6,1.81A41.11,41.11,0,0,0,2.69,11.46Z"/>
                <path class="cls-5"
                      d="M.25,17.54a1.6,1.6,0,0,0,0,.21,3.57,3.57,0,0,0,.09-.87v0C.34,17.08.29,17.3.25,17.54Z"/>
                <path class="cls-5"
                      d="M3.13,19.4a3.42,3.42,0,0,0-1.59.26,3.24,3.24,0,0,0-1.41,2.2,8.93,8.93,0,0,1,0-2.31,1,1,0,0,1,.12-.38.83.83,0,0,1,.37-.27,6.67,6.67,0,0,1,3.76,0c.77.13,1.55.22,2.34.28s1.57.09,2.36.08a.93.93,0,0,1,.47,0c.19.1,0,.09-.14.09H8.24l-2.4,0-2.41,0Z"/>
                <path class="cls-6"
                      d="M11.05,19.31l-8.47-.17A4.25,4.25,0,0,0,1,19.32,1.35,1.35,0,0,0,0,20.5v-.05c0-.32,0-.64,0-1a13.62,13.62,0,0,1,.22-1.91.91.91,0,0,0,.13.26c.23.27.77.29,1.09.35l.86.11C5.24,18.63,8.15,19,11.05,19.31Z"/>
                <path class="cls-7"
                      d="M40.7,29.36c-.1.27-.2.54-.31.81.43-.74.84-1.48,1.22-2.2.19-.36.36-.71.53-1.07L42,27a4.91,4.91,0,0,1-.85.58,9.21,9.21,0,0,1-3.31.86,14.07,14.07,0,0,1-1.94.23q-3.78.39-7.57.72Q34.51,29.27,40.7,29.36Z"/>
                <path class="cls-8"
                      d="M3,28.91a11.22,11.22,0,0,0,4,1.48c-1.24,0-2.47,0-3.71,0a.85.85,0,0,1,.13.72l-.74-1.69c-.24-.54-.43-1.13-.73-1.66,0,.19.32.45.46.59A5.25,5.25,0,0,0,3,28.91Z"/>
                <path class="cls-9"
                      d="M25.7,8.23a41.64,41.64,0,0,0,10.87.09,3.05,3.05,0,0,1,2,.12l.92.62a4.35,4.35,0,0,1,.79.69c-.54-1-1.13-1.95-1.77-2.89L38,6.11a.71.71,0,0,1,0,.14,1.29,1.29,0,0,1-.66,1,3.25,3.25,0,0,1-1.15.38C32.78,8.28,29.15,7.94,25.7,8.23Z"/>
                <path class="cls-10"
                      d="M43.69,19a.85.85,0,0,1-.38,1,2.41,2.41,0,0,1-1.09.31,19.79,19.79,0,0,1-4.35.17c1.64.07,3.45.24,5.1.31a.87.87,0,0,1,.32.06.67.67,0,0,1,.27.6,3.19,3.19,0,0,0,0,.69A9.39,9.39,0,0,0,43.69,19Z"/>
                <path class="cls-11"
                      d="M6.71,18.7a19.6,19.6,0,0,1,1.5-4.64,18.91,18.91,0,0,1,2.38-3.92A11.37,11.37,0,0,1,14,7.73c.52-.29,1-.66,1.49-.89,10.7-4.77,23.27,4.48,22.19,15.69a13,13,0,0,1-1.75,5.36,16.74,16.74,0,0,1-12.92,8,18.17,18.17,0,0,1-5.93-.36,14,14,0,0,1-9-6.85A15.44,15.44,0,0,1,6.71,18.7Zm4.8,8.44a10.51,10.51,0,0,0,6.8,5.15,13.87,13.87,0,0,0,4.45.27,12.58,12.58,0,0,0,9.71-6,9.84,9.84,0,0,0,1.32-4,11.64,11.64,0,0,0,0-1.32,3.88,3.88,0,0,1,0-.59,1,1,0,0,1,.06-.29,2,2,0,0,0,0-.92,1.25,1.25,0,0,0-.51-.8,1.68,1.68,0,0,0-.73-.19,11.47,11.47,0,0,0-1.76-.07L33.11,18a6.7,6.7,0,0,0-.28-1c-.12-.31-.29-.59-.44-.89a8.45,8.45,0,0,0-.88-1.35,13.18,13.18,0,0,0-2.28-2.32,13,13,0,0,0-2.79-1.67,12.29,12.29,0,0,0-3.14-.91,11.13,11.13,0,0,0-3.31,0,11,11,0,0,0-2.87.84c-.4.18-.74.46-1.12.67a8.44,8.44,0,0,0-2.55,1.81,14.34,14.34,0,0,0-1.79,3,15,15,0,0,0-1.13,3.48,9.44,9.44,0,0,0,0,3.89c1.52.08,3,.1,4.57.06L11,24.08c-.44,0-.2.44-.11.71a2.3,2.3,0,0,1,.12.74,1.86,1.86,0,0,0,.1.66,2.86,2.86,0,0,0,.2.48c0,.08.07.16.12.24S11.51,27.08,11.51,27.14Z"/>
                <path class="cls-5"
                      d="M36,27.51c.3-.74.61-1.47.91-2.2a9.32,9.32,0,0,0,.45-1.25,10.71,10.71,0,0,0,.21-1.13c0-.37.11-.75.16-1.12,0,.36,0,.74-.1,1.1s-.09.75-.16,1.12a18,18,0,0,1-.52,2.17q-.15.5-.33,1a3.24,3.24,0,0,0-.13.41,2.58,2.58,0,0,0,0,.29,2.86,2.86,0,0,1-.32.84l-.81-.05c.05,0,.2-.21.23-.25a2.23,2.23,0,0,0,.2-.3A6.62,6.62,0,0,0,36,27.51Z"/>
                <path class="cls-5"
                      d="M30.87,9a26.46,26.46,0,0,1-4.36-.09,9.53,9.53,0,0,1,1.07-.17c.36,0,.72,0,1.08-.06h2.19c.36,0,.72,0,1.09,0a.57.57,0,0,1,.13,0,.34.34,0,0,1,0,.2c0,.07-.13.06-.19.06-.22,0-.44,0-.66,0S31,8.94,30.87,9Z"/>
                <path class="cls-12"
                      d="M8.46,23a9.48,9.48,0,0,0,.1,1.61,10.05,10.05,0,0,0,1.28,3.75,0,0,0,0,0,0,0c2.8,4.81,9.35,7.1,15,5.64A13.61,13.61,0,0,0,33,27.52c.14-.23.27-.48.39-.72A14,14,0,0,0,35,21.06a11.52,11.52,0,0,0-.11-2.27c0-.21-.06-.41-.09-.61a11.19,11.19,0,0,0-.49-1.74,13.59,13.59,0,0,0-4.63-5.93c-.65-.49-1.32-.95-2-1.37-4-2.39-8.87-1.74-12.62.77a14.15,14.15,0,0,0-5.29,6.56c-.1.24-.19.49-.28.74l-.06.16L9.2,18c-.08.26-.15.53-.21.8,0,.1-.05.2-.07.3s-.05.21-.07.31,0,.22-.07.33,0,.31-.08.47v0l-.06.39a.15.15,0,0,1,0,.07l-.06.51s0,.06,0,.08C8.5,21.81,8.47,22.38,8.46,23Z"/>
                <path class="cls-13"
                      d="M11.66,27.67c.43.58.89,1.13,1.37,1.66l.12.12a6,6,0,0,1-.74-1.18A12.89,12.89,0,0,1,11.77,27a7,7,0,0,1-.48-1.32,5,5,0,0,1,0-.94,9.23,9.23,0,0,0-.19-1,4,4,0,0,1,0-.69,14.71,14.71,0,0,1,.1-1.49,13.24,13.24,0,0,1,.68-2.91l.06-.16a9.84,9.84,0,0,1,6.63-6.13,10.68,10.68,0,0,1,6.75.92c.26.11.52.24.77.37A22.23,22.23,0,0,1,29,15.41c.9.66,1.73,1.44,2.66,2.06a1.8,1.8,0,0,0,1.46.35,1.73,1.73,0,0,0,1-1c.07-.13.13-.26.19-.4a13.59,13.59,0,0,0-4.63-5.93c-.65-.49-1.32-.95-2-1.37-4-2.39-8.87-1.74-12.62.77a14,14,0,0,0-2.4,2,13.59,13.59,0,0,0-1.56,2,16.79,16.79,0,0,0-2.56,7.48,3.68,3.68,0,0,0,.34,2.13,2.17,2.17,0,0,0,.56.68,1,1,0,0,1,.18.17c.62.88,1.09,1.86,1.7,2.75Z"/>
                <path class="cls-14"
                      d="M10.59,22.92a8.65,8.65,0,0,0,.08,1.36,8.51,8.51,0,0,0,1.07,3.16v0c2.17,3.73,7,5.66,11.39,5h0a8.7,8.7,0,0,0,1.13-.23,11.21,11.21,0,0,0,6.18-4.32,10.24,10.24,0,0,0,.73-1.12c.12-.2.23-.4.33-.61a11.78,11.78,0,0,0,1.29-4.84,11.16,11.16,0,0,0-.09-1.91c0-.18,0-.35-.09-.52a10.73,10.73,0,0,0-4.29-6.46,18.77,18.77,0,0,0-1.69-1.16A8.39,8.39,0,0,0,24,10.21a10.46,10.46,0,0,0-7.88,1.72,12,12,0,0,0-4.44,5.53c-.08.21-.16.41-.23.63,0,0,0,.08-.05.13l-.15.49a3.39,3.39,0,0,0-.11.43s0,0,0,0a1.66,1.66,0,0,0-.06.21l-.06.26-.06.26c0,.09,0,.18-.05.28s0,.26-.07.39v0c0,.11,0,.21-.06.33V21c0,.14,0,.29-.05.43s0,0,0,.07l-.06.71C10.6,22.45,10.59,22.69,10.59,22.92Z"/>
                <path class="cls-15"
                      d="M10.61,22.21c3.61,2.57,9.46,3.66,14.6,2.7a15.94,15.94,0,0,0,7.63-3.58,11.16,11.16,0,0,0-.09-1.91c0-.18,0-.35-.09-.52a10.73,10.73,0,0,0-4.29-6.46,18.77,18.77,0,0,0-1.69-1.16,9.85,9.85,0,0,0-10.6.65,12,12,0,0,0-4.44,5.53c-.08.21-.16.41-.23.63,0,0,0,.08-.05.13l-.15.49c-.07.22-.13.45-.18.67l-.06.26-.06.26c0,.09,0,.18-.05.28s0,.26-.07.39v0c0,.11,0,.21-.06.33V21c0,.14,0,.29-.05.43s0,0,0,.07Z"/>
                <path class="cls-16"
                      d="M11.1,19.14a4.42,4.42,0,0,0,.28-.8,2.1,2.1,0,0,1,.48-1,.91.91,0,0,1,1-.25,1.35,1.35,0,0,1,.49.54c.62,1,1.13,2.09,1.74,3.11A30.64,30.64,0,0,0,23.66,30a2.77,2.77,0,0,1,.88.82,1,1,0,0,1,.13.77c-.09.39-.57.59-.9.71l-.59.19a8.7,8.7,0,0,0,1.13-.23,11.21,11.21,0,0,0,6.18-4.32,1.58,1.58,0,0,1-.89.08,3.15,3.15,0,0,1-1.4-.92,36.76,36.76,0,0,1-7-8.71,10.13,10.13,0,0,1-1.19-3.21,4.66,4.66,0,0,1,.64-3.31,1.79,1.79,0,0,1,.57-.59c.08,0,.17-.06.26-.11.28-.14.53-.32.82-.45A5.69,5.69,0,0,1,24,10.21a10.46,10.46,0,0,0-7.88,1.72,12,12,0,0,0-4.44,5.53c-.08.21-.16.41-.23.63,0,0,0,.08-.05.13l-.15.49A3.39,3.39,0,0,0,11.1,19.14Z"/>
                <path class="cls-13"
                      d="M26.35,13.64a8.54,8.54,0,0,0-2.18,1.54c-.61.75-2.74,3.4-3.38,3.93S16,22.74,15.31,23s-1.14.57-1.27,1.46a5.1,5.1,0,0,0,1.36,3.87c1.16,1.09,2.3,1.74,3.3,1.35a2,2,0,0,0,1.28-1c.22-.32,1.23-2.37,1.53-2.68s2.52-3.39,3-4a19.35,19.35,0,0,1,2.73-3.12c.93-.75,1.77-.88,2-1.86a2.39,2.39,0,0,0-.63-2.23A2.4,2.4,0,0,0,26.35,13.64Z"/>
                <path class="cls-17"
                      d="M23.93,21.08c-.23.2-.5.35-1.2,0A1.21,1.21,0,0,1,22,19.91c-.42-.2-.81-.36-1.12-.48-1.27,1-4.47,3.32-5,3.58s-1.14.58-1.27,1.47a5,5,0,0,0,1.36,3.86c1.16,1.09,2.29,1.74,3.3,1.35a2,2,0,0,0,1.27-1,5.36,5.36,0,0,0,.29-.5h0a3.2,3.2,0,0,0-.42-1.63,6.75,6.75,0,0,0-1-1.51,1.81,1.81,0,0,0-.66-.48,3.4,3.4,0,0,0-.84-.25,2.94,2.94,0,0,0-1.68.11c-.38.16-.28.79-.05,1.33a5.19,5.19,0,0,0,.42.81,2,2,0,0,0,.56.61,4.16,4.16,0,0,0,.76.46,2.31,2.31,0,0,0,.79.25.85.85,0,0,0,.65-.26,2.17,2.17,0,0,0,.44-.74l.23,0a1.78,1.78,0,0,1-.3,1,1.26,1.26,0,0,1-1,.57,1.48,1.48,0,0,1-.57-.09,3.41,3.41,0,0,1-.48-.18,4.31,4.31,0,0,1-.91-.51,3.11,3.11,0,0,1-.73-.8,7,7,0,0,1-.45-.91,2.74,2.74,0,0,1-.24-1,1.36,1.36,0,0,1,.12-.61,1.21,1.21,0,0,1,.47-.48,3.58,3.58,0,0,1,2.1-.21,4.52,4.52,0,0,1,1,.28,2.49,2.49,0,0,1,.9.63A7.62,7.62,0,0,1,21,26.19a6.27,6.27,0,0,1,.37.88A7.47,7.47,0,0,1,22,26c.29-.3,2.33-3.12,2.9-3.93A5.08,5.08,0,0,0,23.93,21.08Z"/>
                <path class="cls-17"
                      d="M29.08,14.73a2.42,2.42,0,0,0-2.21-1.12,8.64,8.64,0,0,0-2.18,1.54c-.56.68-2.35,2.92-3.16,3.73.24.1.49.2.75.33h0c.08-.25.53-.31.94-.24a2.62,2.62,0,0,1,1.19.39c.2.16.15.72,0,1.13a5.82,5.82,0,0,1,1,.91,17.62,17.62,0,0,1,2.34-2.58c.93-.75,1.77-.87,2-1.86A2.37,2.37,0,0,0,29.08,14.73Z"/>
            </g>
        </g>
    </g>
</svg>