<svg xmlns="http://www.w3.org/2000/svg" xmlns:xlink="http://www.w3.org/1999/xlink" viewBox="0 0 152.94 49.51">
    <defs>
        <style>
            .cls-1{fill:url(#_ÂÁ_Ï_ÌÌ_È_ËÂÌÚ_3);}.cls-2{fill:url(#_ÂÁ_Ï_ÌÌ_È_ËÂÌÚ_3-2);}.cls-3{fill:#eb924d;}.cls-4{fill:url(#_ÂÁ_Ï_ÌÌ_È_ËÂÌÚ_3-3);}.cls-5{fill:url(#_ÂÁ_Ï_ÌÌ_È_ËÂÌÚ_3-4);}.cls-6{fill:url(#_ÂÁ_Ï_ÌÌ_È_ËÂÌÚ_3-5);}.cls-7{fill:url(#_ÂÁ_Ï_ÌÌ_È_ËÂÌÚ_3-6);}.cls-8{fill:url(#_ÂÁ_Ï_ÌÌ_È_ËÂÌÚ_3-7);}.cls-9{fill:url(#_ÂÁ_Ï_ÌÌ_È_ËÂÌÚ_7);}.cls-10{fill:#ffdf80;}.cls-11{fill:url(#_ÂÁ_Ï_ÌÌ_È_ËÂÌÚ_12);}
        </style>
        <linearGradient id="_ÂÁ_Ï_ÌÌ_È_ËÂÌÚ_3" x1="86.91" y1="-39.55" x2="82.28" y2="-11.1"
                        gradientUnits="userSpaceOnUse">
            <stop offset="0" stop-color="#cf5c2b"/>
            <stop offset="1" stop-color="#59173e"/>
        </linearGradient>
        <linearGradient id="_ÂÁ_Ï_ÌÌ_È_ËÂÌÚ_3-2" x1="83.81" y1="-33.97" x2="63.13" y2="154.14"
                        xlink:href="#_ÂÁ_Ï_ÌÌ_È_ËÂÌÚ_3"/>
        <linearGradient id="_ÂÁ_Ï_ÌÌ_È_ËÂÌÚ_3-3" x1="77.57" y1="69.75" x2="77.57" y2="33.2"
                        xlink:href="#_ÂÁ_Ï_ÌÌ_È_ËÂÌÚ_3"/>
        <linearGradient id="_ÂÁ_Ï_ÌÌ_È_ËÂÌÚ_3-4" x1="29.81" y1="11.54" x2="22.43" y2="31.29"
                        xlink:href="#_ÂÁ_Ï_ÌÌ_È_ËÂÌÚ_3"/>
        <linearGradient id="_ÂÁ_Ï_ÌÌ_È_ËÂÌÚ_3-5" x1="54.59" y1="-44.84" x2="-9.16" y2="103.08"
                        xlink:href="#_ÂÁ_Ï_ÌÌ_È_ËÂÌÚ_3"/>
        <linearGradient id="_ÂÁ_Ï_ÌÌ_È_ËÂÌÚ_3-6" x1="104.6" y1="6.67" x2="99.99" y2="18.98"
                        xlink:href="#_ÂÁ_Ï_ÌÌ_È_ËÂÌÚ_3"/>
        <linearGradient id="_ÂÁ_Ï_ÌÌ_È_ËÂÌÚ_3-7" x1="120.05" y1="-28.49" x2="80.3" y2="63.75"
                        xlink:href="#_ÂÁ_Ï_ÌÌ_È_ËÂÌÚ_3"/>
        <linearGradient id="_ÂÁ_Ï_ÌÌ_È_ËÂÌÚ_7" x1="77.59" y1="6.16" x2="77.59" y2="23.36"
                        gradientUnits="userSpaceOnUse">
            <stop offset="0" stop-color="#ffca2b"/>
            <stop offset="1" stop-color="#d15b24"/>
        </linearGradient>
        <linearGradient id="_ÂÁ_Ï_ÌÌ_È_ËÂÌÚ_12" x1="77.59" y1="51.33" x2="77.59" y2="21.2"
                        gradientUnits="userSpaceOnUse">
            <stop offset="0" stop-color="#ffce3b"/>
            <stop offset="1" stop-color="#cc6923"/>
        </linearGradient>
    </defs>
    <g id="Livello_2" >
        <g id="Livello_3">
            <path class="cls-1"
                  d="M152.84,22.47a11.93,11.93,0,0,0-.74-2l0-.1c-.35-.81-.75-1.6-1.17-2.37-.21-.39-.42-.78-.64-1.16a1,1,0,0,0-.15-.2,1,1,0,0,1-.13-.23,4.79,4.79,0,0,0-.34-.53,9.2,9.2,0,0,0-1.36-1.62,4.83,4.83,0,0,0-.84-.58,3.38,3.38,0,0,0-.52-.22c-.17-.05-.34-.07-.51-.11a1.15,1.15,0,0,1,0-.26v-.28a3.6,3.6,0,0,0-.08-.56,5.06,5.06,0,0,0-.41-1.06,7.9,7.9,0,0,0-.63-1.09,6.15,6.15,0,0,0-.37-.52c-.09-.13-.12-.29-.21-.42l-.22-.36-.13-.23a1.51,1.51,0,0,0-.22-.28l-.49-.57a30.61,30.61,0,0,0-3.93-4.2,12.22,12.22,0,0,0-2.06-1.43c-.21-.12-.42-.22-.63-.32A12.48,12.48,0,0,0,132.11,1c-1.83,0-19.65-.56-21.47-.59L105.16.3,99.68.23,94.19.17,88.7.11l-5.5,0L77.7,0,72.2,0,66.69,0H50.12l-5.53,0-5.54,0L33.51.13,28,.18,22.41.24c-4.31,0,8.42.09,4.06.16-3.41.06-7.33,0-10.19,2.27a28.77,28.77,0,0,0-4.15,4.18C10.7,8.51,9.32,10.22,8,12S5.59,15.29,4.52,17c-1,1.58-2,3.1-3,4.67A7.71,7.71,0,0,0,0,26.14a10.11,10.11,0,0,0,1.21,3.27c.24.51.55,1,.83,1.48A10.19,10.19,0,0,0,3,32.23a2.48,2.48,0,0,0,.7.63c.54.27,1.24.14,1.73.48a.86.86,0,0,0-.64.76,2.18,2.18,0,0,0,.2,1,17,17,0,0,0,1.62,3.29,28,28,0,0,0,2.24,2.84c.92,1.1,1.87,2.18,2.87,3.21a21.4,21.4,0,0,0,3.1,2.91c2,1.38,4.22,1.25,6.51,1.3,7.28.18-2.42.52,4.86.52q13.88.25,27.74.3t27.66-.13q13.8-.18,27.6-.57c2.6-.07,21.29.38,23.9,0a7.23,7.23,0,0,0,3.39-1.13,24.06,24.06,0,0,0,4.18-4.37c.82-1,1.63-1.94,2.43-2.92a7.62,7.62,0,0,0,1.79-2.8,1.33,1.33,0,0,1,.17-.47,1.48,1.48,0,0,1,.44-.34A9.61,9.61,0,0,0,148,33.59c1.24-2,2.37-4.05,3.5-6.1C152.36,26,153.23,24.25,152.84,22.47Z"/>
            <path class="cls-2"
                  d="M151.52,27.49c-.22.39-.43.79-.66,1.17-.08.17-.17.32-.26.48a39.8,39.8,0,0,1-2.16,3.45c-.42.6-.85,1.18-1.31,1.75a4.27,4.27,0,0,1-1.43,1.34l-.34.12a6.31,6.31,0,0,1-1.14.19l-3.31.31h-.08l-1.79.17a21.35,21.35,0,0,1,2.4,0,21.65,21.65,0,0,1,3.4.52,6.63,6.63,0,0,1-1.17,2c-1.56,1.82-3,4-5,5.33a7.26,7.26,0,0,1-3.39,1.12c-2.62.36-21.31-.1-23.9,0q-13.8.39-27.6.56-6.72.09-13.42.12l-3.32,0H56.06q-13.86-.06-27.74-.31c-2.26,0-4.53,0-6.79-.08-5-.11,7-.31,1.93-.43-2.28,0-4.55.07-6.51-1.31a21.4,21.4,0,0,1-3.1-2.91l-.3-.31c-.86-.92-1.7-1.86-2.5-2.83-.67-.8-1.32-1.6-2-2.38a8.28,8.28,0,0,1-.76-1.1,5.35,5.35,0,0,1-.79-1.63.41.41,0,0,1,0-.31.37.37,0,0,1,.24-.1c1.64-.29,3.34-.13,4.95-.45a6.84,6.84,0,0,0,1-.26l-4.46,0a10.61,10.61,0,0,1-1.12-.05l-.42-.07a3.61,3.61,0,0,1-1.74-1,3.5,3.5,0,0,1-.61-.82C4.65,28.52,4,27.29,3.39,26a10.11,10.11,0,0,1-1.21-3.27v-.17a5.46,5.46,0,0,1,.45-2.21A26,26,0,0,1,4.52,17C5.58,15.29,6.78,13.61,8,12s2.68-3.46,4.12-5.11c.26-.31.51-.6.77-.89a23.47,23.47,0,0,1,3.38-3.29C19.14.44,23.06.46,26.46.41,30.84.33,18.1.29,22.41.24L28,.18,33.51.12l5.54,0,5.54,0,5.53,0H72.2l5.5,0,5.5,0,5.5,0,5.49,0,5.49.07,5.48.07,5.47.08c1.83,0,19.66.56,21.47.59a12.29,12.29,0,0,1,5,.84c.21.1.42.2.63.32a17.4,17.4,0,0,1,4.45,3.8c.3.34.61.68.9,1a16.73,16.73,0,0,1,1.45,1.84c.52.78,1,1.57,1.46,2.39.12.22.24.51.08.7a.59.59,0,0,1-.3.16h0a20.34,20.34,0,0,1-4.85.68c.73.13,1.46.23,2.2.3,1,.11,1.94.17,2.91.19a4.23,4.23,0,0,1,2.06.36l0,0a5.76,5.76,0,0,1,1.55,2.14c.46.81.91,1.63,1.42,2.42a11.05,11.05,0,0,1,.91,1.9c.07.15.13.3.19.44a11.89,11.89,0,0,1,.73,2C153.23,24.25,152.36,26,151.52,27.49Z"/>
            <path class="cls-3"
                  d="M90.4,5.13a3.41,3.41,0,0,1-1,1,3.35,3.35,0,0,1-2,.22A12.6,12.6,0,0,1,86,6.17a11.17,11.17,0,0,1,2.4-.57A1.6,1.6,0,0,0,89,5.46a1.86,1.86,0,0,0,.44-.4c.35-.42.72-.82,1.1-1.21s.77-.78,1.17-1.15L92,2.39l.18-.15a.53.53,0,0,1,.14-.12c-.22.41-.49.8-.73,1.19s-.51.79-.78,1.18C90.71,4.71,90.56,4.92,90.4,5.13Z"/>
            <path class="cls-3"
                  d="M12.33,14.74a.52.52,0,0,1,.2.09.56.56,0,0,1,.14.49l0,1c.42-.72.82-1.44,1.22-2.17a4.3,4.3,0,0,0-2.17-.33H10s-.19,0-.22,0,.5.29.56.31l.94.28Z"/>
            <path class="cls-3"
                  d="M16.51,30.45A3.6,3.6,0,0,1,16,28.62a.66.66,0,0,1,.09-.31.74.74,0,0,1,.45-.2q3.55-.63,7.16-1a3.79,3.79,0,0,0-1.5-.15,46.35,46.35,0,0,1-4.86,0,8.36,8.36,0,0,0-2.78.13,22.41,22.41,0,0,1,.92,2.13A4,4,0,0,0,16.81,31,2.39,2.39,0,0,0,16.51,30.45Z"/>
            <path class="cls-3"
                  d="M140.12,21.45a4.78,4.78,0,0,1,1.59.41,2.12,2.12,0,0,1,1.1,1.18,3.25,3.25,0,0,1,0,1.58,3.85,3.85,0,0,0,.86-1.54.67.67,0,0,0,0-.31.94.94,0,0,0-.1-.23c-.26-.44-.52-.87-.79-1.29a1.3,1.3,0,0,0-.26-.31,1.15,1.15,0,0,0-.57-.2l-.18,0a12.91,12.91,0,0,0-2.06-.08,1.43,1.43,0,0,1-.36,0,1,1,0,0,0-.39,0c-.34.05-.68.1-1,.13s-.68.06-1,.07l-.52,0h-.5l.82.15,1,.2.51.11a.49.49,0,0,0,.17,0,.94.94,0,0,1,.29,0q.62,0,1.23.09Z"/>
            <path class="cls-4"
                  d="M146.66,22.79a21.1,21.1,0,0,0-1.44-2.93c-.72-1.2-1.53-2.43-2.41-3.66-2.18-3-4.64-7.08-8-8.92l-.17-.08A7.64,7.64,0,0,0,132,6.86c-1.83,0-19.65-.57-21.47-.59l-5.46-.08-5.47-.07L98,6.1c-1.24,0-2.48,0-3.71-.08-.55,0-1.09,0-1.63,0a14.92,14.92,0,0,1-2-.25c.62-1.31,1.23-2.62,1.85-3.94a22.74,22.74,0,0,0-1.88,2.3,6.63,6.63,0,0,1-.91,1.13,3.21,3.21,0,0,1-.89.67,2.93,2.93,0,0,1-1,.12c-1.37,0-2.76.09-4.12,0-2.5-.2-5-.1-7.54-.11q-10.27-.06-20.55,0H50.14L39.09,6,33.56,6,28,6.07c-5.16,0,16.68.12,11.52.19-2.65,0-17.37-.72-19.64,1a23.48,23.48,0,0,0-3.33,3.4c-.26.31-.51.62-.78.92s-.34.3-.47.48a4.63,4.63,0,0,1-.54.77,2.37,2.37,0,0,1-.78.5,4.56,4.56,0,0,1-1.38.2l-1.92.09A3.42,3.42,0,0,0,9.22,14a9.25,9.25,0,0,1,4,.6.14.14,0,0,1,.08.25,3.86,3.86,0,0,1-.68.83,6,6,0,0,0-.64.86l-.78,1.09c-.57.82-1.13,1.65-1.64,2.51-.17.26-.34.54-.51.82s-.66,1-.87,1.45c.07.16.15.32.22.46s.23.48.34.71a41.57,41.57,0,0,0,2.82,5.13c1,1.5,2,2.95,3.07,4.33a52.89,52.89,0,0,0,3.47,4l.36.38c.91,1,1.6,1.92,3,2,8,.22-1.1.58,6.85.58h.11q9.48.16,18.94.25c.62,0,1.25-.05,1.88-.05h1.94a.5.5,0,0,1,.43.15.47.47,0,0,1,0,.35c-.24,1.52-.47,3-.7,4.55.64-1.55,1.29-3.09,1.93-4.64a.71.71,0,0,1,.18-.29.66.66,0,0,1,.38-.12,9.18,9.18,0,0,1,2,0,4,4,0,0,0,.84.09c.31,0,.63,0,.94,0h4.35c3.33,0,6.66,0,10,0a3.76,3.76,0,0,1,2.1.69,9.1,9.1,0,0,1,1.92,1.9,21.43,21.43,0,0,1-.66-2.47l2.29-.22c.62-.06,1.2,0,1.82,0,1.55,0,3.11,0,4.66,0,9.14-.12,18.4-.31,27.51-.57l.7,0c2.07-.06,21.47.87,23.38-.06a2.67,2.67,0,0,0,.73-.61c1.64-1.78,3.25-3.64,4.75-5.54.93-1.17,1.81-2.36,2.61-3.53,1-1.54,1.95-3.16,3-5.12.12-.22.42-.77.59-1.17C146.94,23.42,146.74,23,146.66,22.79Zm-6,5.13c-.75,1.11-1.59,2.23-2.46,3.33-1.36,1.72-2.89,3.51-4.57,5.32a8.59,8.59,0,0,1-2.33.21c-.52,0-1,0-1.52,0s-17-.53-17.44-.53h-.53l-.7,0c-9.09.26-18.33.45-27.46.56-7.3.1-14.72.14-22.07.14H56.09c-9.14,0-18.42-.13-27.6-.3h-.13c-5.78,0,15.37-.19,9.7-.37-2.11-.06-14.22-.14-16.33-.2-.14-.13-.36-.36-.52-.54s-.25-.27-.38-.4l-.36-.38c-1.14-1.2-2.24-2.46-3.26-3.77a13.13,13.13,0,0,1-.95-1.17l-1-1.52a.52.52,0,0,1-.11-.39c.06-.19.3-.23.49-.25l8.7-.65L16,26.19a6.32,6.32,0,0,1-1.73-.34,2.24,2.24,0,0,1-1-.75c-.11-.15-.19-.31-.3-.46a5.83,5.83,0,0,1-.39-.69l-.45-.88c0-.05-.28-.48-.25-.53.16-.25.32-.5.46-.74,1-1.57,2.1-3.15,3-4.35,1.16-1.55,2.41-3.09,3.71-4.6a20.51,20.51,0,0,1,2.87-3c.1-.08.74-.49,3.15-.49.76,0,11.53,0,12.27.07s1.39.06,2,.06h.24c1.55,0-23.9,0-22.34-.07,3.53-.06,7.18-.12,10.77-.12l5.56-.05,5.53,0c3.68,0,7.35-.05,11-.06H61.32c10.54,0,21.26.05,32.78.16l5.47.07,5.46.07,5.46.08c1.82,0,19.64.56,21.46.59a7.78,7.78,0,0,1,1.42.09c2.13,1.23,4.06,4,5.76,6.44l1,1.45c.32.45.87.93.8,1.54a13.81,13.81,0,0,1-6,1.26,56.68,56.68,0,0,1,6.64.46,1.35,1.35,0,0,1,.45.11c.34.18.44.58.65.87.09.13.23.21.32.34s.34.6.3.66C142.37,25.1,141.53,26.57,140.62,27.92Z"/>
            <path class="cls-3"
                  d="M151.52,27.49c-.22.39-.43.79-.66,1.17-.08.17-.17.32-.26.48a39.8,39.8,0,0,1-2.16,3.45c-.42.6-.85,1.18-1.31,1.75a4.27,4.27,0,0,1-1.43,1.34l-.34.12a36.11,36.11,0,0,0,5.52-8.67,30.07,30.07,0,0,1,1.4-3.43.85.85,0,0,0,0-1c-.6-1.14-1.32-2.39-2.53-2.8-.23-.08-.51-.22-.44-.44s.16-.16.25-.23c.41-.33.22-1,0-1.46L148.23,15a2.42,2.42,0,0,0-.6-.87,2.38,2.38,0,0,0-1-.39c-1.2-.29-2.42-.52-3.64-.71,1,.11,1.94.17,2.91.19a4.23,4.23,0,0,1,2.06.36l0,0a5.76,5.76,0,0,1,1.55,2.14c.46.81.91,1.63,1.42,2.42a11.05,11.05,0,0,1,.91,1.9c.07.15.13.3.19.44a11.89,11.89,0,0,1,.73,2C153.23,24.25,152.36,26,151.52,27.49Z"/>
            <path class="cls-3"
                  d="M28.47,23.7c-2.93-1.64-7.81-1.14-10.13,1.07a3.77,3.77,0,0,0,0,5.37c3.39,3,9.33,1.75,11.48-2l.12-.11C31.58,26.53,30.41,24.07,28.47,23.7Z"/>
            <path class="cls-5"
                  d="M29.17,22.25c-2.94-1.64-7.81-1.13-10.13,1.08a3.76,3.76,0,0,0,0,5.37c3.38,3.05,9.33,1.75,11.47-2l.13-.12C32.28,25.08,31.11,22.62,29.17,22.25Z"/>
            <path class="cls-6"
                  d="M28.47,23.18c-2.93-1.64-7.81-1.13-10.13,1.08a3.77,3.77,0,0,0,0,5.37c3.39,3.05,9.33,1.75,11.48-2l.12-.11C31.58,26,30.41,23.55,28.47,23.18Z"/>
            <path class="cls-3"
                  d="M103.76,14.25a6,6,0,0,0-6.32.67,2.35,2.35,0,0,0,0,3.35A4.89,4.89,0,0,0,104.6,17l.08-.07A1.59,1.59,0,0,0,103.76,14.25Z"/>
            <path class="cls-7"
                  d="M104.19,13.35a6,6,0,0,0-6.31.67,2.34,2.34,0,0,0,0,3.35A4.88,4.88,0,0,0,105,16.11l.08-.07A1.59,1.59,0,0,0,104.19,13.35Z"/>
            <path class="cls-8"
                  d="M103.76,13.93a6,6,0,0,0-6.32.67,2.35,2.35,0,0,0,0,3.35,4.89,4.89,0,0,0,7.16-1.26l.08-.07A1.59,1.59,0,0,0,103.76,13.93Z"/>
            <path class="cls-9"
                  d="M144.3,24.08a76.54,76.54,0,0,1-4.1,6.85,56.77,56.77,0,0,1-5.14,6.61,2,2,0,0,1-1.44.65c-36.9,1.08-73.33.48-111.26-.74a2,2,0,0,1-1.4-.63c-4.2-4.45-7.84-9-10.13-13.73A2,2,0,0,1,11,21.16q.57-.89,1.17-1.74A69.73,69.73,0,0,1,21.67,8.57,2.1,2.1,0,0,1,23,8c37.36-.74,73.46-.15,110.32.75a2,2,0,0,1,1.48.71,90.86,90.86,0,0,1,9.47,12.66A2,2,0,0,1,144.3,24.08Z"/>
            <path class="cls-10"
                  d="M144.3,24.08c-.2.38-.41.76-.62,1.13s-.36.47-.49.74a10.23,10.23,0,0,1-3.48,3.71c-1.47,1.09-3,2.23-3.78,3.9l.47-.86c1.69-3.05,3.37-6.09,4.93-9.21-.23-.4-.48-.8-.73-1.19a28.62,28.62,0,0,0-3.45-4.39c-.59-.61-1.26-1.16-1.81-1.81a2.78,2.78,0,0,0-1.44-.69c-2.24-.66-20.57-1.35-22.89-1.52a654.41,654.41,0,0,0-87.78-1.23c-8.6.5.1,3.22-7.76,6.75a7.7,7.7,0,0,0-1.22.86,1.57,1.57,0,0,1-1.4.34,1.24,1.24,0,0,1-.72-1.19A69.73,69.73,0,0,1,21.67,8.57,2.1,2.1,0,0,1,23,8c37.36-.74,73.46-.15,110.32.75a2,2,0,0,1,1.48.71,90.86,90.86,0,0,1,9.47,12.66A2,2,0,0,1,144.3,24.08Z"/>
            <path class="cls-11"
                  d="M142.55,23.15a64.13,64.13,0,0,1-9,13c-10.71.32-37.58,0-48.5.14q-9.48.12-19,.11H64c-19.21,0-21.9-.35-41.55-1-4.76-5-7.87-9.23-9.8-13.22A66.85,66.85,0,0,1,23,10h.59c16.5-.33,16.17-.5,32.58-.5q8,0,16.06.06c8.29.05,16.6.14,24.88.28L102,10a.06.06,0,0,0,.06,0l2,0c4.4.08,24.79.68,29.17.79h.09l.21.24c1.54,1.81,2.9,3.45,4.09,5A63.49,63.49,0,0,1,142.55,23.15Z"/>
        </g>
    </g>
</svg>