<svg xmlns="http://www.w3.org/2000/svg" xmlns:xlink="http://www.w3.org/1999/xlink" viewBox="0 0 521.68 25.03">
    <defs>
        <style>
            .cls-1{fill:url(#_ÂÁ_Ï_ÌÌ_È_ËÂÌÚ_3);}.cls-2{fill:url(#_ÂÁ_Ï_ÌÌ_È_ËÂÌÚ_3-2);}.cls-3{fill:#eb924d;}.cls-4{fill:url(#_ÂÁ_Ï_ÌÌ_È_ËÂÌÚ_3-3);}.cls-5{fill:url(#_ÂÁ_Ï_ÌÌ_È_ËÂÌÚ_3-4);}.cls-6{fill:url(#_ÂÁ_Ï_ÌÌ_È_ËÂÌÚ_3-5);}.cls-7{fill:url(#_ÂÁ_Ï_ÌÌ_È_ËÂÌÚ_3-6);}.cls-8{fill:url(#_ÂÁ_Ï_ÌÌ_È_ËÂÌÚ_7);}.cls-9{fill:#ffdf80;}.cls-10{fill:url(#_ÂÁ_Ï_ÌÌ_È_ËÂÌÚ_12);}.cls-11{fill:url(#_ÂÁ_Ï_ÌÌ_È_ËÂÌÚ_13);}.cls-12{fill:url(#_ÂÁ_Ï_ÌÌ_È_ËÂÌÚ_7-2);}.cls-13{fill:url(#_ÂÁ_Ï_ÌÌ_È_ËÂÌÚ_12-2);}.cls-14{fill:url(#_ÂÁ_Ï_ÌÌ_È_ËÂÌÚ_13-2);}.cls-15{fill:url(#_ÂÁ_Ï_ÌÌ_È_ËÂÌÚ_7-3);}.cls-16{fill:url(#_ÂÁ_Ï_ÌÌ_È_ËÂÌÚ_12-3);}.cls-17{fill:url(#_ÂÁ_Ï_ÌÌ_È_ËÂÌÚ_13-3);}
        </style>
        <linearGradient id="_ÂÁ_Ï_ÌÌ_È_ËÂÌÚ_3" x1="296.83" y1="-103.7" x2="284.43" y2="-63.85"
                        gradientUnits="userSpaceOnUse">
            <stop offset="0" stop-color="#cf5c2b"/>
            <stop offset="1" stop-color="#59173e"/>
        </linearGradient>
        <linearGradient id="_ÂÁ_Ï_ÌÌ_È_ËÂÌÚ_3-2" x1="261.71" y1="-14.52" x2="262.56" y2="53.56"
                        xlink:href="#_ÂÁ_Ï_ÌÌ_È_ËÂÌÚ_3"/>
        <linearGradient id="_ÂÁ_Ï_ÌÌ_È_ËÂÌÚ_3-3" x1="256.5" y1="-9.09" x2="256.5" y2="70.99"
                        xlink:href="#_ÂÁ_Ï_ÌÌ_È_ËÂÌÚ_3"/>
        <linearGradient id="_ÂÁ_Ï_ÌÌ_È_ËÂÌÚ_3-4" x1="262.17" y1="68.31" x2="262.17" y2="5.36"
                        xlink:href="#_ÂÁ_Ï_ÌÌ_È_ËÂÌÚ_3"/>
        <linearGradient id="_ÂÁ_Ï_ÌÌ_È_ËÂÌÚ_3-5" x1="261.94" y1="43.95" x2="262.14" y2="-14.6"
                        xlink:href="#_ÂÁ_Ï_ÌÌ_È_ËÂÌÚ_3"/>
        <linearGradient id="_ÂÁ_Ï_ÌÌ_È_ËÂÌÚ_3-6" x1="258.48" y1="40.79" x2="258.48" y2="-20.67"
                        xlink:href="#_ÂÁ_Ï_ÌÌ_È_ËÂÌÚ_3"/>
        <linearGradient id="_ÂÁ_Ï_ÌÌ_È_ËÂÌÚ_7" x1="24.41" y1="-1.32" x2="24.41" y2="13.36"
                        gradientUnits="userSpaceOnUse">
            <stop offset="0" stop-color="#ffca2b"/>
            <stop offset="1" stop-color="#d15b24"/>
        </linearGradient>
        <linearGradient id="_ÂÁ_Ï_ÌÌ_È_ËÂÌÚ_12" x1="24.41" y1="24.19" x2="24.41" y2="9.98"
                        gradientUnits="userSpaceOnUse">
            <stop offset="0" stop-color="#ffce3b"/>
            <stop offset="1" stop-color="#cc6923"/>
        </linearGradient>
        <linearGradient id="_ÂÁ_Ï_ÌÌ_È_ËÂÌÚ_13" x1="24.41" y1="12.96" x2="24.41" y2="4.92"
                        xlink:href="#_ÂÁ_Ï_ÌÌ_È_ËÂÌÚ_12"/>
        <linearGradient id="_ÂÁ_Ï_ÌÌ_È_ËÂÌÚ_7-2" x1="62.19" y1="-1.32" x2="62.19" y2="13.36"
                        xlink:href="#_ÂÁ_Ï_ÌÌ_È_ËÂÌÚ_7"/>
        <linearGradient id="_ÂÁ_Ï_ÌÌ_È_ËÂÌÚ_12-2" x1="62.19" y1="24.19" x2="62.19" y2="9.98"
                        xlink:href="#_ÂÁ_Ï_ÌÌ_È_ËÂÌÚ_12"/>
        <linearGradient id="_ÂÁ_Ï_ÌÌ_È_ËÂÌÚ_13-2" x1="62.19" y1="12.96" x2="62.19" y2="4.92"
                        xlink:href="#_ÂÁ_Ï_ÌÌ_È_ËÂÌÚ_12"/>
        <linearGradient id="_ÂÁ_Ï_ÌÌ_È_ËÂÌÚ_7-3" x1="99.97" y1="-1.32" x2="99.97" y2="13.36"
                        xlink:href="#_ÂÁ_Ï_ÌÌ_È_ËÂÌÚ_7"/>
        <linearGradient id="_ÂÁ_Ï_ÌÌ_È_ËÂÌÚ_12-3" x1="99.97" y1="24.19" x2="99.97" y2="9.98"
                        xlink:href="#_ÂÁ_Ï_ÌÌ_È_ËÂÌÚ_12"/>
        <linearGradient id="_ÂÁ_Ï_ÌÌ_È_ËÂÌÚ_13-3" x1="99.97" y1="12.96" x2="99.97" y2="4.92"
                        xlink:href="#_ÂÁ_Ï_ÌÌ_È_ËÂÌÚ_12"/>
    </defs>
    <g id="Livello_2">
        <g id="layer_1">
            <path class="cls-1"
                  d="M521.09,5.48c-.73-3-6.66-5.24-13.72-5.25Q258.64-.22,17,.23a31.2,31.2,0,0,0-5.37.46,18.71,18.71,0,0,0-3.68,1A19.54,19.54,0,0,0,5.23,3,16.93,16.93,0,0,0,2.82,4.81a7,7,0,0,0-2.19,3A22.47,22.47,0,0,0,.84,19.11c.76,2.95,6.56,5.21,13.57,5.25q241.09,1.38,490.18,0a26.61,26.61,0,0,0,9.32-1.6c.43-.18.77-.35,1.23-.51a2.1,2.1,0,0,0,.6-.34c.45-.32.88-.64,1.29-1q1.25-1,2.34-2a3.37,3.37,0,0,0,.57-.56,2.76,2.76,0,0,1,.28-.45,3.17,3.17,0,0,0,.62-1.21A22.73,22.73,0,0,0,521.09,5.48Z"/>
            <path class="cls-2"
                  d="M521.4,11.89a14.56,14.56,0,0,1-.57,4.84,3.69,3.69,0,0,1-1.14,1.79A8.49,8.49,0,0,1,518,19.7,23.8,23.8,0,0,1,507.23,22c-2,0-3.92,0-5.88,0l-14.69.08L472,22.16h-.09l-14.57.07L445,22.28h-2.33L428,22.34c-1.47,0-3,.05-4.41,0s-3-.08-4.49-.08a3.24,3.24,0,0,1-.78-.07.74.74,0,0,1-.62-.55,4.53,4.53,0,0,1-.26-1,6.37,6.37,0,0,1-.14-1.85A4.66,4.66,0,0,1,416,21.46a1.73,1.73,0,0,1-.23.24,1.86,1.86,0,0,1-1.26.56c-.5,0-1-.08-1.47-.06a2.64,2.64,0,0,0-.79.15,3.81,3.81,0,0,1-.59,0c-1.37.07-2.87,0-4.25,0l-8.65,0-14.59,0-12.37,0h-2.23l-7.4,0H355l-14.57,0-14.54,0H319.4l-8.07,0H284c-2.56,0-5.14,0-7.69,0-3.39-.07-8.06.58-10.88-.48a4.24,4.24,0,0,1-.74-.35,5,5,0,0,1-1.5-1.4c0,.63-.09,1.26-.13,1.89,0,.18,0,.35,0,.53-2-.12-4-.21-6.08-.3l-3.79-.11h-.1c-.47,0-.95,0-1.44,0h-.14a15.18,15.18,0,0,0-3.44.32l-3.35-2.35-.05,0-2.23-1.57c.67,1,1.36,1.92,2,2.87a.74.74,0,0,1,.14.28.3.3,0,0,1-.19.36,7.14,7.14,0,0,1-2.1.11c-.34,0-.5.11-.81.16a14.59,14.59,0,0,1-2.66.08H224.38l-14.45,0H195.51l-14.42,0h-14.4l-10.3,0H152.3l-14.37,0-14.36,0-12.67,0h-7.26q-8.22,0-16.44-.14c-.49,0-6,.12-5.31-.35,0,0,0,0,0,0,.19-.12.6-.22.83-.33a13.42,13.42,0,0,0,1.69-1L85,20.2a18.47,18.47,0,0,1,2.61-1.61,7.76,7.76,0,0,1,1-.42,1.41,1.41,0,0,1,.5-.13,2.78,2.78,0,0,0,.59,0c.24-.13-1.3-.39-1.51-.43-.86.41-1.55.93-2.31,1.37l-2.34,1.39a15.77,15.77,0,0,1-2.76,1.39l-.11,0a9.79,9.79,0,0,1-1.86.42c-3.2.46-7.52,0-10.65,0-4.53,0-9.06,0-13.59,0H53.21L17.05,22c-7,0-12.79-2.3-13.57-5.24C3.31,16,3.13,15.32,3,14.6s-1-2,.3-2.66a1.42,1.42,0,0,1,.41-.2,5.2,5.2,0,0,1,1.07-.07L12,11.46a1.63,1.63,0,0,1,.44,0,.52.52,0,0,1,.45.36c0,.16.08.32.13.49a11.6,11.6,0,0,0,.07-1.43c0-.36,0-.71-.07-1.08a1,1,0,0,0-.22.38,1.9,1.9,0,0,1-1.21.57,5.28,5.28,0,0,1-.9.09c-.52,0-1,.05-1.54.07-1.14,0-2.31,0-3.45,0l-1.16-.08a7.41,7.41,0,0,1-1.14-.23c-.23-.07-.23-.11-.3-.23s-.22-.34-.33-.52c-.43-.68,0-1.48.09-2.17s.26-1.55.43-2.28C4,2.46,9.94.24,17,.22h9.38l7.12,0h.83l17,0H63.31l8.55,0h22l11,0h11l11,0H259.69q24,0,48.15,0h77.9l71.69.09,16,0,6.31,0h7l20.69,0c6.19,0,12.17,1.9,13.45,4.51a1.58,1.58,0,0,1,.08.8,1.36,1.36,0,0,1-.58,1.22s0,0,0,0a11.61,11.61,0,0,1-3.21,1.27L514,9a7,7,0,0,0-2.64,1.16,1,1,0,0,0-.28.62,2.3,2.3,0,0,0,.19.92,1.29,1.29,0,0,1,.78-1.16,6.83,6.83,0,0,1,1-.41L519.43,8a3,3,0,0,1,1.32-.21C521.79,7.91,521.37,11.46,521.4,11.89Z"/>
            <path class="cls-3"
                  d="M13.27,9.54a.37.37,0,0,1,0,.11.78.78,0,0,1,0,.37.42.42,0,0,1-.07.13,1,1,0,0,1-.18.09,3.78,3.78,0,0,1-.83.42,4,4,0,0,1-.52.08l-1.79.18c.55-.11,1.09-.24,1.62-.37a1.77,1.77,0,0,0,.55-.19.51.51,0,0,0,.16-.17,2,2,0,0,0,.1-.21,1.42,1.42,0,0,0,.12-.75.19.19,0,0,1,0-.15L12.5,9a3.26,3.26,0,0,0,.36-.9A4.21,4.21,0,0,0,13,7.59a2,2,0,0,0,0-.42Z"/>
            <path class="cls-3"
                  d="M521.4,11.89a14.56,14.56,0,0,1-.57,4.84,3.69,3.69,0,0,1-1.14,1.79A8.49,8.49,0,0,1,518,19.7a13.39,13.39,0,0,0,1-2,16,16,0,0,0,.94-5.87,24.23,24.23,0,0,0-.09-3c-.05-.36-.61-.22-1.11-.07a45.94,45.94,0,0,0-5.23,1.68,6.16,6.16,0,0,0-1.68,1.07,1.87,1.87,0,0,0-.69,1.93,1.39,1.39,0,0,1-.11.87,3,3,0,0,1-.34.63c-.07.1-.16.19-.24.3s-.26.19-.26.25c-.14-1-.26-2.08-.35-3.14a1.18,1.18,0,0,1,.29-1,4.61,4.61,0,0,1,1-.59,2.3,2.3,0,0,0,.19.92,1.29,1.29,0,0,1,.78-1.16,6.83,6.83,0,0,1,1-.41L519.43,8a3,3,0,0,1,1.32-.21C521.79,7.91,521.37,11.46,521.4,11.89Z"/>
            <path class="cls-4"
                  d="M78.8,22.2c-3.2.46-7.52,0-10.65,0-4.53,0-9.06,0-13.59,0L54.3,22l-.1-.05a74.12,74.12,0,0,1-11.77-7.26c-6-4.73-9.24-10-16.1-14.43l7.12,0,1.21.6C34.53.6,34.4.4,34.28.19l17,0A145.52,145.52,0,0,0,64.1,12.05C68.16,15.41,74.06,18.76,78.8,22.2Zm8.14-11.37C79.5,7,71.64,3.49,63.31.15H58.76a282.66,282.66,0,0,1,26.5,12.27c6,3.18,11.89,6.72,18.38,10h7.26C102.77,18.63,94.7,14.82,86.94,10.83Zm83.42.79A77,77,0,0,0,161.54,0h-4a57.19,57.19,0,0,1,6.2,12.39c-.15-.13-.33-.26-.46-.39-4.46-3.72-9-8.3-15.32-12h-11.6a55.47,55.47,0,0,0,5.19,6.08c2.66,3,5.62,6,8.4,9,2.11,2.28,4,4.88,6.41,7.38l10.3,0H177C175.68,18.87,172.61,15.14,170.36,11.62ZM273.89,10c-3.5-3.18-7.13-6.59-12.61-9.23-.55-.26-1.07-.52-1.59-.79H241.63c.83,1.38,2.07,2.74,2.87,4.33,1.75,3.49,4.84,6.9,7.05,10.36a48.37,48.37,0,0,0,5.4,7.85c2,.09,4.06.18,6.08.3.05-.81.1-1.61.16-2.42a4.68,4.68,0,0,0,2.24,1.75c2.82,1.06,7.49.41,10.88.48,2.55.05,5.13,0,7.69,0C283.77,18.31,277,12.84,273.89,10Zm45.44,6.89c.26-5.32,2.82-11.41.8-16.89H307.84c-4.69,4.47-6.23,9.77-7.75,14.38-.6,1.84-2.25,5.15-2.33,8.25h13.57l8.07,0A52.45,52.45,0,0,0,319.33,16.91ZM374.23.05c-2.28,2.71-3.78,5.61-5.51,8.2-3.25,4.87-6.17,9.36-6.57,14.3l7.4,0h2.23c3.49-4,5.46-8,7.79-12.27C381.34,7,384.31,3.52,385.74.06ZM479.71.19c-3.53,4.15-7.19,8.31-11.06,12.41L470.72,8c1-2.29,2.77-5.18,2.68-7.85l-16,0c-3,3.12-4.39,6.85-5.93,9.26-2.58,4.07-6.17,8.53-6.52,12.87l12.33-.05,14.57-.07A69.22,69.22,0,0,0,478,15,57.86,57.86,0,0,0,486.68.19Z"/>
            <path class="cls-3"
                  d="M348.42,17.31l1.68.07,1.78.1c.52,0,.93,0,1.44,0,4.9-.05,9.81-.07,14.71-.1l14.7-.09,14.7-.1,14.7-.09,14.71-.1,14.7-.09,14.7-.1,14.7-.09,6.47,0c6.79-.05,13.58-.09,20.35-.27a45.16,45.16,0,0,0,8.42-.75c2.55-.58,5.39-1.89,5-3.1L511,16a1.75,1.75,0,0,1-1.37,1.79,12.31,12.31,0,0,1-4,.27c-12.58-.45-25.19.55-37.81.55-7.32,0-14.62-.34-21.94-.4-15-.13-29.41-.25-44.39,0-13,.23-26.05.46-39.06.2a45.22,45.22,0,0,0-5.47.09c-1.11.1-2.18.29-3.3.36a30.64,30.64,0,0,1-3.71-.08l-6.09-.36c-.94-.06-2-.2-3-.18-.14,0-.27,0-.41,0-.67.05-1.38,0-2.06,0-2.37,0-4.75,0-7.12.06l-30.63.16c-12.78.07-25.53-.93-38.18-.15-10.63.66-21.49-.28-32.19.15-1.72.07-3.44.18-5.17.18-2,0-4-.12-6.08-.21-7.75-.34-15.58-.1-23.35.14a.87.87,0,0,0,.17.85c-2.51-1.11-6.58-1.15-10.2-1.12-3.22,0-6.43,0-9.65,0-24.5,0-49-.28-73.51-.19-5.39,0-10.81.05-16.15.38,1.88-.83,4.87-1,7.58-1.13,12-.55,24,.09,36,.27,11.23.17,22.4-.55,33.57-.92,5.55-.18,11.13-.3,16.7-.17,2.56.06,5.06.23,7.6.35.37,0,.68,0,1.05,0,1.07-.07,2.27,0,3.35.06l3.65.08c2.44,0,4.88.08,7.31.1q7.32.07,14.65,0c4.88,0,9.76,0,14.65,0s9.76,0,14.64,0c1.25,0,2.49,0,3.74,0,15.26.15,30.62.69,45.74-.2a18.68,18.68,0,0,1,3.17-.07,11.86,11.86,0,0,0,1.46,0l3.67,0c2.45,0,4.9,0,7.34,0l10.43,0,16.72.11c2.38,0,4.77,0,7.15.09Z"/>
            <path class="cls-3"
                  d="M80.77,21.74l-.11,0a9.79,9.79,0,0,1-1.86.42c-3.2.46-7.52,0-10.65,0-4.53,0-9.06,0-13.59,0H53.21L17.05,22c-6,0-10.93-1.67-12.84-4a7.72,7.72,0,0,1-1.43-5c0-.45.08-1,1-1.21A7.18,7.18,0,0,1,5,11.66l5.37-.17a7.87,7.87,0,0,1,2,.09c.59.13,1,.47.59.7l.15-1.37L15,10.85a18,18,0,0,0-.14,5A1.38,1.38,0,0,0,16,17.16a8.93,8.93,0,0,0,2.39.24q34.82.26,69.64.44l-2.45,1.3c.6-.22.31-.68-.36-.88a9.12,9.12,0,0,0-2.34-.2q-32,0-64-.19a14,14,0,0,1-4.62-.52,2.14,2.14,0,0,1-1.49-1.92c-.16-.93-.32-1.86-.47-2.79a.68.68,0,0,0-.44-.58,3.63,3.63,0,0,0-1-.19,19.43,19.43,0,0,0-6,.43,2.15,2.15,0,0,0-.74.29.5.5,0,0,0-.16.28c-.43,1.49-1.11,4.24,1.44,5.43,1.75.82,3,1.86,5.11,2.52,2.64.81,6.33.87,9.46.94,2.92.06,5.83.11,8.75.15.89,0,1.77.07,2.66.05.36,0,.71-.05,1.07,0a3.73,3.73,0,0,0,.75-.05,3.6,3.6,0,0,0,1.39-.61,7.85,7.85,0,0,1,1.33-1,1.13,1.13,0,0,0-.42,1,.38.38,0,0,0,.08.17.79.79,0,0,0,.53.16c.88.05,1.82,0,2.71.05l5.5.08q5.49.07,11,.09c1.8,0,3.66.06,5.46,0,.26,0,.51-.06.77-.07.44,0,.9,0,1.34,0l2.75,0C68,21.91,70.5,22,73,22l4.32.08A14.46,14.46,0,0,0,80.77,21.74Z"/>
            <path class="cls-5"
                  d="M257.29,18.28c-81.09,0-161.87-.23-240.09-.68-1.75,0-3.21-.58-3.41-1.33a20.56,20.56,0,0,1-.2-10.4c.17-.7,1.67-1.25,3.4-1.25L88.84,4.5q36,0,72-.08c3.84,0,8,.26,11.6-.3a73,73,0,0,0,8.41-2.48c-1.3.59-2.6,1.19-3.79,1.82a7.19,7.19,0,0,0-.68.33c-.41.3.25.44.86.45l7.79.17c1.17,0,2.3,0,3.47,0,.44,0,.91,0,1.36,0H317.09a13.26,13.26,0,0,1,1.79,0,9.14,9.14,0,0,0,1.18.06c1.11,0,2.22,0,3.33-.1.58,0,1.17-.08,1.74-.16a14.11,14.11,0,0,0,2.6-.65,12.15,12.15,0,0,1,2.06-.66,17.26,17.26,0,0,0,2.36-.63l2.94-.92,2.59-.81c-2.54,1.37-6.32,2.33-8.15,3.88a14.28,14.28,0,0,1,1.7-.1l1.78,0c1.19,0,2.38,0,3.56.06,2.35.1,4.73.06,7.09.06h43.7l14.62,0h14.64l14.66,0,14.67,0,14.69,0,14.7,0,14.7,0,14.71,0h2.58c1.78,0,3.26.57,3.45,1.31a20.74,20.74,0,0,1-.25,10.32c-.2.76-1.67,1.34-3.43,1.35C422.69,18.05,338.64,18.28,257.29,18.28Z"/>
            <path class="cls-6"
                  d="M505.12,11.64a2.62,2.62,0,0,1,.85,1.89c0,.19-.43,1.88-.45,1.88l-7.78,0-23.82.11-5.57,0q-10.43.06-20.88.09l-8.43,0H433.7l-23.91.08c-9.56,0-19.21.21-28.75,0a3.88,3.88,0,0,1-2-.34c-.3-.23-.07-.52.15-.76.85-.89,1.68-1.78,2.51-2.67a61.88,61.88,0,0,1-5.82,3,13.55,13.55,0,0,1-2.68.92c-.21,0-.4.07-.61.09a9.39,9.39,0,0,1-2.25,0,34.24,34.24,0,0,0-3.66-.05h-3.79l-4.27,0L324.4,16H301.54l-25.7,0H240l-29.33,0h-2.08q-13.6,0-27.2,0h-11c-.75,0-1.56,0-2.34,0-.34,0-.69,0-1,0-2,.18-4,.17-6.07.19h-1.32l-2.33,0c-.4,0-3.35-.09-3.49,0a29.64,29.64,0,0,1,3.66-2.37c.82-.47,1.7-.92,2.61-1.35a22.18,22.18,0,0,0-3.11.85c-1.21.43-2.33.91-3.51,1.35a18.77,18.77,0,0,1-6.58,1.39c-.75,0-1.4-.16-2.13-.19h-.15c-.71,0-1.49,0-2.22,0l-4.94,0a2.74,2.74,0,0,1-1.12-.13c-.28-.16-.11-.38.1-.57A26.71,26.71,0,0,1,140,12.49,61.4,61.4,0,0,0,134,14.94a16.73,16.73,0,0,1-3.37.86,17.21,17.21,0,0,1-3.73.07c-.67,0-1.4,0-2.09,0l-11.58,0-16.32-.06-6.79,0-6.68,0-11.11-.05L53.92,15.6l-8.12,0L36,15.51c-1.45,0-17.13,0-17.16-.1a3.55,3.55,0,0,0-.37-1.35c-.19-.26-.53-.48-.64-.74-.26-.63.19-1.51,1.68-1.81a10.77,10.77,0,0,1,1.64-.14l13.23-.49c.31,0,.6,0,.91,0-4.46,0-8.94-.08-13.41-.12A14.65,14.65,0,0,1,19,10.52c-.52-.11-.71-.18-.78-.4a13.21,13.21,0,0,1,.38-3.31l17,0,23.23,0H69.44l9.82,0L138,6.64h27.85l35.23,0h1.09l43.13,0H289a19.59,19.59,0,0,1,3.26.13,15.83,15.83,0,0,0,2.65.28,19.87,19.87,0,0,0,3.78-.22,18.41,18.41,0,0,1-2.3,3.59,12.3,12.3,0,0,0,4.34-2.13,11,11,0,0,1,2.7-1.33l.28-.09a6.09,6.09,0,0,1,1.83-.32c1.49,0,3,.09,4.53.11,1.09,0,2.16.08,3.23.12a24.16,24.16,0,0,1,4.58.36h0l-.06,0-10.13,5.53a6.07,6.07,0,0,0-1.27.83c3.9-1.43,7.6-3,11-4.62.89-.42,1.75-.84,2.58-1.27a5.56,5.56,0,0,1,1.54-.6,13.13,13.13,0,0,1,1.69-.14c8.26-.27,16.89-.23,25.34-.22h29.58c9.52,0,19.07,0,28.59,0l29.25,0h8.38l8.92,0H481.4l13.33,0,11,0c.17,0,.21,1.9.31,2.08s.24.19.3.3c.12.3-.37.63-.92.79a11.42,11.42,0,0,1-2.58.3c-8.26.39-16.57.77-24.85.61-1.13,0-2.23,0-3.34-.09l3.28.14Q491.51,11.51,505.12,11.64Z"/>
            <path class="cls-3"
                  d="M520.9,5.54a1.36,1.36,0,0,1-.58,1.22c1.17-2.13-2-4.58-7-5.25A47.29,47.29,0,0,0,508,1.2C497.05,1,486.11.74,475.15.6H475q-7.33-.1-14.67-.16L445.62.35H431c-4.91,0-9.8,0-14.7,0l-14.69.1c-4.89,0-9.8.07-14.69.12l-14.7.15-7.34.07a39.89,39.89,0,0,1-4.41-.14l-.67-.08c-.66-.09-1.34-.17-2-.2-1,0-2,0-3.06,0l-9.17,0Q327.32.28,309.17.19c-1,0-2,0-3,0l-.58.07-1.7.3c-1.4.22-2.8.46-4.19.7l0-.54a.09.09,0,0,0-.06-.1.56.56,0,0,0-.23,0l-2.51-.1c-.39,0-.79,0-1.17-.06s-.44-.07-.67-.09c-.78-.06-1.66,0-2.45,0H279l-11,0H242.41c-.59,0-1.19,0-1.77,0s-.95-.12-1.43-.15c-.8-.05-1.63,0-2.42,0l-6.48,0-11,.08-11,0-11,.06-11,0-11,0-11,0-11,0H136.57a15.93,15.93,0,0,1-2.08-.09l-.78-.08c-1.67-.06-3.42,0-5.11,0l-11,0h-11c-3.68,0-7.35,0-11,0S88.23.49,84.59.54L79.07.62l-2.75,0-1.38,0c-.14,0-1.3,0-1.31,0a1,1,0,0,0-.19.55C72.52.63,70.5.57,68.79.57L63.27.6c-3.68,0-7.34,0-11,0l-11,0-5.54,0a9.14,9.14,0,0,1-1.17,0c-1-.12-2.11-.12-3.17-.17A123,123,0,0,0,17.9.38C12.3.75,6.66,2,4.45,4.25c-1.58,1.56-1.23,3.33-.85,5a3.63,3.63,0,0,0,.29.86,2.21,2.21,0,0,0,.63.7,7.41,7.41,0,0,1-1.14-.23c-.23-.07-.23-.11-.3-.23s-.22-.34-.33-.52c-.43-.68,0-1.48.09-2.17s.26-1.55.43-2.28C4,2.46,9.94.24,17,.22h9.38l7.12,0h.83l17,0H63.31l8.55,0h22l11,0h11l11,0h.22c.71,0,1.42,0,2.13,0h.31c.26,0,.5,0,.76,0l.83,0h102.4c.28,0,.54,0,.82,0s.43,0,.63,0h24.72q24,0,48.15,0h45.37c1,0,1.89.16,2.89.12.52,0,1-.06,1.5-.11h28.14l71.69.09,16,0,6.31,0h7l20.69,0c6.19,0,12.17,1.9,13.45,4.51A1.58,1.58,0,0,1,520.9,5.54Z"/>
            <path class="cls-3"
                  d="M176.19,3.7a.8.8,0,0,0-.42.29c0,.07-.09.32,0,.37a8.45,8.45,0,0,0,1.34,0l2.75,0,4.9-.08a29.49,29.49,0,0,0-3.12,0,39.32,39.32,0,0,1-4.88-.38l2.3-1.18c-.26.13-.69.23-1,.34l-1,.37C176.82,3.49,176.47,3.59,176.19,3.7Z"/>
            <path class="cls-3"
                  d="M331.79,3.54c-.23.12-.43.25-.36.4s.33.22.63.25a5.39,5.39,0,0,0,.9,0l4.64-.14c.72,0,1.45,0,2.17,0,1.16,0,2.28.17,3.42.24,2.13.14,4.32,0,6.45.16l-.25,0-.3,0c-.19,0-.39,0-.59,0-.39,0-.79,0-1.18,0-.8,0-1.59-.1-2.39-.12-.4,0-.79,0-1.18,0a3.85,3.85,0,0,1-.48,0l-.38,0c-.9,0-1.83,0-2.72,0l-2.05,0c-1.31,0-2.61.06-3.91.09l-2.72,0a2.75,2.75,0,0,0-.5,0,3,3,0,0,1-.43,0,1.94,1.94,0,0,1-.76-.14s-.09,0-.1-.07a.1.1,0,0,1,.05-.08,3.57,3.57,0,0,1,.73-.55,2.29,2.29,0,0,1,.47-.23l.17,0a1.9,1.9,0,0,0,.35-.21,12.27,12.27,0,0,1,3.25-1.38c.15,0,.32-.07.48-.11a3.37,3.37,0,0,0,.54-.22c.36-.16.69-.32,1-.49-1,.51-2,1-3,1.55a5.51,5.51,0,0,1-.54.22c-.48.2-.91.43-1.35.65Z"/>
            <path class="cls-3"
                  d="M201.16,22.63h-5.65l-14.42,0h-14.4l-10.3,0H152.3l-14.37,0-14.36,0-12.67,0h-7.26q-8.22,0-16.44-.14c-.49,0-6,.12-5.31-.35,0,0,0,0,0,0,1.26-.76,2.69-1.57,3.83-2.31-.24.21-.5.4-.74.61-.62.5-1.23,1-1.83,1.51,3,.27,6,.33,9.07.38,36,.64,72-.14,108,.36A2.72,2.72,0,0,1,201.16,22.63Z"/>
            <path class="cls-3"
                  d="M244.59,22a.3.3,0,0,1-.19.36,7.14,7.14,0,0,1-2.1.11c-.34,0-.5.11-.81.16a14.59,14.59,0,0,1-2.66.08H224.38l-14.45,0h-9.16a4.42,4.42,0,0,1,1.19-.11c2.8-.05,5.6-.09,8.42-.11s5.58-.05,8.38-.06,5.6,0,8.42,0,5.58,0,8.38.08h1a25.69,25.69,0,0,0,7.62-.63A.58.58,0,0,0,244.59,22Z"/>
            <path class="cls-3"
                  d="M247.77,21.93a14.88,14.88,0,0,0,3.71.49,15.18,15.18,0,0,0-3.44.32l-3.35-2.35A17.68,17.68,0,0,0,247.77,21.93Z"/>
            <path class="cls-3"
                  d="M263.05,22.34s0,0,0,0c0,.18,0,.35,0,.53-2-.12-4-.21-6.08-.3l-3.79-.11h.71C256.93,22.4,260,22.36,263.05,22.34Z"/>
            <path class="cls-3"
                  d="M298,22.65H284c-2.56,0-5.14,0-7.69,0-3.39-.07-8.06.58-10.88-.48a4.24,4.24,0,0,1-.74-.35c4.42,1.05,10,.78,15.19.62C285.92,22.28,292,22.34,298,22.65Z"/>
            <path class="cls-3"
                  d="M413.44,22.15a13.39,13.39,0,0,0,2.54-.69,1.73,1.73,0,0,1-.23.24,1.86,1.86,0,0,1-1.26.56c-.5,0-1-.08-1.47-.06a2.64,2.64,0,0,0-.79.15,3.81,3.81,0,0,1-.59,0c-1.37.07-2.87,0-4.25,0l-8.65,0-14.59,0-12.37,0h-2.23l-7.4,0H355l-14.57,0-14.54,0H319.4l-8.07,0H293.66a5.45,5.45,0,0,1,1.19-.15l10.93-.21c1.62,0,3.27-.09,4.91-.09.33,0,.65,0,1,0s.93.08,1.4.13a30.85,30.85,0,0,0,4.3,0,17.78,17.78,0,0,1,2.3,0c.37,0,.75,0,1.13.06.76,0,1.52.05,2.28.05,1.55,0,3.09-.07,4.61-.19a3.21,3.21,0,0,1,1.46.13,17.63,17.63,0,0,0,4.94.07c1.19-.07,2.4-.12,3.61-.14h1.85c2.72,0,5.45,0,8.18.06,3.66,0,7.35,0,11,0s7.36,0,11,0,7.35,0,11-.08l5.89-.06c2,0,4-.05,6,0,1.79,0,3.59.12,5.41.12a18.33,18.33,0,0,0,2.35-.09c.46-.06.86-.18,1.31-.24a5.19,5.19,0,0,1,.8-.06c1.53-.08,3.11,0,4.65,0,2.16,0,4.3.07,6.46.13C413.8,22.07,413.3,22.14,413.44,22.15Z"/>
            <path class="cls-3"
                  d="M519.69,18.52c-2.16,2-7,3.43-12.46,3.46-2,0-3.92,0-5.88,0l-14.69.08L472,22.16h-.09l-14.57.07L445,22.28h-2.33L428,22.34c-1.47,0-3,.05-4.41,0s-3-.08-4.49-.08a3.24,3.24,0,0,1-.78-.07.74.74,0,0,1-.62-.55,4.53,4.53,0,0,1-.26-1l.05,0c-.05.55,1,1,2.16,1.25a21.86,21.86,0,0,0,3.84.22h26.06c.56,0,1.14,0,1.7,0,.33,0,.64-.05,1-.06l1.37,0,5.5-.08c2.95,0,5.91-.08,8.85-.11l8.57-.08,10.06-.07c3.3,0,6.59,0,9.89,0,3.52,0,7,.11,10.58,0,1.78-.05,3.56-.15,5.29-.34.33,0,.69-.11,1-.12.06,0,.13,0,.21,0a1.7,1.7,0,0,0,.43-.1c1-.32,2.06-.65,3-1a4.33,4.33,0,0,0,1.1-.51,5.76,5.76,0,0,0,.44-.41A4.36,4.36,0,0,1,519.69,18.52Z"/>
            <path class="cls-7"
                  d="M72.28,15.68,53.92,15.6l-8.12,0-1.46-1.12a90.89,90.89,0,0,1-8.79-7.66l23.23,0c1.26.81,2.49,1.62,3.73,2.43C65.78,11.32,69.13,13.47,72.28,15.68Zm17.79-3.45c-3.46-1.9-7-3.77-10.81-5.52l-9.82,0A106.63,106.63,0,0,0,82.15,15l1.24.73,6.68,0,6.79,0C94.53,14.56,92.16,13.38,90.07,12.23Zm59-5.6H138a31.51,31.51,0,0,0,6.56,9.27h.15c.73,0,1.38.19,2.13.19a18.77,18.77,0,0,0,6.58-1.39c1.18-.44,2.3-.92,3.51-1.35A70.55,70.55,0,0,0,149.08,6.63Zm8.38,7.24a29.64,29.64,0,0,0-3.66,2.37c.14-.11,3.09,0,3.49,0l2.33,0C159,15.42,158.22,14.64,157.46,13.87Zm8.42-7.25h-5.65c2.47,3.13,5,6.25,7.81,9.34.78,0,1.59,0,2.34,0h3.51C171.4,12.84,168.68,9.72,165.88,6.62Zm104,3.88c-1.31-1.33-2.71-2.63-4.17-3.92H245.33a36,36,0,0,0,4.7,8.35l.83,1.15h25C273.85,14.2,271.74,12.34,269.91,10.5Zm43.37-3.78c-1.07,0-2.14-.11-3.23-.12-1.52,0-3-.08-4.53-.11a6.09,6.09,0,0,0-1.83.32l-.28.09c-.28,1.73-.45,3.38-.79,4.79s-.73,2.87-1.08,4.36h14.73c.17-1.24.31-2.45.47-3.63s.43-2.28.72-3.56c.14-.56.28-1.15.38-1.74,0,0,0,0,0,0A24.16,24.16,0,0,0,313.28,6.72Zm64.36-.08H369.7A55.25,55.25,0,0,0,362.94,16h3.79a34.24,34.24,0,0,1,3.66.05,9.39,9.39,0,0,0,2.25,0q2.88-4.66,5.55-9.35Zm94.4.12c-2.2,2-4.41,4-6.71,6.06a1.1,1.1,0,0,1,.09-.14c1.1-1.94,2.48-3.92,3.76-5.93H453.33c-.86,1.44-1.69,2.87-2.61,4.23-1,1.54-2.16,3.12-3.25,4.72q10.45,0,20.88-.09l5.57,0c.12-.12.22-.24.33-.36q1.89-2.13,3.71-4.26l.06,0c1.15-1.37,2.3-2.74,3.38-4.12Zm-30.69,0c-2.5,3-5.11,6-7.65,9h4.2c2.38-3,4.51-6,6.51-9ZM202.2,6.6h-1.09c2.46,3.16,4.88,6.32,7.43,9.46H210C207.51,12.9,204.86,9.74,202.2,6.6Z"/>
            <path class="cls-8"
                  d="M42.57,10.73v0a36.08,36.08,0,0,1-.17,4.16,1.75,1.75,0,0,1-1.76,1.52q-16.07.39-32.39,0a1.78,1.78,0,0,1-1.77-1.52,27.78,27.78,0,0,1-.19-5.15c0-.76.11-1.52.2-2.29A1.79,1.79,0,0,1,8.26,5.94q16.05-.37,32.37,0A1.76,1.76,0,0,1,42.4,7.46C42.5,8.55,42.56,9.64,42.57,10.73Z"/>
            <path class="cls-9"
                  d="M42.57,10.73v0a1.41,1.41,0,0,1-.16.49.75.75,0,0,1-.93.41,8.61,8.61,0,0,0-.4,1.57c0-.61,0-1.23,0-1.86q0-.67,0-1.35a5.1,5.1,0,0,1,0-.67c0-.05,0-.11,0-.18,0-.29-.46-.39-.71-.45a32.53,32.53,0,0,0-7.12-.19c-7.27.19-14.56-1-21.8-.34a4.5,4.5,0,0,0-2.41.7L9,8.94a2.68,2.68,0,0,0-.68.89.76.76,0,0,0-.11.26,1.21,1.21,0,0,1-.07.2,4.41,4.41,0,0,0-.23.56A4.58,4.58,0,0,0,7.66,12c0,.21,0,.41,0,.61s0,.2,0,.31,0,.15,0,.22c-.29-.82-.22-1.72-.43-2.57A1.1,1.1,0,0,0,7,10.14.6.6,0,0,0,6.82,10a.39.39,0,0,0-.11-.06H6.52a.3.3,0,0,1-.23-.16c0-.76.11-1.52.2-2.29A1.79,1.79,0,0,1,8.26,5.94q16.05-.37,32.37,0A1.76,1.76,0,0,1,42.4,7.46C42.5,8.55,42.56,9.64,42.57,10.73Z"/>
            <path class="cls-10"
                  d="M41,14.8a.44.44,0,0,1-.43.36c-4.8.11-9.67.17-14.49.18H24.51l-6.46,0-1.74,0q-4-.06-8-.15a.46.46,0,0,1-.45-.4,27.85,27.85,0,0,1,0-6.65l.06-.48a.46.46,0,0,1,.45-.4C13.64,7.09,19.07,7,24.44,7h.12c3.29,0,6.61,0,9.93.07,2,0,4.09.06,6.12.12a.42.42,0,0,1,.43.34h0A36.39,36.39,0,0,1,41,14.8Z"/>
            <path class="cls-11"
                  d="M41,7.56h0a35,35,0,0,1-.18,3.84.42.42,0,0,1-.43.35c-5.27.12-10.63.19-15.92.19s-10.72-.07-16-.19A.45.45,0,0,1,8,11.37,26.92,26.92,0,0,1,7.78,8.1l.06-.48a.46.46,0,0,1,.45-.4C13.64,7.09,19.07,7,24.44,7s10.79.06,16.17.19A.42.42,0,0,1,41,7.56Z"/>
            <path class="cls-12"
                  d="M80.35,10.73v0a36.08,36.08,0,0,1-.17,4.16,1.75,1.75,0,0,1-1.76,1.52q-16.07.39-32.39,0a1.78,1.78,0,0,1-1.77-1.52,27.78,27.78,0,0,1-.19-5.15c0-.76.11-1.52.2-2.29A1.79,1.79,0,0,1,46,5.94q16.06-.37,32.38,0a1.76,1.76,0,0,1,1.77,1.52C80.28,8.55,80.33,9.64,80.35,10.73Z"/>
            <path class="cls-9"
                  d="M80.35,10.73v0a1.41,1.41,0,0,1-.16.49.75.75,0,0,1-.93.41,7.87,7.87,0,0,0-.4,1.57c0-.61,0-1.23,0-1.86q0-.67,0-1.35c0-.21,0-.44,0-.67a.48.48,0,0,0,0-.18c0-.29-.46-.39-.71-.45a32.55,32.55,0,0,0-7.12-.19c-7.27.19-14.56-1-21.8-.34a4.5,4.5,0,0,0-2.41.7l-.08.06a2.82,2.82,0,0,0-.68.89.74.74,0,0,0-.1.26,1.21,1.21,0,0,1-.07.2,4.41,4.41,0,0,0-.23.56A4.58,4.58,0,0,0,45.44,12c0,.21,0,.41,0,.61s0,.2,0,.31,0,.15,0,.22c-.29-.82-.22-1.72-.43-2.57a1.24,1.24,0,0,0-.21-.47A.74.74,0,0,0,44.6,10a.34.34,0,0,0-.12-.06H44.3a.3.3,0,0,1-.23-.16c0-.76.11-1.52.2-2.29A1.79,1.79,0,0,1,46,5.94q16.06-.37,32.38,0a1.76,1.76,0,0,1,1.77,1.52C80.28,8.55,80.33,9.64,80.35,10.73Z"/>
            <path class="cls-13"
                  d="M78.82,14.8a.44.44,0,0,1-.43.36c-4.8.11-9.67.17-14.49.18H62.29l-6.47,0-1.73,0q-4-.06-8-.15a.46.46,0,0,1-.45-.4,27.85,27.85,0,0,1,0-6.65l.06-.48a.45.45,0,0,1,.45-.4C51.42,7.09,56.85,7,62.21,7h.13c3.29,0,6.61,0,9.93.07,2,0,4.08.06,6.12.12a.42.42,0,0,1,.43.34h0A36.39,36.39,0,0,1,78.82,14.8Z"/>
            <path class="cls-14"
                  d="M78.82,7.56h0a35,35,0,0,1-.18,3.84.42.42,0,0,1-.44.35c-5.26.12-10.62.19-15.91.19s-10.72-.07-16.06-.19a.45.45,0,0,1-.44-.39,25,25,0,0,1-.23-3.27l.06-.48a.45.45,0,0,1,.45-.4C51.42,7.09,56.85,7,62.21,7s10.8.06,16.18.19A.42.42,0,0,1,78.82,7.56Z"/>
            <path class="cls-15"
                  d="M118.13,10.73v0a38.48,38.48,0,0,1-.17,4.16,1.75,1.75,0,0,1-1.76,1.52q-16.07.39-32.4,0A1.77,1.77,0,0,1,82,14.91a26.94,26.94,0,0,1-.19-5.15c0-.76.1-1.52.19-2.29a1.8,1.8,0,0,1,1.77-1.53q16.06-.37,32.38,0A1.76,1.76,0,0,1,118,7.46C118.06,8.55,118.11,9.64,118.13,10.73Z"/>
            <path class="cls-9"
                  d="M118.13,10.73v0a1.66,1.66,0,0,1-.16.49.75.75,0,0,1-.94.41,8.58,8.58,0,0,0-.39,1.57c0-.61,0-1.23,0-1.86,0-.45,0-.9,0-1.35,0-.21,0-.44,0-.67a.48.48,0,0,0,0-.18c0-.29-.46-.39-.71-.45a32.55,32.55,0,0,0-7.12-.19c-7.27.19-14.56-1-21.8-.34a4.48,4.48,0,0,0-2.41.7l-.08.06a2.82,2.82,0,0,0-.68.89,1,1,0,0,0-.11.26.63.63,0,0,1-.06.2,4.41,4.41,0,0,0-.23.56A5,5,0,0,0,83.21,12c0,.21,0,.41,0,.61s0,.2,0,.31,0,.15,0,.22c-.29-.82-.22-1.72-.43-2.57a1.24,1.24,0,0,0-.21-.47.74.74,0,0,0-.19-.16.45.45,0,0,0-.12-.06h-.18a.3.3,0,0,1-.23-.16c0-.76.1-1.52.19-2.29a1.8,1.8,0,0,1,1.77-1.53q16.06-.37,32.38,0A1.76,1.76,0,0,1,118,7.46C118.06,8.55,118.11,9.64,118.13,10.73Z"/>
            <path class="cls-16"
                  d="M116.6,14.8a.45.45,0,0,1-.44.36c-4.79.11-9.66.17-14.48.18h-1.61l-6.47,0-1.73,0c-2.68,0-5.37-.09-8-.15a.45.45,0,0,1-.45-.4,27.85,27.85,0,0,1,0-6.65l.06-.48a.45.45,0,0,1,.45-.4C89.2,7.09,94.63,7,100,7h.13c3.29,0,6.61,0,9.93.07,2,0,4.08.06,6.11.12a.43.43,0,0,1,.44.34h0A38,38,0,0,1,116.6,14.8Z"/>
            <path class="cls-17"
                  d="M116.6,7.56h0a37.69,37.69,0,0,1-.18,3.84.42.42,0,0,1-.44.35c-5.26.12-10.62.19-15.91.19S89.35,11.88,84,11.76a.45.45,0,0,1-.44-.39,25,25,0,0,1-.23-3.27l.06-.48a.45.45,0,0,1,.45-.4C89.2,7.09,94.63,7,100,7s10.8.06,16.17.19A.43.43,0,0,1,116.6,7.56Z"/>
        </g>
    </g>
</svg>