<svg xmlns="http://www.w3.org/2000/svg" xmlns:xlink="http://www.w3.org/1999/xlink" viewBox="0 0 144.41 42.12">
    <defs>
        <style>
            .cls-1{fill:#9c3708;}.cls-2{fill:url(#_ÂÁ_Ï_ÌÌ_È_ËÂÌÚ_7);}.cls-3{fill:#ffdf80;}.cls-4{fill:url(#_ÂÁ_Ï_ÌÌ_È_ËÂÌÚ_12);}
        </style>
        <linearGradient id="_ÂÁ_Ï_ÌÌ_È_ËÂÌÚ_7" x1="73.72" y1="-1.06" x2="73.72" y2="16.3"
                        gradientUnits="userSpaceOnUse">
            <stop offset="0" stop-color="#ffca2b"/>
            <stop offset="1" stop-color="#d15b24"/>
        </linearGradient>
        <linearGradient id="_ÂÁ_Ï_ÌÌ_È_ËÂÌÚ_12" x1="73.71" y1="45.97" x2="73.71" y2="19.65"
                        gradientUnits="userSpaceOnUse">
            <stop offset="0" stop-color="#ffce3b"/>
            <stop offset="1" stop-color="#cc6923"/>
        </linearGradient>
    </defs>
    <g id="Livello_2" >
        <g id="Livello_2-2" >
            <path class="cls-1"
                  d="M143.33,3.88a2.4,2.4,0,0,0-2.29-2C98.77-.41,53.66-.44,5.73.9A3.07,3.07,0,0,0,3.62,2,17.09,17.09,0,0,0,2,4.65C1.41,5.64.44,6.82.34,8,.21,9.31.14,10.67.09,12-.26,20.54.48,29.53,1.21,38a2.41,2.41,0,0,0,2.27,2.17,1054.22,1054.22,0,0,0,134.9-.41c2.26-.15,3.29-3.52,4.32-5.14a4.9,4.9,0,0,0,1-1.92,123.89,123.89,0,0,0,.72-12.85A110.29,110.29,0,0,0,143.33,3.88Z"/>
            <path class="cls-2"
                  d="M144.41,19.83a123.89,123.89,0,0,1-.72,12.85,2.41,2.41,0,0,1-2.29,2.11,1054.06,1054.06,0,0,1-134.89.42A2.42,2.42,0,0,1,4.23,33C3.5,24.58,2.76,15.6,3.11,7.09c.05-1.37.13-2.72.25-4A2.41,2.41,0,0,1,5.73.9c47.93-1.34,93-1.31,135.31,1a2.4,2.4,0,0,1,2.29,2A110.29,110.29,0,0,1,144.41,19.83Z"/>
            <path class="cls-3"
                  d="M143.58,19.55q-.26.73-.48,1.47a32.43,32.43,0,0,0-1,4.67,18.82,18.82,0,0,0-.23,2.37c0,.25.06.48.07.72a1.33,1.33,0,0,1,0,.4c0,.14-.08.27-.12.4s-.44.94-.36,1.07c-1.46-2.54-1.3-5.64-1.44-8.56s-.81-6.15-3.28-7.84c-1.65-1.13-3.77-1.32-5.78-1.47C90.48,9.71,49.67,8.34,9.14,8.61c-.28.76-.54,1.51-.78,2.28-.37,1.15-.7,2.32-1,3.5q-.21.88-.39,1.77a7.47,7.47,0,0,0-.28,1.68,4.35,4.35,0,0,1,0,.51,6.25,6.25,0,0,1-.2.83c-.14.59-.25,1.18-.34,1.78S6,22.17,6,22.78a10.58,10.58,0,0,0,0,1.78l-.3-2.79-.81-7.52-.4-3.76A3.6,3.6,0,0,0,4.17,9c-.08-.14-.18-.26-.27-.4a10.28,10.28,0,0,1-.79-1.55c.05-1.37.13-2.72.25-4A2.41,2.41,0,0,1,5.73.9c47.93-1.34,93-1.31,135.31,1a2.4,2.4,0,0,1,2.29,2q.48,3.27.73,6.55c.06.82.12,1.64.17,2.46a15.93,15.93,0,0,1,.07,2.29c-.07.64.13,1.25,0,1.9a10.76,10.76,0,0,1-.65,2.16A2.83,2.83,0,0,1,143.58,19.55Z"/>
            <path class="cls-4"
                  d="M141.25,32.43c-13.18.85-26.26,1.46-39.13,1.85q-13.87.44-27.38.5H74c-1.69,0-3.36,0-5,0-21.18,0-42.15-.66-62.32-2C5.92,24,5.08,14.06,5.67,5c0-.59.08-1.17.13-1.76,21.6-.58,41.3-.87,60.2-.87q13.57,0,26.34.2h.41l2.3,0c7.9.14,15.59.34,23.11.61,7.74.26,15.3.6,22.75,1,.39,2.68.66,5.44.83,8.26A118.23,118.23,0,0,1,141.25,32.43Z"/>
        </g>
    </g>
</svg>