<svg xmlns="http://www.w3.org/2000/svg" xmlns:xlink="http://www.w3.org/1999/xlink" viewBox="0 0 41.22 43.37">
    <defs>
        <style>
            .cls-1{fill:#9c3708;}.cls-2{fill:url(#_ÂÁ_Ï_ÌÌ_È_ËÂÌÚ_7);}.cls-3{fill:#ffdf80;}.cls-4{fill:url(#Sfumatura_senza_nome_32);}
        </style>
        <linearGradient id="_ÂÁ_Ï_ÌÌ_È_ËÂÌÚ_7" x1="24.47" y1="-5.39" x2="20.97" y2="32.06"
                        gradientUnits="userSpaceOnUse">
            <stop offset="0" stop-color="#ffca2b"/>
            <stop offset="1" stop-color="#d15b24"/>
        </linearGradient>
        <linearGradient id="Sfumatura_senza_nome_32" x1="21.01" y1="46.13" x2="22.36" y2="20.08"
                        gradientUnits="userSpaceOnUse">
            <stop offset="0" stop-color="#cc6923"/>
            <stop offset="0.37" stop-color="#ffce3b"/>
            <stop offset="0.84" stop-color="#e0912c"/>
        </linearGradient>
    </defs>
    <g id="Layer_2" >
        <g id="Buttons">
            <path class="cls-1"
                  d="M39.58,29.19a45.7,45.7,0,0,1-3.12,5.17c-4,7-13.66,10.52-21.76,8.41A19.69,19.69,0,0,1,2.8,33.45c-.21-.34-.39-.7-.57-1A20.3,20.3,0,0,1,0,24.11a16.4,16.4,0,0,1,.16-3.28c0-.3.09-.59.13-.88A16.18,16.18,0,0,1,1,17.43C2.31,14,5.54,8.24,8.48,6c.94-.71,1.14,1.52,2.13.92C16.35,3.43,23.43,4.37,28.85,8a20.46,20.46,0,0,1,7.65,9.48c.14.34.27.71.4,1.07,0,.07.06.14.09.23.09.27.17.55.26.84s.22.76.3,1.15a3.48,3.48,0,0,1,.1.44,2.33,2.33,0,0,1,.1.44,4.15,4.15,0,0,0,.11.48c0,.22.07.45.11.68v.06l.09.56a.28.28,0,0,0,0,.1l.09.74s0,.09,0,.12C38.26,25.2,39.92,28.4,39.58,29.19Z"/>
            <path class="cls-2"
                  d="M41.21,22.11a12.75,12.75,0,0,1-.14,2.33,14.53,14.53,0,0,1-1.85,5.42.08.08,0,0,1,0,0c-4.05,7-13.52,10.26-21.61,8.15A19.68,19.68,0,0,1,5.69,28.72c-.2-.34-.39-.7-.56-1a20.15,20.15,0,0,1-2.21-8.3,16.4,16.4,0,0,1,.16-3.28c0-.3.08-.59.13-.88a15.16,15.16,0,0,1,.71-2.52,19.58,19.58,0,0,1,6.69-8.57c.94-.7,1.9-1.37,2.9-2C19.25-1.3,26.33-.36,31.75,3.27a20.38,20.38,0,0,1,7.64,9.48c.15.34.28.71.41,1.07a1.23,1.23,0,0,1,.08.23c.09.27.18.55.26.84s.22.76.31,1.15c0,.15.07.29.1.44s.07.3.1.44.06.32.1.48.07.45.12.68v.06l.08.56a.16.16,0,0,0,0,.1l.09.74s0,.09,0,.11C41.16,20.46,41.2,21.29,41.21,22.11Z"/>
            <path class="cls-3"
                  d="M36.58,28.94a26.73,26.73,0,0,1-2,2.4l-.17.18a8.69,8.69,0,0,0,1.07-1.72c.34-.6.64-1.22.92-1.85a10.74,10.74,0,0,0,.7-1.92,7.79,7.79,0,0,0-.06-1.36,11.11,11.11,0,0,1,.27-1.51,5.57,5.57,0,0,0,0-1c0-.72-.06-1.44-.14-2.16a18.78,18.78,0,0,0-1-4.19l-.09-.24C34.52,11.35,31,7.73,26.57,6.71A15.35,15.35,0,0,0,16.82,8a11.29,11.29,0,0,0-1.11.53,31.15,31.15,0,0,0-4.16,2.65c-1.31.95-2.5,2.08-3.85,3a2.61,2.61,0,0,1-2.11.51,2.48,2.48,0,0,1-1.4-1.42,5.14,5.14,0,0,1-.27-.58,19.58,19.58,0,0,1,6.69-8.57c.94-.7,1.9-1.37,2.9-2C19.25-1.3,26.33-.36,31.75,3.27a20.58,20.58,0,0,1,3.47,2.92,20.09,20.09,0,0,1,2.25,2.86,24.11,24.11,0,0,1,3.7,10.81A5.52,5.52,0,0,1,40.69,23a3.47,3.47,0,0,1-.82,1,1.18,1.18,0,0,0-.25.25c-.91,1.27-1.59,2.68-2.47,4C37,28.42,36.78,28.68,36.58,28.94Z"/>
            <path class="cls-4"
                  d="M39.16,21.89A13.7,13.7,0,0,1,39,23.94a13,13,0,0,1-1.62,4.78s0,0,0,0c-3.28,5.64-10.53,8.55-17.21,7.56l-.06,0a11,11,0,0,1-1.71-.35,17,17,0,0,1-9.34-6.52A15.39,15.39,0,0,1,8,27.72a8.19,8.19,0,0,1-.5-.92,17.68,17.68,0,0,1-1.95-7.31,16.5,16.5,0,0,1,.13-2.89c0-.27.08-.53.14-.79.76-4.11,3.32-7.31,6.48-9.76A25.21,25.21,0,0,1,14.84,4.3,12.51,12.51,0,0,1,19,2.68a15.81,15.81,0,0,1,11.91,2.6,18.11,18.11,0,0,1,6.71,8.36c.12.31.24.62.35.95,0,.06,0,.12.07.19.08.25.15.5.23.75a4.77,4.77,0,0,1,.17.65s0,0,0,0a1.92,1.92,0,0,1,.09.32l.09.39.09.39c0,.14,0,.28.08.43s.07.39.1.59v.06c0,.16.06.31.09.5V19c0,.21.05.43.08.65,0,0,0,.06,0,.1q0,.53.09,1.08C39.14,21.18,39.16,21.54,39.16,21.89Z"/>
        </g>
    </g>
</svg>