<svg xmlns="http://www.w3.org/2000/svg" xmlns:xlink="http://www.w3.org/1999/xlink" viewBox="0 0 180.9 50.99">
    <defs>
        <style>
            .cls-1{fill:#9c3708;}.cls-2{fill:url(#_ÂÁ_Ï_ÌÌ_È_ËÂÌÚ_7);}.cls-3{fill:#ffdf80;}.cls-4{fill:url(#_ÂÁ_Ï_ÌÌ_È_ËÂÌÚ_12);}
        </style>
        <linearGradient id="_ÂÁ_Ï_ÌÌ_È_ËÂÌÚ_7" x1="91.74" y1="-1.33" x2="91.74" y2="20.56"
                        gradientUnits="userSpaceOnUse">
            <stop offset="0" stop-color="#ffca2b"/>
            <stop offset="1" stop-color="#d15b24"/>
        </linearGradient>
        <linearGradient id="_ÂÁ_Ï_ÌÌ_È_ËÂÌÚ_12" x1="91.74" y1="59.28" x2="91.74" y2="24.84"
                        gradientUnits="userSpaceOnUse">
            <stop offset="0" stop-color="#ffce3b"/>
            <stop offset="1" stop-color="#cc6923"/>
        </linearGradient>
    </defs>
    <g id="Layer_2" >
        <g id="Buttons">
            <path class="cls-1"
                  d="M179.55,4.7a3,3,0,0,0-2.87-2.44C123.73-.49,67.22-.54,7.18,1.09c-1,0-2.69,0-3.43.59A6,6,0,0,0,2.5,2.88C1.72,3.94.56,5.51.42,6.92c-.15,1.61-.24,6-.31,7.64C-.33,24.87.61,35.75,1.51,46a3,3,0,0,0,2.85,2.62c56.25,3.5,112.73,3,169-.5,2.84-.18,4.13-4.26,5.41-6.22A5.78,5.78,0,0,0,180,39.57,143.42,143.42,0,0,0,180.9,24,129.13,129.13,0,0,0,179.55,4.7Z"/>
            <path class="cls-2"
                  d="M180.9,25A153,153,0,0,1,180,41.22a3,3,0,0,1-2.89,2.66C120.47,47.5,63.61,48.05,7,44.4A3.06,3.06,0,0,1,4.1,41.67C3.19,31,2.25,19.67,2.7,8.94c.06-1.72.15-3.43.31-5.1A3,3,0,0,1,6,1.13C66.45-.56,123.34-.51,176.65,2.36a3,3,0,0,1,2.89,2.54A138.4,138.4,0,0,1,180.9,25Z"/>
            <path class="cls-3"
                  d="M179.85,24.66c-.21.61-.41,1.23-.6,1.85a40.85,40.85,0,0,0-1.3,5.9,24.86,24.86,0,0,0-.3,3c0,.31.09.6.1.91a1.7,1.7,0,0,1-.05.5,5,5,0,0,1-.16.51c-.06.21-.55,1.19-.45,1.35-1.84-3.21-1.64-7.12-1.81-10.79s-1-7.76-4.14-9.9c-2.09-1.42-4.76-1.66-7.29-1.86-51-3.87-102.44-5.59-153.55-5.25-.36,1-.69,1.91-1,2.87-.47,1.46-.88,2.93-1.24,4.41-.18.75-.35,1.49-.5,2.24a9.7,9.7,0,0,0-.36,2.12,3.43,3.43,0,0,1,0,.64,7.46,7.46,0,0,1-.24,1c-.18.75-.33,1.5-.44,2.26S6.37,28,6.32,28.72a15.39,15.39,0,0,0,0,2.25c-.12-1.17-.25-2.34-.37-3.51L4.89,18l-.51-4.74A4.47,4.47,0,0,0,4,11.41a5.76,5.76,0,0,0-.35-.51,12,12,0,0,1-1-2c.06-1.72.15-3.43.31-5.1A3,3,0,0,1,6,1.13C66.45-.56,123.34-.51,176.65,2.36a3,3,0,0,1,2.89,2.54c.4,2.74.7,5.49.92,8.25.08,1,.15,2.07.21,3.1a19.94,19.94,0,0,1,.09,2.89c-.08.81.17,1.58.05,2.4a14.51,14.51,0,0,1-.81,2.73Z"/>
            <path class="cls-4"
                  d="M177.78,41.56C161,42.66,144.32,43.47,127.92,44q-17.67.57-34.87.65a6.61,6.61,0,0,1-.89,0c-2.16,0-4.29,0-6.43,0-27,0-53.69-.87-79.39-2.58-1-11.57-2-24.58-1.28-36.43,0-.78.09-1.54.15-2.3,27.53-.76,52.62-1.15,76.7-1.15q17.3,0,33.56.27H116l2.93,0q15.09.29,29.44.81c9.86.34,19.49.77,29,1.3.5,3.51.84,7.12,1.06,10.81A158.91,158.91,0,0,1,177.78,41.56Z"/>
        </g>
    </g>
</svg>