<svg xmlns="http://www.w3.org/2000/svg" xmlns:xlink="http://www.w3.org/1999/xlink" viewBox="0 0 120.01 35">
    <defs>
        <style>
            .cls-1{fill:#9c3708;}.cls-2{fill:url(#_ÂÁ_Ï_ÌÌ_È_ËÂÌÚ_7);}.cls-3{fill:#ffdf80;}.cls-4{fill:url(#_ÂÁ_Ï_ÌÌ_È_ËÂÌÚ_12);}
        </style>
        <linearGradient id="_ÂÁ_Ï_ÌÌ_È_ËÂÌÚ_7" x1="61.26" y1="-0.88" x2="61.26" y2="13.55"
                        gradientUnits="userSpaceOnUse">
            <stop offset="0" stop-color="#ffca2b"/>
            <stop offset="1" stop-color="#d15b24"/>
        </linearGradient>
        <linearGradient id="_ÂÁ_Ï_ÌÌ_È_ËÂÌÚ_12" x1="61.26" y1="38.2" x2="61.26" y2="16.33"
                        gradientUnits="userSpaceOnUse">
            <stop offset="0" stop-color="#ffce3b"/>
            <stop offset="1" stop-color="#cc6923"/>
        </linearGradient>
    </defs>
    <g id="Layer_2" >
        <g id="Buttons">
            <path class="cls-1"
                  d="M119.11,3.23a2,2,0,0,0-1.9-1.68C82.08-.34,44.59-.37,4.77.75A2.51,2.51,0,0,0,3,1.62,13.74,13.74,0,0,0,1.66,3.86,7.63,7.63,0,0,0,.28,6.64C.18,7.74.12,8.86.08,10A172.39,172.39,0,0,0,1,31.56a2,2,0,0,0,1.9,1.81A875.24,875.24,0,0,0,115,33c1.88-.12,2.74-2.92,3.59-4.27a4,4,0,0,0,.83-1.59,104.1,104.1,0,0,0,.6-10.68A92,92,0,0,0,119.11,3.23Z"/>
            <path class="cls-2"
                  d="M120,16.48a104.1,104.1,0,0,1-.6,10.68,2,2,0,0,1-1.91,1.75,875.24,875.24,0,0,1-112.09.35,2,2,0,0,1-1.9-1.8A172.63,172.63,0,0,1,2.59,5.89c0-1.13.1-2.26.2-3.36a2,2,0,0,1,2-1.78c39.82-1.12,77.31-1.09,112.44.8a2,2,0,0,1,1.9,1.68A92,92,0,0,1,120,16.48Z"/>
            <path class="cls-3"
                  d="M119.32,16.25c-.14.4-.28.81-.4,1.22a25.83,25.83,0,0,0-.85,3.88,14.61,14.61,0,0,0-.2,2c0,.2,0,.4.06.6a1.23,1.23,0,0,1,0,.33c0,.11-.07.22-.1.34s-.37.78-.31.88c-1.21-2.11-1.08-4.69-1.19-7.11s-.67-5.11-2.72-6.52a9.74,9.74,0,0,0-4.81-1.22C75.19,8.07,41.28,6.93,7.59,7.16c-.23.62-.44,1.25-.65,1.89C6.64,10,6.36,11,6.13,12q-.18.73-.33,1.47a6.73,6.73,0,0,0-.24,1.4,1.94,1.94,0,0,1,0,.42,5.73,5.73,0,0,1-.16.69c-.12.49-.21,1-.29,1.48S5,18.42,5,18.93a9.15,9.15,0,0,0,0,1.48c-.08-.77-.16-1.54-.25-2.31C4.48,16,4.26,13.93,4,11.84L3.7,8.72a3,3,0,0,0-.23-1.2c-.07-.12-.16-.23-.23-.34a8.2,8.2,0,0,1-.65-1.29c0-1.13.1-2.26.2-3.36a2,2,0,0,1,2-1.78c39.82-1.12,77.31-1.09,112.44.8a2,2,0,0,1,1.9,1.68c.26,1.8.46,3.62.6,5.43.06.69.1,1.37.14,2.05a12.11,12.11,0,0,1,.06,1.9c0,.54.12,1,0,1.58a9.33,9.33,0,0,1-.54,1.8Z"/>
            <path class="cls-4"
                  d="M117.38,27c-10.95.7-21.82,1.21-32.52,1.54-7.68.24-15.28.37-22.75.41a5.61,5.61,0,0,1-.58,0c-1.4,0-2.8,0-4.19,0-17.6,0-35-.55-51.79-1.63-.63-7.35-1.32-15.61-.84-23.14,0-.49.07-1,.11-1.45,18-.49,34.32-.73,50-.73,7.53,0,14.81.06,21.9.16h.33l1.92,0q9.84.18,19.21.52c6.43.21,12.71.49,18.9.82.32,2.23.55,4.53.69,6.87A99.19,99.19,0,0,1,117.38,27Z"/>
        </g>
    </g>
</svg>