<svg xmlns="http://www.w3.org/2000/svg" width="160.858" height="435.917" viewBox="0 0 160.858 435.917">
  <g id="Group_56"  transform="translate(882.271 746.909)">
    <g id="Group_55" transform="translate(-882.271 -746.909)">
      <path id="Path_28"  d="M-847.2-611.9c-1.4,5.336-4.335,9.967-6.876,14.785-.459.87-.877,1.762-1.316,2.642a18.19,18.19,0,0,0-1.955,11.594c1.113,6.142-.1,12.027-1.779,17.892-1.5,5.247-2.995,10.5-4.275,15.8a25.076,25.076,0,0,0-.447,9.9A13.271,13.271,0,0,0-860-531.749c4.087,4.021,6.271,9.007,7.449,14.5.506,2.36.883,4.753,1.191,7.147a9.474,9.474,0,0,1-.151,3.064,1.934,1.934,0,0,1-3.368,1.148,9.867,9.867,0,0,1-3.323-4.957c-.4-1.467-.8-2.933-1.255-4.382a1.593,1.593,0,0,0-1.886-1.325c-1.1.171-1.076,1.012-1.16,1.825a35.5,35.5,0,0,0-.033,10.181,10.735,10.735,0,0,0,4.18,7.121,1.916,1.916,0,0,1,.643.664c.9,1.982,1.765,3.98,2.689,6.081-3.063,1.173-6.19,2.7-9.781,2.8a8.955,8.955,0,0,1-6.837-2.643c-7.311-7.357-11.281-16-9.759-26.6.534-3.72,1.29-7.408,1.936-11.112a29.211,29.211,0,0,0-.442-11.233c-2.4-11.156-2.6-22.45-2.189-33.777a77.92,77.92,0,0,1,2.753-17.072,89.754,89.754,0,0,0,2.172-13.927,87.205,87.205,0,0,1,3.691-16.893,90.625,90.625,0,0,0,3.446-22.941,57.054,57.054,0,0,1,1.96-13.541c2.127-7.359,7.111-12.049,13.918-15.118,5.267-2.374,10.527-4.774,15.7-7.349a30.436,30.436,0,0,0,5.8-3.889c5.108-4.249,6.6-9.662,4.521-15.953-1.234-3.737-2.773-7.373-4.045-11.1-3.5-10.232-1.694-19.757,4.741-28.183,2.8-3.672,6.643-6.844,11.534-7.452,10.284-1.278,19.434,2.432,23.845,12.861a38.231,38.231,0,0,1,2.854,13.733c.192,5.612.306,11.23.264,16.844a31.319,31.319,0,0,1-1.509,10.339c-1.073,3.021-2.84,5.356-6.049,6.373-1.189.377-2.251,3.434-1.528,4.809a11.906,11.906,0,0,0,2.579,3.37c3.69,3.238,8.171,5.154,12.582,7.157,2.161.982,4.313,2.008,6.542,2.811,6.068,2.187,9.825,6.69,12.6,12.233a38.578,38.578,0,0,1,3.745,15.972c.125,3,.352,6,.554,9a3.951,3.951,0,0,0,.274,1.311,39.571,39.571,0,0,1,2.87,12.522c.651,7.18,2.479,14.1,4.245,21.038a94.636,94.636,0,0,0,5.781,15.879,119,119,0,0,1,8.692,27.586,70.755,70.755,0,0,0,10.957,27.52,30.3,30.3,0,0,1,4.783,10.461,13.489,13.489,0,0,1-1.18,9.783c-2.124,3.9-4.818,7.268-8.815,9.374a6.717,6.717,0,0,1-7.712-.46,1.173,1.173,0,0,1-.428-1.684c1.251-2.772,2.512-5.548,3.568-8.4a9.035,9.035,0,0,0-.093-7.093,24.263,24.263,0,0,0-.533,3.2c-.025.949-.514,1.24-1.3,1.361a4.108,4.108,0,0,1-4.794-3.019,48.773,48.773,0,0,1-1.458-8.019c-.43-3.691-.386-7.45-1-11.1-.919-5.441-4.122-9.771-7.658-13.833-4.511-5.184-9.1-10.3-13.583-15.509-1.269-1.474-2.288-3.164-3.7-4.67.47,4.073.826,8.162,1.436,12.214,1.153,7.661,2.427,15.305,3.7,22.949.9,5.389,1.924,10.756,2.792,16.15a79.54,79.54,0,0,1,.518,18.412,88.817,88.817,0,0,1-3.324,19.164q-1.845,6.168-3.6,12.364a15.9,15.9,0,0,0,.028,6.73,18.963,18.963,0,0,1-.046,5.509c-1.262,8.323-2.671,16.624-3.992,24.938-.815,5.131-1.654,10.261-2.327,15.412a209.992,209.992,0,0,1-6.094,30.4A58.366,58.366,0,0,0-784-364.262a23.314,23.314,0,0,0,6.262,16.18c2.952,3.192,6.229,6.083,9.349,9.121,2.775,2.7,5.461,5.487,6.927,9.17a8.2,8.2,0,0,1-.171,7.15,1.639,1.639,0,0,1-1.041.828c-3.175.263-6.355.48-9.537.632-4.045.194-7.486-1.527-10.826-3.539-2.687-1.619-5.345-3.295-8.1-4.782a13.889,13.889,0,0,0-6.755-1.487,22.906,22.906,0,0,1-5.458-.525c-2.792-.682-4.28-2.84-4.432-5.718-.223-4.233,1.021-8.244,1.759-12.339,1.2-6.652,2.451-13.3,3.357-20,1.025-7.578-.416-14.878-3.025-22.035a110.8,110.8,0,0,1-3.9-13.1c-1.358-5.913-.42-11.8,1.242-17.538,1.83-6.316,3.917-12.557,5.787-18.862a40.843,40.843,0,0,0,.653-19.186c-1.378-7.578-2.9-15.133-4.059-22.744a44.9,44.9,0,0,1,.019-8.74c.217-4.687,1.1-9.357.057-14.11-.24,1.186-.495,2.368-.717,3.557-.89,4.751-1.882,9.486-2.618,14.26-.642,4.162-.857,8.389-1.5,12.551-1.081,7.008-2.494,13.953-6.045,20.222a24.306,24.306,0,0,0-3.045,11.173,40.527,40.527,0,0,1-3.751,15.307c-4.162,9.083-6.233,18.755-8.125,28.459-2.049,10.505-3.892,21.054-5.625,31.616a122.482,122.482,0,0,0-1.585,14.7,47.156,47.156,0,0,0,2.7,16.917,79.8,79.8,0,0,0,3.993,9.081c1.882,3.916,3.987,7.723,4.673,12.107.558,3.564-.316,4.9-3.856,4.92-5.245.034-10.512.07-15.728-.385a12.057,12.057,0,0,1-5.815-2.654,27.7,27.7,0,0,1-9.866-14.409,13.881,13.881,0,0,1,.759-8.716c1.235-3.36,2.654-6.652,3.93-10a36.758,36.758,0,0,0,1.853-18.154c-.9-6.791-2.322-13.516-3.123-20.316a89.793,89.793,0,0,1-.431-13.428,140.432,140.432,0,0,1,3.578-25.949c1.178-5.274,2.805-10.454,4.39-15.628a61.513,61.513,0,0,0,2.541-17.242c.194-13.8.141-27.6.338-41.4.176-12.263.435-24.528.892-36.784.241-6.448.86-12.891,1.555-19.309a46.4,46.4,0,0,1,1.965-9.587c2.56-7.7,2.813-15.63,3.211-23.624.382-7.68-1.722-14.6-4.848-21.381-.28-.607-.509-1.238-.766-1.856C-846.972-611.848-847.027-611.849-847.2-611.9Z" 
      transform="translate(882.271 746.909)" fill="#a2a2a2"/>
    </g>
  </g>
</svg>
