<svg xmlns="http://www.w3.org/2000/svg" xmlns:xlink="http://www.w3.org/1999/xlink" viewBox="0 0 220.25 50.33"><defs><style>.cls-1{isolation:isolate;}.cls-2{fill:#9c3708;}.cls-3{fill:url(#_ÂÁ_Ï_ÌÌ_È_ËÂÌÚ_12);}.cls-4{fill:url(#_ÂÁ_Ï_ÌÌ_È_ËÂÌÚ_12-2);}.cls-5{fill:url(#_ÂÁ_Ï_ÌÌ_È_ËÂÌÚ_12-3);}.cls-6{fill:url(#_ÂÁ_Ï_ÌÌ_È_ËÂÌÚ_12-4);}.cls-7{fill:url(#_ÂÁ_Ï_ÌÌ_È_ËÂÌÚ_12-5);}.cls-8{fill:url(#_ÂÁ_Ï_ÌÌ_È_ËÂÌÚ_12-6);}.cls-9{fill:url(#_ÂÁ_Ï_ÌÌ_È_ËÂÌÚ_12-7);}.cls-10{fill:url(#_ÂÁ_Ï_ÌÌ_È_ËÂÌÚ_12-8);}.cls-11{fill:url(#_ÂÁ_Ï_ÌÌ_È_ËÂÌÚ_12-9);}.cls-12{fill:url(#_ÂÁ_Ï_ÌÌ_È_ËÂÌÚ_12-10);}.cls-13{fill:url(#_ÂÁ_Ï_ÌÌ_È_ËÂÌÚ_12-11);}.cls-14{fill:url(#_ÂÁ_Ï_ÌÌ_È_ËÂÌÚ_12-12);}.cls-15{fill:url(#_ÂÁ_Ï_ÌÌ_È_ËÂÌÚ_12-13);}.cls-16{fill:url(#_ÂÁ_Ï_ÌÌ_È_ËÂÌÚ_12-14);}.cls-17{fill:#ffdf80;}.cls-18,.cls-19,.cls-20{mix-blend-mode:screen;}.cls-18{fill:url(#_ÂÁ_Ï_ÌÌ_È_ËÂÌÚ_11);}.cls-19{fill:url(#_ÂÁ_Ï_ÌÌ_È_ËÂÌÚ_11-2);}.cls-20{fill:url(#_ÂÁ_Ï_ÌÌ_È_ËÂÌÚ_11-3);}</style><linearGradient id="_ÂÁ_Ï_ÌÌ_È_ËÂÌÚ_12" x1="17.92" y1="48.68" x2="17.36" y2="3.95" gradientUnits="userSpaceOnUse"><stop offset="0" stop-color="#ffce3b"/><stop offset="1" stop-color="#cc6923"/></linearGradient><linearGradient id="_ÂÁ_Ï_ÌÌ_È_ËÂÌÚ_12-2" x1="56.27" y1="48.19" x2="55.71" y2="3.17" xlink:href="#_ÂÁ_Ï_ÌÌ_È_ËÂÌÚ_12"/><linearGradient id="_ÂÁ_Ï_ÌÌ_È_ËÂÌÚ_12-3" x1="100.53" y1="47.62" x2="99.95" y2="1.95" xlink:href="#_ÂÁ_Ï_ÌÌ_È_ËÂÌÚ_12"/><linearGradient id="_ÂÁ_Ï_ÌÌ_È_ËÂÌÚ_12-4" x1="140.4" y1="47.12" x2="139.83" y2="1.61" xlink:href="#_ÂÁ_Ï_ÌÌ_È_ËÂÌÚ_12"/><linearGradient id="_ÂÁ_Ï_ÌÌ_È_ËÂÌÚ_12-5" x1="190.36" y1="46.54" x2="189.81" y2="3.26" xlink:href="#_ÂÁ_Ï_ÌÌ_È_ËÂÌÚ_12"/><linearGradient id="_ÂÁ_Ï_ÌÌ_È_ËÂÌÚ_12-6" x1="17.89" y1="20.36" x2="17.64" y2="0.19" xlink:href="#_ÂÁ_Ï_ÌÌ_È_ËÂÌÚ_12"/><linearGradient id="_ÂÁ_Ï_ÌÌ_È_ËÂÌÚ_12-7" x1="54.69" y1="31.91" x2="54.29" y2="0.19" xlink:href="#_ÂÁ_Ï_ÌÌ_È_ËÂÌÚ_12"/><linearGradient id="_ÂÁ_Ï_ÌÌ_È_ËÂÌÚ_12-8" x1="26.04" y1="25.86" x2="25.92" y2="16.84" xlink:href="#_ÂÁ_Ï_ÌÌ_È_ËÂÌÚ_12"/><linearGradient id="_ÂÁ_Ï_ÌÌ_È_ËÂÌÚ_12-9" x1="95.81" y1="32.53" x2="95.42" y2="0.95" xlink:href="#_ÂÁ_Ï_ÌÌ_È_ËÂÌÚ_12"/><linearGradient id="_ÂÁ_Ï_ÌÌ_È_ËÂÌÚ_12-10" x1="128.51" y1="29.86" x2="128.15" y2="1.02" xlink:href="#_ÂÁ_Ï_ÌÌ_È_ËÂÌÚ_12"/><linearGradient id="_ÂÁ_Ï_ÌÌ_È_ËÂÌÚ_12-11" x1="154.36" y1="27.93" x2="154.02" y2="1.13" xlink:href="#_ÂÁ_Ï_ÌÌ_È_ËÂÌÚ_12"/><linearGradient id="_ÂÁ_Ï_ÌÌ_È_ËÂÌÚ_12-12" x1="175.5" y1="23.37" x2="175.21" y2="0.21" xlink:href="#_ÂÁ_Ï_ÌÌ_È_ËÂÌÚ_12"/><linearGradient id="_ÂÁ_Ï_ÌÌ_È_ËÂÌÚ_12-13" x1="172.9" y1="23.78" x2="172.85" y2="20.02" xlink:href="#_ÂÁ_Ï_ÌÌ_È_ËÂÌÚ_12"/><linearGradient id="_ÂÁ_Ï_ÌÌ_È_ËÂÌÚ_12-14" x1="206.24" y1="13.49" x2="206.08" y2="0.3" xlink:href="#_ÂÁ_Ï_ÌÌ_È_ËÂÌÚ_12"/><linearGradient id="_ÂÁ_Ï_ÌÌ_È_ËÂÌÚ_11" x1="123.1" y1="-1.31" x2="120.43" y2="4.18" gradientUnits="userSpaceOnUse"><stop offset="0" stop-color="#f2de6d"/><stop offset="1"/></linearGradient><linearGradient id="_ÂÁ_Ï_ÌÌ_È_ËÂÌÚ_11-2" x1="100.26" y1="-0.44" x2="77.41" y2="46.61" xlink:href="#_ÂÁ_Ï_ÌÌ_È_ËÂÌÚ_11"/><linearGradient id="_ÂÁ_Ï_ÌÌ_È_ËÂÌÚ_11-3" x1="68.37" y1="30.89" x2="58.78" y2="50.65" xlink:href="#_ÂÁ_Ï_ÌÌ_È_ËÂÌÚ_11"/></defs><g class="cls-1"><g id="Layer_2" data-name="Layer 2"><g id="Color_palette" data-name="Color palette"><path class="cls-2" d="M26.29,3.28a22.46,22.46,0,0,1-2.86.2H13.77L6,2.19l-3.77-1L0,3.48v.65H.8a3.66,3.66,0,0,1,2.74,1.2,4.35,4.35,0,0,1,1.19,2.9V44.28c-.89,1.94-1.58,1.36-2.55,1.79A7,7,0,0,0,0,48.38V49H18l.69-.65s2.68-1.66,2.18-1.66c-1.06,0-4.08-.27-4.84-1.08s-2-.23-2.07-1.36V27.94h8.12a5.21,5.21,0,0,1,3.75,1.63,5.57,5.57,0,0,1,1.47,4v.52h.62l1.66-1.68.52-.63-.62-15-2.18,2.3v.46a5.66,5.66,0,0,1-1.47,4,5.08,5.08,0,0,1-3.75,1.66H14V6.28H24.29A5.76,5.76,0,0,1,28.69,8a6.52,6.52,0,0,1,1.63,4.65v.65h.61L33.11,11l-.94-5L30.93,4.19V2.31a9.54,9.54,0,0,1-1.84.52C28.23,3,27.29,3.15,26.29,3.28Z"/><path class="cls-2" d="M68.08,41.32a11.72,11.72,0,0,1-4,3.64,11.12,11.12,0,0,1-5.41,1.27H50.61V27.94h8.12a5.21,5.21,0,0,1,3.75,1.63,5.57,5.57,0,0,1,1.47,4v.52h.62l2.18-2.31V18.67l-.61-1.88L64,19.09v.46a5.66,5.66,0,0,1-1.47,4,5.08,5.08,0,0,1-3.75,1.66H50.61V6.28H61.32a5.92,5.92,0,0,1,4,1.82A6.82,6.82,0,0,1,67,12.91v.78h.61l2.19-2.3V7.14L67.58,4.19V2.31a9.54,9.54,0,0,1-1.84.52c-.86.17-1.8.32-2.8.45a22.33,22.33,0,0,1-2.86.2H50.43L42.07,1.17H38.83L36.65,3.48v.65h.8a3.64,3.64,0,0,1,2.74,1.2,4.36,4.36,0,0,1,1.2,2.9V44.28c0,1.13-1.3,1.12-2.56,1.79-1,.51-.4.58-1.44,1.52l-.74.79V49H68.32l2.37-2.31L72.9,33.38l-2.18,2.31A20.08,20.08,0,0,1,68.08,41.32Z"/><path class="cls-2" d="M113.58,43.43c-.57-.78-1.21-1.69-1.91-2.73s-1.36-2.07-2-3.09L108.08,35c-.43-.7-.67-1.09-.71-1.17a20.37,20.37,0,0,0-2.68-3.39,8.72,8.72,0,0,0-3.59-2.34,10.25,10.25,0,0,0,5.72-2.31,11.92,11.92,0,0,0,3.29-4.62,14.7,14.7,0,0,0,1.07-5.43A12.41,12.41,0,0,0,110,10a10.37,10.37,0,0,0-3.29-3.77A14,14,0,0,0,102,4.13a22.76,22.76,0,0,0-5.41-.65H88.61l-6.49-2-4.49-.3L75.45,3.48v.65h.8A3.64,3.64,0,0,1,79,5.33a4.32,4.32,0,0,1,1.2,2.9V44.28c0,1.13-.46,1.39-1.52,1.39a6.34,6.34,0,0,1-1,.4,25.69,25.69,0,0,0-2.18,2.31V49H94.09l2.18-2.31a12.4,12.4,0,0,1-2-.87c-1.06,0-2.45.57-3.22-.23s-1.61-.21-1.61-1.34V6.34h1l1.84,0c.68,0,1.3,0,1.88,0a6.82,6.82,0,0,1,5,2.25q2,2.17,2.21,6.86a10.09,10.09,0,0,1,0,1.76c-.06.52-.13,1-.21,1.36a10.27,10.27,0,0,1-1.72,4.49c-.82,1.09-5.39.76-5.76.76s-2.05,2.3-2.18,2.3v.65A4.33,4.33,0,0,1,93.75,28a8.45,8.45,0,0,1,1.87,3.12c.13.39.33.94.62,1.63s.62,1.46,1,2.31.79,1.72,1.2,2.63.81,1.77,1.2,2.58a20.67,20.67,0,0,0,1.08,2,12.76,12.76,0,0,0,8.42,6.15,27.33,27.33,0,0,0,6,.62h6l2.18-2.31C122.32,46.68,114.48,44.6,113.58,43.43Z"/><path class="cls-2" d="M161.61,4.13l2.18-2.31-13.16-.65-2.18,2.31v.65H149a2.93,2.93,0,0,1,2.16,1.07q1,1.08.18,3h0L140.52,35.07,130.09,8.23h0a3,3,0,0,1,.22-3,2.63,2.63,0,0,1,2.06-1.07H133l2.18-2.31-19.55-.65L113.4,3.48v.65h.49a5.51,5.51,0,0,1,2.92.94,6.9,6.9,0,0,1,2.49,3.16h0l18.45,42.1h.55c0-.48,1.92-1.46,2.18-2.31s-1.13-1.4-.76-2.31.7-1.73,1-2.44.5-1.21.59-1.47L155.67,8.23h0a6.78,6.78,0,0,1,2.49-3.16,5.38,5.38,0,0,1,2.86-.94Z"/><path class="cls-2" d="M217,46.29c-1.07,0-2.41.48-3.27-.24s-.9-.39-1.12-1.61L209,.26l-2.18,2.31-18.28,33.2L171.05.26l-2.18,2.31-5,40.34a3.15,3.15,0,0,1-1.14,2.28,2.81,2.81,0,0,1-2.29.88c-.62,0-2.14,2.31-2.18,2.31V49h12.85l2.18-2.31s-5.5-.38-5.5-1.08v-.19l2.39-23.21L186,50.33h.62c.77-.58,2.09-1.79,2.18-2.31.15-.93-.6-3.33.22-4.85l11.49-21.1,2.32,22.5s-.36,1.57-1.06,1.57l-2.18,2.3V49h18.45l2.18-2.31Z"/><path class="cls-3" d="M33.12,7.07V11H32.5v-.64a6.5,6.5,0,0,0-1.63-4.66A5.8,5.8,0,0,0,26.47,4H16.14V22.91h8.12A5.08,5.08,0,0,0,28,21.25a5.66,5.66,0,0,0,1.48-4v-.46h.61v15h-.61v-.51a5.5,5.5,0,0,0-1.48-4,5.09,5.09,0,0,0-3.75-1.63H16.14V42a4.27,4.27,0,0,0,1.2,2.88,3.61,3.61,0,0,0,2.74,1.21h.8v.65H2.18v-.65H3a3.61,3.61,0,0,0,2.74-1.21A4.27,4.27,0,0,0,6.92,42V28.35c.18-2.58.39-5,.6-6.13.54-2.88.54-14.84.54-16.15,0-.59.24-1.47-.41-2.15S5.25,2.5,6,2.19c1.29-.58,6.88.43,7.7.29s10.62.14,13.89-.59,4.36-1,4.63,0S32.31,5.63,33.12,7.07Z"/><path class="cls-4" d="M73.52,33.38,70.69,46.72H38.83v-.65h.8a3.61,3.61,0,0,0,2.74-1.21A4.27,4.27,0,0,0,43.57,42V16.08a8,8,0,0,0,.59-2.22,56.18,56.18,0,0,1-.34-6.27c.14-1,.41-1.73.48-2.24S42.39,2.25,42.73,2s-.41-.5.34-.29,6.61.08,7.15.15,4.7-.15,5.25-.15h5.24c.48,0,4.5-.21,4.7-.15s2.72-.72,3-.57.61-.07.68.36.27,4.54.41,5.26-.34.87-.55.72-.34-.79-.61-.72c-.06,0-.1.1-.13.21a5.23,5.23,0,0,0-.75-1A6,6,0,0,0,63.51,4H52.79V22.91h8.12a5.08,5.08,0,0,0,3.75-1.66,5.66,5.66,0,0,0,1.48-4v-.46h.61v15h-.61v-.51a5.5,5.5,0,0,0-1.48-4,5.09,5.09,0,0,0-3.75-1.63H52.79V43.92h8.06a11.12,11.12,0,0,0,5.41-1.27,11.62,11.62,0,0,0,4-3.64,19.42,19.42,0,0,0,2.64-5.63Z"/><path class="cls-5" d="M123.39,46.07v.65h-6a26.58,26.58,0,0,1-6-.62,13.22,13.22,0,0,1-4.8-2.11,13.48,13.48,0,0,1-3.63-4,17.85,17.85,0,0,1-1.07-2q-.59-1.2-1.2-2.58c-.41-.91-.81-1.78-1.2-2.63s-.73-1.61-1-2.31-.49-1.24-.61-1.63a8.76,8.76,0,0,0-1.88-3.12,4.37,4.37,0,0,0-2.3-1.24v-.64h1.9a7.64,7.64,0,0,0,3.23-.72,7.4,7.4,0,0,0,2.8-2.34,10.31,10.31,0,0,0,1.72-4.5c.08-.38.15-.84.22-1.36a10.07,10.07,0,0,0,0-1.76c-.13-3.12-.86-5.41-2.22-6.87a6.84,6.84,0,0,0-5-2.24C95.7,4,95.07,4,94.4,4L92.55,4h-1V42a4,4,0,0,0,1.17,2.88,3.69,3.69,0,0,0,2.76,1.21h.74v.65H77.64v-.65h.8a3.61,3.61,0,0,0,2.73-1.21A4.27,4.27,0,0,0,82.37,42V24.8c.18-1.48.35-2.92.39-3.45.09-1.25.27-9.6.09-10.66s0-6.91-.28-7.59-1.36-.68-1.45-1.34,1.91-.39,3.18,0a26.82,26.82,0,0,0,7.81,0c1.82-.39,11.26-.19,12.35.66s3.09,1.25,4.63,2.61S113,9.25,113,12.8s-2.18,8.27-3.18,9.23A9.53,9.53,0,0,0,108.43,24a10.58,10.58,0,0,1-5.15,1.85,8.52,8.52,0,0,1,2.92,1.7c.88,1.21,2.4,3.31,2.71,3.92.45.87,3,5.57,3.36,5.95s3.34,5.22,5.93,6.53l0,0a7.24,7.24,0,0,0,2.34,1.57A8.63,8.63,0,0,0,123.39,46.07Z"/><path class="cls-6" d="M161,2.43c-.19.1-.38.22-.57.33a6.81,6.81,0,0,0-2.49,3.17h0L143.5,39.5c-.08.25-.28.75-.58,1.46s-.65,1.53-1,2.44-.69,1.79-1,2.64a9.62,9.62,0,0,0-.46,2h-.56L121.86,6.77c.19-.64.42-1.79-.15-2.33-.81-.77-3.54-2.78-2.9-2.59s6.26.77,7.17.19S132.25,1,132,2s-1.55,1.92-1,2.78,3.27,9.9,4.27,11,1.81,3.94,2.08,4.51c.12.24.76,1.32,1.46,2.51l3.91,10.06,4.49-11.14,0,0c.53-.89,1-1.74,1.2-2,.37-.58,2.82-7.79,3.36-8.08s2.18-4.8,2.55-5.48a5.39,5.39,0,0,0,0-3.16c-.28-.87-1.73-1.06-1-1.06S157.4,1,158,1.57s2.45.47,2.9.38C161,1.93,161,2.12,161,2.43Z"/><path class="cls-7" d="M220.25,46.07v.65H201.8v-.59l2.64-.87a3.11,3.11,0,0,0,.68-1.92v-.2h0l-2.4-23.36-11.5,21.09a29.16,29.16,0,0,0-1.81,3.91,9.55,9.55,0,0,0-.59,3.25h-.61L172.4,19.94,170,43.15v.19a3,3,0,0,0,.71,1.92,2.12,2.12,0,0,0,1.69.87h.92v.59H160.47v-.65h1A4.48,4.48,0,0,0,164.41,45a4.33,4.33,0,0,0,1.46-2.64l1.86-15.16c.66-3.31,1.38-7,1.48-7.66.18-1.15,1.36-16.14,2.36-16s3.81,6,4.63,6.73,8.27,13.75,8.72,14.32c.29.37,1.89,2.56,3,4.08l2.79,4.85,3.59-6.52c.94-1.11,2-2.39,2.24-2.79.46-.78,7-12.69,7.18-13s2.9-6.14,3.45-6.25,1.09-2.88,1.63-2.3.82,3,1.37,4.42l.35.94,4.29,34.15A4.64,4.64,0,0,0,216.37,45a4.4,4.4,0,0,0,2.89,1.08Z"/><path class="cls-8" d="M33.12,0V11H32.5v-.64a6.5,6.5,0,0,0-1.63-4.66A5.8,5.8,0,0,0,26.47,4H16.14V20.38a63.56,63.56,0,0,1-9.22-5.51V5.93A4.28,4.28,0,0,0,5.72,3,3.61,3.61,0,0,0,3,1.82h-.8V1.17H25.61A20.66,20.66,0,0,0,28.47,1c1-.12,1.94-.27,2.8-.45A9,9,0,0,0,33.12,0Z"/><path class="cls-9" d="M69.77,0V11.39h-.62V10.6a6.77,6.77,0,0,0-1.69-4.81A6,6,0,0,0,63.51,4H52.79V22.91h8.12a5.08,5.08,0,0,0,3.75-1.66,5.66,5.66,0,0,0,1.48-4v-.46h.61v15h-.61v-.51a5.5,5.5,0,0,0-1.48-4,5.09,5.09,0,0,0-3.75-1.63H52.79v5q-4.87-.66-9.22-1.5V5.93A4.28,4.28,0,0,0,42.37,3a3.61,3.61,0,0,0-2.74-1.21h-.8V1.17H62.26A20.55,20.55,0,0,0,65.12,1c1-.12,1.94-.27,2.8-.45A9,9,0,0,0,69.77,0Z"/><path class="cls-10" d="M30.1,16.79v9c-3-.91-5.75-1.89-8.27-2.9h2.43A5.08,5.08,0,0,0,28,21.25a5.66,5.66,0,0,0,1.48-4v-.46Z"/><path class="cls-11" d="M113.37,13.47a14.52,14.52,0,0,1-1.08,5.43A11.75,11.75,0,0,1,109,23.52a10.22,10.22,0,0,1-5.72,2.31,8.84,8.84,0,0,1,3.6,2.35,19.83,19.83,0,0,1,2.67,3.38c0,.05.08.14.18.31-3.42.21-6.9.38-10.46.51-.32-.7-.6-1.33-.85-1.93s-.49-1.24-.61-1.63a8.76,8.76,0,0,0-1.88-3.12,4.37,4.37,0,0,0-2.3-1.24v-.64h1.9a7.64,7.64,0,0,0,3.23-.72,7.4,7.4,0,0,0,2.8-2.34,10.31,10.31,0,0,0,1.72-4.5c.08-.38.15-.84.22-1.36a10.07,10.07,0,0,0,0-1.76c-.13-3.12-.86-5.41-2.22-6.87a6.84,6.84,0,0,0-5-2.24C95.7,4,95.07,4,94.4,4L92.55,4h-1V32.58l-1.13,0q-4.17.06-8.1,0V5.93A4.28,4.28,0,0,0,81.17,3a3.61,3.61,0,0,0-2.73-1.21h-.8V1.17H98.73a22.69,22.69,0,0,1,5.41.65,14.16,14.16,0,0,1,4.71,2.08,10.5,10.5,0,0,1,3.29,3.78A12.34,12.34,0,0,1,113.37,13.47Z"/><path class="cls-12" d="M141.08,28.59c-3,.44-6,.86-9.12,1.23L121.49,5.93h0A6.81,6.81,0,0,0,119,2.76a5.55,5.55,0,0,0-2.92-.94h-.49V1.17h19.56v.65h-.56a2.63,2.63,0,0,0-2.06,1.08,3,3,0,0,0-.21,3h0Z"/><path class="cls-13" d="M163.79,1.17v.65h-.55a5.49,5.49,0,0,0-2.86.94,6.81,6.81,0,0,0-2.49,3.17h0l-9.17,21.45c-1.34.24-2.7.46-4.08.67l8.93-22.12h0c.54-1.31.47-2.32-.18-3a2.9,2.9,0,0,0-2.15-1.08h-.56V1.17Z"/><path class="cls-14" d="M182.77,19.67c-2.91.85-6,1.66-9.13,2.47l-1.24-2.2-.27,2.57-3.93.95L171.05.26h.55Z"/><path class="cls-15" d="M172.4,19.94l1.24,2.2-1.51.37Z"/><path class="cls-16" d="M210.77,10c-2.74,1.13-5.77,2.33-9.09,3.54L209,.26h.56Z"/><path class="cls-17" d="M33.12,0V7.07c-.81-1.44-.67-4.16-.95-5.18s-1.36-.72-4.63,0-13.08.44-13.89.59S7.24,1.61,6,2.19c-.7.31.93.91,1.7,1.73s.41,1.56.41,2.15c0,1.31,0,13.27-.54,16.15-.21,1.11-.42,3.55-.6,6.13V5.93A4.28,4.28,0,0,0,5.72,3,3.61,3.61,0,0,0,3,1.82h-.8V1.17H25.61A20.66,20.66,0,0,0,28.47,1c1-.12,1.94-.27,2.8-.45A9,9,0,0,0,33.12,0Z"/><path class="cls-17" d="M69.77,0V11.39h-.62V10.6a7.32,7.32,0,0,0-.94-3.81c0-.11.07-.19.13-.21.27-.07.41.58.61.72s.68,0,.55-.72-.34-4.82-.41-5.26-.41-.21-.68-.36-2.8.65-3,.57-4.22.15-4.7.15H55.47c-.55,0-4.7.21-5.25.15s-6.4.06-7.15-.15,0,0-.34.29,1.63,2.89,1.57,3.38S44,6.58,43.82,7.59a56.18,56.18,0,0,0,.34,6.27,8,8,0,0,1-.59,2.22V5.93A4.28,4.28,0,0,0,42.37,3a3.61,3.61,0,0,0-2.74-1.21h-.8V1.17H62.26A20.55,20.55,0,0,0,65.12,1c1-.12,1.94-.27,2.8-.45A9,9,0,0,0,69.77,0Z"/><path class="cls-17" d="M113.37,13.47a14.52,14.52,0,0,1-1.08,5.43A11.75,11.75,0,0,1,109,23.52c-.19.16-.38.32-.57.46A9.53,9.53,0,0,1,109.82,22c1-1,3.18-5.67,3.18-9.23S110.63,6.37,109.09,5s-3.54-1.74-4.63-2.61-10.53-1-12.35-.66a26.82,26.82,0,0,1-7.81,0c-1.27-.39-3.27-.68-3.18,0s1.18.66,1.45,1.34.09,6.53.28,7.59,0,9.41-.09,10.66c0,.53-.21,2-.39,3.45V5.93A4.28,4.28,0,0,0,81.17,3a3.61,3.61,0,0,0-2.73-1.21h-.8V1.17H98.73a22.69,22.69,0,0,1,5.41.65,14.16,14.16,0,0,1,4.71,2.08,10.5,10.5,0,0,1,3.29,3.78A12.34,12.34,0,0,1,113.37,13.47Z"/><path class="cls-17" d="M118.2,43.93c-2.59-1.31-5.63-6.21-5.93-6.53s-2.91-5.08-3.36-5.95c-.31-.61-1.83-2.71-2.71-3.92.23.2.46.42.68.65a19.83,19.83,0,0,1,2.67,3.38c0,.09.28.48.71,1.17l1.6,2.57c.63,1,1.3,2.05,2,3.09s1.33,2,1.9,2.74A31.1,31.1,0,0,0,118.2,43.93Z"/><path class="cls-17" d="M138.79,22.71c-.7-1.19-1.34-2.27-1.46-2.51-.27-.57-1.09-3.46-2.08-4.51S131.52,5.6,131,4.73s.72-1.82,1-2.78-5.09-.48-6,.09-6.54,0-7.17-.19,2.09,1.82,2.9,2.59c.57.54.34,1.69.15,2.33l-.37-.84h0A6.81,6.81,0,0,0,119,2.76a5.55,5.55,0,0,0-2.92-.94h-.49V1.17h19.56v.65h-.56a2.63,2.63,0,0,0-2.06,1.08,3,3,0,0,0-.21,3h0Z"/><path class="cls-17" d="M163.79,1.17v.65h-.55a5.13,5.13,0,0,0-2.29.61c0-.31,0-.5-.1-.48-.45.09-2.36.19-2.9-.38s-3.91.28-4.63.28.72.19,1,1.06a5.39,5.39,0,0,1,0,3.16c-.37.68-2,5.2-2.55,5.48s-3,7.5-3.36,8.08c-.16.24-.67,1.09-1.2,2l6.32-15.68h0c.54-1.31.47-2.32-.18-3a2.9,2.9,0,0,0-2.15-1.08h-.56V1.17Z"/><path class="cls-17" d="M187.92,28.61c-1.11-1.52-2.71-3.71-3-4.08-.45-.57-7.9-13.64-8.72-14.32s-3.63-6.63-4.63-6.73-2.18,14.9-2.36,16.05c-.1.63-.82,4.35-1.48,7.66L171.05.26h.55Z"/><path class="cls-17" d="M210.52,8,210.17,7c-.55-1.44-.82-3.84-1.37-4.42s-1.09,2.21-1.63,2.3-3.27,6-3.45,6.25-6.72,12.2-7.18,13c-.24.4-1.3,1.68-2.24,2.79L209,.26h.56Z"/><path class="cls-18" d="M128.21,1.17a23.7,23.7,0,0,0-8.07,2.59h0a5.09,5.09,0,0,0-1.14-1,5.55,5.55,0,0,0-2.92-.94h-.49V1.17Z"/><path class="cls-19" d="M113,10.11c-5.45,5.88-10.47,12-15.64,17.7a7.49,7.49,0,0,0-1.44-2.11,4.37,4.37,0,0,0-2.3-1.24v-.64h1.9a7.64,7.64,0,0,0,3.23-.72,7.4,7.4,0,0,0,2.8-2.34,10.31,10.31,0,0,0,1.72-4.5c.08-.38.15-.84.22-1.36a10.07,10.07,0,0,0,0-1.76c-.13-3.12-.86-5.41-2.22-6.87a6.84,6.84,0,0,0-5-2.24C95.7,4,95.07,4,94.4,4L92.55,4h-1V34c-2,2.32-4.26,5.64-4.3,7.75,0,1.81,3.26,3.63,6.09,5H77.64v-.65h.8a3.61,3.61,0,0,0,2.73-1.21A4.27,4.27,0,0,0,82.37,42V17a22.13,22.13,0,0,0,4.27-6.26,6.82,6.82,0,0,0-1.36-7.53,9,9,0,0,0-3.67-2c5.26.08,10.49.06,15.67,0h1.45a22.69,22.69,0,0,1,5.41.65,14.16,14.16,0,0,1,4.71,2.08,10.5,10.5,0,0,1,3.29,3.78A9.58,9.58,0,0,1,113,10.11Z"/><path class="cls-20" d="M73.52,33.38,70.69,46.72h-20a31.9,31.9,0,0,0,5.61-2.79h4.55a11.12,11.12,0,0,0,5.41-1.27,11.62,11.62,0,0,0,4-3.64,19.42,19.42,0,0,0,2.64-5.63Z"/></g></g></g></svg>